<?xml version="1.0" encoding="UTF-8"?>
<svg xmlns="http://www.w3.org/2000/svg" width="203mm" height="144mm" viewBox="0 0 203 144">
<!-- Red=cut, Blue=score/engrave. All dims in mm. -->
  <text x="6" y="3" font-size="3" fill="#999" font-family="monospace">BOTTOM PANEL 191x132mm (3mm)</text>
  <path d="M 6,6 L 6,3 L 17.235,3 L 17.235,6 L 28.471,6 L 28.471,3 L 39.706,3 L 39.706,6 L 50.941,6 L 50.941,3 L 62.176,3 L 62.176,6 L 73.412,6 L 73.412,3 L 84.647,3 L 84.647,6 L 95.882,6 L 95.882,3 L 107.118,3 L 107.118,6 L 118.353,6 L 118.353,3 L 129.588,3 L 129.588,6 L 140.824,6 L 140.824,3 L 152.059,3 L 152.059,6 L 163.294,6 L 163.294,3 L 174.529,3 L 174.529,6 L 185.765,6 L 185.765,3 L 197,3 L 197,6 L 197,138 L 197,141 L 185.765,141 L 185.765,138 L 174.529,138 L 174.529,141 L 163.294,141 L 163.294,138 L 152.059,138 L 152.059,141 L 140.824,141 L 140.824,138 L 129.588,138 L 129.588,141 L 118.353,141 L 118.353,138 L 107.118,138 L 107.118,141 L 95.882,141 L 95.882,138 L 84.647,138 L 84.647,141 L 73.412,141 L 73.412,138 L 62.176,138 L 62.176,141 L 50.941,141 L 50.941,138 L 39.706,138 L 39.706,141 L 28.471,141 L 28.471,138 L 17.235,138 L 17.235,141 L 6,141 L 6,138 L 6,6 Z" fill="none" stroke="#ff0000" stroke-width="0.1"/>
  <rect x="9" y="9" width="3" height="11.455" fill="none" stroke="#ff0000" stroke-width="0.1"/>
  <rect x="9" y="31.909" width="3" height="11.455" fill="none" stroke="#ff0000" stroke-width="0.1"/>
  <rect x="9" y="54.818" width="3" height="11.455" fill="none" stroke="#ff0000" stroke-width="0.1"/>
  <rect x="9" y="77.727" width="3" height="11.455" fill="none" stroke="#ff0000" stroke-width="0.1"/>
  <rect x="9" y="100.636" width="3" height="11.455" fill="none" stroke="#ff0000" stroke-width="0.1"/>
  <rect x="9" y="123.545" width="3" height="11.455" fill="none" stroke="#ff0000" stroke-width="0.1"/>
  <rect x="191" y="9" width="3" height="11.455" fill="none" stroke="#ff0000" stroke-width="0.1"/>
  <rect x="191" y="31.909" width="3" height="11.455" fill="none" stroke="#ff0000" stroke-width="0.1"/>
  <rect x="191" y="54.818" width="3" height="11.455" fill="none" stroke="#ff0000" stroke-width="0.1"/>
  <rect x="191" y="77.727" width="3" height="11.455" fill="none" stroke="#ff0000" stroke-width="0.1"/>
  <rect x="191" y="100.636" width="3" height="11.455" fill="none" stroke="#ff0000" stroke-width="0.1"/>
  <rect x="191" y="123.545" width="3" height="11.455" fill="none" stroke="#ff0000" stroke-width="0.1"/>
  <circle cx="17" cy="17" r="2.25" fill="none" stroke="#ff0000" stroke-width="0.1"/>
  <circle cx="17" cy="17" r="5" fill="none" stroke="#0000ff" stroke-width="0.1"/>
  <circle cx="186" cy="17" r="2.25" fill="none" stroke="#ff0000" stroke-width="0.1"/>
  <circle cx="186" cy="17" r="5" fill="none" stroke="#0000ff" stroke-width="0.1"/>
  <circle cx="17" cy="127" r="2.25" fill="none" stroke="#ff0000" stroke-width="0.1"/>
  <circle cx="17" cy="127" r="5" fill="none" stroke="#0000ff" stroke-width="0.1"/>
  <circle cx="186" cy="127" r="2.25" fill="none" stroke="#ff0000" stroke-width="0.1"/>
  <circle cx="186" cy="127" r="5" fill="none" stroke="#0000ff" stroke-width="0.1"/>
  <circle cx="77" cy="90.5" r="1.35" fill="none" stroke="#ff0000" stroke-width="0.1"/>
  <circle cx="77" cy="32.5" r="1.35" fill="none" stroke="#ff0000" stroke-width="0.1"/>
  <circle cx="126" cy="90.5" r="1.35" fill="none" stroke="#ff0000" stroke-width="0.1"/>
  <circle cx="126" cy="32.5" r="1.35" fill="none" stroke="#ff0000" stroke-width="0.1"/>
  <rect x="81.5" y="24" width="18" height="2.5" rx="1.25" ry="1.25" fill="none" stroke="#ff0000" stroke-width="0.1"/>
  <rect x="109.5" y="24" width="18" height="2.5" rx="1.25" ry="1.25" fill="none" stroke="#ff0000" stroke-width="0.1"/>
  <rect x="81.5" y="49" width="18" height="2.5" rx="1.25" ry="1.25" fill="none" stroke="#ff0000" stroke-width="0.1"/>
  <rect x="109.5" y="49" width="18" height="2.5" rx="1.25" ry="1.25" fill="none" stroke="#ff0000" stroke-width="0.1"/>
  <rect x="81.5" y="74" width="18" height="2.5" rx="1.25" ry="1.25" fill="none" stroke="#ff0000" stroke-width="0.1"/>
  <rect x="109.5" y="74" width="18" height="2.5" rx="1.25" ry="1.25" fill="none" stroke="#ff0000" stroke-width="0.1"/>
  <rect x="73.5" y="9" width="56" height="85" fill="none" stroke="#0000ff" stroke-width="0.1"/>
  <text x="75.5" y="19" font-size="3" fill="#999" font-family="monospace">Pi5 (USB-A/RJ45 end at front)</text>
</svg>
