<?xml version="1.0" encoding="UTF-8"?>
<svg xmlns="http://www.w3.org/2000/svg" width="209mm" height="135mm" viewBox="0 0 209 135">
<!-- Red=cut, Blue=score/engrave. All dims in mm. -->
  <text x="7.5" y="4.5" font-size="3" fill="#999" font-family="monospace">BOTTOM PANEL 194x120mm (5mm)</text>
  <path d="M 7.5,7.5 L 7.5,4.5 L 18.912,4.5 L 18.912,7.5 L 30.324,7.5 L 30.324,4.5 L 41.735,4.5 L 41.735,7.5 L 53.147,7.5 L 53.147,4.5 L 64.559,4.5 L 64.559,7.5 L 75.971,7.5 L 75.971,4.5 L 87.382,4.5 L 87.382,7.5 L 98.794,7.5 L 98.794,4.5 L 110.206,4.5 L 110.206,7.5 L 121.618,7.5 L 121.618,4.5 L 133.029,4.5 L 133.029,7.5 L 144.441,7.5 L 144.441,4.5 L 155.853,4.5 L 155.853,7.5 L 167.265,7.5 L 167.265,4.5 L 178.676,4.5 L 178.676,7.5 L 190.088,7.5 L 190.088,4.5 L 201.5,4.5 L 201.5,7.5 L 201.5,127.5 L 201.5,130.5 L 190.088,130.5 L 190.088,127.5 L 178.676,127.5 L 178.676,130.5 L 167.265,130.5 L 167.265,127.5 L 155.853,127.5 L 155.853,130.5 L 144.441,130.5 L 144.441,127.5 L 133.029,127.5 L 133.029,130.5 L 121.618,130.5 L 121.618,127.5 L 110.206,127.5 L 110.206,130.5 L 98.794,130.5 L 98.794,127.5 L 87.382,127.5 L 87.382,130.5 L 75.971,130.5 L 75.971,127.5 L 64.559,127.5 L 64.559,130.5 L 53.147,130.5 L 53.147,127.5 L 41.735,127.5 L 41.735,130.5 L 30.324,130.5 L 30.324,127.5 L 18.912,127.5 L 18.912,130.5 L 7.5,130.5 L 7.5,127.5 L 7.5,7.5 Z" fill="none" stroke="#ff0000" stroke-width="0.1"/>
  <rect x="10.5" y="7.5" width="4.5" height="10.909" fill="none" stroke="#ff0000" stroke-width="0.1"/>
  <rect x="10.5" y="29.318" width="4.5" height="10.909" fill="none" stroke="#ff0000" stroke-width="0.1"/>
  <rect x="10.5" y="51.136" width="4.5" height="10.909" fill="none" stroke="#ff0000" stroke-width="0.1"/>
  <rect x="10.5" y="72.955" width="4.5" height="10.909" fill="none" stroke="#ff0000" stroke-width="0.1"/>
  <rect x="10.5" y="94.773" width="4.5" height="10.909" fill="none" stroke="#ff0000" stroke-width="0.1"/>
  <rect x="10.5" y="116.591" width="4.5" height="10.909" fill="none" stroke="#ff0000" stroke-width="0.1"/>
  <rect x="194" y="7.5" width="4.5" height="10.909" fill="none" stroke="#ff0000" stroke-width="0.1"/>
  <rect x="194" y="29.318" width="4.5" height="10.909" fill="none" stroke="#ff0000" stroke-width="0.1"/>
  <rect x="194" y="51.136" width="4.5" height="10.909" fill="none" stroke="#ff0000" stroke-width="0.1"/>
  <rect x="194" y="72.955" width="4.5" height="10.909" fill="none" stroke="#ff0000" stroke-width="0.1"/>
  <rect x="194" y="94.773" width="4.5" height="10.909" fill="none" stroke="#ff0000" stroke-width="0.1"/>
  <rect x="194" y="116.591" width="4.5" height="10.909" fill="none" stroke="#ff0000" stroke-width="0.1"/>
  <circle cx="20" cy="20" r="2.25" fill="none" stroke="#ff0000" stroke-width="0.1"/>
  <circle cx="20" cy="20" r="5" fill="none" stroke="#0000ff" stroke-width="0.1"/>
  <circle cx="189" cy="20" r="2.25" fill="none" stroke="#ff0000" stroke-width="0.1"/>
  <circle cx="189" cy="20" r="5" fill="none" stroke="#0000ff" stroke-width="0.1"/>
  <circle cx="20" cy="115" r="2.25" fill="none" stroke="#ff0000" stroke-width="0.1"/>
  <circle cx="20" cy="115" r="5" fill="none" stroke="#0000ff" stroke-width="0.1"/>
  <circle cx="189" cy="115" r="2.25" fill="none" stroke="#ff0000" stroke-width="0.1"/>
  <circle cx="189" cy="115" r="5" fill="none" stroke="#0000ff" stroke-width="0.1"/>
  <circle cx="80" cy="91" r="1.35" fill="none" stroke="#ff0000" stroke-width="0.1"/>
  <circle cx="80" cy="33" r="1.35" fill="none" stroke="#ff0000" stroke-width="0.1"/>
  <circle cx="129" cy="91" r="1.35" fill="none" stroke="#ff0000" stroke-width="0.1"/>
  <circle cx="129" cy="33" r="1.35" fill="none" stroke="#ff0000" stroke-width="0.1"/>
  <rect x="26" y="18" width="22" height="3" rx="1.5" ry="1.5" fill="none" stroke="#ff0000" stroke-width="0.1"/>
  <rect x="26" y="26" width="22" height="3" rx="1.5" ry="1.5" fill="none" stroke="#ff0000" stroke-width="0.1"/>
  <rect x="26" y="34" width="22" height="3" rx="1.5" ry="1.5" fill="none" stroke="#ff0000" stroke-width="0.1"/>
  <rect x="26" y="42" width="22" height="3" rx="1.5" ry="1.5" fill="none" stroke="#ff0000" stroke-width="0.1"/>
  <rect x="26" y="50" width="22" height="3" rx="1.5" ry="1.5" fill="none" stroke="#ff0000" stroke-width="0.1"/>
  <rect x="26" y="58" width="22" height="3" rx="1.5" ry="1.5" fill="none" stroke="#ff0000" stroke-width="0.1"/>
  <rect x="26" y="66" width="22" height="3" rx="1.5" ry="1.5" fill="none" stroke="#ff0000" stroke-width="0.1"/>
  <rect x="26" y="74" width="22" height="3" rx="1.5" ry="1.5" fill="none" stroke="#ff0000" stroke-width="0.1"/>
  <rect x="26" y="82" width="22" height="3" rx="1.5" ry="1.5" fill="none" stroke="#ff0000" stroke-width="0.1"/>
  <rect x="26" y="90" width="22" height="3" rx="1.5" ry="1.5" fill="none" stroke="#ff0000" stroke-width="0.1"/>
  <rect x="26" y="98" width="22" height="3" rx="1.5" ry="1.5" fill="none" stroke="#ff0000" stroke-width="0.1"/>
  <rect x="26" y="106" width="22" height="3" rx="1.5" ry="1.5" fill="none" stroke="#ff0000" stroke-width="0.1"/>
  <rect x="26" y="114" width="22" height="3" rx="1.5" ry="1.5" fill="none" stroke="#ff0000" stroke-width="0.1"/>
  <rect x="53" y="18" width="22" height="3" rx="1.5" ry="1.5" fill="none" stroke="#ff0000" stroke-width="0.1"/>
  <rect x="53" y="26" width="22" height="3" rx="1.5" ry="1.5" fill="none" stroke="#ff0000" stroke-width="0.1"/>
  <rect x="53" y="34" width="22" height="3" rx="1.5" ry="1.5" fill="none" stroke="#ff0000" stroke-width="0.1"/>
  <rect x="53" y="42" width="22" height="3" rx="1.5" ry="1.5" fill="none" stroke="#ff0000" stroke-width="0.1"/>
  <rect x="53" y="50" width="22" height="3" rx="1.5" ry="1.5" fill="none" stroke="#ff0000" stroke-width="0.1"/>
  <rect x="53" y="58" width="22" height="3" rx="1.5" ry="1.5" fill="none" stroke="#ff0000" stroke-width="0.1"/>
  <rect x="53" y="66" width="22" height="3" rx="1.5" ry="1.5" fill="none" stroke="#ff0000" stroke-width="0.1"/>
  <rect x="53" y="74" width="22" height="3" rx="1.5" ry="1.5" fill="none" stroke="#ff0000" stroke-width="0.1"/>
  <rect x="53" y="82" width="22" height="3" rx="1.5" ry="1.5" fill="none" stroke="#ff0000" stroke-width="0.1"/>
  <rect x="53" y="90" width="22" height="3" rx="1.5" ry="1.5" fill="none" stroke="#ff0000" stroke-width="0.1"/>
  <rect x="53" y="98" width="22" height="3" rx="1.5" ry="1.5" fill="none" stroke="#ff0000" stroke-width="0.1"/>
  <rect x="53" y="106" width="22" height="3" rx="1.5" ry="1.5" fill="none" stroke="#ff0000" stroke-width="0.1"/>
  <rect x="53" y="114" width="22" height="3" rx="1.5" ry="1.5" fill="none" stroke="#ff0000" stroke-width="0.1"/>
  <rect x="80" y="18" width="22" height="3" rx="1.5" ry="1.5" fill="none" stroke="#ff0000" stroke-width="0.1"/>
  <rect x="80" y="26" width="22" height="3" rx="1.5" ry="1.5" fill="none" stroke="#ff0000" stroke-width="0.1"/>
  <rect x="80" y="42" width="22" height="3" rx="1.5" ry="1.5" fill="none" stroke="#ff0000" stroke-width="0.1"/>
  <rect x="80" y="50" width="22" height="3" rx="1.5" ry="1.5" fill="none" stroke="#ff0000" stroke-width="0.1"/>
  <rect x="80" y="58" width="22" height="3" rx="1.5" ry="1.5" fill="none" stroke="#ff0000" stroke-width="0.1"/>
  <rect x="80" y="66" width="22" height="3" rx="1.5" ry="1.5" fill="none" stroke="#ff0000" stroke-width="0.1"/>
  <rect x="80" y="74" width="22" height="3" rx="1.5" ry="1.5" fill="none" stroke="#ff0000" stroke-width="0.1"/>
  <rect x="80" y="82" width="22" height="3" rx="1.5" ry="1.5" fill="none" stroke="#ff0000" stroke-width="0.1"/>
  <rect x="80" y="114" width="22" height="3" rx="1.5" ry="1.5" fill="none" stroke="#ff0000" stroke-width="0.1"/>
  <rect x="107" y="18" width="22" height="3" rx="1.5" ry="1.5" fill="none" stroke="#ff0000" stroke-width="0.1"/>
  <rect x="107" y="26" width="22" height="3" rx="1.5" ry="1.5" fill="none" stroke="#ff0000" stroke-width="0.1"/>
  <rect x="107" y="42" width="22" height="3" rx="1.5" ry="1.5" fill="none" stroke="#ff0000" stroke-width="0.1"/>
  <rect x="107" y="50" width="22" height="3" rx="1.5" ry="1.5" fill="none" stroke="#ff0000" stroke-width="0.1"/>
  <rect x="107" y="58" width="22" height="3" rx="1.5" ry="1.5" fill="none" stroke="#ff0000" stroke-width="0.1"/>
  <rect x="107" y="66" width="22" height="3" rx="1.5" ry="1.5" fill="none" stroke="#ff0000" stroke-width="0.1"/>
  <rect x="107" y="74" width="22" height="3" rx="1.5" ry="1.5" fill="none" stroke="#ff0000" stroke-width="0.1"/>
  <rect x="107" y="82" width="22" height="3" rx="1.5" ry="1.5" fill="none" stroke="#ff0000" stroke-width="0.1"/>
  <rect x="107" y="114" width="22" height="3" rx="1.5" ry="1.5" fill="none" stroke="#ff0000" stroke-width="0.1"/>
  <rect x="134" y="18" width="22" height="3" rx="1.5" ry="1.5" fill="none" stroke="#ff0000" stroke-width="0.1"/>
  <rect x="134" y="26" width="22" height="3" rx="1.5" ry="1.5" fill="none" stroke="#ff0000" stroke-width="0.1"/>
  <rect x="134" y="34" width="22" height="3" rx="1.5" ry="1.5" fill="none" stroke="#ff0000" stroke-width="0.1"/>
  <rect x="134" y="42" width="22" height="3" rx="1.5" ry="1.5" fill="none" stroke="#ff0000" stroke-width="0.1"/>
  <rect x="134" y="50" width="22" height="3" rx="1.5" ry="1.5" fill="none" stroke="#ff0000" stroke-width="0.1"/>
  <rect x="134" y="58" width="22" height="3" rx="1.5" ry="1.5" fill="none" stroke="#ff0000" stroke-width="0.1"/>
  <rect x="134" y="66" width="22" height="3" rx="1.5" ry="1.5" fill="none" stroke="#ff0000" stroke-width="0.1"/>
  <rect x="134" y="74" width="22" height="3" rx="1.5" ry="1.5" fill="none" stroke="#ff0000" stroke-width="0.1"/>
  <rect x="134" y="82" width="22" height="3" rx="1.5" ry="1.5" fill="none" stroke="#ff0000" stroke-width="0.1"/>
  <rect x="134" y="90" width="22" height="3" rx="1.5" ry="1.5" fill="none" stroke="#ff0000" stroke-width="0.1"/>
  <rect x="134" y="98" width="22" height="3" rx="1.5" ry="1.5" fill="none" stroke="#ff0000" stroke-width="0.1"/>
  <rect x="134" y="106" width="22" height="3" rx="1.5" ry="1.5" fill="none" stroke="#ff0000" stroke-width="0.1"/>
  <rect x="134" y="114" width="22" height="3" rx="1.5" ry="1.5" fill="none" stroke="#ff0000" stroke-width="0.1"/>
  <rect x="161" y="18" width="22" height="3" rx="1.5" ry="1.5" fill="none" stroke="#ff0000" stroke-width="0.1"/>
  <rect x="161" y="26" width="22" height="3" rx="1.5" ry="1.5" fill="none" stroke="#ff0000" stroke-width="0.1"/>
  <rect x="161" y="34" width="22" height="3" rx="1.5" ry="1.5" fill="none" stroke="#ff0000" stroke-width="0.1"/>
  <rect x="161" y="42" width="22" height="3" rx="1.5" ry="1.5" fill="none" stroke="#ff0000" stroke-width="0.1"/>
  <rect x="161" y="50" width="22" height="3" rx="1.5" ry="1.5" fill="none" stroke="#ff0000" stroke-width="0.1"/>
  <rect x="161" y="58" width="22" height="3" rx="1.5" ry="1.5" fill="none" stroke="#ff0000" stroke-width="0.1"/>
  <rect x="161" y="66" width="22" height="3" rx="1.5" ry="1.5" fill="none" stroke="#ff0000" stroke-width="0.1"/>
  <rect x="161" y="74" width="22" height="3" rx="1.5" ry="1.5" fill="none" stroke="#ff0000" stroke-width="0.1"/>
  <rect x="161" y="82" width="22" height="3" rx="1.5" ry="1.5" fill="none" stroke="#ff0000" stroke-width="0.1"/>
  <rect x="161" y="90" width="22" height="3" rx="1.5" ry="1.5" fill="none" stroke="#ff0000" stroke-width="0.1"/>
  <rect x="161" y="98" width="22" height="3" rx="1.5" ry="1.5" fill="none" stroke="#ff0000" stroke-width="0.1"/>
  <rect x="161" y="106" width="22" height="3" rx="1.5" ry="1.5" fill="none" stroke="#ff0000" stroke-width="0.1"/>
  <rect x="161" y="114" width="22" height="3" rx="1.5" ry="1.5" fill="none" stroke="#ff0000" stroke-width="0.1"/>
  <rect x="97.525" y="89.5" width="14" height="20" rx="3" ry="3" fill="none" stroke="#ff0000" stroke-width="0.1"/>
  <text x="97.525" y="88" font-size="2" fill="#999" font-family="monospace">SD card</text>
  <rect x="76.5" y="9.5" width="56" height="85" fill="none" stroke="#0000ff" stroke-width="0.1"/>
  <text x="78.5" y="19.5" font-size="3" fill="#999" font-family="monospace">Pi5 (ports at front)</text>
</svg>
