<?xml version="1.0" encoding="UTF-8"?>
<svg xmlns="http://www.w3.org/2000/svg" width="207mm" height="132mm" viewBox="0 0 207 132">
<!-- Red=cut, Blue=score/engrave. All dims in mm. -->
  <text x="6" y="3" font-size="3" fill="#999" font-family="monospace">TOP PANEL 195x120mm (3mm)</text>
  <path d="M 6,6 L 6,3 L 17.471,3 L 17.471,6 L 28.941,6 L 28.941,3 L 40.412,3 L 40.412,6 L 51.882,6 L 51.882,3 L 63.353,3 L 63.353,6 L 74.824,6 L 74.824,3 L 86.294,3 L 86.294,6 L 97.765,6 L 97.765,3 L 109.235,3 L 109.235,6 L 120.706,6 L 120.706,3 L 132.176,3 L 132.176,6 L 143.647,6 L 143.647,3 L 155.118,3 L 155.118,6 L 166.588,6 L 166.588,3 L 178.059,3 L 178.059,6 L 189.529,6 L 189.529,3 L 201,3 L 201,6 L 201,126 L 201,129 L 189.529,129 L 189.529,126 L 178.059,126 L 178.059,129 L 166.588,129 L 166.588,126 L 155.118,126 L 155.118,129 L 143.647,129 L 143.647,126 L 132.176,126 L 132.176,129 L 120.706,129 L 120.706,126 L 109.235,126 L 109.235,129 L 97.765,129 L 97.765,126 L 86.294,126 L 86.294,129 L 74.824,129 L 74.824,126 L 63.353,126 L 63.353,129 L 51.882,129 L 51.882,126 L 40.412,126 L 40.412,129 L 28.941,129 L 28.941,126 L 17.471,126 L 17.471,129 L 6,129 L 6,126 L 6,6 Z" fill="none" stroke="#ff0000" stroke-width="0.1"/>
  <rect x="9" y="6" width="5" height="10.909" fill="none" stroke="#ff0000" stroke-width="0.1"/>
  <rect x="9" y="27.818" width="5" height="10.909" fill="none" stroke="#ff0000" stroke-width="0.1"/>
  <rect x="9" y="49.636" width="5" height="10.909" fill="none" stroke="#ff0000" stroke-width="0.1"/>
  <rect x="9" y="71.455" width="5" height="10.909" fill="none" stroke="#ff0000" stroke-width="0.1"/>
  <rect x="9" y="93.273" width="5" height="10.909" fill="none" stroke="#ff0000" stroke-width="0.1"/>
  <rect x="9" y="115.091" width="5" height="10.909" fill="none" stroke="#ff0000" stroke-width="0.1"/>
  <rect x="193" y="6" width="5" height="10.909" fill="none" stroke="#ff0000" stroke-width="0.1"/>
  <rect x="193" y="27.818" width="5" height="10.909" fill="none" stroke="#ff0000" stroke-width="0.1"/>
  <rect x="193" y="49.636" width="5" height="10.909" fill="none" stroke="#ff0000" stroke-width="0.1"/>
  <rect x="193" y="71.455" width="5" height="10.909" fill="none" stroke="#ff0000" stroke-width="0.1"/>
  <rect x="193" y="93.273" width="5" height="10.909" fill="none" stroke="#ff0000" stroke-width="0.1"/>
  <rect x="193" y="115.091" width="5" height="10.909" fill="none" stroke="#ff0000" stroke-width="0.1"/>
  <circle cx="19" cy="19" r="2.25" fill="none" stroke="#ff0000" stroke-width="0.1"/>
  <circle cx="19" cy="19" r="5" fill="none" stroke="#0000ff" stroke-width="0.1"/>
  <circle cx="188" cy="19" r="2.25" fill="none" stroke="#ff0000" stroke-width="0.1"/>
  <circle cx="188" cy="19" r="5" fill="none" stroke="#0000ff" stroke-width="0.1"/>
  <circle cx="19" cy="113" r="2.25" fill="none" stroke="#ff0000" stroke-width="0.1"/>
  <circle cx="19" cy="113" r="5" fill="none" stroke="#0000ff" stroke-width="0.1"/>
  <circle cx="188" cy="113" r="2.25" fill="none" stroke="#ff0000" stroke-width="0.1"/>
  <circle cx="188" cy="113" r="5" fill="none" stroke="#0000ff" stroke-width="0.1"/>
  <path d="M 112.321,67.788 L 111.43,70.257 L 109.864,72.364 L 107.757,73.93 L 105.288,74.821 L 104.692,71.88 L 106.338,71.286 L 107.743,70.243 L 108.786,68.838 L 109.38,67.192 L 112.321,67.788 Z" fill="none" stroke="#ff0000" stroke-width="0.1"/>
  <path d="M 101.712,74.821 L 99.243,73.93 L 97.136,72.364 L 95.57,70.257 L 94.679,67.788 L 97.62,67.192 L 98.214,68.838 L 99.257,70.243 L 100.662,71.286 L 102.308,71.88 L 101.712,74.821 Z" fill="none" stroke="#ff0000" stroke-width="0.1"/>
  <path d="M 94.679,64.212 L 95.57,61.743 L 97.136,59.636 L 99.243,58.07 L 101.712,57.179 L 102.308,60.12 L 100.662,60.714 L 99.257,61.757 L 98.214,63.162 L 97.62,64.808 L 94.679,64.212 Z" fill="none" stroke="#ff0000" stroke-width="0.1"/>
  <path d="M 105.288,57.179 L 107.757,58.07 L 109.864,59.636 L 111.43,61.743 L 112.321,64.212 L 109.38,64.808 L 108.786,63.162 L 107.743,61.757 L 106.338,60.714 L 104.692,60.12 L 105.288,57.179 Z" fill="none" stroke="#ff0000" stroke-width="0.1"/>
  <path d="M 119.414,67.652 L 119.035,69.828 L 118.36,71.931 L 117.402,73.92 L 116.179,75.759 L 114.714,77.412 L 112.612,75.272 L 113.802,73.929 L 114.795,72.435 L 115.574,70.819 L 116.122,69.11 L 116.431,67.342 L 119.414,67.652 Z" fill="none" stroke="#ff0000" stroke-width="0.1"/>
  <path d="M 112.131,79.473 L 110.193,80.533 L 108.128,81.316 L 105.975,81.807 L 103.775,81.998 L 101.569,81.883 L 101.931,78.905 L 103.723,78.998 L 105.511,78.843 L 107.261,78.444 L 108.938,77.808 L 110.512,76.946 L 112.131,79.473 Z" fill="none" stroke="#ff0000" stroke-width="0.1"/>
  <path d="M 98.348,81.148 L 96.311,80.294 L 94.411,79.168 L 92.685,77.791 L 91.164,76.189 L 89.878,74.394 L 92.432,72.82 L 93.477,74.279 L 94.713,75.58 L 96.115,76.699 L 97.659,77.614 L 99.314,78.308 L 98.348,81.148 Z" fill="none" stroke="#ff0000" stroke-width="0.1"/>
  <path d="M 88.445,71.416 L 87.842,69.292 L 87.538,67.104 L 87.538,64.896 L 87.842,62.708 L 88.445,60.584 L 91.268,61.599 L 90.778,63.325 L 90.531,65.103 L 90.531,66.897 L 90.778,68.675 L 91.268,70.401 L 88.445,71.416 Z" fill="none" stroke="#ff0000" stroke-width="0.1"/>
  <path d="M 89.878,57.606 L 91.164,55.811 L 92.685,54.209 L 94.411,52.832 L 96.311,51.706 L 98.348,50.852 L 99.314,53.692 L 97.659,54.386 L 96.115,55.301 L 94.713,56.42 L 93.477,57.721 L 92.432,59.18 L 89.878,57.606 Z" fill="none" stroke="#ff0000" stroke-width="0.1"/>
  <path d="M 101.569,50.117 L 103.775,50.002 L 105.975,50.193 L 108.128,50.684 L 110.193,51.467 L 112.131,52.527 L 110.512,55.054 L 108.938,54.192 L 107.261,53.556 L 105.511,53.157 L 103.723,53.002 L 101.931,53.095 L 101.569,50.117 Z" fill="none" stroke="#ff0000" stroke-width="0.1"/>
  <path d="M 114.714,54.588 L 116.179,56.241 L 117.402,58.08 L 118.36,60.069 L 119.035,62.172 L 119.414,64.348 L 116.431,64.658 L 116.122,62.89 L 115.574,61.181 L 114.795,59.565 L 113.802,58.071 L 112.612,56.728 L 114.714,54.588 Z" fill="none" stroke="#ff0000" stroke-width="0.1"/>
  <path d="M 126.444,67.603 L 126.138,70.065 L 125.568,72.48 L 124.742,74.819 L 123.669,77.056 L 121.038,75.614 L 121.971,73.669 L 122.69,71.635 L 123.185,69.535 L 123.451,67.394 L 126.444,67.603 Z" fill="none" stroke="#ff0000" stroke-width="0.1"/>
  <path d="M 121.935,79.753 L 120.346,81.659 L 118.562,83.382 L 116.602,84.903 L 114.49,86.205 L 113.056,83.569 L 114.893,82.438 L 116.597,81.115 L 118.149,79.616 L 119.53,77.959 L 121.935,79.753 Z" fill="none" stroke="#ff0000" stroke-width="0.1"/>
  <path d="M 111.573,87.537 L 109.206,88.281 L 106.773,88.766 L 104.302,88.986 L 101.822,88.939 L 102.041,85.947 L 104.198,85.988 L 106.346,85.796 L 108.462,85.375 L 110.52,84.728 L 111.573,87.537 Z" fill="none" stroke="#ff0000" stroke-width="0.1"/>
  <path d="M 98.648,88.482 L 96.254,87.829 L 93.945,86.922 L 91.748,85.771 L 89.687,84.39 L 91.488,81.991 L 93.281,83.192 L 95.192,84.193 L 97.199,84.982 L 99.281,85.55 L 98.648,88.482 Z" fill="none" stroke="#ff0000" stroke-width="0.1"/>
  <path d="M 87.263,82.29 L 85.603,80.446 L 84.151,78.435 L 82.924,76.278 L 81.937,74.002 L 84.75,72.959 L 85.608,74.938 L 86.675,76.813 L 87.937,78.562 L 89.381,80.165 L 87.263,82.29 Z" fill="none" stroke="#ff0000" stroke-width="0.1"/>
  <path d="M 81.034,70.926 L 80.634,68.477 L 80.5,66 L 80.634,63.523 L 81.034,61.074 L 83.964,61.717 L 83.616,63.846 L 83.5,66 L 83.616,68.154 L 83.964,70.283 L 81.034,70.926 Z" fill="none" stroke="#ff0000" stroke-width="0.1"/>
  <path d="M 81.937,57.998 L 82.924,55.722 L 84.151,53.565 L 85.603,51.554 L 87.263,49.71 L 89.381,51.835 L 87.937,53.438 L 86.675,55.187 L 85.608,57.062 L 84.75,59.041 L 81.937,57.998 Z" fill="none" stroke="#ff0000" stroke-width="0.1"/>
  <path d="M 89.687,47.61 L 91.748,46.229 L 93.945,45.078 L 96.254,44.171 L 98.648,43.518 L 99.281,46.45 L 97.199,47.018 L 95.192,47.807 L 93.281,48.808 L 91.488,50.009 L 89.687,47.61 Z" fill="none" stroke="#ff0000" stroke-width="0.1"/>
  <path d="M 101.822,43.061 L 104.302,43.014 L 106.773,43.234 L 109.206,43.719 L 111.573,44.463 L 110.52,47.272 L 108.462,46.625 L 106.346,46.204 L 104.198,46.012 L 102.041,46.053 L 101.822,43.061 Z" fill="none" stroke="#ff0000" stroke-width="0.1"/>
  <path d="M 114.49,45.795 L 116.602,47.097 L 118.562,48.618 L 120.346,50.341 L 121.935,52.247 L 119.53,54.041 L 118.149,52.384 L 116.597,50.885 L 114.893,49.562 L 113.056,48.431 L 114.49,45.795 Z" fill="none" stroke="#ff0000" stroke-width="0.1"/>
  <path d="M 123.669,54.944 L 124.742,57.181 L 125.568,59.52 L 126.138,61.935 L 126.444,64.397 L 123.451,64.606 L 123.185,62.465 L 122.69,60.365 L 121.971,58.331 L 121.038,56.386 L 123.669,54.944 Z" fill="none" stroke="#ff0000" stroke-width="0.1"/>
  <path d="M 133.458,67.578 L 133.213,70.142 L 132.748,72.676 L 132.067,75.16 L 131.176,77.577 L 128.409,76.419 L 129.211,74.244 L 129.823,72.008 L 130.241,69.728 L 130.463,67.42 L 133.458,67.578 Z" fill="none" stroke="#ff0000" stroke-width="0.1"/>
  <path d="M 129.807,80.42 L 128.473,82.624 L 126.955,84.705 L 125.264,86.648 L 123.413,88.438 L 121.421,86.195 L 123.088,84.583 L 124.609,82.834 L 125.976,80.961 L 127.176,78.978 L 129.807,80.42 Z" fill="none" stroke="#ff0000" stroke-width="0.1"/>
  <path d="M 120.945,90.406 L 118.787,91.813 L 116.517,93.029 L 114.15,94.046 L 111.705,94.856 L 110.885,91.971 L 113.085,91.241 L 115.215,90.326 L 117.258,89.232 L 119.2,87.966 L 120.945,90.406 Z" fill="none" stroke="#ff0000" stroke-width="0.1"/>
  <path d="M 108.628,95.559 L 106.073,95.889 L 103.5,96 L 100.927,95.889 L 98.372,95.559 L 98.885,92.603 L 101.184,92.9 L 103.5,93 L 105.816,92.9 L 108.115,92.603 L 108.628,95.559 Z" fill="none" stroke="#ff0000" stroke-width="0.1"/>
  <path d="M 95.295,94.856 L 92.85,94.046 L 90.483,93.029 L 88.213,91.813 L 86.055,90.406 L 87.8,87.966 L 89.742,89.232 L 91.785,90.326 L 93.915,91.241 L 96.115,91.971 L 95.295,94.856 Z" fill="none" stroke="#ff0000" stroke-width="0.1"/>
  <path d="M 83.587,88.438 L 81.736,86.648 L 80.045,84.705 L 78.527,82.624 L 77.193,80.42 L 79.824,78.978 L 81.024,80.961 L 82.391,82.834 L 83.912,84.583 L 85.579,86.195 L 83.587,88.438 Z" fill="none" stroke="#ff0000" stroke-width="0.1"/>
  <path d="M 75.824,77.577 L 74.933,75.16 L 74.252,72.676 L 73.787,70.142 L 73.542,67.578 L 76.537,67.42 L 76.759,69.728 L 77.177,72.008 L 77.789,74.244 L 78.591,76.419 L 75.824,77.577 Z" fill="none" stroke="#ff0000" stroke-width="0.1"/>
  <path d="M 73.542,64.422 L 73.787,61.858 L 74.252,59.324 L 74.933,56.84 L 75.824,54.423 L 78.591,55.581 L 77.789,57.756 L 77.177,59.992 L 76.759,62.272 L 76.537,64.58 L 73.542,64.422 Z" fill="none" stroke="#ff0000" stroke-width="0.1"/>
  <path d="M 77.193,51.58 L 78.527,49.376 L 80.045,47.295 L 81.736,45.352 L 83.587,43.562 L 85.579,45.805 L 83.912,47.417 L 82.391,49.166 L 81.024,51.039 L 79.824,53.022 L 77.193,51.58 Z" fill="none" stroke="#ff0000" stroke-width="0.1"/>
  <path d="M 86.055,41.594 L 88.213,40.187 L 90.483,38.971 L 92.85,37.954 L 95.295,37.144 L 96.115,40.029 L 93.915,40.759 L 91.785,41.674 L 89.742,42.768 L 87.8,44.034 L 86.055,41.594 Z" fill="none" stroke="#ff0000" stroke-width="0.1"/>
  <path d="M 98.372,36.441 L 100.927,36.111 L 103.5,36 L 106.073,36.111 L 108.628,36.441 L 108.115,39.397 L 105.816,39.1 L 103.5,39 L 101.184,39.1 L 98.885,39.397 L 98.372,36.441 Z" fill="none" stroke="#ff0000" stroke-width="0.1"/>
  <path d="M 111.705,37.144 L 114.15,37.954 L 116.517,38.971 L 118.787,40.187 L 120.945,41.594 L 119.2,44.034 L 117.258,42.768 L 115.215,41.674 L 113.085,40.759 L 110.885,40.029 L 111.705,37.144 Z" fill="none" stroke="#ff0000" stroke-width="0.1"/>
  <path d="M 123.413,43.562 L 125.264,45.352 L 126.955,47.295 L 128.473,49.376 L 129.807,51.58 L 127.176,53.022 L 125.976,51.039 L 124.609,49.166 L 123.088,47.417 L 121.421,45.805 L 123.413,43.562 Z" fill="none" stroke="#ff0000" stroke-width="0.1"/>
  <path d="M 131.176,54.423 L 132.067,56.84 L 132.748,59.324 L 133.213,61.858 L 133.458,64.422 L 130.463,64.58 L 130.241,62.272 L 129.823,59.992 L 129.211,57.756 L 128.409,55.581 L 131.176,54.423 Z" fill="none" stroke="#ff0000" stroke-width="0.1"/>
  <path d="M 140.467,67.563 L 140.283,70.003 L 139.938,72.425 L 139.434,74.819 L 138.772,77.175 L 135.912,76.269 L 136.52,74.104 L 136.983,71.904 L 137.3,69.678 L 137.47,67.436 L 140.467,67.563 Z" fill="none" stroke="#ff0000" stroke-width="0.1"/>
  <path d="M 137.703,80.112 L 136.696,82.342 L 135.543,84.5 L 134.25,86.577 L 132.823,88.565 L 130.445,86.735 L 131.757,84.909 L 132.945,83 L 134.004,81.017 L 134.93,78.968 L 137.703,80.112 Z" fill="none" stroke="#ff0000" stroke-width="0.1"/>
  <path d="M 130.814,90.959 L 129.104,92.71 L 127.283,94.344 L 125.358,95.854 L 123.337,97.233 L 121.729,94.7 L 123.586,93.433 L 125.355,92.046 L 127.028,90.544 L 128.599,88.935 L 130.814,90.959 Z" fill="none" stroke="#ff0000" stroke-width="0.1"/>
  <path d="M 120.63,98.796 L 118.425,99.856 L 116.155,100.769 L 113.829,101.529 L 111.458,102.134 L 110.813,99.204 L 112.992,98.648 L 115.129,97.95 L 117.215,97.111 L 119.241,96.137 L 120.63,98.796 Z" fill="none" stroke="#ff0000" stroke-width="0.1"/>
  <path d="M 108.38,102.677 L 105.945,102.919 L 103.5,103 L 101.055,102.919 L 98.62,102.677 L 99.016,99.703 L 101.253,99.926 L 103.5,100 L 105.747,99.926 L 107.984,99.703 L 108.38,102.677 Z" fill="none" stroke="#ff0000" stroke-width="0.1"/>
  <path d="M 95.542,102.134 L 93.171,101.529 L 90.845,100.769 L 88.575,99.856 L 86.37,98.796 L 87.759,96.137 L 89.785,97.111 L 91.871,97.95 L 94.008,98.648 L 96.187,99.204 L 95.542,102.134 Z" fill="none" stroke="#ff0000" stroke-width="0.1"/>
  <path d="M 83.663,97.233 L 81.642,95.854 L 79.717,94.344 L 77.896,92.71 L 76.186,90.959 L 78.401,88.935 L 79.972,90.544 L 81.645,92.046 L 83.414,93.433 L 85.271,94.7 L 83.663,97.233 Z" fill="none" stroke="#ff0000" stroke-width="0.1"/>
  <path d="M 74.177,88.565 L 72.75,86.577 L 71.457,84.5 L 70.304,82.342 L 69.297,80.112 L 72.07,78.968 L 72.996,81.017 L 74.055,83 L 75.243,84.909 L 76.555,86.735 L 74.177,88.565 Z" fill="none" stroke="#ff0000" stroke-width="0.1"/>
  <path d="M 68.228,77.175 L 67.566,74.819 L 67.062,72.425 L 66.717,70.003 L 66.533,67.563 L 69.53,67.436 L 69.7,69.678 L 70.017,71.904 L 70.48,74.104 L 71.088,76.269 L 68.228,77.175 Z" fill="none" stroke="#ff0000" stroke-width="0.1"/>
  <path d="M 66.533,64.437 L 66.717,61.997 L 67.062,59.575 L 67.566,57.181 L 68.228,54.825 L 71.088,55.731 L 70.48,57.896 L 70.017,60.096 L 69.7,62.322 L 69.53,64.564 L 66.533,64.437 Z" fill="none" stroke="#ff0000" stroke-width="0.1"/>
  <path d="M 69.297,51.888 L 70.304,49.658 L 71.457,47.5 L 72.75,45.423 L 74.177,43.435 L 76.555,45.265 L 75.243,47.091 L 74.055,49 L 72.996,50.983 L 72.07,53.032 L 69.297,51.888 Z" fill="none" stroke="#ff0000" stroke-width="0.1"/>
  <path d="M 76.186,41.041 L 77.896,39.29 L 79.717,37.656 L 81.642,36.146 L 83.663,34.767 L 85.271,37.3 L 83.414,38.567 L 81.645,39.954 L 79.972,41.456 L 78.401,43.065 L 76.186,41.041 Z" fill="none" stroke="#ff0000" stroke-width="0.1"/>
  <path d="M 86.37,33.204 L 88.575,32.144 L 90.845,31.231 L 93.171,30.471 L 95.542,29.866 L 96.187,32.796 L 94.008,33.352 L 91.871,34.05 L 89.785,34.889 L 87.759,35.863 L 86.37,33.204 Z" fill="none" stroke="#ff0000" stroke-width="0.1"/>
  <path d="M 98.62,29.323 L 101.055,29.081 L 103.5,29 L 105.945,29.081 L 108.38,29.323 L 107.984,32.297 L 105.747,32.074 L 103.5,32 L 101.253,32.074 L 99.016,32.297 L 98.62,29.323 Z" fill="none" stroke="#ff0000" stroke-width="0.1"/>
  <path d="M 111.458,29.866 L 113.829,30.471 L 116.155,31.231 L 118.425,32.144 L 120.63,33.204 L 119.241,35.863 L 117.215,34.889 L 115.129,34.05 L 112.992,33.352 L 110.813,32.796 L 111.458,29.866 Z" fill="none" stroke="#ff0000" stroke-width="0.1"/>
  <path d="M 123.337,34.767 L 125.358,36.146 L 127.283,37.656 L 129.104,39.29 L 130.814,41.041 L 128.599,43.065 L 127.028,41.456 L 125.355,39.954 L 123.586,38.567 L 121.729,37.3 L 123.337,34.767 Z" fill="none" stroke="#ff0000" stroke-width="0.1"/>
  <path d="M 132.823,43.435 L 134.25,45.423 L 135.543,47.5 L 136.696,49.658 L 137.703,51.888 L 134.93,53.032 L 134.004,50.983 L 132.945,49 L 131.757,47.091 L 130.445,45.265 L 132.823,43.435 Z" fill="none" stroke="#ff0000" stroke-width="0.1"/>
  <path d="M 138.772,54.825 L 139.434,57.181 L 139.938,59.575 L 140.283,61.997 L 140.467,64.437 L 137.47,64.564 L 137.3,62.322 L 136.983,60.096 L 136.52,57.896 L 135.912,55.731 L 138.772,54.825 Z" fill="none" stroke="#ff0000" stroke-width="0.1"/>
</svg>
