<?xml version="1.0" encoding="UTF-8"?>
<svg xmlns="http://www.w3.org/2000/svg" width="206mm" height="132mm" viewBox="0 0 206 132">
<!-- Red=cut, Blue=score/engrave. All dims in mm. -->
  <text x="6" y="3" font-size="3" fill="#999" font-family="monospace">TOP PANEL 194x120mm (3mm)</text>
  <path d="M 6,6 L 6,3 L 17.412,3 L 17.412,6 L 28.824,6 L 28.824,3 L 40.235,3 L 40.235,6 L 51.647,6 L 51.647,3 L 63.059,3 L 63.059,6 L 74.471,6 L 74.471,3 L 85.882,3 L 85.882,6 L 97.294,6 L 97.294,3 L 108.706,3 L 108.706,6 L 120.118,6 L 120.118,3 L 131.529,3 L 131.529,6 L 142.941,6 L 142.941,3 L 154.353,3 L 154.353,6 L 165.765,6 L 165.765,3 L 177.176,3 L 177.176,6 L 188.588,6 L 188.588,3 L 200,3 L 200,6 L 200,126 L 200,129 L 188.588,129 L 188.588,126 L 177.176,126 L 177.176,129 L 165.765,129 L 165.765,126 L 154.353,126 L 154.353,129 L 142.941,129 L 142.941,126 L 131.529,126 L 131.529,129 L 120.118,129 L 120.118,126 L 108.706,126 L 108.706,129 L 97.294,129 L 97.294,126 L 85.882,126 L 85.882,129 L 74.471,129 L 74.471,126 L 63.059,126 L 63.059,129 L 51.647,129 L 51.647,126 L 40.235,126 L 40.235,129 L 28.824,129 L 28.824,126 L 17.412,126 L 17.412,129 L 6,129 L 6,126 L 6,6 Z" fill="none" stroke="#ff0000" stroke-width="0.1"/>
  <rect x="9" y="6" width="4.5" height="10.909" fill="none" stroke="#ff0000" stroke-width="0.1"/>
  <rect x="9" y="27.818" width="4.5" height="10.909" fill="none" stroke="#ff0000" stroke-width="0.1"/>
  <rect x="9" y="49.636" width="4.5" height="10.909" fill="none" stroke="#ff0000" stroke-width="0.1"/>
  <rect x="9" y="71.455" width="4.5" height="10.909" fill="none" stroke="#ff0000" stroke-width="0.1"/>
  <rect x="9" y="93.273" width="4.5" height="10.909" fill="none" stroke="#ff0000" stroke-width="0.1"/>
  <rect x="9" y="115.091" width="4.5" height="10.909" fill="none" stroke="#ff0000" stroke-width="0.1"/>
  <rect x="192.5" y="6" width="4.5" height="10.909" fill="none" stroke="#ff0000" stroke-width="0.1"/>
  <rect x="192.5" y="27.818" width="4.5" height="10.909" fill="none" stroke="#ff0000" stroke-width="0.1"/>
  <rect x="192.5" y="49.636" width="4.5" height="10.909" fill="none" stroke="#ff0000" stroke-width="0.1"/>
  <rect x="192.5" y="71.455" width="4.5" height="10.909" fill="none" stroke="#ff0000" stroke-width="0.1"/>
  <rect x="192.5" y="93.273" width="4.5" height="10.909" fill="none" stroke="#ff0000" stroke-width="0.1"/>
  <rect x="192.5" y="115.091" width="4.5" height="10.909" fill="none" stroke="#ff0000" stroke-width="0.1"/>
  <circle cx="18.5" cy="18.5" r="2.25" fill="none" stroke="#ff0000" stroke-width="0.1"/>
  <circle cx="18.5" cy="18.5" r="5" fill="none" stroke="#0000ff" stroke-width="0.1"/>
  <circle cx="187.5" cy="18.5" r="2.25" fill="none" stroke="#ff0000" stroke-width="0.1"/>
  <circle cx="187.5" cy="18.5" r="5" fill="none" stroke="#0000ff" stroke-width="0.1"/>
  <circle cx="18.5" cy="113.5" r="2.25" fill="none" stroke="#ff0000" stroke-width="0.1"/>
  <circle cx="18.5" cy="113.5" r="5" fill="none" stroke="#0000ff" stroke-width="0.1"/>
  <circle cx="187.5" cy="113.5" r="2.25" fill="none" stroke="#ff0000" stroke-width="0.1"/>
  <circle cx="187.5" cy="113.5" r="5" fill="none" stroke="#0000ff" stroke-width="0.1"/>
  <path d="M 111.821,67.788 L 110.93,70.257 L 109.364,72.364 L 107.257,73.93 L 104.788,74.821 L 104.192,71.88 L 105.838,71.286 L 107.243,70.243 L 108.286,68.838 L 108.88,67.192 L 111.821,67.788 Z" fill="none" stroke="#ff0000" stroke-width="0.1"/>
  <path d="M 101.212,74.821 L 98.743,73.93 L 96.636,72.364 L 95.07,70.257 L 94.179,67.788 L 97.12,67.192 L 97.714,68.838 L 98.757,70.243 L 100.162,71.286 L 101.808,71.88 L 101.212,74.821 Z" fill="none" stroke="#ff0000" stroke-width="0.1"/>
  <path d="M 94.179,64.212 L 95.07,61.743 L 96.636,59.636 L 98.743,58.07 L 101.212,57.179 L 101.808,60.12 L 100.162,60.714 L 98.757,61.757 L 97.714,63.162 L 97.12,64.808 L 94.179,64.212 Z" fill="none" stroke="#ff0000" stroke-width="0.1"/>
  <path d="M 104.788,57.179 L 107.257,58.07 L 109.364,59.636 L 110.93,61.743 L 111.821,64.212 L 108.88,64.808 L 108.286,63.162 L 107.243,61.757 L 105.838,60.714 L 104.192,60.12 L 104.788,57.179 Z" fill="none" stroke="#ff0000" stroke-width="0.1"/>
  <path d="M 118.914,67.652 L 118.535,69.828 L 117.86,71.931 L 116.902,73.92 L 115.679,75.759 L 114.214,77.412 L 112.112,75.272 L 113.302,73.929 L 114.295,72.435 L 115.074,70.819 L 115.622,69.11 L 115.931,67.342 L 118.914,67.652 Z" fill="none" stroke="#ff0000" stroke-width="0.1"/>
  <path d="M 111.631,79.473 L 109.693,80.533 L 107.628,81.316 L 105.475,81.807 L 103.275,81.998 L 101.069,81.883 L 101.431,78.905 L 103.223,78.998 L 105.011,78.843 L 106.761,78.444 L 108.438,77.808 L 110.012,76.946 L 111.631,79.473 Z" fill="none" stroke="#ff0000" stroke-width="0.1"/>
  <path d="M 97.848,81.148 L 95.811,80.294 L 93.911,79.168 L 92.185,77.791 L 90.664,76.189 L 89.378,74.394 L 91.932,72.82 L 92.977,74.279 L 94.213,75.58 L 95.615,76.699 L 97.159,77.614 L 98.814,78.308 L 97.848,81.148 Z" fill="none" stroke="#ff0000" stroke-width="0.1"/>
  <path d="M 87.945,71.416 L 87.342,69.292 L 87.038,67.104 L 87.038,64.896 L 87.342,62.708 L 87.945,60.584 L 90.768,61.599 L 90.278,63.325 L 90.031,65.103 L 90.031,66.897 L 90.278,68.675 L 90.768,70.401 L 87.945,71.416 Z" fill="none" stroke="#ff0000" stroke-width="0.1"/>
  <path d="M 89.378,57.606 L 90.664,55.811 L 92.185,54.209 L 93.911,52.832 L 95.811,51.706 L 97.848,50.852 L 98.814,53.692 L 97.159,54.386 L 95.615,55.301 L 94.213,56.42 L 92.977,57.721 L 91.932,59.18 L 89.378,57.606 Z" fill="none" stroke="#ff0000" stroke-width="0.1"/>
  <path d="M 101.069,50.117 L 103.275,50.002 L 105.475,50.193 L 107.628,50.684 L 109.693,51.467 L 111.631,52.527 L 110.012,55.054 L 108.438,54.192 L 106.761,53.556 L 105.011,53.157 L 103.223,53.002 L 101.431,53.095 L 101.069,50.117 Z" fill="none" stroke="#ff0000" stroke-width="0.1"/>
  <path d="M 114.214,54.588 L 115.679,56.241 L 116.902,58.08 L 117.86,60.069 L 118.535,62.172 L 118.914,64.348 L 115.931,64.658 L 115.622,62.89 L 115.074,61.181 L 114.295,59.565 L 113.302,58.071 L 112.112,56.728 L 114.214,54.588 Z" fill="none" stroke="#ff0000" stroke-width="0.1"/>
  <path d="M 125.944,67.603 L 125.638,70.065 L 125.068,72.48 L 124.242,74.819 L 123.169,77.056 L 120.538,75.614 L 121.471,73.669 L 122.19,71.635 L 122.685,69.535 L 122.951,67.394 L 125.944,67.603 Z" fill="none" stroke="#ff0000" stroke-width="0.1"/>
  <path d="M 121.435,79.753 L 119.846,81.659 L 118.062,83.382 L 116.102,84.903 L 113.99,86.205 L 112.556,83.569 L 114.393,82.438 L 116.097,81.115 L 117.649,79.616 L 119.03,77.959 L 121.435,79.753 Z" fill="none" stroke="#ff0000" stroke-width="0.1"/>
  <path d="M 111.073,87.537 L 108.706,88.281 L 106.273,88.766 L 103.802,88.986 L 101.322,88.939 L 101.541,85.947 L 103.698,85.988 L 105.846,85.796 L 107.962,85.375 L 110.02,84.728 L 111.073,87.537 Z" fill="none" stroke="#ff0000" stroke-width="0.1"/>
  <path d="M 98.148,88.482 L 95.754,87.829 L 93.445,86.922 L 91.248,85.771 L 89.187,84.39 L 90.988,81.991 L 92.781,83.192 L 94.692,84.193 L 96.699,84.982 L 98.781,85.55 L 98.148,88.482 Z" fill="none" stroke="#ff0000" stroke-width="0.1"/>
  <path d="M 86.763,82.29 L 85.103,80.446 L 83.651,78.435 L 82.424,76.278 L 81.437,74.002 L 84.25,72.959 L 85.108,74.938 L 86.175,76.813 L 87.437,78.562 L 88.881,80.165 L 86.763,82.29 Z" fill="none" stroke="#ff0000" stroke-width="0.1"/>
  <path d="M 80.534,70.926 L 80.134,68.477 L 80,66 L 80.134,63.523 L 80.534,61.074 L 83.464,61.717 L 83.116,63.846 L 83,66 L 83.116,68.154 L 83.464,70.283 L 80.534,70.926 Z" fill="none" stroke="#ff0000" stroke-width="0.1"/>
  <path d="M 81.437,57.998 L 82.424,55.722 L 83.651,53.565 L 85.103,51.554 L 86.763,49.71 L 88.881,51.835 L 87.437,53.438 L 86.175,55.187 L 85.108,57.062 L 84.25,59.041 L 81.437,57.998 Z" fill="none" stroke="#ff0000" stroke-width="0.1"/>
  <path d="M 89.187,47.61 L 91.248,46.229 L 93.445,45.078 L 95.754,44.171 L 98.148,43.518 L 98.781,46.45 L 96.699,47.018 L 94.692,47.807 L 92.781,48.808 L 90.988,50.009 L 89.187,47.61 Z" fill="none" stroke="#ff0000" stroke-width="0.1"/>
  <path d="M 101.322,43.061 L 103.802,43.014 L 106.273,43.234 L 108.706,43.719 L 111.073,44.463 L 110.02,47.272 L 107.962,46.625 L 105.846,46.204 L 103.698,46.012 L 101.541,46.053 L 101.322,43.061 Z" fill="none" stroke="#ff0000" stroke-width="0.1"/>
  <path d="M 113.99,45.795 L 116.102,47.097 L 118.062,48.618 L 119.846,50.341 L 121.435,52.247 L 119.03,54.041 L 117.649,52.384 L 116.097,50.885 L 114.393,49.562 L 112.556,48.431 L 113.99,45.795 Z" fill="none" stroke="#ff0000" stroke-width="0.1"/>
  <path d="M 123.169,54.944 L 124.242,57.181 L 125.068,59.52 L 125.638,61.935 L 125.944,64.397 L 122.951,64.606 L 122.685,62.465 L 122.19,60.365 L 121.471,58.331 L 120.538,56.386 L 123.169,54.944 Z" fill="none" stroke="#ff0000" stroke-width="0.1"/>
  <path d="M 132.958,67.578 L 132.713,70.142 L 132.248,72.676 L 131.567,75.16 L 130.676,77.577 L 127.909,76.419 L 128.711,74.244 L 129.323,72.008 L 129.741,69.728 L 129.963,67.42 L 132.958,67.578 Z" fill="none" stroke="#ff0000" stroke-width="0.1"/>
  <path d="M 129.307,80.42 L 127.973,82.624 L 126.455,84.705 L 124.764,86.648 L 122.913,88.438 L 120.921,86.195 L 122.588,84.583 L 124.109,82.834 L 125.476,80.961 L 126.676,78.978 L 129.307,80.42 Z" fill="none" stroke="#ff0000" stroke-width="0.1"/>
  <path d="M 120.445,90.406 L 118.287,91.813 L 116.017,93.029 L 113.65,94.046 L 111.205,94.856 L 110.385,91.971 L 112.585,91.241 L 114.715,90.326 L 116.758,89.232 L 118.7,87.966 L 120.445,90.406 Z" fill="none" stroke="#ff0000" stroke-width="0.1"/>
  <path d="M 108.128,95.559 L 105.573,95.889 L 103,96 L 100.427,95.889 L 97.872,95.559 L 98.385,92.603 L 100.684,92.9 L 103,93 L 105.316,92.9 L 107.615,92.603 L 108.128,95.559 Z" fill="none" stroke="#ff0000" stroke-width="0.1"/>
  <path d="M 94.795,94.856 L 92.35,94.046 L 89.983,93.029 L 87.713,91.813 L 85.555,90.406 L 87.3,87.966 L 89.242,89.232 L 91.285,90.326 L 93.415,91.241 L 95.615,91.971 L 94.795,94.856 Z" fill="none" stroke="#ff0000" stroke-width="0.1"/>
  <path d="M 83.087,88.438 L 81.236,86.648 L 79.545,84.705 L 78.027,82.624 L 76.693,80.42 L 79.324,78.978 L 80.524,80.961 L 81.891,82.834 L 83.412,84.583 L 85.079,86.195 L 83.087,88.438 Z" fill="none" stroke="#ff0000" stroke-width="0.1"/>
  <path d="M 75.324,77.577 L 74.433,75.16 L 73.752,72.676 L 73.287,70.142 L 73.042,67.578 L 76.037,67.42 L 76.259,69.728 L 76.677,72.008 L 77.289,74.244 L 78.091,76.419 L 75.324,77.577 Z" fill="none" stroke="#ff0000" stroke-width="0.1"/>
  <path d="M 73.042,64.422 L 73.287,61.858 L 73.752,59.324 L 74.433,56.84 L 75.324,54.423 L 78.091,55.581 L 77.289,57.756 L 76.677,59.992 L 76.259,62.272 L 76.037,64.58 L 73.042,64.422 Z" fill="none" stroke="#ff0000" stroke-width="0.1"/>
  <path d="M 76.693,51.58 L 78.027,49.376 L 79.545,47.295 L 81.236,45.352 L 83.087,43.562 L 85.079,45.805 L 83.412,47.417 L 81.891,49.166 L 80.524,51.039 L 79.324,53.022 L 76.693,51.58 Z" fill="none" stroke="#ff0000" stroke-width="0.1"/>
  <path d="M 85.555,41.594 L 87.713,40.187 L 89.983,38.971 L 92.35,37.954 L 94.795,37.144 L 95.615,40.029 L 93.415,40.759 L 91.285,41.674 L 89.242,42.768 L 87.3,44.034 L 85.555,41.594 Z" fill="none" stroke="#ff0000" stroke-width="0.1"/>
  <path d="M 97.872,36.441 L 100.427,36.111 L 103,36 L 105.573,36.111 L 108.128,36.441 L 107.615,39.397 L 105.316,39.1 L 103,39 L 100.684,39.1 L 98.385,39.397 L 97.872,36.441 Z" fill="none" stroke="#ff0000" stroke-width="0.1"/>
  <path d="M 111.205,37.144 L 113.65,37.954 L 116.017,38.971 L 118.287,40.187 L 120.445,41.594 L 118.7,44.034 L 116.758,42.768 L 114.715,41.674 L 112.585,40.759 L 110.385,40.029 L 111.205,37.144 Z" fill="none" stroke="#ff0000" stroke-width="0.1"/>
  <path d="M 122.913,43.562 L 124.764,45.352 L 126.455,47.295 L 127.973,49.376 L 129.307,51.58 L 126.676,53.022 L 125.476,51.039 L 124.109,49.166 L 122.588,47.417 L 120.921,45.805 L 122.913,43.562 Z" fill="none" stroke="#ff0000" stroke-width="0.1"/>
  <path d="M 130.676,54.423 L 131.567,56.84 L 132.248,59.324 L 132.713,61.858 L 132.958,64.422 L 129.963,64.58 L 129.741,62.272 L 129.323,59.992 L 128.711,57.756 L 127.909,55.581 L 130.676,54.423 Z" fill="none" stroke="#ff0000" stroke-width="0.1"/>
  <path d="M 139.967,67.563 L 139.783,70.003 L 139.438,72.425 L 138.934,74.819 L 138.272,77.175 L 135.412,76.269 L 136.02,74.104 L 136.483,71.904 L 136.8,69.678 L 136.97,67.436 L 139.967,67.563 Z" fill="none" stroke="#ff0000" stroke-width="0.1"/>
  <path d="M 137.203,80.112 L 136.196,82.342 L 135.043,84.5 L 133.75,86.577 L 132.323,88.565 L 129.945,86.735 L 131.257,84.909 L 132.445,83 L 133.504,81.017 L 134.43,78.968 L 137.203,80.112 Z" fill="none" stroke="#ff0000" stroke-width="0.1"/>
  <path d="M 130.314,90.959 L 128.604,92.71 L 126.783,94.344 L 124.858,95.854 L 122.837,97.233 L 121.229,94.7 L 123.086,93.433 L 124.855,92.046 L 126.528,90.544 L 128.099,88.935 L 130.314,90.959 Z" fill="none" stroke="#ff0000" stroke-width="0.1"/>
  <path d="M 120.13,98.796 L 117.925,99.856 L 115.655,100.769 L 113.329,101.529 L 110.958,102.134 L 110.313,99.204 L 112.492,98.648 L 114.629,97.95 L 116.715,97.111 L 118.741,96.137 L 120.13,98.796 Z" fill="none" stroke="#ff0000" stroke-width="0.1"/>
  <path d="M 107.88,102.677 L 105.445,102.919 L 103,103 L 100.555,102.919 L 98.12,102.677 L 98.516,99.703 L 100.753,99.926 L 103,100 L 105.247,99.926 L 107.484,99.703 L 107.88,102.677 Z" fill="none" stroke="#ff0000" stroke-width="0.1"/>
  <path d="M 95.042,102.134 L 92.671,101.529 L 90.345,100.769 L 88.075,99.856 L 85.87,98.796 L 87.259,96.137 L 89.285,97.111 L 91.371,97.95 L 93.508,98.648 L 95.687,99.204 L 95.042,102.134 Z" fill="none" stroke="#ff0000" stroke-width="0.1"/>
  <path d="M 83.163,97.233 L 81.142,95.854 L 79.217,94.344 L 77.396,92.71 L 75.686,90.959 L 77.901,88.935 L 79.472,90.544 L 81.145,92.046 L 82.914,93.433 L 84.771,94.7 L 83.163,97.233 Z" fill="none" stroke="#ff0000" stroke-width="0.1"/>
  <path d="M 73.677,88.565 L 72.25,86.577 L 70.957,84.5 L 69.804,82.342 L 68.797,80.112 L 71.57,78.968 L 72.496,81.017 L 73.555,83 L 74.743,84.909 L 76.055,86.735 L 73.677,88.565 Z" fill="none" stroke="#ff0000" stroke-width="0.1"/>
  <path d="M 67.728,77.175 L 67.066,74.819 L 66.562,72.425 L 66.217,70.003 L 66.033,67.563 L 69.03,67.436 L 69.2,69.678 L 69.517,71.904 L 69.98,74.104 L 70.588,76.269 L 67.728,77.175 Z" fill="none" stroke="#ff0000" stroke-width="0.1"/>
  <path d="M 66.033,64.437 L 66.217,61.997 L 66.562,59.575 L 67.066,57.181 L 67.728,54.825 L 70.588,55.731 L 69.98,57.896 L 69.517,60.096 L 69.2,62.322 L 69.03,64.564 L 66.033,64.437 Z" fill="none" stroke="#ff0000" stroke-width="0.1"/>
  <path d="M 68.797,51.888 L 69.804,49.658 L 70.957,47.5 L 72.25,45.423 L 73.677,43.435 L 76.055,45.265 L 74.743,47.091 L 73.555,49 L 72.496,50.983 L 71.57,53.032 L 68.797,51.888 Z" fill="none" stroke="#ff0000" stroke-width="0.1"/>
  <path d="M 75.686,41.041 L 77.396,39.29 L 79.217,37.656 L 81.142,36.146 L 83.163,34.767 L 84.771,37.3 L 82.914,38.567 L 81.145,39.954 L 79.472,41.456 L 77.901,43.065 L 75.686,41.041 Z" fill="none" stroke="#ff0000" stroke-width="0.1"/>
  <path d="M 85.87,33.204 L 88.075,32.144 L 90.345,31.231 L 92.671,30.471 L 95.042,29.866 L 95.687,32.796 L 93.508,33.352 L 91.371,34.05 L 89.285,34.889 L 87.259,35.863 L 85.87,33.204 Z" fill="none" stroke="#ff0000" stroke-width="0.1"/>
  <path d="M 98.12,29.323 L 100.555,29.081 L 103,29 L 105.445,29.081 L 107.88,29.323 L 107.484,32.297 L 105.247,32.074 L 103,32 L 100.753,32.074 L 98.516,32.297 L 98.12,29.323 Z" fill="none" stroke="#ff0000" stroke-width="0.1"/>
  <path d="M 110.958,29.866 L 113.329,30.471 L 115.655,31.231 L 117.925,32.144 L 120.13,33.204 L 118.741,35.863 L 116.715,34.889 L 114.629,34.05 L 112.492,33.352 L 110.313,32.796 L 110.958,29.866 Z" fill="none" stroke="#ff0000" stroke-width="0.1"/>
  <path d="M 122.837,34.767 L 124.858,36.146 L 126.783,37.656 L 128.604,39.29 L 130.314,41.041 L 128.099,43.065 L 126.528,41.456 L 124.855,39.954 L 123.086,38.567 L 121.229,37.3 L 122.837,34.767 Z" fill="none" stroke="#ff0000" stroke-width="0.1"/>
  <path d="M 132.323,43.435 L 133.75,45.423 L 135.043,47.5 L 136.196,49.658 L 137.203,51.888 L 134.43,53.032 L 133.504,50.983 L 132.445,49 L 131.257,47.091 L 129.945,45.265 L 132.323,43.435 Z" fill="none" stroke="#ff0000" stroke-width="0.1"/>
  <path d="M 138.272,54.825 L 138.934,57.181 L 139.438,59.575 L 139.783,61.997 L 139.967,64.437 L 136.97,64.564 L 136.8,62.322 L 136.483,60.096 L 136.02,57.896 L 135.412,55.731 L 138.272,54.825 Z" fill="none" stroke="#ff0000" stroke-width="0.1"/>
</svg>
