<?xml version="1.0" encoding="UTF-8"?>
<svg xmlns="http://www.w3.org/2000/svg" width="203mm" height="341.44mm" viewBox="0 0 203 341.44">
<!-- Red=cut, Blue=score/engrave. All dims in mm. -->
  <text x="6" y="3" font-size="3" fill="#999" font-family="monospace">FRONT PANEL 191x329.4mm (3mm)</text>
  <path d="M 6,6 L 6,9 L 17.235,9 L 17.235,6 L 28.471,6 L 28.471,9 L 39.706,9 L 39.706,6 L 50.941,6 L 50.941,9 L 62.176,9 L 62.176,6 L 73.412,6 L 73.412,9 L 84.647,9 L 84.647,6 L 95.882,6 L 95.882,9 L 107.118,9 L 107.118,6 L 118.353,6 L 118.353,9 L 129.588,9 L 129.588,6 L 140.824,6 L 140.824,9 L 152.059,9 L 152.059,6 L 163.294,6 L 163.294,9 L 174.529,9 L 174.529,6 L 185.765,6 L 185.765,9 L 197,9 L 197,6 L 197,18.201 L 197,30.403 L 200,30.403 L 200,42.604 L 197,42.604 L 197,54.806 L 200,54.806 L 200,67.007 L 197,67.007 L 197,79.209 L 200,79.209 L 200,91.41 L 197,91.41 L 197,103.612 L 200,103.612 L 200,115.813 L 197,115.813 L 197,128.015 L 200,128.015 L 200,140.216 L 197,140.216 L 197,152.418 L 200,152.418 L 200,164.619 L 197,164.619 L 197,176.821 L 200,176.821 L 200,189.022 L 197,189.022 L 197,201.224 L 200,201.224 L 200,213.425 L 197,213.425 L 197,225.627 L 200,225.627 L 200,237.828 L 197,237.828 L 197,250.03 L 200,250.03 L 200,262.231 L 197,262.231 L 197,274.433 L 200,274.433 L 200,286.634 L 197,286.634 L 197,298.836 L 200,298.836 L 200,311.037 L 197,311.037 L 197,323.239 L 197,335.44 L 197,332.44 L 185.765,332.44 L 185.765,335.44 L 174.529,335.44 L 174.529,332.44 L 163.294,332.44 L 163.294,335.44 L 152.059,335.44 L 152.059,332.44 L 140.824,332.44 L 140.824,335.44 L 129.588,335.44 L 129.588,332.44 L 118.353,332.44 L 118.353,335.44 L 107.118,335.44 L 107.118,332.44 L 95.882,332.44 L 95.882,335.44 L 84.647,335.44 L 84.647,332.44 L 73.412,332.44 L 73.412,335.44 L 62.176,335.44 L 62.176,332.44 L 50.941,332.44 L 50.941,335.44 L 39.706,335.44 L 39.706,332.44 L 28.471,332.44 L 28.471,335.44 L 17.235,335.44 L 17.235,332.44 L 6,332.44 L 6,335.44 L 6,323.239 L 6,311.037 L 3,311.037 L 3,298.836 L 6,298.836 L 6,286.634 L 3,286.634 L 3,274.433 L 6,274.433 L 6,262.231 L 3,262.231 L 3,250.03 L 6,250.03 L 6,237.828 L 3,237.828 L 3,225.627 L 6,225.627 L 6,213.425 L 3,213.425 L 3,201.224 L 6,201.224 L 6,189.022 L 3,189.022 L 3,176.821 L 6,176.821 L 6,164.619 L 3,164.619 L 3,152.418 L 6,152.418 L 6,140.216 L 3,140.216 L 3,128.015 L 6,128.015 L 6,115.813 L 3,115.813 L 3,103.612 L 6,103.612 L 6,91.41 L 3,91.41 L 3,79.209 L 6,79.209 L 6,67.007 L 3,67.007 L 3,54.806 L 6,54.806 L 6,42.604 L 3,42.604 L 3,30.403 L 6,30.403 L 6,18.201 L 6,6 Z" fill="none" stroke="#ff0000" stroke-width="0.1"/>
  <rect x="75.5" y="316.94" width="16" height="14" rx="1.5" ry="1.5" fill="none" stroke="#ff0000" stroke-width="0.1"/>
  <text x="75.5" y="315.44" font-size="2" fill="#999" font-family="monospace">GbE</text>
  <rect x="95.5" y="314.94" width="14.5" height="16" rx="1.5" ry="1.5" fill="none" stroke="#ff0000" stroke-width="0.1"/>
  <text x="95.5" y="313.44" font-size="2" fill="#999" font-family="monospace">USB</text>
  <rect x="113.5" y="314.94" width="14.5" height="16" rx="1.5" ry="1.5" fill="none" stroke="#ff0000" stroke-width="0.1"/>
  <text x="113.5" y="313.44" font-size="2" fill="#999" font-family="monospace">USB</text>
  <rect x="16" y="195.84" width="171" height="0.3" fill="none" stroke="#0000ff" stroke-width="0.1"/>
  <text x="8" y="198.99" font-size="2" fill="#999" font-family="monospace">drive zone</text>
</svg>
