<?xml version="1.0" encoding="UTF-8"?>
<svg xmlns="http://www.w3.org/2000/svg" width="194mm" height="337.74mm" viewBox="0 0 194 337.74">
<!-- Red=cut, Blue=score/engrave. All dims in mm. -->
  <text x="7.5" y="4.5" font-size="3" fill="#999" font-family="monospace">FRONT PANEL 179x322.7mm (3mm)</text>
  <path d="M 7.5,10.5 L 11.412,10.5 L 11.412,7.5 L 22.824,7.5 L 22.824,10.5 L 34.235,10.5 L 34.235,7.5 L 45.647,7.5 L 45.647,10.5 L 57.059,10.5 L 57.059,7.5 L 68.471,7.5 L 68.471,10.5 L 79.882,10.5 L 79.882,7.5 L 91.294,7.5 L 91.294,10.5 L 102.706,10.5 L 102.706,7.5 L 114.118,7.5 L 114.118,10.5 L 125.529,10.5 L 125.529,7.5 L 136.941,7.5 L 136.941,10.5 L 148.353,10.5 L 148.353,7.5 L 159.765,7.5 L 159.765,10.5 L 171.176,10.5 L 171.176,7.5 L 182.588,7.5 L 182.588,10.5 L 186.5,10.5 L 186.5,22.176 L 186.5,33.851 L 191,33.851 L 191,45.527 L 186.5,45.527 L 186.5,57.202 L 191,57.202 L 191,68.878 L 186.5,68.878 L 186.5,80.553 L 191,80.553 L 191,92.229 L 186.5,92.229 L 186.5,103.904 L 191,103.904 L 191,115.58 L 186.5,115.58 L 186.5,127.256 L 191,127.256 L 191,138.931 L 186.5,138.931 L 186.5,150.607 L 191,150.607 L 191,162.282 L 186.5,162.282 L 186.5,173.958 L 191,173.958 L 191,185.633 L 186.5,185.633 L 186.5,197.309 L 191,197.309 L 191,208.984 L 186.5,208.984 L 186.5,220.66 L 191,220.66 L 191,232.336 L 186.5,232.336 L 186.5,244.011 L 191,244.011 L 191,255.687 L 186.5,255.687 L 186.5,267.362 L 191,267.362 L 191,279.038 L 186.5,279.038 L 186.5,290.713 L 191,290.713 L 191,302.389 L 186.5,302.389 L 186.5,314.064 L 186.5,325.74 L 182.588,325.74 L 182.588,330.24 L 171.176,330.24 L 171.176,325.74 L 159.765,325.74 L 159.765,330.24 L 148.353,330.24 L 148.353,325.74 L 136.941,325.74 L 136.941,330.24 L 125.529,330.24 L 125.529,325.74 L 114.118,325.74 L 114.118,330.24 L 102.706,330.24 L 102.706,325.74 L 91.294,325.74 L 91.294,330.24 L 79.882,330.24 L 79.882,325.74 L 68.471,325.74 L 68.471,330.24 L 57.059,330.24 L 57.059,325.74 L 45.647,325.74 L 45.647,330.24 L 34.235,330.24 L 34.235,325.74 L 22.824,325.74 L 22.824,330.24 L 11.412,330.24 L 11.412,325.74 L 7.5,325.74 L 7.5,314.064 L 7.5,302.389 L 3,302.389 L 3,290.713 L 7.5,290.713 L 7.5,279.038 L 3,279.038 L 3,267.362 L 7.5,267.362 L 7.5,255.687 L 3,255.687 L 3,244.011 L 7.5,244.011 L 7.5,232.336 L 3,232.336 L 3,220.66 L 7.5,220.66 L 7.5,208.984 L 3,208.984 L 3,197.309 L 7.5,197.309 L 7.5,185.633 L 3,185.633 L 3,173.958 L 7.5,173.958 L 7.5,162.282 L 3,162.282 L 3,150.607 L 7.5,150.607 L 7.5,138.931 L 3,138.931 L 3,127.256 L 7.5,127.256 L 7.5,115.58 L 3,115.58 L 3,103.904 L 7.5,103.904 L 7.5,92.229 L 3,92.229 L 3,80.553 L 7.5,80.553 L 7.5,68.878 L 3,68.878 L 3,57.202 L 7.5,57.202 L 7.5,45.527 L 3,45.527 L 3,33.851 L 7.5,33.851 L 7.5,22.176 Z" fill="none" stroke="#ff0000" stroke-width="0.1"/>
  <rect x="70.25" y="299.29" width="17.9" height="16.5" rx="1.5" ry="1.5" fill="none" stroke="#ff0000" stroke-width="0.1"/>
  <text x="70.25" y="297.79" font-size="2" fill="#999" font-family="monospace">GbE</text>
  <rect x="90.3" y="297.19" width="15.6" height="17.6" rx="1.5" ry="1.5" fill="none" stroke="#ff0000" stroke-width="0.1"/>
  <text x="90.3" y="295.69" font-size="2" fill="#999" font-family="monospace">USB3</text>
  <rect x="108.1" y="297.19" width="15.8" height="17.6" rx="1.5" ry="1.5" fill="none" stroke="#ff0000" stroke-width="0.1"/>
  <text x="108.1" y="295.69" font-size="2" fill="#999" font-family="monospace">USB2</text>
  <rect x="103.6" y="286.59" width="20.8" height="8.1" rx="1.5" ry="1.5" fill="none" stroke="#ff0000" stroke-width="0.1"/>
  <text x="103.6" y="285.09" font-size="2" fill="#999" font-family="monospace">HAT</text>
  <circle cx="52" cy="312.24" r="4" fill="none" stroke="#ff0000" stroke-width="0.1"/>
  <text x="58" y="313.24" font-size="2" fill="#999" font-family="monospace">DC 12V</text>
  <rect x="27.5" y="268.99" width="22" height="2.5" rx="1.25" ry="1.25" fill="none" stroke="#ff0000" stroke-width="0.1"/>
  <rect x="86" y="268.99" width="22" height="2.5" rx="1.25" ry="1.25" fill="none" stroke="#ff0000" stroke-width="0.1"/>
  <rect x="144.5" y="268.99" width="22" height="2.5" rx="1.25" ry="1.25" fill="none" stroke="#ff0000" stroke-width="0.1"/>
  <rect x="27.5" y="254.74" width="22" height="2.5" rx="1.25" ry="1.25" fill="none" stroke="#ff0000" stroke-width="0.1"/>
  <rect x="86" y="254.74" width="22" height="2.5" rx="1.25" ry="1.25" fill="none" stroke="#ff0000" stroke-width="0.1"/>
  <rect x="144.5" y="254.74" width="22" height="2.5" rx="1.25" ry="1.25" fill="none" stroke="#ff0000" stroke-width="0.1"/>
  <rect x="27.5" y="240.49" width="22" height="2.5" rx="1.25" ry="1.25" fill="none" stroke="#ff0000" stroke-width="0.1"/>
  <rect x="86" y="240.49" width="22" height="2.5" rx="1.25" ry="1.25" fill="none" stroke="#ff0000" stroke-width="0.1"/>
  <rect x="144.5" y="240.49" width="22" height="2.5" rx="1.25" ry="1.25" fill="none" stroke="#ff0000" stroke-width="0.1"/>
  <rect x="27.5" y="226.24" width="22" height="2.5" rx="1.25" ry="1.25" fill="none" stroke="#ff0000" stroke-width="0.1"/>
  <rect x="86" y="226.24" width="22" height="2.5" rx="1.25" ry="1.25" fill="none" stroke="#ff0000" stroke-width="0.1"/>
  <rect x="144.5" y="226.24" width="22" height="2.5" rx="1.25" ry="1.25" fill="none" stroke="#ff0000" stroke-width="0.1"/>
  <rect x="27.5" y="211.99" width="22" height="2.5" rx="1.25" ry="1.25" fill="none" stroke="#ff0000" stroke-width="0.1"/>
  <rect x="86" y="211.99" width="22" height="2.5" rx="1.25" ry="1.25" fill="none" stroke="#ff0000" stroke-width="0.1"/>
  <rect x="144.5" y="211.99" width="22" height="2.5" rx="1.25" ry="1.25" fill="none" stroke="#ff0000" stroke-width="0.1"/>
  <rect x="27.5" y="186.99" width="22" height="2.5" rx="1.25" ry="1.25" fill="none" stroke="#ff0000" stroke-width="0.1"/>
  <rect x="86" y="186.99" width="22" height="2.5" rx="1.25" ry="1.25" fill="none" stroke="#ff0000" stroke-width="0.1"/>
  <rect x="144.5" y="186.99" width="22" height="2.5" rx="1.25" ry="1.25" fill="none" stroke="#ff0000" stroke-width="0.1"/>
  <rect x="27.5" y="169.563" width="22" height="2.5" rx="1.25" ry="1.25" fill="none" stroke="#ff0000" stroke-width="0.1"/>
  <rect x="86" y="169.563" width="22" height="2.5" rx="1.25" ry="1.25" fill="none" stroke="#ff0000" stroke-width="0.1"/>
  <rect x="144.5" y="169.563" width="22" height="2.5" rx="1.25" ry="1.25" fill="none" stroke="#ff0000" stroke-width="0.1"/>
  <rect x="27.5" y="152.136" width="22" height="2.5" rx="1.25" ry="1.25" fill="none" stroke="#ff0000" stroke-width="0.1"/>
  <rect x="86" y="152.136" width="22" height="2.5" rx="1.25" ry="1.25" fill="none" stroke="#ff0000" stroke-width="0.1"/>
  <rect x="144.5" y="152.136" width="22" height="2.5" rx="1.25" ry="1.25" fill="none" stroke="#ff0000" stroke-width="0.1"/>
  <rect x="27.5" y="134.709" width="22" height="2.5" rx="1.25" ry="1.25" fill="none" stroke="#ff0000" stroke-width="0.1"/>
  <rect x="86" y="134.709" width="22" height="2.5" rx="1.25" ry="1.25" fill="none" stroke="#ff0000" stroke-width="0.1"/>
  <rect x="144.5" y="134.709" width="22" height="2.5" rx="1.25" ry="1.25" fill="none" stroke="#ff0000" stroke-width="0.1"/>
  <rect x="27.5" y="117.281" width="22" height="2.5" rx="1.25" ry="1.25" fill="none" stroke="#ff0000" stroke-width="0.1"/>
  <rect x="86" y="117.281" width="22" height="2.5" rx="1.25" ry="1.25" fill="none" stroke="#ff0000" stroke-width="0.1"/>
  <rect x="144.5" y="117.281" width="22" height="2.5" rx="1.25" ry="1.25" fill="none" stroke="#ff0000" stroke-width="0.1"/>
  <rect x="27.5" y="99.854" width="22" height="2.5" rx="1.25" ry="1.25" fill="none" stroke="#ff0000" stroke-width="0.1"/>
  <rect x="86" y="99.854" width="22" height="2.5" rx="1.25" ry="1.25" fill="none" stroke="#ff0000" stroke-width="0.1"/>
  <rect x="144.5" y="99.854" width="22" height="2.5" rx="1.25" ry="1.25" fill="none" stroke="#ff0000" stroke-width="0.1"/>
  <rect x="27.5" y="82.427" width="22" height="2.5" rx="1.25" ry="1.25" fill="none" stroke="#ff0000" stroke-width="0.1"/>
  <rect x="86" y="82.427" width="22" height="2.5" rx="1.25" ry="1.25" fill="none" stroke="#ff0000" stroke-width="0.1"/>
  <rect x="144.5" y="82.427" width="22" height="2.5" rx="1.25" ry="1.25" fill="none" stroke="#ff0000" stroke-width="0.1"/>
  <rect x="27.5" y="65" width="22" height="2.5" rx="1.25" ry="1.25" fill="none" stroke="#ff0000" stroke-width="0.1"/>
  <rect x="86" y="65" width="22" height="2.5" rx="1.25" ry="1.25" fill="none" stroke="#ff0000" stroke-width="0.1"/>
  <rect x="144.5" y="65" width="22" height="2.5" rx="1.25" ry="1.25" fill="none" stroke="#ff0000" stroke-width="0.1"/>
</svg>
