<?xml version="1.0" encoding="UTF-8"?>
<svg xmlns="http://www.w3.org/2000/svg" width="195mm" height="354.24mm" viewBox="0 0 195 354.24">
<!-- Red=cut, Blue=score/engrave. All dims in mm. -->
  <text x="8" y="5" font-size="3" fill="#999" font-family="monospace">BACK PANEL 179x338.2mm (3mm)</text>
  <path d="M 8,11 L 11.471,11 L 11.471,8 L 22.941,8 L 22.941,11 L 34.412,11 L 34.412,8 L 45.882,8 L 45.882,11 L 57.353,11 L 57.353,8 L 68.824,8 L 68.824,11 L 80.294,11 L 80.294,8 L 91.765,8 L 91.765,11 L 103.235,11 L 103.235,8 L 114.706,8 L 114.706,11 L 126.176,11 L 126.176,8 L 137.647,8 L 137.647,11 L 149.118,11 L 149.118,8 L 160.588,8 L 160.588,11 L 172.059,11 L 172.059,8 L 183.529,8 L 183.529,11 L 187,11 L 187,22.388 L 187,33.775 L 192,33.775 L 192,45.163 L 187,45.163 L 187,56.55 L 192,56.55 L 192,67.938 L 187,67.938 L 187,79.326 L 192,79.326 L 192,90.713 L 187,90.713 L 187,102.101 L 192,102.101 L 192,113.488 L 187,113.488 L 187,124.876 L 192,124.876 L 192,136.263 L 187,136.263 L 187,147.651 L 192,147.651 L 192,159.039 L 187,159.039 L 187,170.426 L 192,170.426 L 192,181.814 L 187,181.814 L 187,193.201 L 192,193.201 L 192,204.589 L 187,204.589 L 187,215.977 L 192,215.977 L 192,227.364 L 187,227.364 L 187,238.752 L 192,238.752 L 192,250.139 L 187,250.139 L 187,261.527 L 192,261.527 L 192,272.914 L 187,272.914 L 187,284.302 L 192,284.302 L 192,295.69 L 187,295.69 L 187,307.077 L 192,307.077 L 192,318.465 L 187,318.465 L 187,329.852 L 187,341.24 L 183.529,341.24 L 183.529,346.24 L 172.059,346.24 L 172.059,341.24 L 160.588,341.24 L 160.588,346.24 L 149.118,346.24 L 149.118,341.24 L 137.647,341.24 L 137.647,346.24 L 126.176,346.24 L 126.176,341.24 L 114.706,341.24 L 114.706,346.24 L 103.235,346.24 L 103.235,341.24 L 91.765,341.24 L 91.765,346.24 L 80.294,346.24 L 80.294,341.24 L 68.824,341.24 L 68.824,346.24 L 57.353,346.24 L 57.353,341.24 L 45.882,341.24 L 45.882,346.24 L 34.412,346.24 L 34.412,341.24 L 22.941,341.24 L 22.941,346.24 L 11.471,346.24 L 11.471,341.24 L 8,341.24 L 8,329.852 L 8,318.465 L 3,318.465 L 3,307.077 L 8,307.077 L 8,295.69 L 3,295.69 L 3,284.302 L 8,284.302 L 8,272.914 L 3,272.914 L 3,261.527 L 8,261.527 L 8,250.139 L 3,250.139 L 3,238.752 L 8,238.752 L 8,227.364 L 3,227.364 L 3,215.977 L 8,215.977 L 8,204.589 L 3,204.589 L 3,193.201 L 8,193.201 L 8,181.814 L 3,181.814 L 3,170.426 L 8,170.426 L 8,159.039 L 3,159.039 L 3,147.651 L 8,147.651 L 8,136.263 L 3,136.263 L 3,124.876 L 8,124.876 L 8,113.488 L 3,113.488 L 3,102.101 L 8,102.101 L 8,90.713 L 3,90.713 L 3,79.326 L 8,79.326 L 8,67.938 L 3,67.938 L 3,56.55 L 8,56.55 L 8,45.163 L 3,45.163 L 3,33.775 L 8,33.775 L 8,22.388 Z" fill="none" stroke="#ff0000" stroke-width="0.1"/>
  <rect x="13" y="334.79" width="85" height="1.45" fill="none" stroke="#0000ff" stroke-width="0.1"/>
  <text x="13" y="333.29" font-size="2" fill="#999" font-family="monospace">Pi5 (ports on left side)</text>
</svg>
