<?xml version="1.0" encoding="UTF-8"?>
<svg xmlns="http://www.w3.org/2000/svg" width="194mm" height="337.74mm" viewBox="0 0 194 337.74">
<!-- Red=cut, Blue=score/engrave. All dims in mm. -->
  <text x="7.5" y="4.5" font-size="3" fill="#999" font-family="monospace">BACK PANEL 179x322.7mm (3mm)</text>
  <path d="M 7.5,10.5 L 11.412,10.5 L 11.412,7.5 L 22.824,7.5 L 22.824,10.5 L 34.235,10.5 L 34.235,7.5 L 45.647,7.5 L 45.647,10.5 L 57.059,10.5 L 57.059,7.5 L 68.471,7.5 L 68.471,10.5 L 79.882,10.5 L 79.882,7.5 L 91.294,7.5 L 91.294,10.5 L 102.706,10.5 L 102.706,7.5 L 114.118,7.5 L 114.118,10.5 L 125.529,10.5 L 125.529,7.5 L 136.941,7.5 L 136.941,10.5 L 148.353,10.5 L 148.353,7.5 L 159.765,7.5 L 159.765,10.5 L 171.176,10.5 L 171.176,7.5 L 182.588,7.5 L 182.588,10.5 L 186.5,10.5 L 186.5,22.176 L 186.5,33.851 L 191,33.851 L 191,45.527 L 186.5,45.527 L 186.5,57.202 L 191,57.202 L 191,68.878 L 186.5,68.878 L 186.5,80.553 L 191,80.553 L 191,92.229 L 186.5,92.229 L 186.5,103.904 L 191,103.904 L 191,115.58 L 186.5,115.58 L 186.5,127.256 L 191,127.256 L 191,138.931 L 186.5,138.931 L 186.5,150.607 L 191,150.607 L 191,162.282 L 186.5,162.282 L 186.5,173.958 L 191,173.958 L 191,185.633 L 186.5,185.633 L 186.5,197.309 L 191,197.309 L 191,208.984 L 186.5,208.984 L 186.5,220.66 L 191,220.66 L 191,232.336 L 186.5,232.336 L 186.5,244.011 L 191,244.011 L 191,255.687 L 186.5,255.687 L 186.5,267.362 L 191,267.362 L 191,279.038 L 186.5,279.038 L 186.5,290.713 L 191,290.713 L 191,302.389 L 186.5,302.389 L 186.5,314.064 L 186.5,325.74 L 182.588,325.74 L 182.588,330.24 L 171.176,330.24 L 171.176,325.74 L 159.765,325.74 L 159.765,330.24 L 148.353,330.24 L 148.353,325.74 L 136.941,325.74 L 136.941,330.24 L 125.529,330.24 L 125.529,325.74 L 114.118,325.74 L 114.118,330.24 L 102.706,330.24 L 102.706,325.74 L 91.294,325.74 L 91.294,330.24 L 79.882,330.24 L 79.882,325.74 L 68.471,325.74 L 68.471,330.24 L 57.059,330.24 L 57.059,325.74 L 45.647,325.74 L 45.647,330.24 L 34.235,330.24 L 34.235,325.74 L 22.824,325.74 L 22.824,330.24 L 11.412,330.24 L 11.412,325.74 L 7.5,325.74 L 7.5,314.064 L 7.5,302.389 L 3,302.389 L 3,290.713 L 7.5,290.713 L 7.5,279.038 L 3,279.038 L 3,267.362 L 7.5,267.362 L 7.5,255.687 L 3,255.687 L 3,244.011 L 7.5,244.011 L 7.5,232.336 L 3,232.336 L 3,220.66 L 7.5,220.66 L 7.5,208.984 L 3,208.984 L 3,197.309 L 7.5,197.309 L 7.5,185.633 L 3,185.633 L 3,173.958 L 7.5,173.958 L 7.5,162.282 L 3,162.282 L 3,150.607 L 7.5,150.607 L 7.5,138.931 L 3,138.931 L 3,127.256 L 7.5,127.256 L 7.5,115.58 L 3,115.58 L 3,103.904 L 7.5,103.904 L 7.5,92.229 L 3,92.229 L 3,80.553 L 7.5,80.553 L 7.5,68.878 L 3,68.878 L 3,57.202 L 7.5,57.202 L 7.5,45.527 L 3,45.527 L 3,33.851 L 7.5,33.851 L 7.5,22.176 Z" fill="none" stroke="#ff0000" stroke-width="0.1"/>
  <path d="M 44.623,80.862 L 38.143,101.862" fill="none" stroke="#0000ff" stroke-width="0.1"/>
  <path d="M 44.05,80.685 L 37.57,101.685" fill="none" stroke="#0000ff" stroke-width="0.1"/>
  <path d="M 43.477,80.508 L 36.997,101.508" fill="none" stroke="#0000ff" stroke-width="0.1"/>
  <path d="M 44.05,80.085 L 49.45,80.085" fill="none" stroke="#0000ff" stroke-width="0.1"/>
  <path d="M 44.05,80.685 L 49.45,80.685" fill="none" stroke="#0000ff" stroke-width="0.1"/>
  <path d="M 44.05,81.285 L 49.45,81.285" fill="none" stroke="#0000ff" stroke-width="0.1"/>
  <path d="M 49.667,80.126 L 53.537,81.626" fill="none" stroke="#0000ff" stroke-width="0.1"/>
  <path d="M 49.45,80.685 L 53.32,82.185" fill="none" stroke="#0000ff" stroke-width="0.1"/>
  <path d="M 49.233,81.244 L 53.103,82.744" fill="none" stroke="#0000ff" stroke-width="0.1"/>
  <path d="M 53.92,82.173 L 53.992,85.773" fill="none" stroke="#0000ff" stroke-width="0.1"/>
  <path d="M 53.32,82.185 L 53.392,85.785" fill="none" stroke="#0000ff" stroke-width="0.1"/>
  <path d="M 52.72,82.197 L 52.792,85.797" fill="none" stroke="#0000ff" stroke-width="0.1"/>
  <path d="M 53.956,85.991 L 52.534,89.891" fill="none" stroke="#0000ff" stroke-width="0.1"/>
  <path d="M 53.392,85.785 L 51.97,89.685" fill="none" stroke="#0000ff" stroke-width="0.1"/>
  <path d="M 52.828,85.579 L 51.406,89.479" fill="none" stroke="#0000ff" stroke-width="0.1"/>
  <path d="M 52.163,90.253 L 47.753,91.753" fill="none" stroke="#0000ff" stroke-width="0.1"/>
  <path d="M 51.97,89.685 L 47.56,91.185" fill="none" stroke="#0000ff" stroke-width="0.1"/>
  <path d="M 51.777,89.117 L 47.367,90.617" fill="none" stroke="#0000ff" stroke-width="0.1"/>
  <path d="M 47.56,91.785 L 41.26,91.785" fill="none" stroke="#0000ff" stroke-width="0.1"/>
  <path d="M 47.56,91.185 L 41.26,91.185" fill="none" stroke="#0000ff" stroke-width="0.1"/>
  <path d="M 47.56,90.585 L 41.26,90.585" fill="none" stroke="#0000ff" stroke-width="0.1"/>
  <path d="M 67.425,80.857 L 62.925,95.857" fill="none" stroke="#0000ff" stroke-width="0.1"/>
  <path d="M 66.85,80.685 L 62.35,95.685" fill="none" stroke="#0000ff" stroke-width="0.1"/>
  <path d="M 66.275,80.513 L 61.775,95.513" fill="none" stroke="#0000ff" stroke-width="0.1"/>
  <path d="M 69.594,75.784 L 68.856,77.884" fill="none" stroke="#0000ff" stroke-width="0.1"/>
  <path d="M 69.028,75.585 L 68.29,77.685" fill="none" stroke="#0000ff" stroke-width="0.1"/>
  <path d="M 68.462,75.386 L 67.724,77.486" fill="none" stroke="#0000ff" stroke-width="0.1"/>
  <path d="M 83.17,86.085 L 93.97,86.085" fill="none" stroke="#0000ff" stroke-width="0.1"/>
  <path d="M 83.17,86.685 L 93.97,86.685" fill="none" stroke="#0000ff" stroke-width="0.1"/>
  <path d="M 83.17,87.285 L 93.97,87.285" fill="none" stroke="#0000ff" stroke-width="0.1"/>
  <path d="M 107.625,80.857 L 103.125,95.857" fill="none" stroke="#0000ff" stroke-width="0.1"/>
  <path d="M 107.05,80.685 L 102.55,95.685" fill="none" stroke="#0000ff" stroke-width="0.1"/>
  <path d="M 106.475,80.513 L 101.975,95.513" fill="none" stroke="#0000ff" stroke-width="0.1"/>
  <path d="M 105.811,84.765 L 110.221,80.265" fill="none" stroke="#0000ff" stroke-width="0.1"/>
  <path d="M 106.24,85.185 L 110.65,80.685" fill="none" stroke="#0000ff" stroke-width="0.1"/>
  <path d="M 106.669,85.605 L 111.079,81.105" fill="none" stroke="#0000ff" stroke-width="0.1"/>
  <path d="M 110.65,80.085 L 114.25,80.085" fill="none" stroke="#0000ff" stroke-width="0.1"/>
  <path d="M 110.65,80.685 L 114.25,80.685" fill="none" stroke="#0000ff" stroke-width="0.1"/>
  <path d="M 110.65,81.285 L 114.25,81.285" fill="none" stroke="#0000ff" stroke-width="0.1"/>
  <path d="M 114.836,80.556 L 115.826,85.056" fill="none" stroke="#0000ff" stroke-width="0.1"/>
  <path d="M 114.25,80.685 L 115.24,85.185" fill="none" stroke="#0000ff" stroke-width="0.1"/>
  <path d="M 113.664,80.814 L 114.654,85.314" fill="none" stroke="#0000ff" stroke-width="0.1"/>
  <path d="M 115.806,85.384 L 112.116,95.884" fill="none" stroke="#0000ff" stroke-width="0.1"/>
  <path d="M 115.24,85.185 L 111.55,95.685" fill="none" stroke="#0000ff" stroke-width="0.1"/>
  <path d="M 114.674,84.986 L 110.984,95.486" fill="none" stroke="#0000ff" stroke-width="0.1"/>
  <path d="M 136.15,81.285 L 132.55,81.285" fill="none" stroke="#0000ff" stroke-width="0.1"/>
  <path d="M 136.15,80.685 L 132.55,80.685" fill="none" stroke="#0000ff" stroke-width="0.1"/>
  <path d="M 136.15,80.085 L 132.55,80.085" fill="none" stroke="#0000ff" stroke-width="0.1"/>
  <path d="M 132.857,81.201 L 127.817,84.201" fill="none" stroke="#0000ff" stroke-width="0.1"/>
  <path d="M 132.55,80.685 L 127.51,83.685" fill="none" stroke="#0000ff" stroke-width="0.1"/>
  <path d="M 132.243,80.169 L 127.203,83.169" fill="none" stroke="#0000ff" stroke-width="0.1"/>
  <path d="M 128.071,83.898 L 126.361,88.398" fill="none" stroke="#0000ff" stroke-width="0.1"/>
  <path d="M 127.51,83.685 L 125.8,88.185" fill="none" stroke="#0000ff" stroke-width="0.1"/>
  <path d="M 126.949,83.472 L 125.239,87.972" fill="none" stroke="#0000ff" stroke-width="0.1"/>
  <path d="M 126.4,88.173 L 126.49,92.673" fill="none" stroke="#0000ff" stroke-width="0.1"/>
  <path d="M 125.8,88.185 L 125.89,92.685" fill="none" stroke="#0000ff" stroke-width="0.1"/>
  <path d="M 125.2,88.197 L 125.29,92.697" fill="none" stroke="#0000ff" stroke-width="0.1"/>
  <path d="M 126.252,92.207 L 130.212,95.207" fill="none" stroke="#0000ff" stroke-width="0.1"/>
  <path d="M 125.89,92.685 L 129.85,95.685" fill="none" stroke="#0000ff" stroke-width="0.1"/>
  <path d="M 125.528,93.163 L 129.488,96.163" fill="none" stroke="#0000ff" stroke-width="0.1"/>
  <path d="M 129.58,95.149 L 132.55,93.649" fill="none" stroke="#0000ff" stroke-width="0.1"/>
  <path d="M 129.85,95.685 L 132.82,94.185" fill="none" stroke="#0000ff" stroke-width="0.1"/>
  <path d="M 130.12,96.221 L 133.09,94.721" fill="none" stroke="#0000ff" stroke-width="0.1"/>
  <path d="M 138.152,80.894 L 132.572,95.894" fill="none" stroke="#0000ff" stroke-width="0.1"/>
  <path d="M 137.59,80.685 L 132.01,95.685" fill="none" stroke="#0000ff" stroke-width="0.1"/>
  <path d="M 137.028,80.476 L 131.448,95.476" fill="none" stroke="#0000ff" stroke-width="0.1"/>
  <path d="M 157.534,82.732 L 154.204,81.232" fill="none" stroke="#0000ff" stroke-width="0.1"/>
  <path d="M 157.78,82.185 L 154.45,80.685" fill="none" stroke="#0000ff" stroke-width="0.1"/>
  <path d="M 158.026,81.638 L 154.696,80.138" fill="none" stroke="#0000ff" stroke-width="0.1"/>
  <path d="M 154.564,81.274 L 149.902,82.174" fill="none" stroke="#0000ff" stroke-width="0.1"/>
  <path d="M 154.45,80.685 L 149.788,81.585" fill="none" stroke="#0000ff" stroke-width="0.1"/>
  <path d="M 154.336,80.096 L 149.674,80.996" fill="none" stroke="#0000ff" stroke-width="0.1"/>
  <path d="M 150.289,81.916 L 148.309,84.916" fill="none" stroke="#0000ff" stroke-width="0.1"/>
  <path d="M 149.788,81.585 L 147.808,84.585" fill="none" stroke="#0000ff" stroke-width="0.1"/>
  <path d="M 149.287,81.254 L 147.307,84.254" fill="none" stroke="#0000ff" stroke-width="0.1"/>
  <path d="M 148.322,84.276 L 150.122,87.276" fill="none" stroke="#0000ff" stroke-width="0.1"/>
  <path d="M 147.808,84.585 L 149.608,87.585" fill="none" stroke="#0000ff" stroke-width="0.1"/>
  <path d="M 147.294,84.894 L 149.094,87.894" fill="none" stroke="#0000ff" stroke-width="0.1"/>
  <path d="M 149.88,87.05 L 154.002,89.15" fill="none" stroke="#0000ff" stroke-width="0.1"/>
  <path d="M 149.608,87.585 L 153.73,89.685" fill="none" stroke="#0000ff" stroke-width="0.1"/>
  <path d="M 149.336,88.12 L 153.458,90.22" fill="none" stroke="#0000ff" stroke-width="0.1"/>
  <path d="M 154.305,89.513 L 155.205,92.513" fill="none" stroke="#0000ff" stroke-width="0.1"/>
  <path d="M 153.73,89.685 L 154.63,92.685" fill="none" stroke="#0000ff" stroke-width="0.1"/>
  <path d="M 153.155,89.857 L 154.055,92.857" fill="none" stroke="#0000ff" stroke-width="0.1"/>
  <path d="M 155.063,93.101 L 152.183,96.101" fill="none" stroke="#0000ff" stroke-width="0.1"/>
  <path d="M 154.63,92.685 L 151.75,95.685" fill="none" stroke="#0000ff" stroke-width="0.1"/>
  <path d="M 154.197,92.269 L 151.317,95.269" fill="none" stroke="#0000ff" stroke-width="0.1"/>
  <path d="M 151.628,96.272 L 147.29,95.372" fill="none" stroke="#0000ff" stroke-width="0.1"/>
  <path d="M 151.75,95.685 L 147.412,94.785" fill="none" stroke="#0000ff" stroke-width="0.1"/>
  <path d="M 151.872,95.098 L 147.534,94.198" fill="none" stroke="#0000ff" stroke-width="0.1"/>
  <path d="M 147.01,95.23 L 144.688,93.13" fill="none" stroke="#0000ff" stroke-width="0.1"/>
  <path d="M 147.412,94.785 L 145.09,92.685" fill="none" stroke="#0000ff" stroke-width="0.1"/>
  <path d="M 147.814,94.34 L 145.492,92.24" fill="none" stroke="#0000ff" stroke-width="0.1"/>
</svg>
