<?xml version="1.0" encoding="UTF-8"?>
<svg xmlns="http://www.w3.org/2000/svg" width="195mm" height="339.24mm" viewBox="0 0 195 339.24">
<!-- Red=cut, Blue=score/engrave. All dims in mm. -->
  <text x="8" y="5" font-size="3" fill="#999" font-family="monospace">BACK PANEL 179x323.2mm (3mm)</text>
  <path d="M 8,11 L 11.471,11 L 11.471,8 L 22.941,8 L 22.941,11 L 34.412,11 L 34.412,8 L 45.882,8 L 45.882,11 L 57.353,11 L 57.353,8 L 68.824,8 L 68.824,11 L 80.294,11 L 80.294,8 L 91.765,8 L 91.765,11 L 103.235,11 L 103.235,8 L 114.706,8 L 114.706,11 L 126.176,11 L 126.176,8 L 137.647,8 L 137.647,11 L 149.118,11 L 149.118,8 L 160.588,8 L 160.588,11 L 172.059,11 L 172.059,8 L 183.529,8 L 183.529,11 L 187,11 L 187,22.676 L 187,34.351 L 192,34.351 L 192,46.027 L 187,46.027 L 187,57.702 L 192,57.702 L 192,69.378 L 187,69.378 L 187,81.053 L 192,81.053 L 192,92.729 L 187,92.729 L 187,104.404 L 192,104.404 L 192,116.08 L 187,116.08 L 187,127.756 L 192,127.756 L 192,139.431 L 187,139.431 L 187,151.107 L 192,151.107 L 192,162.782 L 187,162.782 L 187,174.458 L 192,174.458 L 192,186.133 L 187,186.133 L 187,197.809 L 192,197.809 L 192,209.484 L 187,209.484 L 187,221.16 L 192,221.16 L 192,232.836 L 187,232.836 L 187,244.511 L 192,244.511 L 192,256.187 L 187,256.187 L 187,267.862 L 192,267.862 L 192,279.538 L 187,279.538 L 187,291.213 L 192,291.213 L 192,302.889 L 187,302.889 L 187,314.564 L 187,326.24 L 183.529,326.24 L 183.529,331.24 L 172.059,331.24 L 172.059,326.24 L 160.588,326.24 L 160.588,331.24 L 149.118,331.24 L 149.118,326.24 L 137.647,326.24 L 137.647,331.24 L 126.176,331.24 L 126.176,326.24 L 114.706,326.24 L 114.706,331.24 L 103.235,331.24 L 103.235,326.24 L 91.765,326.24 L 91.765,331.24 L 80.294,331.24 L 80.294,326.24 L 68.824,326.24 L 68.824,331.24 L 57.353,331.24 L 57.353,326.24 L 45.882,326.24 L 45.882,331.24 L 34.412,331.24 L 34.412,326.24 L 22.941,326.24 L 22.941,331.24 L 11.471,331.24 L 11.471,326.24 L 8,326.24 L 8,314.564 L 8,302.889 L 3,302.889 L 3,291.213 L 8,291.213 L 8,279.538 L 3,279.538 L 3,267.862 L 8,267.862 L 8,256.187 L 3,256.187 L 3,244.511 L 8,244.511 L 8,232.836 L 3,232.836 L 3,221.16 L 8,221.16 L 8,209.484 L 3,209.484 L 3,197.809 L 8,197.809 L 8,186.133 L 3,186.133 L 3,174.458 L 8,174.458 L 8,162.782 L 3,162.782 L 3,151.107 L 8,151.107 L 8,139.431 L 3,139.431 L 3,127.756 L 8,127.756 L 8,116.08 L 3,116.08 L 3,104.404 L 8,104.404 L 8,92.729 L 3,92.729 L 3,81.053 L 8,81.053 L 8,69.378 L 3,69.378 L 3,57.702 L 8,57.702 L 8,46.027 L 3,46.027 L 3,34.351 L 8,34.351 L 8,22.676 Z" fill="none" stroke="#ff0000" stroke-width="0.1"/>
  <path d="M 45.123,81.487 L 38.643,102.487" fill="none" stroke="#0000ff" stroke-width="0.1"/>
  <path d="M 44.55,81.31 L 38.07,102.31" fill="none" stroke="#0000ff" stroke-width="0.1"/>
  <path d="M 43.977,81.133 L 37.497,102.133" fill="none" stroke="#0000ff" stroke-width="0.1"/>
  <path d="M 44.55,80.71 L 49.95,80.71" fill="none" stroke="#0000ff" stroke-width="0.1"/>
  <path d="M 44.55,81.31 L 49.95,81.31" fill="none" stroke="#0000ff" stroke-width="0.1"/>
  <path d="M 44.55,81.91 L 49.95,81.91" fill="none" stroke="#0000ff" stroke-width="0.1"/>
  <path d="M 50.167,80.751 L 54.037,82.251" fill="none" stroke="#0000ff" stroke-width="0.1"/>
  <path d="M 49.95,81.31 L 53.82,82.81" fill="none" stroke="#0000ff" stroke-width="0.1"/>
  <path d="M 49.733,81.869 L 53.603,83.369" fill="none" stroke="#0000ff" stroke-width="0.1"/>
  <path d="M 54.42,82.798 L 54.492,86.398" fill="none" stroke="#0000ff" stroke-width="0.1"/>
  <path d="M 53.82,82.81 L 53.892,86.41" fill="none" stroke="#0000ff" stroke-width="0.1"/>
  <path d="M 53.22,82.822 L 53.292,86.422" fill="none" stroke="#0000ff" stroke-width="0.1"/>
  <path d="M 54.456,86.616 L 53.034,90.516" fill="none" stroke="#0000ff" stroke-width="0.1"/>
  <path d="M 53.892,86.41 L 52.47,90.31" fill="none" stroke="#0000ff" stroke-width="0.1"/>
  <path d="M 53.328,86.204 L 51.906,90.104" fill="none" stroke="#0000ff" stroke-width="0.1"/>
  <path d="M 52.663,90.878 L 48.253,92.378" fill="none" stroke="#0000ff" stroke-width="0.1"/>
  <path d="M 52.47,90.31 L 48.06,91.81" fill="none" stroke="#0000ff" stroke-width="0.1"/>
  <path d="M 52.277,89.742 L 47.867,91.242" fill="none" stroke="#0000ff" stroke-width="0.1"/>
  <path d="M 48.06,92.41 L 41.76,92.41" fill="none" stroke="#0000ff" stroke-width="0.1"/>
  <path d="M 48.06,91.81 L 41.76,91.81" fill="none" stroke="#0000ff" stroke-width="0.1"/>
  <path d="M 48.06,91.21 L 41.76,91.21" fill="none" stroke="#0000ff" stroke-width="0.1"/>
  <path d="M 67.925,81.482 L 63.425,96.482" fill="none" stroke="#0000ff" stroke-width="0.1"/>
  <path d="M 67.35,81.31 L 62.85,96.31" fill="none" stroke="#0000ff" stroke-width="0.1"/>
  <path d="M 66.775,81.138 L 62.275,96.138" fill="none" stroke="#0000ff" stroke-width="0.1"/>
  <path d="M 70.094,76.409 L 69.356,78.509" fill="none" stroke="#0000ff" stroke-width="0.1"/>
  <path d="M 69.528,76.21 L 68.79,78.31" fill="none" stroke="#0000ff" stroke-width="0.1"/>
  <path d="M 68.962,76.011 L 68.224,78.111" fill="none" stroke="#0000ff" stroke-width="0.1"/>
  <path d="M 83.67,86.71 L 94.47,86.71" fill="none" stroke="#0000ff" stroke-width="0.1"/>
  <path d="M 83.67,87.31 L 94.47,87.31" fill="none" stroke="#0000ff" stroke-width="0.1"/>
  <path d="M 83.67,87.91 L 94.47,87.91" fill="none" stroke="#0000ff" stroke-width="0.1"/>
  <path d="M 108.125,81.482 L 103.625,96.482" fill="none" stroke="#0000ff" stroke-width="0.1"/>
  <path d="M 107.55,81.31 L 103.05,96.31" fill="none" stroke="#0000ff" stroke-width="0.1"/>
  <path d="M 106.975,81.138 L 102.475,96.138" fill="none" stroke="#0000ff" stroke-width="0.1"/>
  <path d="M 106.311,85.39 L 110.721,80.89" fill="none" stroke="#0000ff" stroke-width="0.1"/>
  <path d="M 106.74,85.81 L 111.15,81.31" fill="none" stroke="#0000ff" stroke-width="0.1"/>
  <path d="M 107.169,86.23 L 111.579,81.73" fill="none" stroke="#0000ff" stroke-width="0.1"/>
  <path d="M 111.15,80.71 L 114.75,80.71" fill="none" stroke="#0000ff" stroke-width="0.1"/>
  <path d="M 111.15,81.31 L 114.75,81.31" fill="none" stroke="#0000ff" stroke-width="0.1"/>
  <path d="M 111.15,81.91 L 114.75,81.91" fill="none" stroke="#0000ff" stroke-width="0.1"/>
  <path d="M 115.336,81.181 L 116.326,85.681" fill="none" stroke="#0000ff" stroke-width="0.1"/>
  <path d="M 114.75,81.31 L 115.74,85.81" fill="none" stroke="#0000ff" stroke-width="0.1"/>
  <path d="M 114.164,81.439 L 115.154,85.939" fill="none" stroke="#0000ff" stroke-width="0.1"/>
  <path d="M 116.306,86.009 L 112.616,96.509" fill="none" stroke="#0000ff" stroke-width="0.1"/>
  <path d="M 115.74,85.81 L 112.05,96.31" fill="none" stroke="#0000ff" stroke-width="0.1"/>
  <path d="M 115.174,85.611 L 111.484,96.111" fill="none" stroke="#0000ff" stroke-width="0.1"/>
  <path d="M 136.65,81.91 L 133.05,81.91" fill="none" stroke="#0000ff" stroke-width="0.1"/>
  <path d="M 136.65,81.31 L 133.05,81.31" fill="none" stroke="#0000ff" stroke-width="0.1"/>
  <path d="M 136.65,80.71 L 133.05,80.71" fill="none" stroke="#0000ff" stroke-width="0.1"/>
  <path d="M 133.357,81.826 L 128.317,84.826" fill="none" stroke="#0000ff" stroke-width="0.1"/>
  <path d="M 133.05,81.31 L 128.01,84.31" fill="none" stroke="#0000ff" stroke-width="0.1"/>
  <path d="M 132.743,80.794 L 127.703,83.794" fill="none" stroke="#0000ff" stroke-width="0.1"/>
  <path d="M 128.571,84.523 L 126.861,89.023" fill="none" stroke="#0000ff" stroke-width="0.1"/>
  <path d="M 128.01,84.31 L 126.3,88.81" fill="none" stroke="#0000ff" stroke-width="0.1"/>
  <path d="M 127.449,84.097 L 125.739,88.597" fill="none" stroke="#0000ff" stroke-width="0.1"/>
  <path d="M 126.9,88.798 L 126.99,93.298" fill="none" stroke="#0000ff" stroke-width="0.1"/>
  <path d="M 126.3,88.81 L 126.39,93.31" fill="none" stroke="#0000ff" stroke-width="0.1"/>
  <path d="M 125.7,88.822 L 125.79,93.322" fill="none" stroke="#0000ff" stroke-width="0.1"/>
  <path d="M 126.752,92.832 L 130.712,95.832" fill="none" stroke="#0000ff" stroke-width="0.1"/>
  <path d="M 126.39,93.31 L 130.35,96.31" fill="none" stroke="#0000ff" stroke-width="0.1"/>
  <path d="M 126.028,93.788 L 129.988,96.788" fill="none" stroke="#0000ff" stroke-width="0.1"/>
  <path d="M 130.08,95.774 L 133.05,94.274" fill="none" stroke="#0000ff" stroke-width="0.1"/>
  <path d="M 130.35,96.31 L 133.32,94.81" fill="none" stroke="#0000ff" stroke-width="0.1"/>
  <path d="M 130.62,96.846 L 133.59,95.346" fill="none" stroke="#0000ff" stroke-width="0.1"/>
  <path d="M 138.652,81.519 L 133.072,96.519" fill="none" stroke="#0000ff" stroke-width="0.1"/>
  <path d="M 138.09,81.31 L 132.51,96.31" fill="none" stroke="#0000ff" stroke-width="0.1"/>
  <path d="M 137.528,81.101 L 131.948,96.101" fill="none" stroke="#0000ff" stroke-width="0.1"/>
  <path d="M 158.034,83.357 L 154.704,81.857" fill="none" stroke="#0000ff" stroke-width="0.1"/>
  <path d="M 158.28,82.81 L 154.95,81.31" fill="none" stroke="#0000ff" stroke-width="0.1"/>
  <path d="M 158.526,82.263 L 155.196,80.763" fill="none" stroke="#0000ff" stroke-width="0.1"/>
  <path d="M 155.064,81.899 L 150.402,82.799" fill="none" stroke="#0000ff" stroke-width="0.1"/>
  <path d="M 154.95,81.31 L 150.288,82.21" fill="none" stroke="#0000ff" stroke-width="0.1"/>
  <path d="M 154.836,80.721 L 150.174,81.621" fill="none" stroke="#0000ff" stroke-width="0.1"/>
  <path d="M 150.789,82.541 L 148.809,85.541" fill="none" stroke="#0000ff" stroke-width="0.1"/>
  <path d="M 150.288,82.21 L 148.308,85.21" fill="none" stroke="#0000ff" stroke-width="0.1"/>
  <path d="M 149.787,81.879 L 147.807,84.879" fill="none" stroke="#0000ff" stroke-width="0.1"/>
  <path d="M 148.822,84.901 L 150.622,87.901" fill="none" stroke="#0000ff" stroke-width="0.1"/>
  <path d="M 148.308,85.21 L 150.108,88.21" fill="none" stroke="#0000ff" stroke-width="0.1"/>
  <path d="M 147.794,85.519 L 149.594,88.519" fill="none" stroke="#0000ff" stroke-width="0.1"/>
  <path d="M 150.38,87.675 L 154.502,89.775" fill="none" stroke="#0000ff" stroke-width="0.1"/>
  <path d="M 150.108,88.21 L 154.23,90.31" fill="none" stroke="#0000ff" stroke-width="0.1"/>
  <path d="M 149.836,88.745 L 153.958,90.845" fill="none" stroke="#0000ff" stroke-width="0.1"/>
  <path d="M 154.805,90.138 L 155.705,93.138" fill="none" stroke="#0000ff" stroke-width="0.1"/>
  <path d="M 154.23,90.31 L 155.13,93.31" fill="none" stroke="#0000ff" stroke-width="0.1"/>
  <path d="M 153.655,90.482 L 154.555,93.482" fill="none" stroke="#0000ff" stroke-width="0.1"/>
  <path d="M 155.563,93.726 L 152.683,96.726" fill="none" stroke="#0000ff" stroke-width="0.1"/>
  <path d="M 155.13,93.31 L 152.25,96.31" fill="none" stroke="#0000ff" stroke-width="0.1"/>
  <path d="M 154.697,92.894 L 151.817,95.894" fill="none" stroke="#0000ff" stroke-width="0.1"/>
  <path d="M 152.128,96.897 L 147.79,95.997" fill="none" stroke="#0000ff" stroke-width="0.1"/>
  <path d="M 152.25,96.31 L 147.912,95.41" fill="none" stroke="#0000ff" stroke-width="0.1"/>
  <path d="M 152.372,95.723 L 148.034,94.823" fill="none" stroke="#0000ff" stroke-width="0.1"/>
  <path d="M 147.51,95.855 L 145.188,93.755" fill="none" stroke="#0000ff" stroke-width="0.1"/>
  <path d="M 147.912,95.41 L 145.59,93.31" fill="none" stroke="#0000ff" stroke-width="0.1"/>
  <path d="M 148.314,94.965 L 145.992,92.865" fill="none" stroke="#0000ff" stroke-width="0.1"/>
</svg>
