<?xml version="1.0" encoding="UTF-8"?>
<svg xmlns="http://www.w3.org/2000/svg" width="158mm" height="351.24mm" viewBox="0 0 158 351.24">
<!-- Red=cut, Blue=score/engrave. All dims in mm. -->
  <text x="8" y="5" font-size="3" fill="#999" font-family="monospace">LEFT SIDE 142.0x335.2mm (5mm)</text>
  <path d="M 8,8 L 16,8 L 16,5 L 27.455,5 L 27.455,8 L 38.909,8 L 38.909,5 L 50.364,5 L 50.364,8 L 61.818,8 L 61.818,5 L 73.273,5 L 73.273,8 L 84.727,8 L 84.727,5 L 96.182,5 L 96.182,8 L 107.636,8 L 107.636,5 L 119.091,5 L 119.091,8 L 130.545,8 L 130.545,5 L 142,5 L 142,8 L 150,8 L 150,343.24 L 142,343.24 L 142,346.24 L 130.545,346.24 L 130.545,343.24 L 119.091,343.24 L 119.091,346.24 L 107.636,346.24 L 107.636,343.24 L 96.182,343.24 L 96.182,346.24 L 84.727,346.24 L 84.727,343.24 L 73.273,343.24 L 73.273,346.24 L 61.818,346.24 L 61.818,343.24 L 50.364,343.24 L 50.364,346.24 L 38.909,346.24 L 38.909,343.24 L 27.455,343.24 L 27.455,346.24 L 16,346.24 L 16,343.24 L 8,343.24 L 8,8 Z" fill="none" stroke="#ff0000" stroke-width="0.1"/>
  <rect x="11" y="31.12" width="3" height="11.56" fill="none" stroke="#ff0000" stroke-width="0.1"/>
  <rect x="11" y="54.24" width="3" height="11.56" fill="none" stroke="#ff0000" stroke-width="0.1"/>
  <rect x="11" y="77.36" width="3" height="11.56" fill="none" stroke="#ff0000" stroke-width="0.1"/>
  <rect x="11" y="100.48" width="3" height="11.56" fill="none" stroke="#ff0000" stroke-width="0.1"/>
  <rect x="11" y="123.6" width="3" height="11.56" fill="none" stroke="#ff0000" stroke-width="0.1"/>
  <rect x="11" y="146.72" width="3" height="11.56" fill="none" stroke="#ff0000" stroke-width="0.1"/>
  <rect x="11" y="169.84" width="3" height="11.56" fill="none" stroke="#ff0000" stroke-width="0.1"/>
  <rect x="11" y="192.96" width="3" height="11.56" fill="none" stroke="#ff0000" stroke-width="0.1"/>
  <rect x="11" y="216.08" width="3" height="11.56" fill="none" stroke="#ff0000" stroke-width="0.1"/>
  <rect x="11" y="239.2" width="3" height="11.56" fill="none" stroke="#ff0000" stroke-width="0.1"/>
  <rect x="11" y="262.32" width="3" height="11.56" fill="none" stroke="#ff0000" stroke-width="0.1"/>
  <rect x="11" y="285.44" width="3" height="11.56" fill="none" stroke="#ff0000" stroke-width="0.1"/>
  <rect x="11" y="308.56" width="3" height="11.56" fill="none" stroke="#ff0000" stroke-width="0.1"/>
  <rect x="144" y="31.12" width="3" height="11.56" fill="none" stroke="#ff0000" stroke-width="0.1"/>
  <rect x="144" y="54.24" width="3" height="11.56" fill="none" stroke="#ff0000" stroke-width="0.1"/>
  <rect x="144" y="77.36" width="3" height="11.56" fill="none" stroke="#ff0000" stroke-width="0.1"/>
  <rect x="144" y="100.48" width="3" height="11.56" fill="none" stroke="#ff0000" stroke-width="0.1"/>
  <rect x="144" y="123.6" width="3" height="11.56" fill="none" stroke="#ff0000" stroke-width="0.1"/>
  <rect x="144" y="146.72" width="3" height="11.56" fill="none" stroke="#ff0000" stroke-width="0.1"/>
  <rect x="144" y="169.84" width="3" height="11.56" fill="none" stroke="#ff0000" stroke-width="0.1"/>
  <rect x="144" y="192.96" width="3" height="11.56" fill="none" stroke="#ff0000" stroke-width="0.1"/>
  <rect x="144" y="216.08" width="3" height="11.56" fill="none" stroke="#ff0000" stroke-width="0.1"/>
  <rect x="144" y="239.2" width="3" height="11.56" fill="none" stroke="#ff0000" stroke-width="0.1"/>
  <rect x="144" y="262.32" width="3" height="11.56" fill="none" stroke="#ff0000" stroke-width="0.1"/>
  <rect x="144" y="285.44" width="3" height="11.56" fill="none" stroke="#ff0000" stroke-width="0.1"/>
  <rect x="144" y="308.56" width="3" height="11.56" fill="none" stroke="#ff0000" stroke-width="0.1"/>
  <rect x="52.25" y="315.29" width="17.9" height="15.5" rx="1.5" ry="1.5" fill="none" stroke="#ff0000" stroke-width="0.1"/>
  <text x="52.25" y="313.79" font-size="2" fill="#999" font-family="monospace">GbE</text>
  <rect x="72.3" y="313.19" width="15.6" height="16.6" rx="1.5" ry="1.5" fill="none" stroke="#ff0000" stroke-width="0.1"/>
  <text x="72.3" y="311.69" font-size="2" fill="#999" font-family="monospace">USB3</text>
  <rect x="90.1" y="313.19" width="15.8" height="16.6" rx="1.5" ry="1.5" fill="none" stroke="#ff0000" stroke-width="0.1"/>
  <text x="90.1" y="311.69" font-size="2" fill="#999" font-family="monospace">USB2</text>
  <rect x="86.1" y="303.09" width="19.8" height="6.1" rx="1.5" ry="1.5" fill="none" stroke="#ff0000" stroke-width="0.1"/>
  <text x="86.1" y="301.59" font-size="2" fill="#999" font-family="monospace">HAT</text>
  <circle cx="36" cy="323.24" r="4" fill="none" stroke="#ff0000" stroke-width="0.1"/>
  <text x="42" y="324.24" font-size="2" fill="#999" font-family="monospace">DC 12V</text>
  <rect x="19.85" y="51.85" width="5.3" height="10.3" fill="none" stroke="#ff0000" stroke-width="0.1"/>
  <rect x="126.85" y="51.85" width="5.3" height="10.3" fill="none" stroke="#ff0000" stroke-width="0.1"/>
  <rect x="27.15" y="282.99" width="18" height="2.5" rx="1.25" ry="1.25" fill="none" stroke="#ff0000" stroke-width="0.1"/>
  <rect x="67" y="282.99" width="18" height="2.5" rx="1.25" ry="1.25" fill="none" stroke="#ff0000" stroke-width="0.1"/>
  <rect x="106.85" y="282.99" width="18" height="2.5" rx="1.25" ry="1.25" fill="none" stroke="#ff0000" stroke-width="0.1"/>
  <rect x="27.15" y="257.99" width="18" height="2.5" rx="1.25" ry="1.25" fill="none" stroke="#ff0000" stroke-width="0.1"/>
  <rect x="67" y="257.99" width="18" height="2.5" rx="1.25" ry="1.25" fill="none" stroke="#ff0000" stroke-width="0.1"/>
  <rect x="106.85" y="257.99" width="18" height="2.5" rx="1.25" ry="1.25" fill="none" stroke="#ff0000" stroke-width="0.1"/>
  <rect x="27.15" y="232.99" width="18" height="2.5" rx="1.25" ry="1.25" fill="none" stroke="#ff0000" stroke-width="0.1"/>
  <rect x="67" y="232.99" width="18" height="2.5" rx="1.25" ry="1.25" fill="none" stroke="#ff0000" stroke-width="0.1"/>
  <rect x="106.85" y="232.99" width="18" height="2.5" rx="1.25" ry="1.25" fill="none" stroke="#ff0000" stroke-width="0.1"/>
  <rect x="27.15" y="207.99" width="18" height="2.5" rx="1.25" ry="1.25" fill="none" stroke="#ff0000" stroke-width="0.1"/>
  <rect x="67" y="207.99" width="18" height="2.5" rx="1.25" ry="1.25" fill="none" stroke="#ff0000" stroke-width="0.1"/>
  <rect x="106.85" y="207.99" width="18" height="2.5" rx="1.25" ry="1.25" fill="none" stroke="#ff0000" stroke-width="0.1"/>
  <rect x="27.15" y="177.99" width="18" height="2.5" rx="1.25" ry="1.25" fill="none" stroke="#ff0000" stroke-width="0.1"/>
  <rect x="67" y="177.99" width="18" height="2.5" rx="1.25" ry="1.25" fill="none" stroke="#ff0000" stroke-width="0.1"/>
  <rect x="106.85" y="177.99" width="18" height="2.5" rx="1.25" ry="1.25" fill="none" stroke="#ff0000" stroke-width="0.1"/>
  <rect x="27.15" y="154.592" width="18" height="2.5" rx="1.25" ry="1.25" fill="none" stroke="#ff0000" stroke-width="0.1"/>
  <rect x="67" y="154.592" width="18" height="2.5" rx="1.25" ry="1.25" fill="none" stroke="#ff0000" stroke-width="0.1"/>
  <rect x="106.85" y="154.592" width="18" height="2.5" rx="1.25" ry="1.25" fill="none" stroke="#ff0000" stroke-width="0.1"/>
  <rect x="27.15" y="131.194" width="18" height="2.5" rx="1.25" ry="1.25" fill="none" stroke="#ff0000" stroke-width="0.1"/>
  <rect x="67" y="131.194" width="18" height="2.5" rx="1.25" ry="1.25" fill="none" stroke="#ff0000" stroke-width="0.1"/>
  <rect x="106.85" y="131.194" width="18" height="2.5" rx="1.25" ry="1.25" fill="none" stroke="#ff0000" stroke-width="0.1"/>
  <rect x="27.15" y="107.796" width="18" height="2.5" rx="1.25" ry="1.25" fill="none" stroke="#ff0000" stroke-width="0.1"/>
  <rect x="67" y="107.796" width="18" height="2.5" rx="1.25" ry="1.25" fill="none" stroke="#ff0000" stroke-width="0.1"/>
  <rect x="106.85" y="107.796" width="18" height="2.5" rx="1.25" ry="1.25" fill="none" stroke="#ff0000" stroke-width="0.1"/>
  <rect x="27.15" y="84.398" width="18" height="2.5" rx="1.25" ry="1.25" fill="none" stroke="#ff0000" stroke-width="0.1"/>
  <rect x="67" y="84.398" width="18" height="2.5" rx="1.25" ry="1.25" fill="none" stroke="#ff0000" stroke-width="0.1"/>
  <rect x="106.85" y="84.398" width="18" height="2.5" rx="1.25" ry="1.25" fill="none" stroke="#ff0000" stroke-width="0.1"/>
  <rect x="27.15" y="61" width="18" height="2.5" rx="1.25" ry="1.25" fill="none" stroke="#ff0000" stroke-width="0.1"/>
  <rect x="67" y="61" width="18" height="2.5" rx="1.25" ry="1.25" fill="none" stroke="#ff0000" stroke-width="0.1"/>
  <rect x="106.85" y="61" width="18" height="2.5" rx="1.25" ry="1.25" fill="none" stroke="#ff0000" stroke-width="0.1"/>
</svg>
