<?xml version="1.0" encoding="UTF-8"?>
<svg xmlns="http://www.w3.org/2000/svg" width="148mm" height="331.24mm" viewBox="0 0 148 331.24">
<!-- Red=cut, Blue=score/engrave. All dims in mm. -->
  <text x="8" y="5" font-size="3" fill="#999" font-family="monospace">LEFT SIDE 132.0x315.2mm (5mm)</text>
  <path d="M 8,8 L 14,8 L 14,5 L 24.909,5 L 24.909,8 L 35.818,8 L 35.818,5 L 46.727,5 L 46.727,8 L 57.636,8 L 57.636,5 L 68.545,5 L 68.545,8 L 79.455,8 L 79.455,5 L 90.364,5 L 90.364,8 L 101.273,8 L 101.273,5 L 112.182,5 L 112.182,8 L 123.091,8 L 123.091,5 L 134,5 L 134,8 L 140,8 L 140,323.24 L 134,323.24 L 134,328.24 L 123.091,328.24 L 123.091,323.24 L 112.182,323.24 L 112.182,328.24 L 101.273,328.24 L 101.273,323.24 L 90.364,323.24 L 90.364,328.24 L 79.455,328.24 L 79.455,323.24 L 68.545,323.24 L 68.545,328.24 L 57.636,328.24 L 57.636,323.24 L 46.727,323.24 L 46.727,328.24 L 35.818,328.24 L 35.818,323.24 L 24.909,323.24 L 24.909,328.24 L 14,328.24 L 14,323.24 L 8,323.24 L 8,8 Z" fill="none" stroke="#ff0000" stroke-width="0.1"/>
  <rect x="11" y="31.351" width="3" height="11.676" fill="none" stroke="#ff0000" stroke-width="0.1"/>
  <rect x="11" y="54.702" width="3" height="11.676" fill="none" stroke="#ff0000" stroke-width="0.1"/>
  <rect x="11" y="78.053" width="3" height="11.676" fill="none" stroke="#ff0000" stroke-width="0.1"/>
  <rect x="11" y="101.404" width="3" height="11.676" fill="none" stroke="#ff0000" stroke-width="0.1"/>
  <rect x="11" y="124.756" width="3" height="11.676" fill="none" stroke="#ff0000" stroke-width="0.1"/>
  <rect x="11" y="148.107" width="3" height="11.676" fill="none" stroke="#ff0000" stroke-width="0.1"/>
  <rect x="11" y="171.458" width="3" height="11.676" fill="none" stroke="#ff0000" stroke-width="0.1"/>
  <rect x="11" y="194.809" width="3" height="11.676" fill="none" stroke="#ff0000" stroke-width="0.1"/>
  <rect x="11" y="218.16" width="3" height="11.676" fill="none" stroke="#ff0000" stroke-width="0.1"/>
  <rect x="11" y="241.511" width="3" height="11.676" fill="none" stroke="#ff0000" stroke-width="0.1"/>
  <rect x="11" y="264.862" width="3" height="11.676" fill="none" stroke="#ff0000" stroke-width="0.1"/>
  <rect x="11" y="288.213" width="3" height="11.676" fill="none" stroke="#ff0000" stroke-width="0.1"/>
  <rect x="134" y="31.351" width="3" height="11.676" fill="none" stroke="#ff0000" stroke-width="0.1"/>
  <rect x="134" y="54.702" width="3" height="11.676" fill="none" stroke="#ff0000" stroke-width="0.1"/>
  <rect x="134" y="78.053" width="3" height="11.676" fill="none" stroke="#ff0000" stroke-width="0.1"/>
  <rect x="134" y="101.404" width="3" height="11.676" fill="none" stroke="#ff0000" stroke-width="0.1"/>
  <rect x="134" y="124.756" width="3" height="11.676" fill="none" stroke="#ff0000" stroke-width="0.1"/>
  <rect x="134" y="148.107" width="3" height="11.676" fill="none" stroke="#ff0000" stroke-width="0.1"/>
  <rect x="134" y="171.458" width="3" height="11.676" fill="none" stroke="#ff0000" stroke-width="0.1"/>
  <rect x="134" y="194.809" width="3" height="11.676" fill="none" stroke="#ff0000" stroke-width="0.1"/>
  <rect x="134" y="218.16" width="3" height="11.676" fill="none" stroke="#ff0000" stroke-width="0.1"/>
  <rect x="134" y="241.511" width="3" height="11.676" fill="none" stroke="#ff0000" stroke-width="0.1"/>
  <rect x="134" y="264.862" width="3" height="11.676" fill="none" stroke="#ff0000" stroke-width="0.1"/>
  <rect x="134" y="288.213" width="3" height="11.676" fill="none" stroke="#ff0000" stroke-width="0.1"/>
  <rect x="18" y="51.85" width="5" height="10.3" fill="none" stroke="#ff0000" stroke-width="0.1"/>
  <rect x="125" y="51.85" width="5" height="10.3" fill="none" stroke="#ff0000" stroke-width="0.1"/>
  <rect x="25" y="264.99" width="18" height="2.5" rx="1.25" ry="1.25" fill="none" stroke="#ff0000" stroke-width="0.1"/>
  <rect x="65" y="264.99" width="18" height="2.5" rx="1.25" ry="1.25" fill="none" stroke="#ff0000" stroke-width="0.1"/>
  <rect x="105" y="264.99" width="18" height="2.5" rx="1.25" ry="1.25" fill="none" stroke="#ff0000" stroke-width="0.1"/>
  <rect x="25" y="245.99" width="18" height="2.5" rx="1.25" ry="1.25" fill="none" stroke="#ff0000" stroke-width="0.1"/>
  <rect x="65" y="245.99" width="18" height="2.5" rx="1.25" ry="1.25" fill="none" stroke="#ff0000" stroke-width="0.1"/>
  <rect x="105" y="245.99" width="18" height="2.5" rx="1.25" ry="1.25" fill="none" stroke="#ff0000" stroke-width="0.1"/>
  <rect x="25" y="226.99" width="18" height="2.5" rx="1.25" ry="1.25" fill="none" stroke="#ff0000" stroke-width="0.1"/>
  <rect x="65" y="226.99" width="18" height="2.5" rx="1.25" ry="1.25" fill="none" stroke="#ff0000" stroke-width="0.1"/>
  <rect x="105" y="226.99" width="18" height="2.5" rx="1.25" ry="1.25" fill="none" stroke="#ff0000" stroke-width="0.1"/>
  <rect x="25" y="207.99" width="18" height="2.5" rx="1.25" ry="1.25" fill="none" stroke="#ff0000" stroke-width="0.1"/>
  <rect x="65" y="207.99" width="18" height="2.5" rx="1.25" ry="1.25" fill="none" stroke="#ff0000" stroke-width="0.1"/>
  <rect x="105" y="207.99" width="18" height="2.5" rx="1.25" ry="1.25" fill="none" stroke="#ff0000" stroke-width="0.1"/>
  <rect x="25" y="177.99" width="18" height="2.5" rx="1.25" ry="1.25" fill="none" stroke="#ff0000" stroke-width="0.1"/>
  <rect x="65" y="177.99" width="18" height="2.5" rx="1.25" ry="1.25" fill="none" stroke="#ff0000" stroke-width="0.1"/>
  <rect x="105" y="177.99" width="18" height="2.5" rx="1.25" ry="1.25" fill="none" stroke="#ff0000" stroke-width="0.1"/>
  <rect x="25" y="154.592" width="18" height="2.5" rx="1.25" ry="1.25" fill="none" stroke="#ff0000" stroke-width="0.1"/>
  <rect x="65" y="154.592" width="18" height="2.5" rx="1.25" ry="1.25" fill="none" stroke="#ff0000" stroke-width="0.1"/>
  <rect x="105" y="154.592" width="18" height="2.5" rx="1.25" ry="1.25" fill="none" stroke="#ff0000" stroke-width="0.1"/>
  <rect x="25" y="131.194" width="18" height="2.5" rx="1.25" ry="1.25" fill="none" stroke="#ff0000" stroke-width="0.1"/>
  <rect x="65" y="131.194" width="18" height="2.5" rx="1.25" ry="1.25" fill="none" stroke="#ff0000" stroke-width="0.1"/>
  <rect x="105" y="131.194" width="18" height="2.5" rx="1.25" ry="1.25" fill="none" stroke="#ff0000" stroke-width="0.1"/>
  <rect x="25" y="107.796" width="18" height="2.5" rx="1.25" ry="1.25" fill="none" stroke="#ff0000" stroke-width="0.1"/>
  <rect x="65" y="107.796" width="18" height="2.5" rx="1.25" ry="1.25" fill="none" stroke="#ff0000" stroke-width="0.1"/>
  <rect x="105" y="107.796" width="18" height="2.5" rx="1.25" ry="1.25" fill="none" stroke="#ff0000" stroke-width="0.1"/>
  <rect x="25" y="84.398" width="18" height="2.5" rx="1.25" ry="1.25" fill="none" stroke="#ff0000" stroke-width="0.1"/>
  <rect x="65" y="84.398" width="18" height="2.5" rx="1.25" ry="1.25" fill="none" stroke="#ff0000" stroke-width="0.1"/>
  <rect x="105" y="84.398" width="18" height="2.5" rx="1.25" ry="1.25" fill="none" stroke="#ff0000" stroke-width="0.1"/>
  <rect x="25" y="61" width="18" height="2.5" rx="1.25" ry="1.25" fill="none" stroke="#ff0000" stroke-width="0.1"/>
  <rect x="65" y="61" width="18" height="2.5" rx="1.25" ry="1.25" fill="none" stroke="#ff0000" stroke-width="0.1"/>
  <rect x="105" y="61" width="18" height="2.5" rx="1.25" ry="1.25" fill="none" stroke="#ff0000" stroke-width="0.1"/>
</svg>
