<?xml version="1.0" encoding="UTF-8"?>
<svg xmlns="http://www.w3.org/2000/svg" width="150mm" height="345.24mm" viewBox="0 0 150 345.24">
<!-- Red=cut, Blue=score/engrave. All dims in mm. -->
  <text x="6" y="3" font-size="3" fill="#999" font-family="monospace">RIGHT SIDE 138.0x333.2mm (3mm)</text>
  <path d="M 6,6 L 12,6 L 12,3 L 23.455,3 L 23.455,6 L 34.909,6 L 34.909,3 L 46.364,3 L 46.364,6 L 57.818,6 L 57.818,3 L 69.273,3 L 69.273,6 L 80.727,6 L 80.727,3 L 92.182,3 L 92.182,6 L 103.636,6 L 103.636,3 L 115.091,3 L 115.091,6 L 126.545,6 L 126.545,3 L 138,3 L 138,6 L 144,6 L 144,339.24 L 138,339.24 L 138,342.24 L 126.545,342.24 L 126.545,339.24 L 115.091,339.24 L 115.091,342.24 L 103.636,342.24 L 103.636,339.24 L 92.182,339.24 L 92.182,342.24 L 80.727,342.24 L 80.727,339.24 L 69.273,339.24 L 69.273,342.24 L 57.818,342.24 L 57.818,339.24 L 46.364,339.24 L 46.364,342.24 L 34.909,342.24 L 34.909,339.24 L 23.455,339.24 L 23.455,342.24 L 12,342.24 L 12,339.24 L 6,339.24 L 6,6 Z" fill="none" stroke="#ff0000" stroke-width="0.1"/>
  <rect x="9" y="28.982" width="3" height="11.491" fill="none" stroke="#ff0000" stroke-width="0.1"/>
  <rect x="9" y="51.964" width="3" height="11.491" fill="none" stroke="#ff0000" stroke-width="0.1"/>
  <rect x="9" y="74.946" width="3" height="11.491" fill="none" stroke="#ff0000" stroke-width="0.1"/>
  <rect x="9" y="97.928" width="3" height="11.491" fill="none" stroke="#ff0000" stroke-width="0.1"/>
  <rect x="9" y="120.91" width="3" height="11.491" fill="none" stroke="#ff0000" stroke-width="0.1"/>
  <rect x="9" y="143.892" width="3" height="11.491" fill="none" stroke="#ff0000" stroke-width="0.1"/>
  <rect x="9" y="166.874" width="3" height="11.491" fill="none" stroke="#ff0000" stroke-width="0.1"/>
  <rect x="9" y="189.857" width="3" height="11.491" fill="none" stroke="#ff0000" stroke-width="0.1"/>
  <rect x="9" y="212.839" width="3" height="11.491" fill="none" stroke="#ff0000" stroke-width="0.1"/>
  <rect x="9" y="235.821" width="3" height="11.491" fill="none" stroke="#ff0000" stroke-width="0.1"/>
  <rect x="9" y="258.803" width="3" height="11.491" fill="none" stroke="#ff0000" stroke-width="0.1"/>
  <rect x="9" y="281.785" width="3" height="11.491" fill="none" stroke="#ff0000" stroke-width="0.1"/>
  <rect x="9" y="304.767" width="3" height="11.491" fill="none" stroke="#ff0000" stroke-width="0.1"/>
  <rect x="138" y="28.982" width="3" height="11.491" fill="none" stroke="#ff0000" stroke-width="0.1"/>
  <rect x="138" y="51.964" width="3" height="11.491" fill="none" stroke="#ff0000" stroke-width="0.1"/>
  <rect x="138" y="74.946" width="3" height="11.491" fill="none" stroke="#ff0000" stroke-width="0.1"/>
  <rect x="138" y="97.928" width="3" height="11.491" fill="none" stroke="#ff0000" stroke-width="0.1"/>
  <rect x="138" y="120.91" width="3" height="11.491" fill="none" stroke="#ff0000" stroke-width="0.1"/>
  <rect x="138" y="143.892" width="3" height="11.491" fill="none" stroke="#ff0000" stroke-width="0.1"/>
  <rect x="138" y="166.874" width="3" height="11.491" fill="none" stroke="#ff0000" stroke-width="0.1"/>
  <rect x="138" y="189.857" width="3" height="11.491" fill="none" stroke="#ff0000" stroke-width="0.1"/>
  <rect x="138" y="212.839" width="3" height="11.491" fill="none" stroke="#ff0000" stroke-width="0.1"/>
  <rect x="138" y="235.821" width="3" height="11.491" fill="none" stroke="#ff0000" stroke-width="0.1"/>
  <rect x="138" y="258.803" width="3" height="11.491" fill="none" stroke="#ff0000" stroke-width="0.1"/>
  <rect x="138" y="281.785" width="3" height="11.491" fill="none" stroke="#ff0000" stroke-width="0.1"/>
  <rect x="138" y="304.767" width="3" height="11.491" fill="none" stroke="#ff0000" stroke-width="0.1"/>
  <rect x="15.85" y="49.85" width="5.3" height="10.3" fill="none" stroke="#ff0000" stroke-width="0.1"/>
  <rect x="122.85" y="49.85" width="5.3" height="10.3" fill="none" stroke="#ff0000" stroke-width="0.1"/>
  <rect x="23.15" y="280.99" width="18" height="2.5" rx="1.25" ry="1.25" fill="none" stroke="#ff0000" stroke-width="0.1"/>
  <rect x="63" y="280.99" width="18" height="2.5" rx="1.25" ry="1.25" fill="none" stroke="#ff0000" stroke-width="0.1"/>
  <rect x="102.85" y="280.99" width="18" height="2.5" rx="1.25" ry="1.25" fill="none" stroke="#ff0000" stroke-width="0.1"/>
  <rect x="23.15" y="255.99" width="18" height="2.5" rx="1.25" ry="1.25" fill="none" stroke="#ff0000" stroke-width="0.1"/>
  <rect x="63" y="255.99" width="18" height="2.5" rx="1.25" ry="1.25" fill="none" stroke="#ff0000" stroke-width="0.1"/>
  <rect x="102.85" y="255.99" width="18" height="2.5" rx="1.25" ry="1.25" fill="none" stroke="#ff0000" stroke-width="0.1"/>
  <rect x="23.15" y="230.99" width="18" height="2.5" rx="1.25" ry="1.25" fill="none" stroke="#ff0000" stroke-width="0.1"/>
  <rect x="63" y="230.99" width="18" height="2.5" rx="1.25" ry="1.25" fill="none" stroke="#ff0000" stroke-width="0.1"/>
  <rect x="102.85" y="230.99" width="18" height="2.5" rx="1.25" ry="1.25" fill="none" stroke="#ff0000" stroke-width="0.1"/>
  <rect x="23.15" y="205.99" width="18" height="2.5" rx="1.25" ry="1.25" fill="none" stroke="#ff0000" stroke-width="0.1"/>
  <rect x="63" y="205.99" width="18" height="2.5" rx="1.25" ry="1.25" fill="none" stroke="#ff0000" stroke-width="0.1"/>
  <rect x="102.85" y="205.99" width="18" height="2.5" rx="1.25" ry="1.25" fill="none" stroke="#ff0000" stroke-width="0.1"/>
  <rect x="23.15" y="175.99" width="18" height="2.5" rx="1.25" ry="1.25" fill="none" stroke="#ff0000" stroke-width="0.1"/>
  <rect x="63" y="175.99" width="18" height="2.5" rx="1.25" ry="1.25" fill="none" stroke="#ff0000" stroke-width="0.1"/>
  <rect x="102.85" y="175.99" width="18" height="2.5" rx="1.25" ry="1.25" fill="none" stroke="#ff0000" stroke-width="0.1"/>
  <rect x="23.15" y="152.592" width="18" height="2.5" rx="1.25" ry="1.25" fill="none" stroke="#ff0000" stroke-width="0.1"/>
  <rect x="63" y="152.592" width="18" height="2.5" rx="1.25" ry="1.25" fill="none" stroke="#ff0000" stroke-width="0.1"/>
  <rect x="102.85" y="152.592" width="18" height="2.5" rx="1.25" ry="1.25" fill="none" stroke="#ff0000" stroke-width="0.1"/>
  <rect x="23.15" y="129.194" width="18" height="2.5" rx="1.25" ry="1.25" fill="none" stroke="#ff0000" stroke-width="0.1"/>
  <rect x="63" y="129.194" width="18" height="2.5" rx="1.25" ry="1.25" fill="none" stroke="#ff0000" stroke-width="0.1"/>
  <rect x="102.85" y="129.194" width="18" height="2.5" rx="1.25" ry="1.25" fill="none" stroke="#ff0000" stroke-width="0.1"/>
  <rect x="23.15" y="105.796" width="18" height="2.5" rx="1.25" ry="1.25" fill="none" stroke="#ff0000" stroke-width="0.1"/>
  <rect x="63" y="105.796" width="18" height="2.5" rx="1.25" ry="1.25" fill="none" stroke="#ff0000" stroke-width="0.1"/>
  <rect x="102.85" y="105.796" width="18" height="2.5" rx="1.25" ry="1.25" fill="none" stroke="#ff0000" stroke-width="0.1"/>
  <rect x="23.15" y="82.398" width="18" height="2.5" rx="1.25" ry="1.25" fill="none" stroke="#ff0000" stroke-width="0.1"/>
  <rect x="63" y="82.398" width="18" height="2.5" rx="1.25" ry="1.25" fill="none" stroke="#ff0000" stroke-width="0.1"/>
  <rect x="102.85" y="82.398" width="18" height="2.5" rx="1.25" ry="1.25" fill="none" stroke="#ff0000" stroke-width="0.1"/>
  <rect x="23.15" y="59" width="18" height="2.5" rx="1.25" ry="1.25" fill="none" stroke="#ff0000" stroke-width="0.1"/>
  <rect x="63" y="59" width="18" height="2.5" rx="1.25" ry="1.25" fill="none" stroke="#ff0000" stroke-width="0.1"/>
  <rect x="102.85" y="59" width="18" height="2.5" rx="1.25" ry="1.25" fill="none" stroke="#ff0000" stroke-width="0.1"/>
</svg>
