<?xml version="1.0" encoding="UTF-8"?>
<svg xmlns="http://www.w3.org/2000/svg" width="150mm" height="341.44mm" viewBox="0 0 150 341.44">
<!-- Red=cut, Blue=score/engrave. All dims in mm. -->
  <text x="6" y="3" font-size="3" fill="#999" font-family="monospace">RIGHT SIDE 138.0x329.4mm (3mm)</text>
  <path d="M 6,6 L 12,6 L 12,3 L 23.455,3 L 23.455,6 L 34.909,6 L 34.909,3 L 46.364,3 L 46.364,6 L 57.818,6 L 57.818,3 L 69.273,3 L 69.273,6 L 80.727,6 L 80.727,3 L 92.182,3 L 92.182,6 L 103.636,6 L 103.636,3 L 115.091,3 L 115.091,6 L 126.545,6 L 126.545,3 L 138,3 L 138,6 L 144,6 L 144,335.44 L 138,335.44 L 138,338.44 L 126.545,338.44 L 126.545,335.44 L 115.091,335.44 L 115.091,338.44 L 103.636,338.44 L 103.636,335.44 L 92.182,335.44 L 92.182,338.44 L 80.727,338.44 L 80.727,335.44 L 69.273,335.44 L 69.273,338.44 L 57.818,338.44 L 57.818,335.44 L 46.364,335.44 L 46.364,338.44 L 34.909,338.44 L 34.909,335.44 L 23.455,335.44 L 23.455,338.44 L 12,338.44 L 12,335.44 L 6,335.44 L 6,6 Z" fill="none" stroke="#ff0000" stroke-width="0.1"/>
  <rect x="9" y="30.403" width="3" height="12.201" fill="none" stroke="#ff0000" stroke-width="0.1"/>
  <rect x="9" y="54.806" width="3" height="12.201" fill="none" stroke="#ff0000" stroke-width="0.1"/>
  <rect x="9" y="79.209" width="3" height="12.201" fill="none" stroke="#ff0000" stroke-width="0.1"/>
  <rect x="9" y="103.612" width="3" height="12.201" fill="none" stroke="#ff0000" stroke-width="0.1"/>
  <rect x="9" y="128.015" width="3" height="12.201" fill="none" stroke="#ff0000" stroke-width="0.1"/>
  <rect x="9" y="152.418" width="3" height="12.201" fill="none" stroke="#ff0000" stroke-width="0.1"/>
  <rect x="9" y="176.821" width="3" height="12.201" fill="none" stroke="#ff0000" stroke-width="0.1"/>
  <rect x="9" y="201.224" width="3" height="12.201" fill="none" stroke="#ff0000" stroke-width="0.1"/>
  <rect x="9" y="225.627" width="3" height="12.201" fill="none" stroke="#ff0000" stroke-width="0.1"/>
  <rect x="9" y="250.03" width="3" height="12.201" fill="none" stroke="#ff0000" stroke-width="0.1"/>
  <rect x="9" y="274.433" width="3" height="12.201" fill="none" stroke="#ff0000" stroke-width="0.1"/>
  <rect x="9" y="298.836" width="3" height="12.201" fill="none" stroke="#ff0000" stroke-width="0.1"/>
  <rect x="138" y="30.403" width="3" height="12.201" fill="none" stroke="#ff0000" stroke-width="0.1"/>
  <rect x="138" y="54.806" width="3" height="12.201" fill="none" stroke="#ff0000" stroke-width="0.1"/>
  <rect x="138" y="79.209" width="3" height="12.201" fill="none" stroke="#ff0000" stroke-width="0.1"/>
  <rect x="138" y="103.612" width="3" height="12.201" fill="none" stroke="#ff0000" stroke-width="0.1"/>
  <rect x="138" y="128.015" width="3" height="12.201" fill="none" stroke="#ff0000" stroke-width="0.1"/>
  <rect x="138" y="152.418" width="3" height="12.201" fill="none" stroke="#ff0000" stroke-width="0.1"/>
  <rect x="138" y="176.821" width="3" height="12.201" fill="none" stroke="#ff0000" stroke-width="0.1"/>
  <rect x="138" y="201.224" width="3" height="12.201" fill="none" stroke="#ff0000" stroke-width="0.1"/>
  <rect x="138" y="225.627" width="3" height="12.201" fill="none" stroke="#ff0000" stroke-width="0.1"/>
  <rect x="138" y="250.03" width="3" height="12.201" fill="none" stroke="#ff0000" stroke-width="0.1"/>
  <rect x="138" y="274.433" width="3" height="12.201" fill="none" stroke="#ff0000" stroke-width="0.1"/>
  <rect x="138" y="298.836" width="3" height="12.201" fill="none" stroke="#ff0000" stroke-width="0.1"/>
  <rect x="15.85" y="49.85" width="5.3" height="10.3" fill="none" stroke="#ff0000" stroke-width="0.1"/>
  <rect x="122.85" y="49.85" width="5.3" height="10.3" fill="none" stroke="#ff0000" stroke-width="0.1"/>
  <rect x="21" y="280.99" width="18" height="2.5" rx="1.25" ry="1.25" fill="none" stroke="#ff0000" stroke-width="0.1"/>
  <rect x="111" y="280.99" width="18" height="2.5" rx="1.25" ry="1.25" fill="none" stroke="#ff0000" stroke-width="0.1"/>
  <rect x="21" y="255.99" width="18" height="2.5" rx="1.25" ry="1.25" fill="none" stroke="#ff0000" stroke-width="0.1"/>
  <rect x="111" y="255.99" width="18" height="2.5" rx="1.25" ry="1.25" fill="none" stroke="#ff0000" stroke-width="0.1"/>
  <rect x="21" y="230.99" width="18" height="2.5" rx="1.25" ry="1.25" fill="none" stroke="#ff0000" stroke-width="0.1"/>
  <rect x="111" y="230.99" width="18" height="2.5" rx="1.25" ry="1.25" fill="none" stroke="#ff0000" stroke-width="0.1"/>
  <rect x="21" y="205.99" width="18" height="2.5" rx="1.25" ry="1.25" fill="none" stroke="#ff0000" stroke-width="0.1"/>
  <rect x="111" y="205.99" width="18" height="2.5" rx="1.25" ry="1.25" fill="none" stroke="#ff0000" stroke-width="0.1"/>
  <rect x="21" y="175.99" width="18" height="2.5" rx="1.25" ry="1.25" fill="none" stroke="#ff0000" stroke-width="0.1"/>
  <rect x="111" y="175.99" width="18" height="2.5" rx="1.25" ry="1.25" fill="none" stroke="#ff0000" stroke-width="0.1"/>
  <rect x="21" y="152.592" width="18" height="2.5" rx="1.25" ry="1.25" fill="none" stroke="#ff0000" stroke-width="0.1"/>
  <rect x="111" y="152.592" width="18" height="2.5" rx="1.25" ry="1.25" fill="none" stroke="#ff0000" stroke-width="0.1"/>
  <rect x="21" y="129.194" width="18" height="2.5" rx="1.25" ry="1.25" fill="none" stroke="#ff0000" stroke-width="0.1"/>
  <rect x="111" y="129.194" width="18" height="2.5" rx="1.25" ry="1.25" fill="none" stroke="#ff0000" stroke-width="0.1"/>
  <rect x="21" y="105.796" width="18" height="2.5" rx="1.25" ry="1.25" fill="none" stroke="#ff0000" stroke-width="0.1"/>
  <rect x="111" y="105.796" width="18" height="2.5" rx="1.25" ry="1.25" fill="none" stroke="#ff0000" stroke-width="0.1"/>
  <rect x="21" y="82.398" width="18" height="2.5" rx="1.25" ry="1.25" fill="none" stroke="#ff0000" stroke-width="0.1"/>
  <rect x="111" y="82.398" width="18" height="2.5" rx="1.25" ry="1.25" fill="none" stroke="#ff0000" stroke-width="0.1"/>
  <rect x="21" y="59" width="18" height="2.5" rx="1.25" ry="1.25" fill="none" stroke="#ff0000" stroke-width="0.1"/>
  <rect x="111" y="59" width="18" height="2.5" rx="1.25" ry="1.25" fill="none" stroke="#ff0000" stroke-width="0.1"/>
</svg>
