<?xml version="1.0" encoding="UTF-8"?>
<svg xmlns="http://www.w3.org/2000/svg" width="147mm" height="330.24mm" viewBox="0 0 147 330.24">
<!-- Red=cut, Blue=score/engrave. All dims in mm. -->
  <text x="7.5" y="4.5" font-size="3" fill="#999" font-family="monospace">RIGHT SIDE 132.0x315.2mm (5mm)</text>
  <path d="M 7.5,7.5 L 13.5,7.5 L 13.5,4.5 L 24.409,4.5 L 24.409,7.5 L 35.318,7.5 L 35.318,4.5 L 46.227,4.5 L 46.227,7.5 L 57.136,7.5 L 57.136,4.5 L 68.045,4.5 L 68.045,7.5 L 78.955,7.5 L 78.955,4.5 L 89.864,4.5 L 89.864,7.5 L 100.773,7.5 L 100.773,4.5 L 111.682,4.5 L 111.682,7.5 L 122.591,7.5 L 122.591,4.5 L 133.5,4.5 L 133.5,7.5 L 139.5,7.5 L 139.5,322.74 L 133.5,322.74 L 133.5,327.24 L 122.591,327.24 L 122.591,322.74 L 111.682,322.74 L 111.682,327.24 L 100.773,327.24 L 100.773,322.74 L 89.864,322.74 L 89.864,327.24 L 78.955,327.24 L 78.955,322.74 L 68.045,322.74 L 68.045,327.24 L 57.136,327.24 L 57.136,322.74 L 46.227,322.74 L 46.227,327.24 L 35.318,327.24 L 35.318,322.74 L 24.409,322.74 L 24.409,327.24 L 13.5,327.24 L 13.5,322.74 L 7.5,322.74 L 7.5,7.5 Z" fill="none" stroke="#ff0000" stroke-width="0.1"/>
  <rect x="10.5" y="30.851" width="3" height="11.676" fill="none" stroke="#ff0000" stroke-width="0.1"/>
  <rect x="10.5" y="54.202" width="3" height="11.676" fill="none" stroke="#ff0000" stroke-width="0.1"/>
  <rect x="10.5" y="77.553" width="3" height="11.676" fill="none" stroke="#ff0000" stroke-width="0.1"/>
  <rect x="10.5" y="100.904" width="3" height="11.676" fill="none" stroke="#ff0000" stroke-width="0.1"/>
  <rect x="10.5" y="124.256" width="3" height="11.676" fill="none" stroke="#ff0000" stroke-width="0.1"/>
  <rect x="10.5" y="147.607" width="3" height="11.676" fill="none" stroke="#ff0000" stroke-width="0.1"/>
  <rect x="10.5" y="170.958" width="3" height="11.676" fill="none" stroke="#ff0000" stroke-width="0.1"/>
  <rect x="10.5" y="194.309" width="3" height="11.676" fill="none" stroke="#ff0000" stroke-width="0.1"/>
  <rect x="10.5" y="217.66" width="3" height="11.676" fill="none" stroke="#ff0000" stroke-width="0.1"/>
  <rect x="10.5" y="241.011" width="3" height="11.676" fill="none" stroke="#ff0000" stroke-width="0.1"/>
  <rect x="10.5" y="264.362" width="3" height="11.676" fill="none" stroke="#ff0000" stroke-width="0.1"/>
  <rect x="10.5" y="287.713" width="3" height="11.676" fill="none" stroke="#ff0000" stroke-width="0.1"/>
  <rect x="133.5" y="30.851" width="3" height="11.676" fill="none" stroke="#ff0000" stroke-width="0.1"/>
  <rect x="133.5" y="54.202" width="3" height="11.676" fill="none" stroke="#ff0000" stroke-width="0.1"/>
  <rect x="133.5" y="77.553" width="3" height="11.676" fill="none" stroke="#ff0000" stroke-width="0.1"/>
  <rect x="133.5" y="100.904" width="3" height="11.676" fill="none" stroke="#ff0000" stroke-width="0.1"/>
  <rect x="133.5" y="124.256" width="3" height="11.676" fill="none" stroke="#ff0000" stroke-width="0.1"/>
  <rect x="133.5" y="147.607" width="3" height="11.676" fill="none" stroke="#ff0000" stroke-width="0.1"/>
  <rect x="133.5" y="170.958" width="3" height="11.676" fill="none" stroke="#ff0000" stroke-width="0.1"/>
  <rect x="133.5" y="194.309" width="3" height="11.676" fill="none" stroke="#ff0000" stroke-width="0.1"/>
  <rect x="133.5" y="217.66" width="3" height="11.676" fill="none" stroke="#ff0000" stroke-width="0.1"/>
  <rect x="133.5" y="241.011" width="3" height="11.676" fill="none" stroke="#ff0000" stroke-width="0.1"/>
  <rect x="133.5" y="264.362" width="3" height="11.676" fill="none" stroke="#ff0000" stroke-width="0.1"/>
  <rect x="133.5" y="287.713" width="3" height="11.676" fill="none" stroke="#ff0000" stroke-width="0.1"/>
  <rect x="17.5" y="51.35" width="4.5" height="10.3" fill="none" stroke="#ff0000" stroke-width="0.1"/>
  <rect x="125" y="51.35" width="4.5" height="10.3" fill="none" stroke="#ff0000" stroke-width="0.1"/>
  <rect x="24" y="264.49" width="18" height="2.5" rx="1.25" ry="1.25" fill="none" stroke="#ff0000" stroke-width="0.1"/>
  <rect x="64.5" y="264.49" width="18" height="2.5" rx="1.25" ry="1.25" fill="none" stroke="#ff0000" stroke-width="0.1"/>
  <rect x="105" y="264.49" width="18" height="2.5" rx="1.25" ry="1.25" fill="none" stroke="#ff0000" stroke-width="0.1"/>
  <rect x="24" y="245.49" width="18" height="2.5" rx="1.25" ry="1.25" fill="none" stroke="#ff0000" stroke-width="0.1"/>
  <rect x="64.5" y="245.49" width="18" height="2.5" rx="1.25" ry="1.25" fill="none" stroke="#ff0000" stroke-width="0.1"/>
  <rect x="105" y="245.49" width="18" height="2.5" rx="1.25" ry="1.25" fill="none" stroke="#ff0000" stroke-width="0.1"/>
  <rect x="24" y="226.49" width="18" height="2.5" rx="1.25" ry="1.25" fill="none" stroke="#ff0000" stroke-width="0.1"/>
  <rect x="64.5" y="226.49" width="18" height="2.5" rx="1.25" ry="1.25" fill="none" stroke="#ff0000" stroke-width="0.1"/>
  <rect x="105" y="226.49" width="18" height="2.5" rx="1.25" ry="1.25" fill="none" stroke="#ff0000" stroke-width="0.1"/>
  <rect x="24" y="207.49" width="18" height="2.5" rx="1.25" ry="1.25" fill="none" stroke="#ff0000" stroke-width="0.1"/>
  <rect x="64.5" y="207.49" width="18" height="2.5" rx="1.25" ry="1.25" fill="none" stroke="#ff0000" stroke-width="0.1"/>
  <rect x="105" y="207.49" width="18" height="2.5" rx="1.25" ry="1.25" fill="none" stroke="#ff0000" stroke-width="0.1"/>
  <rect x="24" y="177.49" width="18" height="2.5" rx="1.25" ry="1.25" fill="none" stroke="#ff0000" stroke-width="0.1"/>
  <rect x="64.5" y="177.49" width="18" height="2.5" rx="1.25" ry="1.25" fill="none" stroke="#ff0000" stroke-width="0.1"/>
  <rect x="105" y="177.49" width="18" height="2.5" rx="1.25" ry="1.25" fill="none" stroke="#ff0000" stroke-width="0.1"/>
  <rect x="24" y="154.092" width="18" height="2.5" rx="1.25" ry="1.25" fill="none" stroke="#ff0000" stroke-width="0.1"/>
  <rect x="64.5" y="154.092" width="18" height="2.5" rx="1.25" ry="1.25" fill="none" stroke="#ff0000" stroke-width="0.1"/>
  <rect x="105" y="154.092" width="18" height="2.5" rx="1.25" ry="1.25" fill="none" stroke="#ff0000" stroke-width="0.1"/>
  <rect x="24" y="130.694" width="18" height="2.5" rx="1.25" ry="1.25" fill="none" stroke="#ff0000" stroke-width="0.1"/>
  <rect x="64.5" y="130.694" width="18" height="2.5" rx="1.25" ry="1.25" fill="none" stroke="#ff0000" stroke-width="0.1"/>
  <rect x="105" y="130.694" width="18" height="2.5" rx="1.25" ry="1.25" fill="none" stroke="#ff0000" stroke-width="0.1"/>
  <rect x="24" y="107.296" width="18" height="2.5" rx="1.25" ry="1.25" fill="none" stroke="#ff0000" stroke-width="0.1"/>
  <rect x="64.5" y="107.296" width="18" height="2.5" rx="1.25" ry="1.25" fill="none" stroke="#ff0000" stroke-width="0.1"/>
  <rect x="105" y="107.296" width="18" height="2.5" rx="1.25" ry="1.25" fill="none" stroke="#ff0000" stroke-width="0.1"/>
  <rect x="24" y="83.898" width="18" height="2.5" rx="1.25" ry="1.25" fill="none" stroke="#ff0000" stroke-width="0.1"/>
  <rect x="64.5" y="83.898" width="18" height="2.5" rx="1.25" ry="1.25" fill="none" stroke="#ff0000" stroke-width="0.1"/>
  <rect x="105" y="83.898" width="18" height="2.5" rx="1.25" ry="1.25" fill="none" stroke="#ff0000" stroke-width="0.1"/>
  <rect x="24" y="60.5" width="18" height="2.5" rx="1.25" ry="1.25" fill="none" stroke="#ff0000" stroke-width="0.1"/>
  <rect x="64.5" y="60.5" width="18" height="2.5" rx="1.25" ry="1.25" fill="none" stroke="#ff0000" stroke-width="0.1"/>
  <rect x="105" y="60.5" width="18" height="2.5" rx="1.25" ry="1.25" fill="none" stroke="#ff0000" stroke-width="0.1"/>
</svg>
