<?xml version="1.0" encoding="UTF-8"?>
<svg xmlns="http://www.w3.org/2000/svg" width="148mm" height="346.24mm" viewBox="0 0 148 346.24">
<!-- Red=cut, Blue=score/engrave. All dims in mm. -->
  <text x="8" y="5" font-size="3" fill="#999" font-family="monospace">RIGHT SIDE 132.0x330.2mm (5mm)</text>
  <path d="M 8,8 L 14,8 L 14,5 L 24.909,5 L 24.909,8 L 35.818,8 L 35.818,5 L 46.727,5 L 46.727,8 L 57.636,8 L 57.636,5 L 68.545,5 L 68.545,8 L 79.455,8 L 79.455,5 L 90.364,5 L 90.364,8 L 101.273,8 L 101.273,5 L 112.182,5 L 112.182,8 L 123.091,8 L 123.091,5 L 134,5 L 134,8 L 140,8 L 140,338.24 L 134,338.24 L 134,343.24 L 123.091,343.24 L 123.091,338.24 L 112.182,338.24 L 112.182,343.24 L 101.273,343.24 L 101.273,338.24 L 90.364,338.24 L 90.364,343.24 L 79.455,343.24 L 79.455,338.24 L 68.545,338.24 L 68.545,343.24 L 57.636,343.24 L 57.636,338.24 L 46.727,338.24 L 46.727,343.24 L 35.818,343.24 L 35.818,338.24 L 24.909,338.24 L 24.909,343.24 L 14,343.24 L 14,338.24 L 8,338.24 L 8,8 Z" fill="none" stroke="#ff0000" stroke-width="0.1"/>
  <rect x="11" y="30.775" width="3" height="11.388" fill="none" stroke="#ff0000" stroke-width="0.1"/>
  <rect x="11" y="53.55" width="3" height="11.388" fill="none" stroke="#ff0000" stroke-width="0.1"/>
  <rect x="11" y="76.326" width="3" height="11.388" fill="none" stroke="#ff0000" stroke-width="0.1"/>
  <rect x="11" y="99.101" width="3" height="11.388" fill="none" stroke="#ff0000" stroke-width="0.1"/>
  <rect x="11" y="121.876" width="3" height="11.388" fill="none" stroke="#ff0000" stroke-width="0.1"/>
  <rect x="11" y="144.651" width="3" height="11.388" fill="none" stroke="#ff0000" stroke-width="0.1"/>
  <rect x="11" y="167.426" width="3" height="11.388" fill="none" stroke="#ff0000" stroke-width="0.1"/>
  <rect x="11" y="190.201" width="3" height="11.388" fill="none" stroke="#ff0000" stroke-width="0.1"/>
  <rect x="11" y="212.977" width="3" height="11.388" fill="none" stroke="#ff0000" stroke-width="0.1"/>
  <rect x="11" y="235.752" width="3" height="11.388" fill="none" stroke="#ff0000" stroke-width="0.1"/>
  <rect x="11" y="258.527" width="3" height="11.388" fill="none" stroke="#ff0000" stroke-width="0.1"/>
  <rect x="11" y="281.302" width="3" height="11.388" fill="none" stroke="#ff0000" stroke-width="0.1"/>
  <rect x="11" y="304.077" width="3" height="11.388" fill="none" stroke="#ff0000" stroke-width="0.1"/>
  <rect x="134" y="30.775" width="3" height="11.388" fill="none" stroke="#ff0000" stroke-width="0.1"/>
  <rect x="134" y="53.55" width="3" height="11.388" fill="none" stroke="#ff0000" stroke-width="0.1"/>
  <rect x="134" y="76.326" width="3" height="11.388" fill="none" stroke="#ff0000" stroke-width="0.1"/>
  <rect x="134" y="99.101" width="3" height="11.388" fill="none" stroke="#ff0000" stroke-width="0.1"/>
  <rect x="134" y="121.876" width="3" height="11.388" fill="none" stroke="#ff0000" stroke-width="0.1"/>
  <rect x="134" y="144.651" width="3" height="11.388" fill="none" stroke="#ff0000" stroke-width="0.1"/>
  <rect x="134" y="167.426" width="3" height="11.388" fill="none" stroke="#ff0000" stroke-width="0.1"/>
  <rect x="134" y="190.201" width="3" height="11.388" fill="none" stroke="#ff0000" stroke-width="0.1"/>
  <rect x="134" y="212.977" width="3" height="11.388" fill="none" stroke="#ff0000" stroke-width="0.1"/>
  <rect x="134" y="235.752" width="3" height="11.388" fill="none" stroke="#ff0000" stroke-width="0.1"/>
  <rect x="134" y="258.527" width="3" height="11.388" fill="none" stroke="#ff0000" stroke-width="0.1"/>
  <rect x="134" y="281.302" width="3" height="11.388" fill="none" stroke="#ff0000" stroke-width="0.1"/>
  <rect x="134" y="304.077" width="3" height="11.388" fill="none" stroke="#ff0000" stroke-width="0.1"/>
  <rect x="17.85" y="51.85" width="5.3" height="10.3" fill="none" stroke="#ff0000" stroke-width="0.1"/>
  <rect x="124.85" y="51.85" width="5.3" height="10.3" fill="none" stroke="#ff0000" stroke-width="0.1"/>
  <rect x="25.15" y="282.99" width="18" height="2.5" rx="1.25" ry="1.25" fill="none" stroke="#ff0000" stroke-width="0.1"/>
  <rect x="65" y="282.99" width="18" height="2.5" rx="1.25" ry="1.25" fill="none" stroke="#ff0000" stroke-width="0.1"/>
  <rect x="104.85" y="282.99" width="18" height="2.5" rx="1.25" ry="1.25" fill="none" stroke="#ff0000" stroke-width="0.1"/>
  <rect x="25.15" y="257.99" width="18" height="2.5" rx="1.25" ry="1.25" fill="none" stroke="#ff0000" stroke-width="0.1"/>
  <rect x="65" y="257.99" width="18" height="2.5" rx="1.25" ry="1.25" fill="none" stroke="#ff0000" stroke-width="0.1"/>
  <rect x="104.85" y="257.99" width="18" height="2.5" rx="1.25" ry="1.25" fill="none" stroke="#ff0000" stroke-width="0.1"/>
  <rect x="25.15" y="232.99" width="18" height="2.5" rx="1.25" ry="1.25" fill="none" stroke="#ff0000" stroke-width="0.1"/>
  <rect x="65" y="232.99" width="18" height="2.5" rx="1.25" ry="1.25" fill="none" stroke="#ff0000" stroke-width="0.1"/>
  <rect x="104.85" y="232.99" width="18" height="2.5" rx="1.25" ry="1.25" fill="none" stroke="#ff0000" stroke-width="0.1"/>
  <rect x="25.15" y="207.99" width="18" height="2.5" rx="1.25" ry="1.25" fill="none" stroke="#ff0000" stroke-width="0.1"/>
  <rect x="65" y="207.99" width="18" height="2.5" rx="1.25" ry="1.25" fill="none" stroke="#ff0000" stroke-width="0.1"/>
  <rect x="104.85" y="207.99" width="18" height="2.5" rx="1.25" ry="1.25" fill="none" stroke="#ff0000" stroke-width="0.1"/>
  <rect x="25.15" y="177.99" width="18" height="2.5" rx="1.25" ry="1.25" fill="none" stroke="#ff0000" stroke-width="0.1"/>
  <rect x="65" y="177.99" width="18" height="2.5" rx="1.25" ry="1.25" fill="none" stroke="#ff0000" stroke-width="0.1"/>
  <rect x="104.85" y="177.99" width="18" height="2.5" rx="1.25" ry="1.25" fill="none" stroke="#ff0000" stroke-width="0.1"/>
  <rect x="25.15" y="154.592" width="18" height="2.5" rx="1.25" ry="1.25" fill="none" stroke="#ff0000" stroke-width="0.1"/>
  <rect x="65" y="154.592" width="18" height="2.5" rx="1.25" ry="1.25" fill="none" stroke="#ff0000" stroke-width="0.1"/>
  <rect x="104.85" y="154.592" width="18" height="2.5" rx="1.25" ry="1.25" fill="none" stroke="#ff0000" stroke-width="0.1"/>
  <rect x="25.15" y="131.194" width="18" height="2.5" rx="1.25" ry="1.25" fill="none" stroke="#ff0000" stroke-width="0.1"/>
  <rect x="65" y="131.194" width="18" height="2.5" rx="1.25" ry="1.25" fill="none" stroke="#ff0000" stroke-width="0.1"/>
  <rect x="104.85" y="131.194" width="18" height="2.5" rx="1.25" ry="1.25" fill="none" stroke="#ff0000" stroke-width="0.1"/>
  <rect x="25.15" y="107.796" width="18" height="2.5" rx="1.25" ry="1.25" fill="none" stroke="#ff0000" stroke-width="0.1"/>
  <rect x="65" y="107.796" width="18" height="2.5" rx="1.25" ry="1.25" fill="none" stroke="#ff0000" stroke-width="0.1"/>
  <rect x="104.85" y="107.796" width="18" height="2.5" rx="1.25" ry="1.25" fill="none" stroke="#ff0000" stroke-width="0.1"/>
  <rect x="25.15" y="84.398" width="18" height="2.5" rx="1.25" ry="1.25" fill="none" stroke="#ff0000" stroke-width="0.1"/>
  <rect x="65" y="84.398" width="18" height="2.5" rx="1.25" ry="1.25" fill="none" stroke="#ff0000" stroke-width="0.1"/>
  <rect x="104.85" y="84.398" width="18" height="2.5" rx="1.25" ry="1.25" fill="none" stroke="#ff0000" stroke-width="0.1"/>
  <rect x="25.15" y="61" width="18" height="2.5" rx="1.25" ry="1.25" fill="none" stroke="#ff0000" stroke-width="0.1"/>
  <rect x="65" y="61" width="18" height="2.5" rx="1.25" ry="1.25" fill="none" stroke="#ff0000" stroke-width="0.1"/>
  <rect x="104.85" y="61" width="18" height="2.5" rx="1.25" ry="1.25" fill="none" stroke="#ff0000" stroke-width="0.1"/>
</svg>
