<?xml version="1.0" encoding="UTF-8"?>
<svg xmlns="http://www.w3.org/2000/svg" width="215mm" height="166.99mm" viewBox="0 0 215 166.99">
<!-- Red=cut, Blue=score/engrave. All dims in mm. -->
  <text x="5" y="2" font-size="3" fill="#999" font-family="monospace">DRIVE COMB RAIL (x2) 185.0x137.0mm (5mm acrylic)</text>
  <path d="M 5,5 L 190,5 L 190,6 L 198,6 L 198,16 L 190,16 L 190,17 L 176.385,17 L 176.385,141.99 L 156.385,141.99 L 156.385,17 L 130.275,17 L 130.275,141.99 L 110.275,141.99 L 110.275,17 L 84.165,17 L 84.165,141.99 L 64.165,141.99 L 64.165,17 L 38.055,17 L 38.055,141.99 L 18.055,141.99 L 18.055,17 L 5,17 L 5,16 L -3,16 L -3,6 L 5,6 Z" fill="none" stroke="#ff0000" stroke-width="0.1"/>
  <circle cx="28.055" cy="108.49" r="1.7" fill="none" stroke="#ff0000" stroke-width="0.1"/>
  <circle cx="28.055" cy="108.49" r="3.5" fill="none" stroke="#0000ff" stroke-width="0.1"/>
  <circle cx="28.055" cy="66.49" r="1.7" fill="none" stroke="#ff0000" stroke-width="0.1"/>
  <circle cx="28.055" cy="66.49" r="3.5" fill="none" stroke="#0000ff" stroke-width="0.1"/>
  <circle cx="28.055" cy="6.49" r="1.7" fill="none" stroke="#ff0000" stroke-width="0.1"/>
  <circle cx="28.055" cy="6.49" r="3.5" fill="none" stroke="#0000ff" stroke-width="0.1"/>
  <circle cx="74.165" cy="108.49" r="1.7" fill="none" stroke="#ff0000" stroke-width="0.1"/>
  <circle cx="74.165" cy="108.49" r="3.5" fill="none" stroke="#0000ff" stroke-width="0.1"/>
  <circle cx="74.165" cy="66.49" r="1.7" fill="none" stroke="#ff0000" stroke-width="0.1"/>
  <circle cx="74.165" cy="66.49" r="3.5" fill="none" stroke="#0000ff" stroke-width="0.1"/>
  <circle cx="74.165" cy="6.49" r="1.7" fill="none" stroke="#ff0000" stroke-width="0.1"/>
  <circle cx="74.165" cy="6.49" r="3.5" fill="none" stroke="#0000ff" stroke-width="0.1"/>
  <circle cx="120.275" cy="108.49" r="1.7" fill="none" stroke="#ff0000" stroke-width="0.1"/>
  <circle cx="120.275" cy="108.49" r="3.5" fill="none" stroke="#0000ff" stroke-width="0.1"/>
  <circle cx="120.275" cy="66.49" r="1.7" fill="none" stroke="#ff0000" stroke-width="0.1"/>
  <circle cx="120.275" cy="66.49" r="3.5" fill="none" stroke="#0000ff" stroke-width="0.1"/>
  <circle cx="120.275" cy="6.49" r="1.7" fill="none" stroke="#ff0000" stroke-width="0.1"/>
  <circle cx="120.275" cy="6.49" r="3.5" fill="none" stroke="#0000ff" stroke-width="0.1"/>
  <circle cx="166.385" cy="108.49" r="1.7" fill="none" stroke="#ff0000" stroke-width="0.1"/>
  <circle cx="166.385" cy="108.49" r="3.5" fill="none" stroke="#0000ff" stroke-width="0.1"/>
  <circle cx="166.385" cy="66.49" r="1.7" fill="none" stroke="#ff0000" stroke-width="0.1"/>
  <circle cx="166.385" cy="66.49" r="3.5" fill="none" stroke="#0000ff" stroke-width="0.1"/>
  <circle cx="166.385" cy="6.49" r="1.7" fill="none" stroke="#ff0000" stroke-width="0.1"/>
  <circle cx="166.385" cy="6.49" r="3.5" fill="none" stroke="#0000ff" stroke-width="0.1"/>
  <rect x="15" y="-10" width="26.11" height="146.99" fill="none" stroke="#0000ff" stroke-width="0.1"/>
  <text x="19.055" y="63.495" font-size="3" fill="#999" font-family="monospace">HDD1</text>
  <rect x="61.11" y="-10" width="26.11" height="146.99" fill="none" stroke="#0000ff" stroke-width="0.1"/>
  <text x="65.165" y="63.495" font-size="3" fill="#999" font-family="monospace">HDD2</text>
  <rect x="107.22" y="-10" width="26.11" height="146.99" fill="none" stroke="#0000ff" stroke-width="0.1"/>
  <text x="111.275" y="63.495" font-size="3" fill="#999" font-family="monospace">HDD3</text>
  <rect x="153.33" y="-10" width="26.11" height="146.99" fill="none" stroke="#0000ff" stroke-width="0.1"/>
  <text x="157.385" y="63.495" font-size="3" fill="#999" font-family="monospace">HDD4</text>
</svg>
