<?xml version="1.0" encoding="UTF-8"?>
<svg xmlns="http://www.w3.org/2000/svg" width="508mm" height="322.74mm" viewBox="0 0 508 322.74">
<!-- Ponoko sheet: 508x322.74mm. Red=cut, Blue=engrave. -->
  <text x="0" y="-2" font-size="4" fill="#cccccc" font-family="monospace">FRONT (3mm)</text>
  <text x="191" y="-2" font-size="4" fill="#cccccc" font-family="monospace">BACK (3mm)</text>
  <text x="382" y="-2" font-size="4" fill="#cccccc" font-family="monospace">TOP (3mm, rotated)</text>
  <path d="M 4.500 3.000 L 8.412 3.000 L 8.412 0.000 L 19.824 0.000 L 19.824 3.000 L 31.235 3.000 L 31.235 0.000 L 42.647 0.000 L 42.647 3.000 L 54.059 3.000 L 54.059 0.000 L 65.471 0.000 L 65.471 3.000 L 76.882 3.000 L 76.882 0.000 L 88.294 0.000 L 88.294 3.000 L 99.706 3.000 L 99.706 0.000 L 111.118 0.000 L 111.118 3.000 L 122.529 3.000 L 122.529 0.000 L 133.941 0.000 L 133.941 3.000 L 145.353 3.000 L 145.353 0.000 L 156.765 0.000 L 156.765 3.000 L 168.176 3.000 L 168.176 0.000 L 179.588 0.000 L 179.588 3.000 L 183.500 3.000 L 183.500 14.676 L 183.500 26.351 L 188.000 26.351 L 188.000 38.027 L 183.500 38.027 L 183.500 49.702 L 188.000 49.702 L 188.000 61.378 L 183.500 61.378 L 183.500 73.053 L 188.000 73.053 L 188.000 84.729 L 183.500 84.729 L 183.500 96.404 L 188.000 96.404 L 188.000 108.080 L 183.500 108.080 L 183.500 119.756 L 188.000 119.756 L 188.000 131.431 L 183.500 131.431 L 183.500 143.107 L 188.000 143.107 L 188.000 154.782 L 183.500 154.782 L 183.500 166.458 L 188.000 166.458 L 188.000 178.133 L 183.500 178.133 L 183.500 189.809 L 188.000 189.809 L 188.000 201.484 L 183.500 201.484 L 183.500 213.160 L 188.000 213.160 L 188.000 224.836 L 183.500 224.836 L 183.500 236.511 L 188.000 236.511 L 188.000 248.187 L 183.500 248.187 L 183.500 259.862 L 188.000 259.862 L 188.000 271.538 L 183.500 271.538 L 183.500 283.213 L 188.000 283.213 L 188.000 294.889 L 183.500 294.889 L 183.500 306.564 L 183.500 318.240 L 179.588 318.240 L 179.588 322.740 L 168.176 322.740 L 168.176 318.240 L 156.765 318.240 L 156.765 322.740 L 145.353 322.740 L 145.353 318.240 L 133.941 318.240 L 133.941 322.740 L 122.529 322.740 L 122.529 318.240 L 111.118 318.240 L 111.118 322.740 L 99.706 322.740 L 99.706 318.240 L 88.294 318.240 L 88.294 322.740 L 76.882 322.740 L 76.882 318.240 L 65.471 318.240 L 65.471 322.740 L 54.059 322.740 L 54.059 318.240 L 42.647 318.240 L 42.647 322.740 L 31.235 322.740 L 31.235 318.240 L 19.824 318.240 L 19.824 322.740 L 8.412 322.740 L 8.412 318.240 L 4.500 318.240 L 4.500 306.564 L 4.500 294.889 L 0.000 294.889 L 0.000 283.213 L 4.500 283.213 L 4.500 271.538 L 0.000 271.538 L 0.000 259.862 L 4.500 259.862 L 4.500 248.187 L 0.000 248.187 L 0.000 236.511 L 4.500 236.511 L 4.500 224.836 L 0.000 224.836 L 0.000 213.160 L 4.500 213.160 L 4.500 201.484 L 0.000 201.484 L 0.000 189.809 L 4.500 189.809 L 4.500 178.133 L 0.000 178.133 L 0.000 166.458 L 4.500 166.458 L 4.500 154.782 L 0.000 154.782 L 0.000 143.107 L 4.500 143.107 L 4.500 131.431 L 0.000 131.431 L 0.000 119.756 L 4.500 119.756 L 4.500 108.080 L 0.000 108.080 L 0.000 96.404 L 4.500 96.404 L 4.500 84.729 L 0.000 84.729 L 0.000 73.053 L 4.500 73.053 L 4.500 61.378 L 0.000 61.378 L 0.000 49.702 L 4.500 49.702 L 4.500 38.027 L 0.000 38.027 L 0.000 26.351 L 4.500 26.351 L 4.500 14.676 Z" fill="none" stroke="#ff0000" stroke-width="0.01"/>
  <rect x="67.25" y="291.79" width="17.9" height="16.5" rx="1.5" ry="1.5" fill="none" stroke="#ff0000" stroke-width="0.01"/>
  <rect x="87.3" y="289.69" width="15.6" height="17.6" rx="1.5" ry="1.5" fill="none" stroke="#ff0000" stroke-width="0.01"/>
  <rect x="105.1" y="289.69" width="15.8" height="17.6" rx="1.5" ry="1.5" fill="none" stroke="#ff0000" stroke-width="0.01"/>
  <rect x="100.6" y="279.09" width="20.8" height="8.1" rx="1.5" ry="1.5" fill="none" stroke="#ff0000" stroke-width="0.01"/>
  <circle cx="49.0" cy="304.74" r="4" fill="none" stroke="#ff0000" stroke-width="0.01"/>
  <rect x="24.5" y="261.49" width="22" height="2.5" rx="1.25" ry="1.25" fill="none" stroke="#ff0000" stroke-width="0.01"/>
  <rect x="83.0" y="261.49" width="22" height="2.5" rx="1.25" ry="1.25" fill="none" stroke="#ff0000" stroke-width="0.01"/>
  <rect x="141.5" y="261.49" width="22" height="2.5" rx="1.25" ry="1.25" fill="none" stroke="#ff0000" stroke-width="0.01"/>
  <rect x="24.5" y="247.24" width="22" height="2.5" rx="1.25" ry="1.25" fill="none" stroke="#ff0000" stroke-width="0.01"/>
  <rect x="83.0" y="247.24" width="22" height="2.5" rx="1.25" ry="1.25" fill="none" stroke="#ff0000" stroke-width="0.01"/>
  <rect x="141.5" y="247.24" width="22" height="2.5" rx="1.25" ry="1.25" fill="none" stroke="#ff0000" stroke-width="0.01"/>
  <rect x="24.5" y="232.99" width="22" height="2.5" rx="1.25" ry="1.25" fill="none" stroke="#ff0000" stroke-width="0.01"/>
  <rect x="83.0" y="232.99" width="22" height="2.5" rx="1.25" ry="1.25" fill="none" stroke="#ff0000" stroke-width="0.01"/>
  <rect x="141.5" y="232.99" width="22" height="2.5" rx="1.25" ry="1.25" fill="none" stroke="#ff0000" stroke-width="0.01"/>
  <rect x="24.5" y="218.74" width="22" height="2.5" rx="1.25" ry="1.25" fill="none" stroke="#ff0000" stroke-width="0.01"/>
  <rect x="83.0" y="218.74" width="22" height="2.5" rx="1.25" ry="1.25" fill="none" stroke="#ff0000" stroke-width="0.01"/>
  <rect x="141.5" y="218.74" width="22" height="2.5" rx="1.25" ry="1.25" fill="none" stroke="#ff0000" stroke-width="0.01"/>
  <rect x="24.5" y="204.49" width="22" height="2.5" rx="1.25" ry="1.25" fill="none" stroke="#ff0000" stroke-width="0.01"/>
  <rect x="83.0" y="204.49" width="22" height="2.5" rx="1.25" ry="1.25" fill="none" stroke="#ff0000" stroke-width="0.01"/>
  <rect x="141.5" y="204.49" width="22" height="2.5" rx="1.25" ry="1.25" fill="none" stroke="#ff0000" stroke-width="0.01"/>
  <rect x="24.5" y="179.49" width="22" height="2.5" rx="1.25" ry="1.25" fill="none" stroke="#ff0000" stroke-width="0.01"/>
  <rect x="83.0" y="179.49" width="22" height="2.5" rx="1.25" ry="1.25" fill="none" stroke="#ff0000" stroke-width="0.01"/>
  <rect x="141.5" y="179.49" width="22" height="2.5" rx="1.25" ry="1.25" fill="none" stroke="#ff0000" stroke-width="0.01"/>
  <rect x="24.5" y="162.063" width="22" height="2.5" rx="1.25" ry="1.25" fill="none" stroke="#ff0000" stroke-width="0.01"/>
  <rect x="83.0" y="162.063" width="22" height="2.5" rx="1.25" ry="1.25" fill="none" stroke="#ff0000" stroke-width="0.01"/>
  <rect x="141.5" y="162.063" width="22" height="2.5" rx="1.25" ry="1.25" fill="none" stroke="#ff0000" stroke-width="0.01"/>
  <rect x="24.5" y="144.636" width="22" height="2.5" rx="1.25" ry="1.25" fill="none" stroke="#ff0000" stroke-width="0.01"/>
  <rect x="83.0" y="144.636" width="22" height="2.5" rx="1.25" ry="1.25" fill="none" stroke="#ff0000" stroke-width="0.01"/>
  <rect x="141.5" y="144.636" width="22" height="2.5" rx="1.25" ry="1.25" fill="none" stroke="#ff0000" stroke-width="0.01"/>
  <rect x="24.5" y="127.209" width="22" height="2.5" rx="1.25" ry="1.25" fill="none" stroke="#ff0000" stroke-width="0.01"/>
  <rect x="83.0" y="127.209" width="22" height="2.5" rx="1.25" ry="1.25" fill="none" stroke="#ff0000" stroke-width="0.01"/>
  <rect x="141.5" y="127.209" width="22" height="2.5" rx="1.25" ry="1.25" fill="none" stroke="#ff0000" stroke-width="0.01"/>
  <rect x="24.5" y="109.781" width="22" height="2.5" rx="1.25" ry="1.25" fill="none" stroke="#ff0000" stroke-width="0.01"/>
  <rect x="83.0" y="109.781" width="22" height="2.5" rx="1.25" ry="1.25" fill="none" stroke="#ff0000" stroke-width="0.01"/>
  <rect x="141.5" y="109.781" width="22" height="2.5" rx="1.25" ry="1.25" fill="none" stroke="#ff0000" stroke-width="0.01"/>
  <rect x="24.5" y="92.354" width="22" height="2.5" rx="1.25" ry="1.25" fill="none" stroke="#ff0000" stroke-width="0.01"/>
  <rect x="83.0" y="92.354" width="22" height="2.5" rx="1.25" ry="1.25" fill="none" stroke="#ff0000" stroke-width="0.01"/>
  <rect x="141.5" y="92.354" width="22" height="2.5" rx="1.25" ry="1.25" fill="none" stroke="#ff0000" stroke-width="0.01"/>
  <rect x="24.5" y="74.927" width="22" height="2.5" rx="1.25" ry="1.25" fill="none" stroke="#ff0000" stroke-width="0.01"/>
  <rect x="83.0" y="74.927" width="22" height="2.5" rx="1.25" ry="1.25" fill="none" stroke="#ff0000" stroke-width="0.01"/>
  <rect x="141.5" y="74.927" width="22" height="2.5" rx="1.25" ry="1.25" fill="none" stroke="#ff0000" stroke-width="0.01"/>
  <rect x="24.5" y="57.5" width="22" height="2.5" rx="1.25" ry="1.25" fill="none" stroke="#ff0000" stroke-width="0.01"/>
  <rect x="83.0" y="57.5" width="22" height="2.5" rx="1.25" ry="1.25" fill="none" stroke="#ff0000" stroke-width="0.01"/>
  <rect x="141.5" y="57.5" width="22" height="2.5" rx="1.25" ry="1.25" fill="none" stroke="#ff0000" stroke-width="0.01"/>
  <path d="M 195.500 3.000 L 199.412 3.000 L 199.412 0.000 L 210.824 0.000 L 210.824 3.000 L 222.235 3.000 L 222.235 0.000 L 233.647 0.000 L 233.647 3.000 L 245.059 3.000 L 245.059 0.000 L 256.471 0.000 L 256.471 3.000 L 267.882 3.000 L 267.882 0.000 L 279.294 0.000 L 279.294 3.000 L 290.706 3.000 L 290.706 0.000 L 302.118 0.000 L 302.118 3.000 L 313.529 3.000 L 313.529 0.000 L 324.941 0.000 L 324.941 3.000 L 336.353 3.000 L 336.353 0.000 L 347.765 0.000 L 347.765 3.000 L 359.176 3.000 L 359.176 0.000 L 370.588 0.000 L 370.588 3.000 L 374.500 3.000 L 374.500 14.676 L 374.500 26.351 L 379.000 26.351 L 379.000 38.027 L 374.500 38.027 L 374.500 49.702 L 379.000 49.702 L 379.000 61.378 L 374.500 61.378 L 374.500 73.053 L 379.000 73.053 L 379.000 84.729 L 374.500 84.729 L 374.500 96.404 L 379.000 96.404 L 379.000 108.080 L 374.500 108.080 L 374.500 119.756 L 379.000 119.756 L 379.000 131.431 L 374.500 131.431 L 374.500 143.107 L 379.000 143.107 L 379.000 154.782 L 374.500 154.782 L 374.500 166.458 L 379.000 166.458 L 379.000 178.133 L 374.500 178.133 L 374.500 189.809 L 379.000 189.809 L 379.000 201.484 L 374.500 201.484 L 374.500 213.160 L 379.000 213.160 L 379.000 224.836 L 374.500 224.836 L 374.500 236.511 L 379.000 236.511 L 379.000 248.187 L 374.500 248.187 L 374.500 259.862 L 379.000 259.862 L 379.000 271.538 L 374.500 271.538 L 374.500 283.213 L 379.000 283.213 L 379.000 294.889 L 374.500 294.889 L 374.500 306.564 L 374.500 318.240 L 370.588 318.240 L 370.588 322.740 L 359.176 322.740 L 359.176 318.240 L 347.765 318.240 L 347.765 322.740 L 336.353 322.740 L 336.353 318.240 L 324.941 318.240 L 324.941 322.740 L 313.529 322.740 L 313.529 318.240 L 302.118 318.240 L 302.118 322.740 L 290.706 322.740 L 290.706 318.240 L 279.294 318.240 L 279.294 322.740 L 267.882 322.740 L 267.882 318.240 L 256.471 318.240 L 256.471 322.740 L 245.059 322.740 L 245.059 318.240 L 233.647 318.240 L 233.647 322.740 L 222.235 322.740 L 222.235 318.240 L 210.824 318.240 L 210.824 322.740 L 199.412 322.740 L 199.412 318.240 L 195.500 318.240 L 195.500 306.564 L 195.500 294.889 L 191.000 294.889 L 191.000 283.213 L 195.500 283.213 L 195.500 271.538 L 191.000 271.538 L 191.000 259.862 L 195.500 259.862 L 195.500 248.187 L 191.000 248.187 L 191.000 236.511 L 195.500 236.511 L 195.500 224.836 L 191.000 224.836 L 191.000 213.160 L 195.500 213.160 L 195.500 201.484 L 191.000 201.484 L 191.000 189.809 L 195.500 189.809 L 195.500 178.133 L 191.000 178.133 L 191.000 166.458 L 195.500 166.458 L 195.500 154.782 L 191.000 154.782 L 191.000 143.107 L 195.500 143.107 L 195.500 131.431 L 191.000 131.431 L 191.000 119.756 L 195.500 119.756 L 195.500 108.080 L 191.000 108.080 L 191.000 96.404 L 195.500 96.404 L 195.500 84.729 L 191.000 84.729 L 191.000 73.053 L 195.500 73.053 L 195.500 61.378 L 191.000 61.378 L 191.000 49.702 L 195.500 49.702 L 195.500 38.027 L 191.000 38.027 L 191.000 26.351 L 195.500 26.351 L 195.500 14.676 Z" fill="none" stroke="#ff0000" stroke-width="0.01"/>
  <path d="M 232.623 73.362 L 226.143 94.362" fill="none" stroke="#0000ff" stroke-width="0.01"/>
  <path d="M 232.050 73.185 L 225.570 94.185" fill="none" stroke="#0000ff" stroke-width="0.01"/>
  <path d="M 231.477 73.008 L 224.997 94.008" fill="none" stroke="#0000ff" stroke-width="0.01"/>
  <path d="M 232.050 72.585 L 237.450 72.585" fill="none" stroke="#0000ff" stroke-width="0.01"/>
  <path d="M 232.050 73.185 L 237.450 73.185" fill="none" stroke="#0000ff" stroke-width="0.01"/>
  <path d="M 232.050 73.785 L 237.450 73.785" fill="none" stroke="#0000ff" stroke-width="0.01"/>
  <path d="M 237.667 72.626 L 241.537 74.126" fill="none" stroke="#0000ff" stroke-width="0.01"/>
  <path d="M 237.450 73.185 L 241.320 74.685" fill="none" stroke="#0000ff" stroke-width="0.01"/>
  <path d="M 237.233 73.744 L 241.103 75.244" fill="none" stroke="#0000ff" stroke-width="0.01"/>
  <path d="M 241.920 74.673 L 241.992 78.273" fill="none" stroke="#0000ff" stroke-width="0.01"/>
  <path d="M 241.320 74.685 L 241.392 78.285" fill="none" stroke="#0000ff" stroke-width="0.01"/>
  <path d="M 240.720 74.697 L 240.792 78.297" fill="none" stroke="#0000ff" stroke-width="0.01"/>
  <path d="M 241.956 78.491 L 240.534 82.391" fill="none" stroke="#0000ff" stroke-width="0.01"/>
  <path d="M 241.392 78.285 L 239.970 82.185" fill="none" stroke="#0000ff" stroke-width="0.01"/>
  <path d="M 240.828 78.079 L 239.406 81.979" fill="none" stroke="#0000ff" stroke-width="0.01"/>
  <path d="M 240.163 82.753 L 235.753 84.253" fill="none" stroke="#0000ff" stroke-width="0.01"/>
  <path d="M 239.970 82.185 L 235.560 83.685" fill="none" stroke="#0000ff" stroke-width="0.01"/>
  <path d="M 239.777 81.617 L 235.367 83.117" fill="none" stroke="#0000ff" stroke-width="0.01"/>
  <path d="M 235.560 84.285 L 229.260 84.285" fill="none" stroke="#0000ff" stroke-width="0.01"/>
  <path d="M 235.560 83.685 L 229.260 83.685" fill="none" stroke="#0000ff" stroke-width="0.01"/>
  <path d="M 235.560 83.085 L 229.260 83.085" fill="none" stroke="#0000ff" stroke-width="0.01"/>
  <path d="M 255.425 73.357 L 250.925 88.357" fill="none" stroke="#0000ff" stroke-width="0.01"/>
  <path d="M 254.850 73.185 L 250.350 88.185" fill="none" stroke="#0000ff" stroke-width="0.01"/>
  <path d="M 254.275 73.013 L 249.775 88.013" fill="none" stroke="#0000ff" stroke-width="0.01"/>
  <path d="M 257.594 68.284 L 256.856 70.384" fill="none" stroke="#0000ff" stroke-width="0.01"/>
  <path d="M 257.028 68.085 L 256.290 70.185" fill="none" stroke="#0000ff" stroke-width="0.01"/>
  <path d="M 256.462 67.886 L 255.724 69.986" fill="none" stroke="#0000ff" stroke-width="0.01"/>
  <path d="M 271.170 78.585 L 281.970 78.585" fill="none" stroke="#0000ff" stroke-width="0.01"/>
  <path d="M 271.170 79.185 L 281.970 79.185" fill="none" stroke="#0000ff" stroke-width="0.01"/>
  <path d="M 271.170 79.785 L 281.970 79.785" fill="none" stroke="#0000ff" stroke-width="0.01"/>
  <path d="M 295.625 73.357 L 291.125 88.357" fill="none" stroke="#0000ff" stroke-width="0.01"/>
  <path d="M 295.050 73.185 L 290.550 88.185" fill="none" stroke="#0000ff" stroke-width="0.01"/>
  <path d="M 294.475 73.013 L 289.975 88.013" fill="none" stroke="#0000ff" stroke-width="0.01"/>
  <path d="M 293.811 77.265 L 298.221 72.765" fill="none" stroke="#0000ff" stroke-width="0.01"/>
  <path d="M 294.240 77.685 L 298.650 73.185" fill="none" stroke="#0000ff" stroke-width="0.01"/>
  <path d="M 294.669 78.105 L 299.079 73.605" fill="none" stroke="#0000ff" stroke-width="0.01"/>
  <path d="M 298.650 72.585 L 302.250 72.585" fill="none" stroke="#0000ff" stroke-width="0.01"/>
  <path d="M 298.650 73.185 L 302.250 73.185" fill="none" stroke="#0000ff" stroke-width="0.01"/>
  <path d="M 298.650 73.785 L 302.250 73.785" fill="none" stroke="#0000ff" stroke-width="0.01"/>
  <path d="M 302.836 73.056 L 303.826 77.556" fill="none" stroke="#0000ff" stroke-width="0.01"/>
  <path d="M 302.250 73.185 L 303.240 77.685" fill="none" stroke="#0000ff" stroke-width="0.01"/>
  <path d="M 301.664 73.314 L 302.654 77.814" fill="none" stroke="#0000ff" stroke-width="0.01"/>
  <path d="M 303.806 77.884 L 300.116 88.384" fill="none" stroke="#0000ff" stroke-width="0.01"/>
  <path d="M 303.240 77.685 L 299.550 88.185" fill="none" stroke="#0000ff" stroke-width="0.01"/>
  <path d="M 302.674 77.486 L 298.984 87.986" fill="none" stroke="#0000ff" stroke-width="0.01"/>
  <path d="M 324.150 73.785 L 320.550 73.785" fill="none" stroke="#0000ff" stroke-width="0.01"/>
  <path d="M 324.150 73.185 L 320.550 73.185" fill="none" stroke="#0000ff" stroke-width="0.01"/>
  <path d="M 324.150 72.585 L 320.550 72.585" fill="none" stroke="#0000ff" stroke-width="0.01"/>
  <path d="M 320.857 73.701 L 315.817 76.701" fill="none" stroke="#0000ff" stroke-width="0.01"/>
  <path d="M 320.550 73.185 L 315.510 76.185" fill="none" stroke="#0000ff" stroke-width="0.01"/>
  <path d="M 320.243 72.669 L 315.203 75.669" fill="none" stroke="#0000ff" stroke-width="0.01"/>
  <path d="M 316.071 76.398 L 314.361 80.898" fill="none" stroke="#0000ff" stroke-width="0.01"/>
  <path d="M 315.510 76.185 L 313.800 80.685" fill="none" stroke="#0000ff" stroke-width="0.01"/>
  <path d="M 314.949 75.972 L 313.239 80.472" fill="none" stroke="#0000ff" stroke-width="0.01"/>
  <path d="M 314.400 80.673 L 314.490 85.173" fill="none" stroke="#0000ff" stroke-width="0.01"/>
  <path d="M 313.800 80.685 L 313.890 85.185" fill="none" stroke="#0000ff" stroke-width="0.01"/>
  <path d="M 313.200 80.697 L 313.290 85.197" fill="none" stroke="#0000ff" stroke-width="0.01"/>
  <path d="M 314.252 84.707 L 318.212 87.707" fill="none" stroke="#0000ff" stroke-width="0.01"/>
  <path d="M 313.890 85.185 L 317.850 88.185" fill="none" stroke="#0000ff" stroke-width="0.01"/>
  <path d="M 313.528 85.663 L 317.488 88.663" fill="none" stroke="#0000ff" stroke-width="0.01"/>
  <path d="M 317.580 87.649 L 320.550 86.149" fill="none" stroke="#0000ff" stroke-width="0.01"/>
  <path d="M 317.850 88.185 L 320.820 86.685" fill="none" stroke="#0000ff" stroke-width="0.01"/>
  <path d="M 318.120 88.721 L 321.090 87.221" fill="none" stroke="#0000ff" stroke-width="0.01"/>
  <path d="M 326.152 73.394 L 320.572 88.394" fill="none" stroke="#0000ff" stroke-width="0.01"/>
  <path d="M 325.590 73.185 L 320.010 88.185" fill="none" stroke="#0000ff" stroke-width="0.01"/>
  <path d="M 325.028 72.976 L 319.448 87.976" fill="none" stroke="#0000ff" stroke-width="0.01"/>
  <path d="M 345.534 75.232 L 342.204 73.732" fill="none" stroke="#0000ff" stroke-width="0.01"/>
  <path d="M 345.780 74.685 L 342.450 73.185" fill="none" stroke="#0000ff" stroke-width="0.01"/>
  <path d="M 346.026 74.138 L 342.696 72.638" fill="none" stroke="#0000ff" stroke-width="0.01"/>
  <path d="M 342.564 73.774 L 337.902 74.674" fill="none" stroke="#0000ff" stroke-width="0.01"/>
  <path d="M 342.450 73.185 L 337.788 74.085" fill="none" stroke="#0000ff" stroke-width="0.01"/>
  <path d="M 342.336 72.596 L 337.674 73.496" fill="none" stroke="#0000ff" stroke-width="0.01"/>
  <path d="M 338.289 74.416 L 336.309 77.416" fill="none" stroke="#0000ff" stroke-width="0.01"/>
  <path d="M 337.788 74.085 L 335.808 77.085" fill="none" stroke="#0000ff" stroke-width="0.01"/>
  <path d="M 337.287 73.754 L 335.307 76.754" fill="none" stroke="#0000ff" stroke-width="0.01"/>
  <path d="M 336.322 76.776 L 338.122 79.776" fill="none" stroke="#0000ff" stroke-width="0.01"/>
  <path d="M 335.808 77.085 L 337.608 80.085" fill="none" stroke="#0000ff" stroke-width="0.01"/>
  <path d="M 335.294 77.394 L 337.094 80.394" fill="none" stroke="#0000ff" stroke-width="0.01"/>
  <path d="M 337.880 79.550 L 342.002 81.650" fill="none" stroke="#0000ff" stroke-width="0.01"/>
  <path d="M 337.608 80.085 L 341.730 82.185" fill="none" stroke="#0000ff" stroke-width="0.01"/>
  <path d="M 337.336 80.620 L 341.458 82.720" fill="none" stroke="#0000ff" stroke-width="0.01"/>
  <path d="M 342.305 82.013 L 343.205 85.013" fill="none" stroke="#0000ff" stroke-width="0.01"/>
  <path d="M 341.730 82.185 L 342.630 85.185" fill="none" stroke="#0000ff" stroke-width="0.01"/>
  <path d="M 341.155 82.357 L 342.055 85.357" fill="none" stroke="#0000ff" stroke-width="0.01"/>
  <path d="M 343.063 85.601 L 340.183 88.601" fill="none" stroke="#0000ff" stroke-width="0.01"/>
  <path d="M 342.630 85.185 L 339.750 88.185" fill="none" stroke="#0000ff" stroke-width="0.01"/>
  <path d="M 342.197 84.769 L 339.317 87.769" fill="none" stroke="#0000ff" stroke-width="0.01"/>
  <path d="M 339.628 88.772 L 335.290 87.872" fill="none" stroke="#0000ff" stroke-width="0.01"/>
  <path d="M 339.750 88.185 L 335.412 87.285" fill="none" stroke="#0000ff" stroke-width="0.01"/>
  <path d="M 339.872 87.598 L 335.534 86.698" fill="none" stroke="#0000ff" stroke-width="0.01"/>
  <path d="M 335.010 87.730 L 332.688 85.630" fill="none" stroke="#0000ff" stroke-width="0.01"/>
  <path d="M 335.412 87.285 L 333.090 85.185" fill="none" stroke="#0000ff" stroke-width="0.01"/>
  <path d="M 335.814 86.840 L 333.492 84.740" fill="none" stroke="#0000ff" stroke-width="0.01"/>
  <path d="M 505.000 0.000 L 508.000 0.000 L 508.000 11.412 L 505.000 11.412 L 505.000 22.824 L 508.000 22.824 L 508.000 34.235 L 505.000 34.235 L 505.000 45.647 L 508.000 45.647 L 508.000 57.059 L 505.000 57.059 L 505.000 68.471 L 508.000 68.471 L 508.000 79.882 L 505.000 79.882 L 505.000 91.294 L 508.000 91.294 L 508.000 102.706 L 505.000 102.706 L 505.000 114.118 L 508.000 114.118 L 508.000 125.529 L 505.000 125.529 L 505.000 136.941 L 508.000 136.941 L 508.000 148.353 L 505.000 148.353 L 505.000 159.765 L 508.000 159.765 L 508.000 171.176 L 505.000 171.176 L 505.000 182.588 L 508.000 182.588 L 508.000 194.000 L 505.000 194.000 L 385.000 194.000 L 382.000 194.000 L 382.000 182.588 L 385.000 182.588 L 385.000 171.176 L 382.000 171.176 L 382.000 159.765 L 385.000 159.765 L 385.000 148.353 L 382.000 148.353 L 382.000 136.941 L 385.000 136.941 L 385.000 125.529 L 382.000 125.529 L 382.000 114.118 L 385.000 114.118 L 385.000 102.706 L 382.000 102.706 L 382.000 91.294 L 385.000 91.294 L 385.000 79.882 L 382.000 79.882 L 382.000 68.471 L 385.000 68.471 L 385.000 57.059 L 382.000 57.059 L 382.000 45.647 L 385.000 45.647 L 385.000 34.235 L 382.000 34.235 L 382.000 22.824 L 385.000 22.824 L 385.000 11.412 L 382.000 11.412 L 382.000 0.000 L 385.000 0.000 L 505.000 0.000 Z" fill="none" stroke="#ff0000" stroke-width="0.01"/>
  <rect x="494.091" y="3.0" width="10.909" height="4.5" fill="none" stroke="#ff0000" stroke-width="0.01"/>
  <rect x="472.273" y="3.0" width="10.909" height="4.5" fill="none" stroke="#ff0000" stroke-width="0.01"/>
  <rect x="450.455" y="3.0" width="10.909" height="4.5" fill="none" stroke="#ff0000" stroke-width="0.01"/>
  <rect x="428.636" y="3.0" width="10.909" height="4.5" fill="none" stroke="#ff0000" stroke-width="0.01"/>
  <rect x="406.818" y="3.0" width="10.909" height="4.5" fill="none" stroke="#ff0000" stroke-width="0.01"/>
  <rect x="385.0" y="3.0" width="10.909" height="4.5" fill="none" stroke="#ff0000" stroke-width="0.01"/>
  <rect x="494.091" y="186.5" width="10.909" height="4.5" fill="none" stroke="#ff0000" stroke-width="0.01"/>
  <rect x="472.273" y="186.5" width="10.909" height="4.5" fill="none" stroke="#ff0000" stroke-width="0.01"/>
  <rect x="450.455" y="186.5" width="10.909" height="4.5" fill="none" stroke="#ff0000" stroke-width="0.01"/>
  <rect x="428.636" y="186.5" width="10.909" height="4.5" fill="none" stroke="#ff0000" stroke-width="0.01"/>
  <rect x="406.818" y="186.5" width="10.909" height="4.5" fill="none" stroke="#ff0000" stroke-width="0.01"/>
  <rect x="385.0" y="186.5" width="10.909" height="4.5" fill="none" stroke="#ff0000" stroke-width="0.01"/>
  <circle cx="492.5" cy="12.5" r="2.25" fill="none" stroke="#ff0000" stroke-width="0.01"/>
  <circle cx="492.5" cy="181.5" r="2.25" fill="none" stroke="#ff0000" stroke-width="0.01"/>
  <circle cx="397.5" cy="12.5" r="2.25" fill="none" stroke="#ff0000" stroke-width="0.01"/>
  <circle cx="397.5" cy="181.5" r="2.25" fill="none" stroke="#ff0000" stroke-width="0.01"/>
  <path d="M 443.212 105.821 L 440.743 104.930 L 438.636 103.364 L 437.070 101.257 L 436.179 98.788 L 439.120 98.192 L 439.714 99.838 L 440.757 101.243 L 442.162 102.286 L 443.808 102.880 L 443.212 105.821 Z" fill="none" stroke="#ff0000" stroke-width="0.01"/>
  <path d="M 436.179 95.212 L 437.070 92.743 L 438.636 90.636 L 440.743 89.070 L 443.212 88.179 L 443.808 91.120 L 442.162 91.714 L 440.757 92.757 L 439.714 94.162 L 439.120 95.808 L 436.179 95.212 Z" fill="none" stroke="#ff0000" stroke-width="0.01"/>
  <path d="M 446.788 88.179 L 449.257 89.070 L 451.364 90.636 L 452.930 92.743 L 453.821 95.212 L 450.880 95.808 L 450.286 94.162 L 449.243 92.757 L 447.838 91.714 L 446.192 91.120 L 446.788 88.179 Z" fill="none" stroke="#ff0000" stroke-width="0.01"/>
  <path d="M 453.821 98.788 L 452.930 101.257 L 451.364 103.364 L 449.257 104.930 L 446.788 105.821 L 446.192 102.880 L 447.838 102.286 L 449.243 101.243 L 450.286 99.838 L 450.880 98.192 L 453.821 98.788 Z" fill="none" stroke="#ff0000" stroke-width="0.01"/>
  <path d="M 443.348 112.914 L 441.172 112.535 L 439.069 111.860 L 437.080 110.902 L 435.241 109.679 L 433.588 108.214 L 435.728 106.112 L 437.071 107.302 L 438.565 108.295 L 440.181 109.074 L 441.890 109.622 L 443.658 109.931 L 443.348 112.914 Z" fill="none" stroke="#ff0000" stroke-width="0.01"/>
  <path d="M 431.527 105.631 L 430.467 103.693 L 429.684 101.628 L 429.193 99.475 L 429.002 97.275 L 429.117 95.069 L 432.095 95.431 L 432.002 97.223 L 432.157 99.011 L 432.556 100.761 L 433.192 102.438 L 434.054 104.012 L 431.527 105.631 Z" fill="none" stroke="#ff0000" stroke-width="0.01"/>
  <path d="M 429.852 91.848 L 430.706 89.811 L 431.832 87.911 L 433.209 86.185 L 434.811 84.664 L 436.606 83.378 L 438.180 85.932 L 436.721 86.977 L 435.420 88.213 L 434.301 89.615 L 433.386 91.159 L 432.692 92.814 L 429.852 91.848 Z" fill="none" stroke="#ff0000" stroke-width="0.01"/>
  <path d="M 439.584 81.945 L 441.708 81.342 L 443.896 81.038 L 446.104 81.038 L 448.292 81.342 L 450.416 81.945 L 449.401 84.768 L 447.675 84.278 L 445.897 84.031 L 444.103 84.031 L 442.325 84.278 L 440.599 84.768 L 439.584 81.945 Z" fill="none" stroke="#ff0000" stroke-width="0.01"/>
  <path d="M 453.394 83.378 L 455.189 84.664 L 456.791 86.185 L 458.168 87.911 L 459.294 89.811 L 460.148 91.848 L 457.308 92.814 L 456.614 91.159 L 455.699 89.615 L 454.580 88.213 L 453.279 86.977 L 451.820 85.932 L 453.394 83.378 Z" fill="none" stroke="#ff0000" stroke-width="0.01"/>
  <path d="M 460.883 95.069 L 460.998 97.275 L 460.807 99.475 L 460.316 101.628 L 459.533 103.693 L 458.473 105.631 L 455.946 104.012 L 456.808 102.438 L 457.444 100.761 L 457.843 99.011 L 457.998 97.223 L 457.905 95.431 L 460.883 95.069 Z" fill="none" stroke="#ff0000" stroke-width="0.01"/>
  <path d="M 456.412 108.214 L 454.759 109.679 L 452.920 110.902 L 450.931 111.860 L 448.828 112.535 L 446.652 112.914 L 446.342 109.931 L 448.110 109.622 L 449.819 109.074 L 451.435 108.295 L 452.929 107.302 L 454.272 106.112 L 456.412 108.214 Z" fill="none" stroke="#ff0000" stroke-width="0.01"/>
  <path d="M 443.397 119.944 L 440.935 119.638 L 438.520 119.068 L 436.181 118.242 L 433.944 117.169 L 435.386 114.538 L 437.331 115.471 L 439.365 116.190 L 441.465 116.685 L 443.606 116.951 L 443.397 119.944 Z" fill="none" stroke="#ff0000" stroke-width="0.01"/>
  <path d="M 431.247 115.435 L 429.341 113.846 L 427.618 112.062 L 426.097 110.102 L 424.795 107.990 L 427.431 106.556 L 428.562 108.393 L 429.885 110.097 L 431.384 111.649 L 433.041 113.030 L 431.247 115.435 Z" fill="none" stroke="#ff0000" stroke-width="0.01"/>
  <path d="M 423.463 105.073 L 422.719 102.706 L 422.234 100.273 L 422.014 97.802 L 422.061 95.322 L 425.053 95.541 L 425.012 97.698 L 425.204 99.846 L 425.625 101.962 L 426.272 104.020 L 423.463 105.073 Z" fill="none" stroke="#ff0000" stroke-width="0.01"/>
  <path d="M 422.518 92.148 L 423.171 89.754 L 424.078 87.445 L 425.229 85.248 L 426.610 83.187 L 429.009 84.988 L 427.808 86.781 L 426.807 88.692 L 426.018 90.699 L 425.450 92.781 L 422.518 92.148 Z" fill="none" stroke="#ff0000" stroke-width="0.01"/>
  <path d="M 428.710 80.763 L 430.554 79.103 L 432.565 77.651 L 434.722 76.424 L 436.998 75.437 L 438.041 78.250 L 436.062 79.108 L 434.187 80.175 L 432.438 81.437 L 430.835 82.881 L 428.710 80.763 Z" fill="none" stroke="#ff0000" stroke-width="0.01"/>
  <path d="M 440.074 74.534 L 442.523 74.134 L 445.000 74.000 L 447.477 74.134 L 449.926 74.534 L 449.283 77.464 L 447.154 77.116 L 445.000 77.000 L 442.846 77.116 L 440.717 77.464 L 440.074 74.534 Z" fill="none" stroke="#ff0000" stroke-width="0.01"/>
  <path d="M 453.002 75.437 L 455.278 76.424 L 457.435 77.651 L 459.446 79.103 L 461.290 80.763 L 459.165 82.881 L 457.562 81.437 L 455.813 80.175 L 453.938 79.108 L 451.959 78.250 L 453.002 75.437 Z" fill="none" stroke="#ff0000" stroke-width="0.01"/>
  <path d="M 463.390 83.187 L 464.771 85.248 L 465.922 87.445 L 466.829 89.754 L 467.482 92.148 L 464.550 92.781 L 463.982 90.699 L 463.193 88.692 L 462.192 86.781 L 460.991 84.988 L 463.390 83.187 Z" fill="none" stroke="#ff0000" stroke-width="0.01"/>
  <path d="M 467.939 95.322 L 467.986 97.802 L 467.766 100.273 L 467.281 102.706 L 466.537 105.073 L 463.728 104.020 L 464.375 101.962 L 464.796 99.846 L 464.988 97.698 L 464.947 95.541 L 467.939 95.322 Z" fill="none" stroke="#ff0000" stroke-width="0.01"/>
  <path d="M 465.205 107.990 L 463.903 110.102 L 462.382 112.062 L 460.659 113.846 L 458.753 115.435 L 456.959 113.030 L 458.616 111.649 L 460.115 110.097 L 461.438 108.393 L 462.569 106.556 L 465.205 107.990 Z" fill="none" stroke="#ff0000" stroke-width="0.01"/>
  <path d="M 456.056 117.169 L 453.819 118.242 L 451.480 119.068 L 449.065 119.638 L 446.603 119.944 L 446.394 116.951 L 448.535 116.685 L 450.635 116.190 L 452.669 115.471 L 454.614 114.538 L 456.056 117.169 Z" fill="none" stroke="#ff0000" stroke-width="0.01"/>
  <path d="M 443.422 126.958 L 440.858 126.713 L 438.324 126.248 L 435.840 125.567 L 433.423 124.676 L 434.581 121.909 L 436.756 122.711 L 438.992 123.323 L 441.272 123.741 L 443.580 123.963 L 443.422 126.958 Z" fill="none" stroke="#ff0000" stroke-width="0.01"/>
  <path d="M 430.580 123.307 L 428.376 121.973 L 426.295 120.455 L 424.352 118.764 L 422.562 116.913 L 424.805 114.921 L 426.417 116.588 L 428.166 118.109 L 430.039 119.476 L 432.022 120.676 L 430.580 123.307 Z" fill="none" stroke="#ff0000" stroke-width="0.01"/>
  <path d="M 420.594 114.445 L 419.187 112.287 L 417.971 110.017 L 416.954 107.650 L 416.144 105.205 L 419.029 104.385 L 419.759 106.585 L 420.674 108.715 L 421.768 110.758 L 423.034 112.700 L 420.594 114.445 Z" fill="none" stroke="#ff0000" stroke-width="0.01"/>
  <path d="M 415.441 102.128 L 415.111 99.573 L 415.000 97.000 L 415.111 94.427 L 415.441 91.872 L 418.397 92.385 L 418.100 94.684 L 418.000 97.000 L 418.100 99.316 L 418.397 101.615 L 415.441 102.128 Z" fill="none" stroke="#ff0000" stroke-width="0.01"/>
  <path d="M 416.144 88.795 L 416.954 86.350 L 417.971 83.983 L 419.187 81.713 L 420.594 79.555 L 423.034 81.300 L 421.768 83.242 L 420.674 85.285 L 419.759 87.415 L 419.029 89.615 L 416.144 88.795 Z" fill="none" stroke="#ff0000" stroke-width="0.01"/>
  <path d="M 422.562 77.087 L 424.352 75.236 L 426.295 73.545 L 428.376 72.027 L 430.580 70.693 L 432.022 73.324 L 430.039 74.524 L 428.166 75.891 L 426.417 77.412 L 424.805 79.079 L 422.562 77.087 Z" fill="none" stroke="#ff0000" stroke-width="0.01"/>
  <path d="M 433.423 69.324 L 435.840 68.433 L 438.324 67.752 L 440.858 67.287 L 443.422 67.042 L 443.580 70.037 L 441.272 70.259 L 438.992 70.677 L 436.756 71.289 L 434.581 72.091 L 433.423 69.324 Z" fill="none" stroke="#ff0000" stroke-width="0.01"/>
  <path d="M 446.578 67.042 L 449.142 67.287 L 451.676 67.752 L 454.160 68.433 L 456.577 69.324 L 455.419 72.091 L 453.244 71.289 L 451.008 70.677 L 448.728 70.259 L 446.420 70.037 L 446.578 67.042 Z" fill="none" stroke="#ff0000" stroke-width="0.01"/>
  <path d="M 459.420 70.693 L 461.624 72.027 L 463.705 73.545 L 465.648 75.236 L 467.438 77.087 L 465.195 79.079 L 463.583 77.412 L 461.834 75.891 L 459.961 74.524 L 457.978 73.324 L 459.420 70.693 Z" fill="none" stroke="#ff0000" stroke-width="0.01"/>
  <path d="M 469.406 79.555 L 470.813 81.713 L 472.029 83.983 L 473.046 86.350 L 473.856 88.795 L 470.971 89.615 L 470.241 87.415 L 469.326 85.285 L 468.232 83.242 L 466.966 81.300 L 469.406 79.555 Z" fill="none" stroke="#ff0000" stroke-width="0.01"/>
  <path d="M 474.559 91.872 L 474.889 94.427 L 475.000 97.000 L 474.889 99.573 L 474.559 102.128 L 471.603 101.615 L 471.900 99.316 L 472.000 97.000 L 471.900 94.684 L 471.603 92.385 L 474.559 91.872 Z" fill="none" stroke="#ff0000" stroke-width="0.01"/>
  <path d="M 473.856 105.205 L 473.046 107.650 L 472.029 110.017 L 470.813 112.287 L 469.406 114.445 L 466.966 112.700 L 468.232 110.758 L 469.326 108.715 L 470.241 106.585 L 470.971 104.385 L 473.856 105.205 Z" fill="none" stroke="#ff0000" stroke-width="0.01"/>
  <path d="M 467.438 116.913 L 465.648 118.764 L 463.705 120.455 L 461.624 121.973 L 459.420 123.307 L 457.978 120.676 L 459.961 119.476 L 461.834 118.109 L 463.583 116.588 L 465.195 114.921 L 467.438 116.913 Z" fill="none" stroke="#ff0000" stroke-width="0.01"/>
  <path d="M 456.577 124.676 L 454.160 125.567 L 451.676 126.248 L 449.142 126.713 L 446.578 126.958 L 446.420 123.963 L 448.728 123.741 L 451.008 123.323 L 453.244 122.711 L 455.419 121.909 L 456.577 124.676 Z" fill="none" stroke="#ff0000" stroke-width="0.01"/>
  <path d="M 443.437 133.967 L 440.997 133.783 L 438.575 133.438 L 436.181 132.934 L 433.825 132.272 L 434.731 129.412 L 436.896 130.020 L 439.096 130.483 L 441.322 130.800 L 443.564 130.970 L 443.437 133.967 Z" fill="none" stroke="#ff0000" stroke-width="0.01"/>
  <path d="M 430.888 131.203 L 428.658 130.196 L 426.500 129.043 L 424.423 127.750 L 422.435 126.323 L 424.265 123.945 L 426.091 125.257 L 428.000 126.445 L 429.983 127.504 L 432.032 128.430 L 430.888 131.203 Z" fill="none" stroke="#ff0000" stroke-width="0.01"/>
  <path d="M 420.041 124.314 L 418.290 122.604 L 416.656 120.783 L 415.146 118.858 L 413.767 116.837 L 416.300 115.229 L 417.567 117.086 L 418.954 118.855 L 420.456 120.528 L 422.065 122.099 L 420.041 124.314 Z" fill="none" stroke="#ff0000" stroke-width="0.01"/>
  <path d="M 412.204 114.130 L 411.144 111.925 L 410.231 109.655 L 409.471 107.329 L 408.866 104.958 L 411.796 104.313 L 412.352 106.492 L 413.050 108.629 L 413.889 110.715 L 414.863 112.741 L 412.204 114.130 Z" fill="none" stroke="#ff0000" stroke-width="0.01"/>
  <path d="M 408.323 101.880 L 408.081 99.445 L 408.000 97.000 L 408.081 94.555 L 408.323 92.120 L 411.297 92.516 L 411.074 94.753 L 411.000 97.000 L 411.074 99.247 L 411.297 101.484 L 408.323 101.880 Z" fill="none" stroke="#ff0000" stroke-width="0.01"/>
  <path d="M 408.866 89.042 L 409.471 86.671 L 410.231 84.345 L 411.144 82.075 L 412.204 79.870 L 414.863 81.259 L 413.889 83.285 L 413.050 85.371 L 412.352 87.508 L 411.796 89.687 L 408.866 89.042 Z" fill="none" stroke="#ff0000" stroke-width="0.01"/>
  <path d="M 413.767 77.163 L 415.146 75.142 L 416.656 73.217 L 418.290 71.396 L 420.041 69.686 L 422.065 71.901 L 420.456 73.472 L 418.954 75.145 L 417.567 76.914 L 416.300 78.771 L 413.767 77.163 Z" fill="none" stroke="#ff0000" stroke-width="0.01"/>
  <path d="M 422.435 67.677 L 424.423 66.250 L 426.500 64.957 L 428.658 63.804 L 430.888 62.797 L 432.032 65.570 L 429.983 66.496 L 428.000 67.555 L 426.091 68.743 L 424.265 70.055 L 422.435 67.677 Z" fill="none" stroke="#ff0000" stroke-width="0.01"/>
  <path d="M 433.825 61.728 L 436.181 61.066 L 438.575 60.562 L 440.997 60.217 L 443.437 60.033 L 443.564 63.030 L 441.322 63.200 L 439.096 63.517 L 436.896 63.980 L 434.731 64.588 L 433.825 61.728 Z" fill="none" stroke="#ff0000" stroke-width="0.01"/>
  <path d="M 446.563 60.033 L 449.003 60.217 L 451.425 60.562 L 453.819 61.066 L 456.175 61.728 L 455.269 64.588 L 453.104 63.980 L 450.904 63.517 L 448.678 63.200 L 446.436 63.030 L 446.563 60.033 Z" fill="none" stroke="#ff0000" stroke-width="0.01"/>
  <path d="M 459.112 62.797 L 461.342 63.804 L 463.500 64.957 L 465.577 66.250 L 467.565 67.677 L 465.735 70.055 L 463.909 68.743 L 462.000 67.555 L 460.017 66.496 L 457.968 65.570 L 459.112 62.797 Z" fill="none" stroke="#ff0000" stroke-width="0.01"/>
  <path d="M 469.959 69.686 L 471.710 71.396 L 473.344 73.217 L 474.854 75.142 L 476.233 77.163 L 473.700 78.771 L 472.433 76.914 L 471.046 75.145 L 469.544 73.472 L 467.935 71.901 L 469.959 69.686 Z" fill="none" stroke="#ff0000" stroke-width="0.01"/>
  <path d="M 477.796 79.870 L 478.856 82.075 L 479.769 84.345 L 480.529 86.671 L 481.134 89.042 L 478.204 89.687 L 477.648 87.508 L 476.950 85.371 L 476.111 83.285 L 475.137 81.259 L 477.796 79.870 Z" fill="none" stroke="#ff0000" stroke-width="0.01"/>
  <path d="M 481.677 92.120 L 481.919 94.555 L 482.000 97.000 L 481.919 99.445 L 481.677 101.880 L 478.703 101.484 L 478.926 99.247 L 479.000 97.000 L 478.926 94.753 L 478.703 92.516 L 481.677 92.120 Z" fill="none" stroke="#ff0000" stroke-width="0.01"/>
  <path d="M 481.134 104.958 L 480.529 107.329 L 479.769 109.655 L 478.856 111.925 L 477.796 114.130 L 475.137 112.741 L 476.111 110.715 L 476.950 108.629 L 477.648 106.492 L 478.204 104.313 L 481.134 104.958 Z" fill="none" stroke="#ff0000" stroke-width="0.01"/>
  <path d="M 476.233 116.837 L 474.854 118.858 L 473.344 120.783 L 471.710 122.604 L 469.959 124.314 L 467.935 122.099 L 469.544 120.528 L 471.046 118.855 L 472.433 117.086 L 473.700 115.229 L 476.233 116.837 Z" fill="none" stroke="#ff0000" stroke-width="0.01"/>
  <path d="M 467.565 126.323 L 465.577 127.750 L 463.500 129.043 L 461.342 130.196 L 459.112 131.203 L 457.968 128.430 L 460.017 127.504 L 462.000 126.445 L 463.909 125.257 L 465.735 123.945 L 467.565 126.323 Z" fill="none" stroke="#ff0000" stroke-width="0.01"/>
  <path d="M 456.175 132.272 L 453.819 132.934 L 451.425 133.438 L 449.003 133.783 L 446.563 133.967 L 446.436 130.970 L 448.678 130.800 L 450.904 130.483 L 453.104 130.020 L 455.269 129.412 L 456.175 132.272 Z" fill="none" stroke="#ff0000" stroke-width="0.01"/>
</svg>
