  0
SECTION
  2
HEADER
  9
$INSUNITS
  70
4
  0
ENDSEC
  0
SECTION
  2
TABLES
  0
TABLE
  2
LAYER
  70
2
  0
LAYER
  2
CUT
  70
0
  62
1
  6
CONTINUOUS
  0
LAYER
  2
ENGRAVE
  70
0
  62
5
  6
CONTINUOUS
  0
ENDTAB
  0
ENDSEC
  0
SECTION
  2
ENTITIES
  0
LWPOLYLINE
  8
CUT
  90
169
  70
1
  10
5.0000
  20
320.2400
  10
8.4710
  20
320.2400
  10
8.4710
  20
323.2400
  10
19.9410
  20
323.2400
  10
19.9410
  20
320.2400
  10
31.4120
  20
320.2400
  10
31.4120
  20
323.2400
  10
42.8820
  20
323.2400
  10
42.8820
  20
320.2400
  10
54.3530
  20
320.2400
  10
54.3530
  20
323.2400
  10
65.8240
  20
323.2400
  10
65.8240
  20
320.2400
  10
77.2940
  20
320.2400
  10
77.2940
  20
323.2400
  10
88.7650
  20
323.2400
  10
88.7650
  20
320.2400
  10
100.2350
  20
320.2400
  10
100.2350
  20
323.2400
  10
111.7060
  20
323.2400
  10
111.7060
  20
320.2400
  10
123.1760
  20
320.2400
  10
123.1760
  20
323.2400
  10
134.6470
  20
323.2400
  10
134.6470
  20
320.2400
  10
146.1180
  20
320.2400
  10
146.1180
  20
323.2400
  10
157.5880
  20
323.2400
  10
157.5880
  20
320.2400
  10
169.0590
  20
320.2400
  10
169.0590
  20
323.2400
  10
180.5290
  20
323.2400
  10
180.5290
  20
320.2400
  10
184.0000
  20
320.2400
  10
184.0000
  20
308.5640
  10
184.0000
  20
296.8890
  10
189.0000
  20
296.8890
  10
189.0000
  20
285.2130
  10
184.0000
  20
285.2130
  10
184.0000
  20
273.5380
  10
189.0000
  20
273.5380
  10
189.0000
  20
261.8620
  10
184.0000
  20
261.8620
  10
184.0000
  20
250.1870
  10
189.0000
  20
250.1870
  10
189.0000
  20
238.5110
  10
184.0000
  20
238.5110
  10
184.0000
  20
226.8360
  10
189.0000
  20
226.8360
  10
189.0000
  20
215.1600
  10
184.0000
  20
215.1600
  10
184.0000
  20
203.4840
  10
189.0000
  20
203.4840
  10
189.0000
  20
191.8090
  10
184.0000
  20
191.8090
  10
184.0000
  20
180.1330
  10
189.0000
  20
180.1330
  10
189.0000
  20
168.4580
  10
184.0000
  20
168.4580
  10
184.0000
  20
156.7820
  10
189.0000
  20
156.7820
  10
189.0000
  20
145.1070
  10
184.0000
  20
145.1070
  10
184.0000
  20
133.4310
  10
189.0000
  20
133.4310
  10
189.0000
  20
121.7560
  10
184.0000
  20
121.7560
  10
184.0000
  20
110.0800
  10
189.0000
  20
110.0800
  10
189.0000
  20
98.4040
  10
184.0000
  20
98.4040
  10
184.0000
  20
86.7290
  10
189.0000
  20
86.7290
  10
189.0000
  20
75.0530
  10
184.0000
  20
75.0530
  10
184.0000
  20
63.3780
  10
189.0000
  20
63.3780
  10
189.0000
  20
51.7020
  10
184.0000
  20
51.7020
  10
184.0000
  20
40.0270
  10
189.0000
  20
40.0270
  10
189.0000
  20
28.3510
  10
184.0000
  20
28.3510
  10
184.0000
  20
16.6760
  10
184.0000
  20
5.0000
  10
180.5290
  20
5.0000
  10
180.5290
  20
0.0000
  10
169.0590
  20
0.0000
  10
169.0590
  20
5.0000
  10
157.5880
  20
5.0000
  10
157.5880
  20
0.0000
  10
146.1180
  20
0.0000
  10
146.1180
  20
5.0000
  10
134.6470
  20
5.0000
  10
134.6470
  20
0.0000
  10
123.1760
  20
0.0000
  10
123.1760
  20
5.0000
  10
111.7060
  20
5.0000
  10
111.7060
  20
0.0000
  10
100.2350
  20
0.0000
  10
100.2350
  20
5.0000
  10
88.7650
  20
5.0000
  10
88.7650
  20
0.0000
  10
77.2940
  20
0.0000
  10
77.2940
  20
5.0000
  10
65.8240
  20
5.0000
  10
65.8240
  20
0.0000
  10
54.3530
  20
0.0000
  10
54.3530
  20
5.0000
  10
42.8820
  20
5.0000
  10
42.8820
  20
0.0000
  10
31.4120
  20
0.0000
  10
31.4120
  20
5.0000
  10
19.9410
  20
5.0000
  10
19.9410
  20
0.0000
  10
8.4710
  20
0.0000
  10
8.4710
  20
5.0000
  10
5.0000
  20
5.0000
  10
5.0000
  20
16.6760
  10
5.0000
  20
28.3510
  10
0.0000
  20
28.3510
  10
0.0000
  20
40.0270
  10
5.0000
  20
40.0270
  10
5.0000
  20
51.7020
  10
0.0000
  20
51.7020
  10
0.0000
  20
63.3780
  10
5.0000
  20
63.3780
  10
5.0000
  20
75.0530
  10
0.0000
  20
75.0530
  10
0.0000
  20
86.7290
  10
5.0000
  20
86.7290
  10
5.0000
  20
98.4040
  10
0.0000
  20
98.4040
  10
0.0000
  20
110.0800
  10
5.0000
  20
110.0800
  10
5.0000
  20
121.7560
  10
0.0000
  20
121.7560
  10
0.0000
  20
133.4310
  10
5.0000
  20
133.4310
  10
5.0000
  20
145.1070
  10
0.0000
  20
145.1070
  10
0.0000
  20
156.7820
  10
5.0000
  20
156.7820
  10
5.0000
  20
168.4580
  10
0.0000
  20
168.4580
  10
0.0000
  20
180.1330
  10
5.0000
  20
180.1330
  10
5.0000
  20
191.8090
  10
0.0000
  20
191.8090
  10
0.0000
  20
203.4840
  10
5.0000
  20
203.4840
  10
5.0000
  20
215.1600
  10
0.0000
  20
215.1600
  10
0.0000
  20
226.8360
  10
5.0000
  20
226.8360
  10
5.0000
  20
238.5110
  10
0.0000
  20
238.5110
  10
0.0000
  20
250.1870
  10
5.0000
  20
250.1870
  10
5.0000
  20
261.8620
  10
0.0000
  20
261.8620
  10
0.0000
  20
273.5380
  10
5.0000
  20
273.5380
  10
5.0000
  20
285.2130
  10
0.0000
  20
285.2130
  10
0.0000
  20
296.8890
  10
5.0000
  20
296.8890
  10
5.0000
  20
308.5640
  0
LWPOLYLINE
  8
CUT
  90
9
  70
1
  10
69.2500
  20
30.9500
  10
84.1500
  20
30.9500
  10
85.6500
  20
29.4500
  10
85.6500
  20
15.9500
  10
84.1500
  20
14.4500
  10
69.2500
  20
14.4500
  10
67.7500
  20
15.9500
  10
67.7500
  20
29.4500
  0
LWPOLYLINE
  8
CUT
  90
9
  70
1
  10
89.3000
  20
33.0500
  10
101.9000
  20
33.0500
  10
103.4000
  20
31.5500
  10
103.4000
  20
16.9500
  10
101.9000
  20
15.4500
  10
89.3000
  20
15.4500
  10
87.8000
  20
16.9500
  10
87.8000
  20
31.5500
  0
LWPOLYLINE
  8
CUT
  90
9
  70
1
  10
107.1000
  20
33.0500
  10
119.9000
  20
33.0500
  10
121.4000
  20
31.5500
  10
121.4000
  20
16.9500
  10
119.9000
  20
15.4500
  10
107.1000
  20
15.4500
  10
105.6000
  20
16.9500
  10
105.6000
  20
31.5500
  0
LWPOLYLINE
  8
CUT
  90
9
  70
1
  10
102.6000
  20
43.6500
  10
120.4000
  20
43.6500
  10
121.9000
  20
42.1500
  10
121.9000
  20
37.0500
  10
120.4000
  20
35.5500
  10
102.6000
  20
35.5500
  10
101.1000
  20
37.0500
  10
101.1000
  20
42.1500
  0
CIRCLE
  8
CUT
  10
49.5000
  20
18.0000
  40
4.0000
  0
LWPOLYLINE
  8
CUT
  90
9
  70
1
  10
26.2500
  20
61.2500
  10
45.7500
  20
61.2500
  10
47.0000
  20
60.0000
  10
47.0000
  20
60.0000
  10
45.7500
  20
58.7500
  10
26.2500
  20
58.7500
  10
25.0000
  20
60.0000
  10
25.0000
  20
60.0000
  0
LWPOLYLINE
  8
CUT
  90
9
  70
1
  10
84.7500
  20
61.2500
  10
104.2500
  20
61.2500
  10
105.5000
  20
60.0000
  10
105.5000
  20
60.0000
  10
104.2500
  20
58.7500
  10
84.7500
  20
58.7500
  10
83.5000
  20
60.0000
  10
83.5000
  20
60.0000
  0
LWPOLYLINE
  8
CUT
  90
9
  70
1
  10
143.2500
  20
61.2500
  10
162.7500
  20
61.2500
  10
164.0000
  20
60.0000
  10
164.0000
  20
60.0000
  10
162.7500
  20
58.7500
  10
143.2500
  20
58.7500
  10
142.0000
  20
60.0000
  10
142.0000
  20
60.0000
  0
LWPOLYLINE
  8
CUT
  90
9
  70
1
  10
26.2500
  20
75.5000
  10
45.7500
  20
75.5000
  10
47.0000
  20
74.2500
  10
47.0000
  20
74.2500
  10
45.7500
  20
73.0000
  10
26.2500
  20
73.0000
  10
25.0000
  20
74.2500
  10
25.0000
  20
74.2500
  0
LWPOLYLINE
  8
CUT
  90
9
  70
1
  10
84.7500
  20
75.5000
  10
104.2500
  20
75.5000
  10
105.5000
  20
74.2500
  10
105.5000
  20
74.2500
  10
104.2500
  20
73.0000
  10
84.7500
  20
73.0000
  10
83.5000
  20
74.2500
  10
83.5000
  20
74.2500
  0
LWPOLYLINE
  8
CUT
  90
9
  70
1
  10
143.2500
  20
75.5000
  10
162.7500
  20
75.5000
  10
164.0000
  20
74.2500
  10
164.0000
  20
74.2500
  10
162.7500
  20
73.0000
  10
143.2500
  20
73.0000
  10
142.0000
  20
74.2500
  10
142.0000
  20
74.2500
  0
LWPOLYLINE
  8
CUT
  90
9
  70
1
  10
26.2500
  20
89.7500
  10
45.7500
  20
89.7500
  10
47.0000
  20
88.5000
  10
47.0000
  20
88.5000
  10
45.7500
  20
87.2500
  10
26.2500
  20
87.2500
  10
25.0000
  20
88.5000
  10
25.0000
  20
88.5000
  0
LWPOLYLINE
  8
CUT
  90
9
  70
1
  10
84.7500
  20
89.7500
  10
104.2500
  20
89.7500
  10
105.5000
  20
88.5000
  10
105.5000
  20
88.5000
  10
104.2500
  20
87.2500
  10
84.7500
  20
87.2500
  10
83.5000
  20
88.5000
  10
83.5000
  20
88.5000
  0
LWPOLYLINE
  8
CUT
  90
9
  70
1
  10
143.2500
  20
89.7500
  10
162.7500
  20
89.7500
  10
164.0000
  20
88.5000
  10
164.0000
  20
88.5000
  10
162.7500
  20
87.2500
  10
143.2500
  20
87.2500
  10
142.0000
  20
88.5000
  10
142.0000
  20
88.5000
  0
LWPOLYLINE
  8
CUT
  90
9
  70
1
  10
26.2500
  20
104.0000
  10
45.7500
  20
104.0000
  10
47.0000
  20
102.7500
  10
47.0000
  20
102.7500
  10
45.7500
  20
101.5000
  10
26.2500
  20
101.5000
  10
25.0000
  20
102.7500
  10
25.0000
  20
102.7500
  0
LWPOLYLINE
  8
CUT
  90
9
  70
1
  10
84.7500
  20
104.0000
  10
104.2500
  20
104.0000
  10
105.5000
  20
102.7500
  10
105.5000
  20
102.7500
  10
104.2500
  20
101.5000
  10
84.7500
  20
101.5000
  10
83.5000
  20
102.7500
  10
83.5000
  20
102.7500
  0
LWPOLYLINE
  8
CUT
  90
9
  70
1
  10
143.2500
  20
104.0000
  10
162.7500
  20
104.0000
  10
164.0000
  20
102.7500
  10
164.0000
  20
102.7500
  10
162.7500
  20
101.5000
  10
143.2500
  20
101.5000
  10
142.0000
  20
102.7500
  10
142.0000
  20
102.7500
  0
LWPOLYLINE
  8
CUT
  90
9
  70
1
  10
26.2500
  20
118.2500
  10
45.7500
  20
118.2500
  10
47.0000
  20
117.0000
  10
47.0000
  20
117.0000
  10
45.7500
  20
115.7500
  10
26.2500
  20
115.7500
  10
25.0000
  20
117.0000
  10
25.0000
  20
117.0000
  0
LWPOLYLINE
  8
CUT
  90
9
  70
1
  10
84.7500
  20
118.2500
  10
104.2500
  20
118.2500
  10
105.5000
  20
117.0000
  10
105.5000
  20
117.0000
  10
104.2500
  20
115.7500
  10
84.7500
  20
115.7500
  10
83.5000
  20
117.0000
  10
83.5000
  20
117.0000
  0
LWPOLYLINE
  8
CUT
  90
9
  70
1
  10
143.2500
  20
118.2500
  10
162.7500
  20
118.2500
  10
164.0000
  20
117.0000
  10
164.0000
  20
117.0000
  10
162.7500
  20
115.7500
  10
143.2500
  20
115.7500
  10
142.0000
  20
117.0000
  10
142.0000
  20
117.0000
  0
LWPOLYLINE
  8
CUT
  90
9
  70
1
  10
26.2500
  20
143.2500
  10
45.7500
  20
143.2500
  10
47.0000
  20
142.0000
  10
47.0000
  20
142.0000
  10
45.7500
  20
140.7500
  10
26.2500
  20
140.7500
  10
25.0000
  20
142.0000
  10
25.0000
  20
142.0000
  0
LWPOLYLINE
  8
CUT
  90
9
  70
1
  10
84.7500
  20
143.2500
  10
104.2500
  20
143.2500
  10
105.5000
  20
142.0000
  10
105.5000
  20
142.0000
  10
104.2500
  20
140.7500
  10
84.7500
  20
140.7500
  10
83.5000
  20
142.0000
  10
83.5000
  20
142.0000
  0
LWPOLYLINE
  8
CUT
  90
9
  70
1
  10
143.2500
  20
143.2500
  10
162.7500
  20
143.2500
  10
164.0000
  20
142.0000
  10
164.0000
  20
142.0000
  10
162.7500
  20
140.7500
  10
143.2500
  20
140.7500
  10
142.0000
  20
142.0000
  10
142.0000
  20
142.0000
  0
LWPOLYLINE
  8
CUT
  90
9
  70
1
  10
26.2500
  20
160.6770
  10
45.7500
  20
160.6770
  10
47.0000
  20
159.4270
  10
47.0000
  20
159.4270
  10
45.7500
  20
158.1770
  10
26.2500
  20
158.1770
  10
25.0000
  20
159.4270
  10
25.0000
  20
159.4270
  0
LWPOLYLINE
  8
CUT
  90
9
  70
1
  10
84.7500
  20
160.6770
  10
104.2500
  20
160.6770
  10
105.5000
  20
159.4270
  10
105.5000
  20
159.4270
  10
104.2500
  20
158.1770
  10
84.7500
  20
158.1770
  10
83.5000
  20
159.4270
  10
83.5000
  20
159.4270
  0
LWPOLYLINE
  8
CUT
  90
9
  70
1
  10
143.2500
  20
160.6770
  10
162.7500
  20
160.6770
  10
164.0000
  20
159.4270
  10
164.0000
  20
159.4270
  10
162.7500
  20
158.1770
  10
143.2500
  20
158.1770
  10
142.0000
  20
159.4270
  10
142.0000
  20
159.4270
  0
LWPOLYLINE
  8
CUT
  90
9
  70
1
  10
26.2500
  20
178.1040
  10
45.7500
  20
178.1040
  10
47.0000
  20
176.8540
  10
47.0000
  20
176.8540
  10
45.7500
  20
175.6040
  10
26.2500
  20
175.6040
  10
25.0000
  20
176.8540
  10
25.0000
  20
176.8540
  0
LWPOLYLINE
  8
CUT
  90
9
  70
1
  10
84.7500
  20
178.1040
  10
104.2500
  20
178.1040
  10
105.5000
  20
176.8540
  10
105.5000
  20
176.8540
  10
104.2500
  20
175.6040
  10
84.7500
  20
175.6040
  10
83.5000
  20
176.8540
  10
83.5000
  20
176.8540
  0
LWPOLYLINE
  8
CUT
  90
9
  70
1
  10
143.2500
  20
178.1040
  10
162.7500
  20
178.1040
  10
164.0000
  20
176.8540
  10
164.0000
  20
176.8540
  10
162.7500
  20
175.6040
  10
143.2500
  20
175.6040
  10
142.0000
  20
176.8540
  10
142.0000
  20
176.8540
  0
LWPOLYLINE
  8
CUT
  90
9
  70
1
  10
26.2500
  20
195.5310
  10
45.7500
  20
195.5310
  10
47.0000
  20
194.2810
  10
47.0000
  20
194.2810
  10
45.7500
  20
193.0310
  10
26.2500
  20
193.0310
  10
25.0000
  20
194.2810
  10
25.0000
  20
194.2810
  0
LWPOLYLINE
  8
CUT
  90
9
  70
1
  10
84.7500
  20
195.5310
  10
104.2500
  20
195.5310
  10
105.5000
  20
194.2810
  10
105.5000
  20
194.2810
  10
104.2500
  20
193.0310
  10
84.7500
  20
193.0310
  10
83.5000
  20
194.2810
  10
83.5000
  20
194.2810
  0
LWPOLYLINE
  8
CUT
  90
9
  70
1
  10
143.2500
  20
195.5310
  10
162.7500
  20
195.5310
  10
164.0000
  20
194.2810
  10
164.0000
  20
194.2810
  10
162.7500
  20
193.0310
  10
143.2500
  20
193.0310
  10
142.0000
  20
194.2810
  10
142.0000
  20
194.2810
  0
LWPOLYLINE
  8
CUT
  90
9
  70
1
  10
26.2500
  20
212.9590
  10
45.7500
  20
212.9590
  10
47.0000
  20
211.7090
  10
47.0000
  20
211.7090
  10
45.7500
  20
210.4590
  10
26.2500
  20
210.4590
  10
25.0000
  20
211.7090
  10
25.0000
  20
211.7090
  0
LWPOLYLINE
  8
CUT
  90
9
  70
1
  10
84.7500
  20
212.9590
  10
104.2500
  20
212.9590
  10
105.5000
  20
211.7090
  10
105.5000
  20
211.7090
  10
104.2500
  20
210.4590
  10
84.7500
  20
210.4590
  10
83.5000
  20
211.7090
  10
83.5000
  20
211.7090
  0
LWPOLYLINE
  8
CUT
  90
9
  70
1
  10
143.2500
  20
212.9590
  10
162.7500
  20
212.9590
  10
164.0000
  20
211.7090
  10
164.0000
  20
211.7090
  10
162.7500
  20
210.4590
  10
143.2500
  20
210.4590
  10
142.0000
  20
211.7090
  10
142.0000
  20
211.7090
  0
LWPOLYLINE
  8
CUT
  90
9
  70
1
  10
26.2500
  20
230.3860
  10
45.7500
  20
230.3860
  10
47.0000
  20
229.1360
  10
47.0000
  20
229.1360
  10
45.7500
  20
227.8860
  10
26.2500
  20
227.8860
  10
25.0000
  20
229.1360
  10
25.0000
  20
229.1360
  0
LWPOLYLINE
  8
CUT
  90
9
  70
1
  10
84.7500
  20
230.3860
  10
104.2500
  20
230.3860
  10
105.5000
  20
229.1360
  10
105.5000
  20
229.1360
  10
104.2500
  20
227.8860
  10
84.7500
  20
227.8860
  10
83.5000
  20
229.1360
  10
83.5000
  20
229.1360
  0
LWPOLYLINE
  8
CUT
  90
9
  70
1
  10
143.2500
  20
230.3860
  10
162.7500
  20
230.3860
  10
164.0000
  20
229.1360
  10
164.0000
  20
229.1360
  10
162.7500
  20
227.8860
  10
143.2500
  20
227.8860
  10
142.0000
  20
229.1360
  10
142.0000
  20
229.1360
  0
LWPOLYLINE
  8
CUT
  90
9
  70
1
  10
26.2500
  20
247.8130
  10
45.7500
  20
247.8130
  10
47.0000
  20
246.5630
  10
47.0000
  20
246.5630
  10
45.7500
  20
245.3130
  10
26.2500
  20
245.3130
  10
25.0000
  20
246.5630
  10
25.0000
  20
246.5630
  0
LWPOLYLINE
  8
CUT
  90
9
  70
1
  10
84.7500
  20
247.8130
  10
104.2500
  20
247.8130
  10
105.5000
  20
246.5630
  10
105.5000
  20
246.5630
  10
104.2500
  20
245.3130
  10
84.7500
  20
245.3130
  10
83.5000
  20
246.5630
  10
83.5000
  20
246.5630
  0
LWPOLYLINE
  8
CUT
  90
9
  70
1
  10
143.2500
  20
247.8130
  10
162.7500
  20
247.8130
  10
164.0000
  20
246.5630
  10
164.0000
  20
246.5630
  10
162.7500
  20
245.3130
  10
143.2500
  20
245.3130
  10
142.0000
  20
246.5630
  10
142.0000
  20
246.5630
  0
LWPOLYLINE
  8
CUT
  90
9
  70
1
  10
26.2500
  20
265.2400
  10
45.7500
  20
265.2400
  10
47.0000
  20
263.9900
  10
47.0000
  20
263.9900
  10
45.7500
  20
262.7400
  10
26.2500
  20
262.7400
  10
25.0000
  20
263.9900
  10
25.0000
  20
263.9900
  0
LWPOLYLINE
  8
CUT
  90
9
  70
1
  10
84.7500
  20
265.2400
  10
104.2500
  20
265.2400
  10
105.5000
  20
263.9900
  10
105.5000
  20
263.9900
  10
104.2500
  20
262.7400
  10
84.7500
  20
262.7400
  10
83.5000
  20
263.9900
  10
83.5000
  20
263.9900
  0
LWPOLYLINE
  8
CUT
  90
9
  70
1
  10
143.2500
  20
265.2400
  10
162.7500
  20
265.2400
  10
164.0000
  20
263.9900
  10
164.0000
  20
263.9900
  10
162.7500
  20
262.7400
  10
143.2500
  20
262.7400
  10
142.0000
  20
263.9900
  10
142.0000
  20
263.9900
  0
LWPOLYLINE
  8
CUT
  90
169
  70
1
  10
197.0000
  20
320.2400
  10
200.4710
  20
320.2400
  10
200.4710
  20
323.2400
  10
211.9410
  20
323.2400
  10
211.9410
  20
320.2400
  10
223.4120
  20
320.2400
  10
223.4120
  20
323.2400
  10
234.8820
  20
323.2400
  10
234.8820
  20
320.2400
  10
246.3530
  20
320.2400
  10
246.3530
  20
323.2400
  10
257.8240
  20
323.2400
  10
257.8240
  20
320.2400
  10
269.2940
  20
320.2400
  10
269.2940
  20
323.2400
  10
280.7650
  20
323.2400
  10
280.7650
  20
320.2400
  10
292.2350
  20
320.2400
  10
292.2350
  20
323.2400
  10
303.7060
  20
323.2400
  10
303.7060
  20
320.2400
  10
315.1760
  20
320.2400
  10
315.1760
  20
323.2400
  10
326.6470
  20
323.2400
  10
326.6470
  20
320.2400
  10
338.1180
  20
320.2400
  10
338.1180
  20
323.2400
  10
349.5880
  20
323.2400
  10
349.5880
  20
320.2400
  10
361.0590
  20
320.2400
  10
361.0590
  20
323.2400
  10
372.5290
  20
323.2400
  10
372.5290
  20
320.2400
  10
376.0000
  20
320.2400
  10
376.0000
  20
308.5640
  10
376.0000
  20
296.8890
  10
381.0000
  20
296.8890
  10
381.0000
  20
285.2130
  10
376.0000
  20
285.2130
  10
376.0000
  20
273.5380
  10
381.0000
  20
273.5380
  10
381.0000
  20
261.8620
  10
376.0000
  20
261.8620
  10
376.0000
  20
250.1870
  10
381.0000
  20
250.1870
  10
381.0000
  20
238.5110
  10
376.0000
  20
238.5110
  10
376.0000
  20
226.8360
  10
381.0000
  20
226.8360
  10
381.0000
  20
215.1600
  10
376.0000
  20
215.1600
  10
376.0000
  20
203.4840
  10
381.0000
  20
203.4840
  10
381.0000
  20
191.8090
  10
376.0000
  20
191.8090
  10
376.0000
  20
180.1330
  10
381.0000
  20
180.1330
  10
381.0000
  20
168.4580
  10
376.0000
  20
168.4580
  10
376.0000
  20
156.7820
  10
381.0000
  20
156.7820
  10
381.0000
  20
145.1070
  10
376.0000
  20
145.1070
  10
376.0000
  20
133.4310
  10
381.0000
  20
133.4310
  10
381.0000
  20
121.7560
  10
376.0000
  20
121.7560
  10
376.0000
  20
110.0800
  10
381.0000
  20
110.0800
  10
381.0000
  20
98.4040
  10
376.0000
  20
98.4040
  10
376.0000
  20
86.7290
  10
381.0000
  20
86.7290
  10
381.0000
  20
75.0530
  10
376.0000
  20
75.0530
  10
376.0000
  20
63.3780
  10
381.0000
  20
63.3780
  10
381.0000
  20
51.7020
  10
376.0000
  20
51.7020
  10
376.0000
  20
40.0270
  10
381.0000
  20
40.0270
  10
381.0000
  20
28.3510
  10
376.0000
  20
28.3510
  10
376.0000
  20
16.6760
  10
376.0000
  20
5.0000
  10
372.5290
  20
5.0000
  10
372.5290
  20
0.0000
  10
361.0590
  20
0.0000
  10
361.0590
  20
5.0000
  10
349.5880
  20
5.0000
  10
349.5880
  20
0.0000
  10
338.1180
  20
0.0000
  10
338.1180
  20
5.0000
  10
326.6470
  20
5.0000
  10
326.6470
  20
0.0000
  10
315.1760
  20
0.0000
  10
315.1760
  20
5.0000
  10
303.7060
  20
5.0000
  10
303.7060
  20
0.0000
  10
292.2350
  20
0.0000
  10
292.2350
  20
5.0000
  10
280.7650
  20
5.0000
  10
280.7650
  20
0.0000
  10
269.2940
  20
0.0000
  10
269.2940
  20
5.0000
  10
257.8240
  20
5.0000
  10
257.8240
  20
0.0000
  10
246.3530
  20
0.0000
  10
246.3530
  20
5.0000
  10
234.8820
  20
5.0000
  10
234.8820
  20
0.0000
  10
223.4120
  20
0.0000
  10
223.4120
  20
5.0000
  10
211.9410
  20
5.0000
  10
211.9410
  20
0.0000
  10
200.4710
  20
0.0000
  10
200.4710
  20
5.0000
  10
197.0000
  20
5.0000
  10
197.0000
  20
16.6760
  10
197.0000
  20
28.3510
  10
192.0000
  20
28.3510
  10
192.0000
  20
40.0270
  10
197.0000
  20
40.0270
  10
197.0000
  20
51.7020
  10
192.0000
  20
51.7020
  10
192.0000
  20
63.3780
  10
197.0000
  20
63.3780
  10
197.0000
  20
75.0530
  10
192.0000
  20
75.0530
  10
192.0000
  20
86.7290
  10
197.0000
  20
86.7290
  10
197.0000
  20
98.4040
  10
192.0000
  20
98.4040
  10
192.0000
  20
110.0800
  10
197.0000
  20
110.0800
  10
197.0000
  20
121.7560
  10
192.0000
  20
121.7560
  10
192.0000
  20
133.4310
  10
197.0000
  20
133.4310
  10
197.0000
  20
145.1070
  10
192.0000
  20
145.1070
  10
192.0000
  20
156.7820
  10
197.0000
  20
156.7820
  10
197.0000
  20
168.4580
  10
192.0000
  20
168.4580
  10
192.0000
  20
180.1330
  10
197.0000
  20
180.1330
  10
197.0000
  20
191.8090
  10
192.0000
  20
191.8090
  10
192.0000
  20
203.4840
  10
197.0000
  20
203.4840
  10
197.0000
  20
215.1600
  10
192.0000
  20
215.1600
  10
192.0000
  20
226.8360
  10
197.0000
  20
226.8360
  10
197.0000
  20
238.5110
  10
192.0000
  20
238.5110
  10
192.0000
  20
250.1870
  10
197.0000
  20
250.1870
  10
197.0000
  20
261.8620
  10
192.0000
  20
261.8620
  10
192.0000
  20
273.5380
  10
197.0000
  20
273.5380
  10
197.0000
  20
285.2130
  10
192.0000
  20
285.2130
  10
192.0000
  20
296.8890
  10
197.0000
  20
296.8890
  10
197.0000
  20
308.5640
  0
LWPOLYLINE
  8
ENGRAVE
  90
2
  70
0
  10
234.1230
  20
249.7530
  10
227.6430
  20
228.7530
  0
LWPOLYLINE
  8
ENGRAVE
  90
2
  70
0
  10
233.5500
  20
249.9300
  10
227.0700
  20
228.9300
  0
LWPOLYLINE
  8
ENGRAVE
  90
2
  70
0
  10
232.9770
  20
250.1070
  10
226.4970
  20
229.1070
  0
LWPOLYLINE
  8
ENGRAVE
  90
2
  70
0
  10
233.5500
  20
250.5300
  10
238.9500
  20
250.5300
  0
LWPOLYLINE
  8
ENGRAVE
  90
2
  70
0
  10
233.5500
  20
249.9300
  10
238.9500
  20
249.9300
  0
LWPOLYLINE
  8
ENGRAVE
  90
2
  70
0
  10
233.5500
  20
249.3300
  10
238.9500
  20
249.3300
  0
LWPOLYLINE
  8
ENGRAVE
  90
2
  70
0
  10
239.1670
  20
250.4890
  10
243.0370
  20
248.9890
  0
LWPOLYLINE
  8
ENGRAVE
  90
2
  70
0
  10
238.9500
  20
249.9300
  10
242.8200
  20
248.4300
  0
LWPOLYLINE
  8
ENGRAVE
  90
2
  70
0
  10
238.7330
  20
249.3710
  10
242.6030
  20
247.8710
  0
LWPOLYLINE
  8
ENGRAVE
  90
2
  70
0
  10
243.4200
  20
248.4420
  10
243.4920
  20
244.8420
  0
LWPOLYLINE
  8
ENGRAVE
  90
2
  70
0
  10
242.8200
  20
248.4300
  10
242.8920
  20
244.8300
  0
LWPOLYLINE
  8
ENGRAVE
  90
2
  70
0
  10
242.2200
  20
248.4180
  10
242.2920
  20
244.8180
  0
LWPOLYLINE
  8
ENGRAVE
  90
2
  70
0
  10
243.4560
  20
244.6240
  10
242.0340
  20
240.7240
  0
LWPOLYLINE
  8
ENGRAVE
  90
2
  70
0
  10
242.8920
  20
244.8300
  10
241.4700
  20
240.9300
  0
LWPOLYLINE
  8
ENGRAVE
  90
2
  70
0
  10
242.3280
  20
245.0360
  10
240.9060
  20
241.1360
  0
LWPOLYLINE
  8
ENGRAVE
  90
2
  70
0
  10
241.6630
  20
240.3620
  10
237.2530
  20
238.8620
  0
LWPOLYLINE
  8
ENGRAVE
  90
2
  70
0
  10
241.4700
  20
240.9300
  10
237.0600
  20
239.4300
  0
LWPOLYLINE
  8
ENGRAVE
  90
2
  70
0
  10
241.2770
  20
241.4980
  10
236.8670
  20
239.9980
  0
LWPOLYLINE
  8
ENGRAVE
  90
2
  70
0
  10
237.0600
  20
238.8300
  10
230.7600
  20
238.8300
  0
LWPOLYLINE
  8
ENGRAVE
  90
2
  70
0
  10
237.0600
  20
239.4300
  10
230.7600
  20
239.4300
  0
LWPOLYLINE
  8
ENGRAVE
  90
2
  70
0
  10
237.0600
  20
240.0300
  10
230.7600
  20
240.0300
  0
LWPOLYLINE
  8
ENGRAVE
  90
2
  70
0
  10
256.9250
  20
249.7580
  10
252.4250
  20
234.7580
  0
LWPOLYLINE
  8
ENGRAVE
  90
2
  70
0
  10
256.3500
  20
249.9300
  10
251.8500
  20
234.9300
  0
LWPOLYLINE
  8
ENGRAVE
  90
2
  70
0
  10
255.7750
  20
250.1020
  10
251.2750
  20
235.1020
  0
LWPOLYLINE
  8
ENGRAVE
  90
2
  70
0
  10
259.0940
  20
254.8310
  10
258.3560
  20
252.7310
  0
LWPOLYLINE
  8
ENGRAVE
  90
2
  70
0
  10
258.5280
  20
255.0300
  10
257.7900
  20
252.9300
  0
LWPOLYLINE
  8
ENGRAVE
  90
2
  70
0
  10
257.9620
  20
255.2290
  10
257.2240
  20
253.1290
  0
LWPOLYLINE
  8
ENGRAVE
  90
2
  70
0
  10
272.6700
  20
244.5300
  10
283.4700
  20
244.5300
  0
LWPOLYLINE
  8
ENGRAVE
  90
2
  70
0
  10
272.6700
  20
243.9300
  10
283.4700
  20
243.9300
  0
LWPOLYLINE
  8
ENGRAVE
  90
2
  70
0
  10
272.6700
  20
243.3300
  10
283.4700
  20
243.3300
  0
LWPOLYLINE
  8
ENGRAVE
  90
2
  70
0
  10
297.1250
  20
249.7580
  10
292.6250
  20
234.7580
  0
LWPOLYLINE
  8
ENGRAVE
  90
2
  70
0
  10
296.5500
  20
249.9300
  10
292.0500
  20
234.9300
  0
LWPOLYLINE
  8
ENGRAVE
  90
2
  70
0
  10
295.9750
  20
250.1020
  10
291.4750
  20
235.1020
  0
LWPOLYLINE
  8
ENGRAVE
  90
2
  70
0
  10
295.3110
  20
245.8500
  10
299.7210
  20
250.3500
  0
LWPOLYLINE
  8
ENGRAVE
  90
2
  70
0
  10
295.7400
  20
245.4300
  10
300.1500
  20
249.9300
  0
LWPOLYLINE
  8
ENGRAVE
  90
2
  70
0
  10
296.1690
  20
245.0100
  10
300.5790
  20
249.5100
  0
LWPOLYLINE
  8
ENGRAVE
  90
2
  70
0
  10
300.1500
  20
250.5300
  10
303.7500
  20
250.5300
  0
LWPOLYLINE
  8
ENGRAVE
  90
2
  70
0
  10
300.1500
  20
249.9300
  10
303.7500
  20
249.9300
  0
LWPOLYLINE
  8
ENGRAVE
  90
2
  70
0
  10
300.1500
  20
249.3300
  10
303.7500
  20
249.3300
  0
LWPOLYLINE
  8
ENGRAVE
  90
2
  70
0
  10
304.3360
  20
250.0590
  10
305.3260
  20
245.5590
  0
LWPOLYLINE
  8
ENGRAVE
  90
2
  70
0
  10
303.7500
  20
249.9300
  10
304.7400
  20
245.4300
  0
LWPOLYLINE
  8
ENGRAVE
  90
2
  70
0
  10
303.1640
  20
249.8010
  10
304.1540
  20
245.3010
  0
LWPOLYLINE
  8
ENGRAVE
  90
2
  70
0
  10
305.3060
  20
245.2310
  10
301.6160
  20
234.7310
  0
LWPOLYLINE
  8
ENGRAVE
  90
2
  70
0
  10
304.7400
  20
245.4300
  10
301.0500
  20
234.9300
  0
LWPOLYLINE
  8
ENGRAVE
  90
2
  70
0
  10
304.1740
  20
245.6290
  10
300.4840
  20
235.1290
  0
LWPOLYLINE
  8
ENGRAVE
  90
2
  70
0
  10
325.6500
  20
249.3300
  10
322.0500
  20
249.3300
  0
LWPOLYLINE
  8
ENGRAVE
  90
2
  70
0
  10
325.6500
  20
249.9300
  10
322.0500
  20
249.9300
  0
LWPOLYLINE
  8
ENGRAVE
  90
2
  70
0
  10
325.6500
  20
250.5300
  10
322.0500
  20
250.5300
  0
LWPOLYLINE
  8
ENGRAVE
  90
2
  70
0
  10
322.3570
  20
249.4140
  10
317.3170
  20
246.4140
  0
LWPOLYLINE
  8
ENGRAVE
  90
2
  70
0
  10
322.0500
  20
249.9300
  10
317.0100
  20
246.9300
  0
LWPOLYLINE
  8
ENGRAVE
  90
2
  70
0
  10
321.7430
  20
250.4460
  10
316.7030
  20
247.4460
  0
LWPOLYLINE
  8
ENGRAVE
  90
2
  70
0
  10
317.5710
  20
246.7170
  10
315.8610
  20
242.2170
  0
LWPOLYLINE
  8
ENGRAVE
  90
2
  70
0
  10
317.0100
  20
246.9300
  10
315.3000
  20
242.4300
  0
LWPOLYLINE
  8
ENGRAVE
  90
2
  70
0
  10
316.4490
  20
247.1430
  10
314.7390
  20
242.6430
  0
LWPOLYLINE
  8
ENGRAVE
  90
2
  70
0
  10
315.9000
  20
242.4420
  10
315.9900
  20
237.9420
  0
LWPOLYLINE
  8
ENGRAVE
  90
2
  70
0
  10
315.3000
  20
242.4300
  10
315.3900
  20
237.9300
  0
LWPOLYLINE
  8
ENGRAVE
  90
2
  70
0
  10
314.7000
  20
242.4180
  10
314.7900
  20
237.9180
  0
LWPOLYLINE
  8
ENGRAVE
  90
2
  70
0
  10
315.7520
  20
238.4080
  10
319.7120
  20
235.4080
  0
LWPOLYLINE
  8
ENGRAVE
  90
2
  70
0
  10
315.3900
  20
237.9300
  10
319.3500
  20
234.9300
  0
LWPOLYLINE
  8
ENGRAVE
  90
2
  70
0
  10
315.0280
  20
237.4520
  10
318.9880
  20
234.4520
  0
LWPOLYLINE
  8
ENGRAVE
  90
2
  70
0
  10
319.0800
  20
235.4660
  10
322.0500
  20
236.9660
  0
LWPOLYLINE
  8
ENGRAVE
  90
2
  70
0
  10
319.3500
  20
234.9300
  10
322.3200
  20
236.4300
  0
LWPOLYLINE
  8
ENGRAVE
  90
2
  70
0
  10
319.6200
  20
234.3940
  10
322.5900
  20
235.8940
  0
LWPOLYLINE
  8
ENGRAVE
  90
2
  70
0
  10
327.6520
  20
249.7210
  10
322.0720
  20
234.7210
  0
LWPOLYLINE
  8
ENGRAVE
  90
2
  70
0
  10
327.0900
  20
249.9300
  10
321.5100
  20
234.9300
  0
LWPOLYLINE
  8
ENGRAVE
  90
2
  70
0
  10
326.5280
  20
250.1390
  10
320.9480
  20
235.1390
  0
LWPOLYLINE
  8
ENGRAVE
  90
2
  70
0
  10
347.0340
  20
247.8830
  10
343.7040
  20
249.3830
  0
LWPOLYLINE
  8
ENGRAVE
  90
2
  70
0
  10
347.2800
  20
248.4300
  10
343.9500
  20
249.9300
  0
LWPOLYLINE
  8
ENGRAVE
  90
2
  70
0
  10
347.5260
  20
248.9770
  10
344.1960
  20
250.4770
  0
LWPOLYLINE
  8
ENGRAVE
  90
2
  70
0
  10
344.0640
  20
249.3410
  10
339.4020
  20
248.4410
  0
LWPOLYLINE
  8
ENGRAVE
  90
2
  70
0
  10
343.9500
  20
249.9300
  10
339.2880
  20
249.0300
  0
LWPOLYLINE
  8
ENGRAVE
  90
2
  70
0
  10
343.8360
  20
250.5190
  10
339.1740
  20
249.6190
  0
LWPOLYLINE
  8
ENGRAVE
  90
2
  70
0
  10
339.7890
  20
248.6990
  10
337.8090
  20
245.6990
  0
LWPOLYLINE
  8
ENGRAVE
  90
2
  70
0
  10
339.2880
  20
249.0300
  10
337.3080
  20
246.0300
  0
LWPOLYLINE
  8
ENGRAVE
  90
2
  70
0
  10
338.7870
  20
249.3610
  10
336.8070
  20
246.3610
  0
LWPOLYLINE
  8
ENGRAVE
  90
2
  70
0
  10
337.8220
  20
246.3390
  10
339.6220
  20
243.3390
  0
LWPOLYLINE
  8
ENGRAVE
  90
2
  70
0
  10
337.3080
  20
246.0300
  10
339.1080
  20
243.0300
  0
LWPOLYLINE
  8
ENGRAVE
  90
2
  70
0
  10
336.7940
  20
245.7210
  10
338.5940
  20
242.7210
  0
LWPOLYLINE
  8
ENGRAVE
  90
2
  70
0
  10
339.3800
  20
243.5650
  10
343.5020
  20
241.4650
  0
LWPOLYLINE
  8
ENGRAVE
  90
2
  70
0
  10
339.1080
  20
243.0300
  10
343.2300
  20
240.9300
  0
LWPOLYLINE
  8
ENGRAVE
  90
2
  70
0
  10
338.8360
  20
242.4950
  10
342.9580
  20
240.3950
  0
LWPOLYLINE
  8
ENGRAVE
  90
2
  70
0
  10
343.8050
  20
241.1020
  10
344.7050
  20
238.1020
  0
LWPOLYLINE
  8
ENGRAVE
  90
2
  70
0
  10
343.2300
  20
240.9300
  10
344.1300
  20
237.9300
  0
LWPOLYLINE
  8
ENGRAVE
  90
2
  70
0
  10
342.6550
  20
240.7580
  10
343.5550
  20
237.7580
  0
LWPOLYLINE
  8
ENGRAVE
  90
2
  70
0
  10
344.5630
  20
237.5140
  10
341.6830
  20
234.5140
  0
LWPOLYLINE
  8
ENGRAVE
  90
2
  70
0
  10
344.1300
  20
237.9300
  10
341.2500
  20
234.9300
  0
LWPOLYLINE
  8
ENGRAVE
  90
2
  70
0
  10
343.6970
  20
238.3460
  10
340.8170
  20
235.3460
  0
LWPOLYLINE
  8
ENGRAVE
  90
2
  70
0
  10
341.1280
  20
234.3430
  10
336.7900
  20
235.2430
  0
LWPOLYLINE
  8
ENGRAVE
  90
2
  70
0
  10
341.2500
  20
234.9300
  10
336.9120
  20
235.8300
  0
LWPOLYLINE
  8
ENGRAVE
  90
2
  70
0
  10
341.3720
  20
235.5170
  10
337.0340
  20
236.4170
  0
LWPOLYLINE
  8
ENGRAVE
  90
2
  70
0
  10
336.5100
  20
235.3850
  10
334.1880
  20
237.4850
  0
LWPOLYLINE
  8
ENGRAVE
  90
2
  70
0
  10
336.9120
  20
235.8300
  10
334.5900
  20
237.9300
  0
LWPOLYLINE
  8
ENGRAVE
  90
2
  70
0
  10
337.3140
  20
236.2750
  10
334.9920
  20
238.3750
  0
LWPOLYLINE
  8
CUT
  90
73
  70
1
  10
507.0000
  20
323.2400
  10
510.0000
  20
323.2400
  10
510.0000
  20
311.7690
  10
507.0000
  20
311.7690
  10
507.0000
  20
300.2990
  10
510.0000
  20
300.2990
  10
510.0000
  20
288.8280
  10
507.0000
  20
288.8280
  10
507.0000
  20
277.3580
  10
510.0000
  20
277.3580
  10
510.0000
  20
265.8870
  10
507.0000
  20
265.8870
  10
507.0000
  20
254.4160
  10
510.0000
  20
254.4160
  10
510.0000
  20
242.9460
  10
507.0000
  20
242.9460
  10
507.0000
  20
231.4750
  10
510.0000
  20
231.4750
  10
510.0000
  20
220.0050
  10
507.0000
  20
220.0050
  10
507.0000
  20
208.5340
  10
510.0000
  20
208.5340
  10
510.0000
  20
197.0640
  10
507.0000
  20
197.0640
  10
507.0000
  20
185.5930
  10
510.0000
  20
185.5930
  10
510.0000
  20
174.1220
  10
507.0000
  20
174.1220
  10
507.0000
  20
162.6520
  10
510.0000
  20
162.6520
  10
510.0000
  20
151.1810
  10
507.0000
  20
151.1810
  10
507.0000
  20
139.7110
  10
510.0000
  20
139.7110
  10
510.0000
  20
128.2400
  10
507.0000
  20
128.2400
  10
387.0000
  20
128.2400
  10
384.0000
  20
128.2400
  10
384.0000
  20
139.7110
  10
387.0000
  20
139.7110
  10
387.0000
  20
151.1810
  10
384.0000
  20
151.1810
  10
384.0000
  20
162.6520
  10
387.0000
  20
162.6520
  10
387.0000
  20
174.1220
  10
384.0000
  20
174.1220
  10
384.0000
  20
185.5930
  10
387.0000
  20
185.5930
  10
387.0000
  20
197.0640
  10
384.0000
  20
197.0640
  10
384.0000
  20
208.5340
  10
387.0000
  20
208.5340
  10
387.0000
  20
220.0050
  10
384.0000
  20
220.0050
  10
384.0000
  20
231.4750
  10
387.0000
  20
231.4750
  10
387.0000
  20
242.9460
  10
384.0000
  20
242.9460
  10
384.0000
  20
254.4160
  10
387.0000
  20
254.4160
  10
387.0000
  20
265.8870
  10
384.0000
  20
265.8870
  10
384.0000
  20
277.3580
  10
387.0000
  20
277.3580
  10
387.0000
  20
288.8280
  10
384.0000
  20
288.8280
  10
384.0000
  20
300.2990
  10
387.0000
  20
300.2990
  10
387.0000
  20
311.7690
  10
384.0000
  20
311.7690
  10
384.0000
  20
323.2400
  10
387.0000
  20
323.2400
  0
LWPOLYLINE
  8
CUT
  90
5
  70
1
  10
496.0910
  20
320.2400
  10
507.0000
  20
320.2400
  10
507.0000
  20
315.2400
  10
496.0910
  20
315.2400
  0
LWPOLYLINE
  8
CUT
  90
5
  70
1
  10
474.2730
  20
320.2400
  10
485.1820
  20
320.2400
  10
485.1820
  20
315.2400
  10
474.2730
  20
315.2400
  0
LWPOLYLINE
  8
CUT
  90
5
  70
1
  10
452.4550
  20
320.2400
  10
463.3640
  20
320.2400
  10
463.3640
  20
315.2400
  10
452.4550
  20
315.2400
  0
LWPOLYLINE
  8
CUT
  90
5
  70
1
  10
430.6360
  20
320.2400
  10
441.5450
  20
320.2400
  10
441.5450
  20
315.2400
  10
430.6360
  20
315.2400
  0
LWPOLYLINE
  8
CUT
  90
5
  70
1
  10
408.8180
  20
320.2400
  10
419.7270
  20
320.2400
  10
419.7270
  20
315.2400
  10
408.8180
  20
315.2400
  0
LWPOLYLINE
  8
CUT
  90
5
  70
1
  10
387.0000
  20
320.2400
  10
397.9090
  20
320.2400
  10
397.9090
  20
315.2400
  10
387.0000
  20
315.2400
  0
LWPOLYLINE
  8
CUT
  90
5
  70
1
  10
496.0910
  20
136.2400
  10
507.0000
  20
136.2400
  10
507.0000
  20
131.2400
  10
496.0910
  20
131.2400
  0
LWPOLYLINE
  8
CUT
  90
5
  70
1
  10
474.2730
  20
136.2400
  10
485.1820
  20
136.2400
  10
485.1820
  20
131.2400
  10
474.2730
  20
131.2400
  0
LWPOLYLINE
  8
CUT
  90
5
  70
1
  10
452.4550
  20
136.2400
  10
463.3640
  20
136.2400
  10
463.3640
  20
131.2400
  10
452.4550
  20
131.2400
  0
LWPOLYLINE
  8
CUT
  90
5
  70
1
  10
430.6360
  20
136.2400
  10
441.5450
  20
136.2400
  10
441.5450
  20
131.2400
  10
430.6360
  20
131.2400
  0
LWPOLYLINE
  8
CUT
  90
5
  70
1
  10
408.8180
  20
136.2400
  10
419.7270
  20
136.2400
  10
419.7270
  20
131.2400
  10
408.8180
  20
131.2400
  0
LWPOLYLINE
  8
CUT
  90
5
  70
1
  10
387.0000
  20
136.2400
  10
397.9090
  20
136.2400
  10
397.9090
  20
131.2400
  10
387.0000
  20
131.2400
  0
CIRCLE
  8
CUT
  10
494.0000
  20
310.2400
  40
2.2500
  0
CIRCLE
  8
CUT
  10
494.0000
  20
141.2400
  40
2.2500
  0
CIRCLE
  8
CUT
  10
400.0000
  20
310.2400
  40
2.2500
  0
CIRCLE
  8
CUT
  10
400.0000
  20
141.2400
  40
2.2500
  0
LWPOLYLINE
  8
CUT
  90
11
  70
1
  10
445.2120
  20
216.9190
  10
442.7430
  20
217.8100
  10
440.6360
  20
219.3760
  10
439.0700
  20
221.4830
  10
438.1790
  20
223.9520
  10
441.1200
  20
224.5480
  10
441.7140
  20
222.9020
  10
442.7570
  20
221.4970
  10
444.1620
  20
220.4540
  10
445.8080
  20
219.8600
  0
LWPOLYLINE
  8
CUT
  90
11
  70
1
  10
438.1790
  20
227.5280
  10
439.0700
  20
229.9970
  10
440.6360
  20
232.1040
  10
442.7430
  20
233.6700
  10
445.2120
  20
234.5610
  10
445.8080
  20
231.6200
  10
444.1620
  20
231.0260
  10
442.7570
  20
229.9830
  10
441.7140
  20
228.5780
  10
441.1200
  20
226.9320
  0
LWPOLYLINE
  8
CUT
  90
11
  70
1
  10
448.7880
  20
234.5610
  10
451.2570
  20
233.6700
  10
453.3640
  20
232.1040
  10
454.9300
  20
229.9970
  10
455.8210
  20
227.5280
  10
452.8800
  20
226.9320
  10
452.2860
  20
228.5780
  10
451.2430
  20
229.9830
  10
449.8380
  20
231.0260
  10
448.1920
  20
231.6200
  0
LWPOLYLINE
  8
CUT
  90
11
  70
1
  10
455.8210
  20
223.9520
  10
454.9300
  20
221.4830
  10
453.3640
  20
219.3760
  10
451.2570
  20
217.8100
  10
448.7880
  20
216.9190
  10
448.1920
  20
219.8600
  10
449.8380
  20
220.4540
  10
451.2430
  20
221.4970
  10
452.2860
  20
222.9020
  10
452.8800
  20
224.5480
  0
LWPOLYLINE
  8
CUT
  90
13
  70
1
  10
445.3480
  20
209.8260
  10
443.1720
  20
210.2050
  10
441.0690
  20
210.8800
  10
439.0800
  20
211.8380
  10
437.2410
  20
213.0610
  10
435.5880
  20
214.5260
  10
437.7280
  20
216.6280
  10
439.0710
  20
215.4380
  10
440.5650
  20
214.4450
  10
442.1810
  20
213.6660
  10
443.8900
  20
213.1180
  10
445.6580
  20
212.8090
  0
LWPOLYLINE
  8
CUT
  90
13
  70
1
  10
433.5270
  20
217.1090
  10
432.4670
  20
219.0470
  10
431.6840
  20
221.1120
  10
431.1930
  20
223.2650
  10
431.0020
  20
225.4650
  10
431.1170
  20
227.6710
  10
434.0950
  20
227.3090
  10
434.0020
  20
225.5170
  10
434.1570
  20
223.7290
  10
434.5560
  20
221.9790
  10
435.1920
  20
220.3020
  10
436.0540
  20
218.7280
  0
LWPOLYLINE
  8
CUT
  90
13
  70
1
  10
431.8520
  20
230.8920
  10
432.7060
  20
232.9290
  10
433.8320
  20
234.8290
  10
435.2090
  20
236.5550
  10
436.8110
  20
238.0760
  10
438.6060
  20
239.3620
  10
440.1800
  20
236.8080
  10
438.7210
  20
235.7630
  10
437.4200
  20
234.5270
  10
436.3010
  20
233.1250
  10
435.3860
  20
231.5810
  10
434.6920
  20
229.9260
  0
LWPOLYLINE
  8
CUT
  90
13
  70
1
  10
441.5840
  20
240.7950
  10
443.7080
  20
241.3980
  10
445.8960
  20
241.7020
  10
448.1040
  20
241.7020
  10
450.2920
  20
241.3980
  10
452.4160
  20
240.7950
  10
451.4010
  20
237.9720
  10
449.6750
  20
238.4620
  10
447.8970
  20
238.7090
  10
446.1030
  20
238.7090
  10
444.3250
  20
238.4620
  10
442.5990
  20
237.9720
  0
LWPOLYLINE
  8
CUT
  90
13
  70
1
  10
455.3940
  20
239.3620
  10
457.1890
  20
238.0760
  10
458.7910
  20
236.5550
  10
460.1680
  20
234.8290
  10
461.2940
  20
232.9290
  10
462.1480
  20
230.8920
  10
459.3080
  20
229.9260
  10
458.6140
  20
231.5810
  10
457.6990
  20
233.1250
  10
456.5800
  20
234.5270
  10
455.2790
  20
235.7630
  10
453.8200
  20
236.8080
  0
LWPOLYLINE
  8
CUT
  90
13
  70
1
  10
462.8830
  20
227.6710
  10
462.9980
  20
225.4650
  10
462.8070
  20
223.2650
  10
462.3160
  20
221.1120
  10
461.5330
  20
219.0470
  10
460.4730
  20
217.1090
  10
457.9460
  20
218.7280
  10
458.8080
  20
220.3020
  10
459.4440
  20
221.9790
  10
459.8430
  20
223.7290
  10
459.9980
  20
225.5170
  10
459.9050
  20
227.3090
  0
LWPOLYLINE
  8
CUT
  90
13
  70
1
  10
458.4120
  20
214.5260
  10
456.7590
  20
213.0610
  10
454.9200
  20
211.8380
  10
452.9310
  20
210.8800
  10
450.8280
  20
210.2050
  10
448.6520
  20
209.8260
  10
448.3420
  20
212.8090
  10
450.1100
  20
213.1180
  10
451.8190
  20
213.6660
  10
453.4350
  20
214.4450
  10
454.9290
  20
215.4380
  10
456.2720
  20
216.6280
  0
LWPOLYLINE
  8
CUT
  90
11
  70
1
  10
445.3970
  20
202.7960
  10
442.9350
  20
203.1020
  10
440.5200
  20
203.6720
  10
438.1810
  20
204.4980
  10
435.9440
  20
205.5710
  10
437.3860
  20
208.2020
  10
439.3310
  20
207.2690
  10
441.3650
  20
206.5500
  10
443.4650
  20
206.0550
  10
445.6060
  20
205.7890
  0
LWPOLYLINE
  8
CUT
  90
11
  70
1
  10
433.2470
  20
207.3050
  10
431.3410
  20
208.8940
  10
429.6180
  20
210.6780
  10
428.0970
  20
212.6380
  10
426.7950
  20
214.7500
  10
429.4310
  20
216.1840
  10
430.5620
  20
214.3470
  10
431.8850
  20
212.6430
  10
433.3840
  20
211.0910
  10
435.0410
  20
209.7100
  0
LWPOLYLINE
  8
CUT
  90
11
  70
1
  10
425.4630
  20
217.6670
  10
424.7190
  20
220.0340
  10
424.2340
  20
222.4670
  10
424.0140
  20
224.9380
  10
424.0610
  20
227.4180
  10
427.0530
  20
227.1990
  10
427.0120
  20
225.0420
  10
427.2040
  20
222.8940
  10
427.6250
  20
220.7780
  10
428.2720
  20
218.7200
  0
LWPOLYLINE
  8
CUT
  90
11
  70
1
  10
424.5180
  20
230.5920
  10
425.1710
  20
232.9860
  10
426.0780
  20
235.2950
  10
427.2290
  20
237.4920
  10
428.6100
  20
239.5530
  10
431.0090
  20
237.7520
  10
429.8080
  20
235.9590
  10
428.8070
  20
234.0480
  10
428.0180
  20
232.0410
  10
427.4500
  20
229.9590
  0
LWPOLYLINE
  8
CUT
  90
11
  70
1
  10
430.7100
  20
241.9770
  10
432.5540
  20
243.6370
  10
434.5650
  20
245.0890
  10
436.7220
  20
246.3160
  10
438.9980
  20
247.3030
  10
440.0410
  20
244.4900
  10
438.0620
  20
243.6320
  10
436.1870
  20
242.5650
  10
434.4380
  20
241.3030
  10
432.8350
  20
239.8590
  0
LWPOLYLINE
  8
CUT
  90
11
  70
1
  10
442.0740
  20
248.2060
  10
444.5230
  20
248.6060
  10
447.0000
  20
248.7400
  10
449.4770
  20
248.6060
  10
451.9260
  20
248.2060
  10
451.2830
  20
245.2760
  10
449.1540
  20
245.6240
  10
447.0000
  20
245.7400
  10
444.8460
  20
245.6240
  10
442.7170
  20
245.2760
  0
LWPOLYLINE
  8
CUT
  90
11
  70
1
  10
455.0020
  20
247.3030
  10
457.2780
  20
246.3160
  10
459.4350
  20
245.0890
  10
461.4460
  20
243.6370
  10
463.2900
  20
241.9770
  10
461.1650
  20
239.8590
  10
459.5620
  20
241.3030
  10
457.8130
  20
242.5650
  10
455.9380
  20
243.6320
  10
453.9590
  20
244.4900
  0
LWPOLYLINE
  8
CUT
  90
11
  70
1
  10
465.3900
  20
239.5530
  10
466.7710
  20
237.4920
  10
467.9220
  20
235.2950
  10
468.8290
  20
232.9860
  10
469.4820
  20
230.5920
  10
466.5500
  20
229.9590
  10
465.9820
  20
232.0410
  10
465.1930
  20
234.0480
  10
464.1920
  20
235.9590
  10
462.9910
  20
237.7520
  0
LWPOLYLINE
  8
CUT
  90
11
  70
1
  10
469.9390
  20
227.4180
  10
469.9860
  20
224.9380
  10
469.7660
  20
222.4670
  10
469.2810
  20
220.0340
  10
468.5370
  20
217.6670
  10
465.7280
  20
218.7200
  10
466.3750
  20
220.7780
  10
466.7960
  20
222.8940
  10
466.9880
  20
225.0420
  10
466.9470
  20
227.1990
  0
LWPOLYLINE
  8
CUT
  90
11
  70
1
  10
467.2050
  20
214.7500
  10
465.9030
  20
212.6380
  10
464.3820
  20
210.6780
  10
462.6590
  20
208.8940
  10
460.7530
  20
207.3050
  10
458.9590
  20
209.7100
  10
460.6160
  20
211.0910
  10
462.1150
  20
212.6430
  10
463.4380
  20
214.3470
  10
464.5690
  20
216.1840
  0
LWPOLYLINE
  8
CUT
  90
11
  70
1
  10
458.0560
  20
205.5710
  10
455.8190
  20
204.4980
  10
453.4800
  20
203.6720
  10
451.0650
  20
203.1020
  10
448.6030
  20
202.7960
  10
448.3940
  20
205.7890
  10
450.5350
  20
206.0550
  10
452.6350
  20
206.5500
  10
454.6690
  20
207.2690
  10
456.6140
  20
208.2020
  0
LWPOLYLINE
  8
CUT
  90
11
  70
1
  10
445.4220
  20
195.7820
  10
442.8580
  20
196.0270
  10
440.3240
  20
196.4920
  10
437.8400
  20
197.1730
  10
435.4230
  20
198.0640
  10
436.5810
  20
200.8310
  10
438.7560
  20
200.0290
  10
440.9920
  20
199.4170
  10
443.2720
  20
198.9990
  10
445.5800
  20
198.7770
  0
LWPOLYLINE
  8
CUT
  90
11
  70
1
  10
432.5800
  20
199.4330
  10
430.3760
  20
200.7670
  10
428.2950
  20
202.2850
  10
426.3520
  20
203.9760
  10
424.5620
  20
205.8270
  10
426.8050
  20
207.8190
  10
428.4170
  20
206.1520
  10
430.1660
  20
204.6310
  10
432.0390
  20
203.2640
  10
434.0220
  20
202.0640
  0
LWPOLYLINE
  8
CUT
  90
11
  70
1
  10
422.5940
  20
208.2950
  10
421.1870
  20
210.4530
  10
419.9710
  20
212.7230
  10
418.9540
  20
215.0900
  10
418.1440
  20
217.5350
  10
421.0290
  20
218.3550
  10
421.7590
  20
216.1550
  10
422.6740
  20
214.0250
  10
423.7680
  20
211.9820
  10
425.0340
  20
210.0400
  0
LWPOLYLINE
  8
CUT
  90
11
  70
1
  10
417.4410
  20
220.6120
  10
417.1110
  20
223.1670
  10
417.0000
  20
225.7400
  10
417.1110
  20
228.3130
  10
417.4410
  20
230.8680
  10
420.3970
  20
230.3550
  10
420.1000
  20
228.0560
  10
420.0000
  20
225.7400
  10
420.1000
  20
223.4240
  10
420.3970
  20
221.1250
  0
LWPOLYLINE
  8
CUT
  90
11
  70
1
  10
418.1440
  20
233.9450
  10
418.9540
  20
236.3900
  10
419.9710
  20
238.7570
  10
421.1870
  20
241.0270
  10
422.5940
  20
243.1850
  10
425.0340
  20
241.4400
  10
423.7680
  20
239.4980
  10
422.6740
  20
237.4550
  10
421.7590
  20
235.3250
  10
421.0290
  20
233.1250
  0
LWPOLYLINE
  8
CUT
  90
11
  70
1
  10
424.5620
  20
245.6530
  10
426.3520
  20
247.5040
  10
428.2950
  20
249.1950
  10
430.3760
  20
250.7130
  10
432.5800
  20
252.0470
  10
434.0220
  20
249.4160
  10
432.0390
  20
248.2160
  10
430.1660
  20
246.8490
  10
428.4170
  20
245.3280
  10
426.8050
  20
243.6610
  0
LWPOLYLINE
  8
CUT
  90
11
  70
1
  10
435.4230
  20
253.4160
  10
437.8400
  20
254.3070
  10
440.3240
  20
254.9880
  10
442.8580
  20
255.4530
  10
445.4220
  20
255.6980
  10
445.5800
  20
252.7030
  10
443.2720
  20
252.4810
  10
440.9920
  20
252.0630
  10
438.7560
  20
251.4510
  10
436.5810
  20
250.6490
  0
LWPOLYLINE
  8
CUT
  90
11
  70
1
  10
448.5780
  20
255.6980
  10
451.1420
  20
255.4530
  10
453.6760
  20
254.9880
  10
456.1600
  20
254.3070
  10
458.5770
  20
253.4160
  10
457.4190
  20
250.6490
  10
455.2440
  20
251.4510
  10
453.0080
  20
252.0630
  10
450.7280
  20
252.4810
  10
448.4200
  20
252.7030
  0
LWPOLYLINE
  8
CUT
  90
11
  70
1
  10
461.4200
  20
252.0470
  10
463.6240
  20
250.7130
  10
465.7050
  20
249.1950
  10
467.6480
  20
247.5040
  10
469.4380
  20
245.6530
  10
467.1950
  20
243.6610
  10
465.5830
  20
245.3280
  10
463.8340
  20
246.8490
  10
461.9610
  20
248.2160
  10
459.9780
  20
249.4160
  0
LWPOLYLINE
  8
CUT
  90
11
  70
1
  10
471.4060
  20
243.1850
  10
472.8130
  20
241.0270
  10
474.0290
  20
238.7570
  10
475.0460
  20
236.3900
  10
475.8560
  20
233.9450
  10
472.9710
  20
233.1250
  10
472.2410
  20
235.3250
  10
471.3260
  20
237.4550
  10
470.2320
  20
239.4980
  10
468.9660
  20
241.4400
  0
LWPOLYLINE
  8
CUT
  90
11
  70
1
  10
476.5590
  20
230.8680
  10
476.8890
  20
228.3130
  10
477.0000
  20
225.7400
  10
476.8890
  20
223.1670
  10
476.5590
  20
220.6120
  10
473.6030
  20
221.1250
  10
473.9000
  20
223.4240
  10
474.0000
  20
225.7400
  10
473.9000
  20
228.0560
  10
473.6030
  20
230.3550
  0
LWPOLYLINE
  8
CUT
  90
11
  70
1
  10
475.8560
  20
217.5350
  10
475.0460
  20
215.0900
  10
474.0290
  20
212.7230
  10
472.8130
  20
210.4530
  10
471.4060
  20
208.2950
  10
468.9660
  20
210.0400
  10
470.2320
  20
211.9820
  10
471.3260
  20
214.0250
  10
472.2410
  20
216.1550
  10
472.9710
  20
218.3550
  0
LWPOLYLINE
  8
CUT
  90
11
  70
1
  10
469.4380
  20
205.8270
  10
467.6480
  20
203.9760
  10
465.7050
  20
202.2850
  10
463.6240
  20
200.7670
  10
461.4200
  20
199.4330
  10
459.9780
  20
202.0640
  10
461.9610
  20
203.2640
  10
463.8340
  20
204.6310
  10
465.5830
  20
206.1520
  10
467.1950
  20
207.8190
  0
LWPOLYLINE
  8
CUT
  90
11
  70
1
  10
458.5770
  20
198.0640
  10
456.1600
  20
197.1730
  10
453.6760
  20
196.4920
  10
451.1420
  20
196.0270
  10
448.5780
  20
195.7820
  10
448.4200
  20
198.7770
  10
450.7280
  20
198.9990
  10
453.0080
  20
199.4170
  10
455.2440
  20
200.0290
  10
457.4190
  20
200.8310
  0
LWPOLYLINE
  8
CUT
  90
11
  70
1
  10
445.4370
  20
188.7730
  10
442.9970
  20
188.9570
  10
440.5750
  20
189.3020
  10
438.1810
  20
189.8060
  10
435.8250
  20
190.4680
  10
436.7310
  20
193.3280
  10
438.8960
  20
192.7200
  10
441.0960
  20
192.2570
  10
443.3220
  20
191.9400
  10
445.5640
  20
191.7700
  0
LWPOLYLINE
  8
CUT
  90
11
  70
1
  10
432.8880
  20
191.5370
  10
430.6580
  20
192.5440
  10
428.5000
  20
193.6970
  10
426.4230
  20
194.9900
  10
424.4350
  20
196.4170
  10
426.2650
  20
198.7950
  10
428.0910
  20
197.4830
  10
430.0000
  20
196.2950
  10
431.9830
  20
195.2360
  10
434.0320
  20
194.3100
  0
LWPOLYLINE
  8
CUT
  90
11
  70
1
  10
422.0410
  20
198.4260
  10
420.2900
  20
200.1360
  10
418.6560
  20
201.9570
  10
417.1460
  20
203.8820
  10
415.7670
  20
205.9030
  10
418.3000
  20
207.5110
  10
419.5670
  20
205.6540
  10
420.9540
  20
203.8850
  10
422.4560
  20
202.2120
  10
424.0650
  20
200.6410
  0
LWPOLYLINE
  8
CUT
  90
11
  70
1
  10
414.2040
  20
208.6100
  10
413.1440
  20
210.8150
  10
412.2310
  20
213.0850
  10
411.4710
  20
215.4110
  10
410.8660
  20
217.7820
  10
413.7960
  20
218.4270
  10
414.3520
  20
216.2480
  10
415.0500
  20
214.1110
  10
415.8890
  20
212.0250
  10
416.8630
  20
209.9990
  0
LWPOLYLINE
  8
CUT
  90
11
  70
1
  10
410.3230
  20
220.8600
  10
410.0810
  20
223.2950
  10
410.0000
  20
225.7400
  10
410.0810
  20
228.1850
  10
410.3230
  20
230.6200
  10
413.2970
  20
230.2240
  10
413.0740
  20
227.9870
  10
413.0000
  20
225.7400
  10
413.0740
  20
223.4930
  10
413.2970
  20
221.2560
  0
LWPOLYLINE
  8
CUT
  90
11
  70
1
  10
410.8660
  20
233.6980
  10
411.4710
  20
236.0690
  10
412.2310
  20
238.3950
  10
413.1440
  20
240.6650
  10
414.2040
  20
242.8700
  10
416.8630
  20
241.4810
  10
415.8890
  20
239.4550
  10
415.0500
  20
237.3690
  10
414.3520
  20
235.2320
  10
413.7960
  20
233.0530
  0
LWPOLYLINE
  8
CUT
  90
11
  70
1
  10
415.7670
  20
245.5770
  10
417.1460
  20
247.5980
  10
418.6560
  20
249.5230
  10
420.2900
  20
251.3440
  10
422.0410
  20
253.0540
  10
424.0650
  20
250.8390
  10
422.4560
  20
249.2680
  10
420.9540
  20
247.5950
  10
419.5670
  20
245.8260
  10
418.3000
  20
243.9690
  0
LWPOLYLINE
  8
CUT
  90
11
  70
1
  10
424.4350
  20
255.0630
  10
426.4230
  20
256.4900
  10
428.5000
  20
257.7830
  10
430.6580
  20
258.9360
  10
432.8880
  20
259.9430
  10
434.0320
  20
257.1700
  10
431.9830
  20
256.2440
  10
430.0000
  20
255.1850
  10
428.0910
  20
253.9970
  10
426.2650
  20
252.6850
  0
LWPOLYLINE
  8
CUT
  90
11
  70
1
  10
435.8250
  20
261.0120
  10
438.1810
  20
261.6740
  10
440.5750
  20
262.1780
  10
442.9970
  20
262.5230
  10
445.4370
  20
262.7070
  10
445.5640
  20
259.7100
  10
443.3220
  20
259.5400
  10
441.0960
  20
259.2230
  10
438.8960
  20
258.7600
  10
436.7310
  20
258.1520
  0
LWPOLYLINE
  8
CUT
  90
11
  70
1
  10
448.5630
  20
262.7070
  10
451.0030
  20
262.5230
  10
453.4250
  20
262.1780
  10
455.8190
  20
261.6740
  10
458.1750
  20
261.0120
  10
457.2690
  20
258.1520
  10
455.1040
  20
258.7600
  10
452.9040
  20
259.2230
  10
450.6780
  20
259.5400
  10
448.4360
  20
259.7100
  0
LWPOLYLINE
  8
CUT
  90
11
  70
1
  10
461.1120
  20
259.9430
  10
463.3420
  20
258.9360
  10
465.5000
  20
257.7830
  10
467.5770
  20
256.4900
  10
469.5650
  20
255.0630
  10
467.7350
  20
252.6850
  10
465.9090
  20
253.9970
  10
464.0000
  20
255.1850
  10
462.0170
  20
256.2440
  10
459.9680
  20
257.1700
  0
LWPOLYLINE
  8
CUT
  90
11
  70
1
  10
471.9590
  20
253.0540
  10
473.7100
  20
251.3440
  10
475.3440
  20
249.5230
  10
476.8540
  20
247.5980
  10
478.2330
  20
245.5770
  10
475.7000
  20
243.9690
  10
474.4330
  20
245.8260
  10
473.0460
  20
247.5950
  10
471.5440
  20
249.2680
  10
469.9350
  20
250.8390
  0
LWPOLYLINE
  8
CUT
  90
11
  70
1
  10
479.7960
  20
242.8700
  10
480.8560
  20
240.6650
  10
481.7690
  20
238.3950
  10
482.5290
  20
236.0690
  10
483.1340
  20
233.6980
  10
480.2040
  20
233.0530
  10
479.6480
  20
235.2320
  10
478.9500
  20
237.3690
  10
478.1110
  20
239.4550
  10
477.1370
  20
241.4810
  0
LWPOLYLINE
  8
CUT
  90
11
  70
1
  10
483.6770
  20
230.6200
  10
483.9190
  20
228.1850
  10
484.0000
  20
225.7400
  10
483.9190
  20
223.2950
  10
483.6770
  20
220.8600
  10
480.7030
  20
221.2560
  10
480.9260
  20
223.4930
  10
481.0000
  20
225.7400
  10
480.9260
  20
227.9870
  10
480.7030
  20
230.2240
  0
LWPOLYLINE
  8
CUT
  90
11
  70
1
  10
483.1340
  20
217.7820
  10
482.5290
  20
215.4110
  10
481.7690
  20
213.0850
  10
480.8560
  20
210.8150
  10
479.7960
  20
208.6100
  10
477.1370
  20
209.9990
  10
478.1110
  20
212.0250
  10
478.9500
  20
214.1110
  10
479.6480
  20
216.2480
  10
480.2040
  20
218.4270
  0
LWPOLYLINE
  8
CUT
  90
11
  70
1
  10
478.2330
  20
205.9030
  10
476.8540
  20
203.8820
  10
475.3440
  20
201.9570
  10
473.7100
  20
200.1360
  10
471.9590
  20
198.4260
  10
469.9350
  20
200.6410
  10
471.5440
  20
202.2120
  10
473.0460
  20
203.8850
  10
474.4330
  20
205.6540
  10
475.7000
  20
207.5110
  0
LWPOLYLINE
  8
CUT
  90
11
  70
1
  10
469.5650
  20
196.4170
  10
467.5770
  20
194.9900
  10
465.5000
  20
193.6970
  10
463.3420
  20
192.5440
  10
461.1120
  20
191.5370
  10
459.9680
  20
194.3100
  10
462.0170
  20
195.2360
  10
464.0000
  20
196.2950
  10
465.9090
  20
197.4830
  10
467.7350
  20
198.7950
  0
LWPOLYLINE
  8
CUT
  90
11
  70
1
  10
458.1750
  20
190.4680
  10
455.8190
  20
189.8060
  10
453.4250
  20
189.3020
  10
451.0030
  20
188.9570
  10
448.5630
  20
188.7730
  10
448.4360
  20
191.7700
  10
450.6780
  20
191.9400
  10
452.9040
  20
192.2570
  10
455.1040
  20
192.7200
  10
457.2690
  20
193.3280
  0
ENDSEC
  0
EOF
