<?xml version="1.0" encoding="UTF-8"?>
<svg xmlns="http://www.w3.org/2000/svg" width="510mm" height="323.24mm" viewBox="0 0 510 323.24">
<!-- Ponoko sheet: 510x323.24mm. Red=cut, Blue=engrave. -->
  <text x="0" y="-2" font-size="4" fill="#cccccc" font-family="monospace">FRONT (3mm)</text>
  <text x="192" y="-2" font-size="4" fill="#cccccc" font-family="monospace">BACK (3mm)</text>
  <text x="384" y="-2" font-size="4" fill="#cccccc" font-family="monospace">TOP (3mm, rotated)</text>
  <path d="M 5.000 3.000 L 8.471 3.000 L 8.471 0.000 L 19.941 0.000 L 19.941 3.000 L 31.412 3.000 L 31.412 0.000 L 42.882 0.000 L 42.882 3.000 L 54.353 3.000 L 54.353 0.000 L 65.824 0.000 L 65.824 3.000 L 77.294 3.000 L 77.294 0.000 L 88.765 0.000 L 88.765 3.000 L 100.235 3.000 L 100.235 0.000 L 111.706 0.000 L 111.706 3.000 L 123.176 3.000 L 123.176 0.000 L 134.647 0.000 L 134.647 3.000 L 146.118 3.000 L 146.118 0.000 L 157.588 0.000 L 157.588 3.000 L 169.059 3.000 L 169.059 0.000 L 180.529 0.000 L 180.529 3.000 L 184.000 3.000 L 184.000 14.676 L 184.000 26.351 L 189.000 26.351 L 189.000 38.027 L 184.000 38.027 L 184.000 49.702 L 189.000 49.702 L 189.000 61.378 L 184.000 61.378 L 184.000 73.053 L 189.000 73.053 L 189.000 84.729 L 184.000 84.729 L 184.000 96.404 L 189.000 96.404 L 189.000 108.080 L 184.000 108.080 L 184.000 119.756 L 189.000 119.756 L 189.000 131.431 L 184.000 131.431 L 184.000 143.107 L 189.000 143.107 L 189.000 154.782 L 184.000 154.782 L 184.000 166.458 L 189.000 166.458 L 189.000 178.133 L 184.000 178.133 L 184.000 189.809 L 189.000 189.809 L 189.000 201.484 L 184.000 201.484 L 184.000 213.160 L 189.000 213.160 L 189.000 224.836 L 184.000 224.836 L 184.000 236.511 L 189.000 236.511 L 189.000 248.187 L 184.000 248.187 L 184.000 259.862 L 189.000 259.862 L 189.000 271.538 L 184.000 271.538 L 184.000 283.213 L 189.000 283.213 L 189.000 294.889 L 184.000 294.889 L 184.000 306.564 L 184.000 318.240 L 180.529 318.240 L 180.529 323.240 L 169.059 323.240 L 169.059 318.240 L 157.588 318.240 L 157.588 323.240 L 146.118 323.240 L 146.118 318.240 L 134.647 318.240 L 134.647 323.240 L 123.176 323.240 L 123.176 318.240 L 111.706 318.240 L 111.706 323.240 L 100.235 323.240 L 100.235 318.240 L 88.765 318.240 L 88.765 323.240 L 77.294 323.240 L 77.294 318.240 L 65.824 318.240 L 65.824 323.240 L 54.353 323.240 L 54.353 318.240 L 42.882 318.240 L 42.882 323.240 L 31.412 323.240 L 31.412 318.240 L 19.941 318.240 L 19.941 323.240 L 8.471 323.240 L 8.471 318.240 L 5.000 318.240 L 5.000 306.564 L 5.000 294.889 L 0.000 294.889 L 0.000 283.213 L 5.000 283.213 L 5.000 271.538 L 0.000 271.538 L 0.000 259.862 L 5.000 259.862 L 5.000 248.187 L 0.000 248.187 L 0.000 236.511 L 5.000 236.511 L 5.000 224.836 L 0.000 224.836 L 0.000 213.160 L 5.000 213.160 L 5.000 201.484 L 0.000 201.484 L 0.000 189.809 L 5.000 189.809 L 5.000 178.133 L 0.000 178.133 L 0.000 166.458 L 5.000 166.458 L 5.000 154.782 L 0.000 154.782 L 0.000 143.107 L 5.000 143.107 L 5.000 131.431 L 0.000 131.431 L 0.000 119.756 L 5.000 119.756 L 5.000 108.080 L 0.000 108.080 L 0.000 96.404 L 5.000 96.404 L 5.000 84.729 L 0.000 84.729 L 0.000 73.053 L 5.000 73.053 L 5.000 61.378 L 0.000 61.378 L 0.000 49.702 L 5.000 49.702 L 5.000 38.027 L 0.000 38.027 L 0.000 26.351 L 5.000 26.351 L 5.000 14.676 Z" fill="none" stroke="#ff0000" stroke-width="0.01"/>
  <rect x="67.75" y="292.29" width="17.9" height="16.5" rx="1.5" ry="1.5" fill="none" stroke="#ff0000" stroke-width="0.01"/>
  <rect x="87.8" y="290.19" width="15.6" height="17.6" rx="1.5" ry="1.5" fill="none" stroke="#ff0000" stroke-width="0.01"/>
  <rect x="105.6" y="290.19" width="15.8" height="17.6" rx="1.5" ry="1.5" fill="none" stroke="#ff0000" stroke-width="0.01"/>
  <rect x="101.1" y="279.59" width="20.8" height="8.1" rx="1.5" ry="1.5" fill="none" stroke="#ff0000" stroke-width="0.01"/>
  <circle cx="49.5" cy="305.24" r="4" fill="none" stroke="#ff0000" stroke-width="0.01"/>
  <rect x="25.0" y="261.99" width="22" height="2.5" rx="1.25" ry="1.25" fill="none" stroke="#ff0000" stroke-width="0.01"/>
  <rect x="83.5" y="261.99" width="22" height="2.5" rx="1.25" ry="1.25" fill="none" stroke="#ff0000" stroke-width="0.01"/>
  <rect x="142.0" y="261.99" width="22" height="2.5" rx="1.25" ry="1.25" fill="none" stroke="#ff0000" stroke-width="0.01"/>
  <rect x="25.0" y="247.74" width="22" height="2.5" rx="1.25" ry="1.25" fill="none" stroke="#ff0000" stroke-width="0.01"/>
  <rect x="83.5" y="247.74" width="22" height="2.5" rx="1.25" ry="1.25" fill="none" stroke="#ff0000" stroke-width="0.01"/>
  <rect x="142.0" y="247.74" width="22" height="2.5" rx="1.25" ry="1.25" fill="none" stroke="#ff0000" stroke-width="0.01"/>
  <rect x="25.0" y="233.49" width="22" height="2.5" rx="1.25" ry="1.25" fill="none" stroke="#ff0000" stroke-width="0.01"/>
  <rect x="83.5" y="233.49" width="22" height="2.5" rx="1.25" ry="1.25" fill="none" stroke="#ff0000" stroke-width="0.01"/>
  <rect x="142.0" y="233.49" width="22" height="2.5" rx="1.25" ry="1.25" fill="none" stroke="#ff0000" stroke-width="0.01"/>
  <rect x="25.0" y="219.24" width="22" height="2.5" rx="1.25" ry="1.25" fill="none" stroke="#ff0000" stroke-width="0.01"/>
  <rect x="83.5" y="219.24" width="22" height="2.5" rx="1.25" ry="1.25" fill="none" stroke="#ff0000" stroke-width="0.01"/>
  <rect x="142.0" y="219.24" width="22" height="2.5" rx="1.25" ry="1.25" fill="none" stroke="#ff0000" stroke-width="0.01"/>
  <rect x="25.0" y="204.99" width="22" height="2.5" rx="1.25" ry="1.25" fill="none" stroke="#ff0000" stroke-width="0.01"/>
  <rect x="83.5" y="204.99" width="22" height="2.5" rx="1.25" ry="1.25" fill="none" stroke="#ff0000" stroke-width="0.01"/>
  <rect x="142.0" y="204.99" width="22" height="2.5" rx="1.25" ry="1.25" fill="none" stroke="#ff0000" stroke-width="0.01"/>
  <rect x="25.0" y="179.99" width="22" height="2.5" rx="1.25" ry="1.25" fill="none" stroke="#ff0000" stroke-width="0.01"/>
  <rect x="83.5" y="179.99" width="22" height="2.5" rx="1.25" ry="1.25" fill="none" stroke="#ff0000" stroke-width="0.01"/>
  <rect x="142.0" y="179.99" width="22" height="2.5" rx="1.25" ry="1.25" fill="none" stroke="#ff0000" stroke-width="0.01"/>
  <rect x="25.0" y="162.563" width="22" height="2.5" rx="1.25" ry="1.25" fill="none" stroke="#ff0000" stroke-width="0.01"/>
  <rect x="83.5" y="162.563" width="22" height="2.5" rx="1.25" ry="1.25" fill="none" stroke="#ff0000" stroke-width="0.01"/>
  <rect x="142.0" y="162.563" width="22" height="2.5" rx="1.25" ry="1.25" fill="none" stroke="#ff0000" stroke-width="0.01"/>
  <rect x="25.0" y="145.136" width="22" height="2.5" rx="1.25" ry="1.25" fill="none" stroke="#ff0000" stroke-width="0.01"/>
  <rect x="83.5" y="145.136" width="22" height="2.5" rx="1.25" ry="1.25" fill="none" stroke="#ff0000" stroke-width="0.01"/>
  <rect x="142.0" y="145.136" width="22" height="2.5" rx="1.25" ry="1.25" fill="none" stroke="#ff0000" stroke-width="0.01"/>
  <rect x="25.0" y="127.709" width="22" height="2.5" rx="1.25" ry="1.25" fill="none" stroke="#ff0000" stroke-width="0.01"/>
  <rect x="83.5" y="127.709" width="22" height="2.5" rx="1.25" ry="1.25" fill="none" stroke="#ff0000" stroke-width="0.01"/>
  <rect x="142.0" y="127.709" width="22" height="2.5" rx="1.25" ry="1.25" fill="none" stroke="#ff0000" stroke-width="0.01"/>
  <rect x="25.0" y="110.281" width="22" height="2.5" rx="1.25" ry="1.25" fill="none" stroke="#ff0000" stroke-width="0.01"/>
  <rect x="83.5" y="110.281" width="22" height="2.5" rx="1.25" ry="1.25" fill="none" stroke="#ff0000" stroke-width="0.01"/>
  <rect x="142.0" y="110.281" width="22" height="2.5" rx="1.25" ry="1.25" fill="none" stroke="#ff0000" stroke-width="0.01"/>
  <rect x="25.0" y="92.854" width="22" height="2.5" rx="1.25" ry="1.25" fill="none" stroke="#ff0000" stroke-width="0.01"/>
  <rect x="83.5" y="92.854" width="22" height="2.5" rx="1.25" ry="1.25" fill="none" stroke="#ff0000" stroke-width="0.01"/>
  <rect x="142.0" y="92.854" width="22" height="2.5" rx="1.25" ry="1.25" fill="none" stroke="#ff0000" stroke-width="0.01"/>
  <rect x="25.0" y="75.427" width="22" height="2.5" rx="1.25" ry="1.25" fill="none" stroke="#ff0000" stroke-width="0.01"/>
  <rect x="83.5" y="75.427" width="22" height="2.5" rx="1.25" ry="1.25" fill="none" stroke="#ff0000" stroke-width="0.01"/>
  <rect x="142.0" y="75.427" width="22" height="2.5" rx="1.25" ry="1.25" fill="none" stroke="#ff0000" stroke-width="0.01"/>
  <rect x="25.0" y="58.0" width="22" height="2.5" rx="1.25" ry="1.25" fill="none" stroke="#ff0000" stroke-width="0.01"/>
  <rect x="83.5" y="58.0" width="22" height="2.5" rx="1.25" ry="1.25" fill="none" stroke="#ff0000" stroke-width="0.01"/>
  <rect x="142.0" y="58.0" width="22" height="2.5" rx="1.25" ry="1.25" fill="none" stroke="#ff0000" stroke-width="0.01"/>
  <path d="M 197.000 3.000 L 200.471 3.000 L 200.471 0.000 L 211.941 0.000 L 211.941 3.000 L 223.412 3.000 L 223.412 0.000 L 234.882 0.000 L 234.882 3.000 L 246.353 3.000 L 246.353 0.000 L 257.824 0.000 L 257.824 3.000 L 269.294 3.000 L 269.294 0.000 L 280.765 0.000 L 280.765 3.000 L 292.235 3.000 L 292.235 0.000 L 303.706 0.000 L 303.706 3.000 L 315.176 3.000 L 315.176 0.000 L 326.647 0.000 L 326.647 3.000 L 338.118 3.000 L 338.118 0.000 L 349.588 0.000 L 349.588 3.000 L 361.059 3.000 L 361.059 0.000 L 372.529 0.000 L 372.529 3.000 L 376.000 3.000 L 376.000 14.676 L 376.000 26.351 L 381.000 26.351 L 381.000 38.027 L 376.000 38.027 L 376.000 49.702 L 381.000 49.702 L 381.000 61.378 L 376.000 61.378 L 376.000 73.053 L 381.000 73.053 L 381.000 84.729 L 376.000 84.729 L 376.000 96.404 L 381.000 96.404 L 381.000 108.080 L 376.000 108.080 L 376.000 119.756 L 381.000 119.756 L 381.000 131.431 L 376.000 131.431 L 376.000 143.107 L 381.000 143.107 L 381.000 154.782 L 376.000 154.782 L 376.000 166.458 L 381.000 166.458 L 381.000 178.133 L 376.000 178.133 L 376.000 189.809 L 381.000 189.809 L 381.000 201.484 L 376.000 201.484 L 376.000 213.160 L 381.000 213.160 L 381.000 224.836 L 376.000 224.836 L 376.000 236.511 L 381.000 236.511 L 381.000 248.187 L 376.000 248.187 L 376.000 259.862 L 381.000 259.862 L 381.000 271.538 L 376.000 271.538 L 376.000 283.213 L 381.000 283.213 L 381.000 294.889 L 376.000 294.889 L 376.000 306.564 L 376.000 318.240 L 372.529 318.240 L 372.529 323.240 L 361.059 323.240 L 361.059 318.240 L 349.588 318.240 L 349.588 323.240 L 338.118 323.240 L 338.118 318.240 L 326.647 318.240 L 326.647 323.240 L 315.176 323.240 L 315.176 318.240 L 303.706 318.240 L 303.706 323.240 L 292.235 323.240 L 292.235 318.240 L 280.765 318.240 L 280.765 323.240 L 269.294 323.240 L 269.294 318.240 L 257.824 318.240 L 257.824 323.240 L 246.353 323.240 L 246.353 318.240 L 234.882 318.240 L 234.882 323.240 L 223.412 323.240 L 223.412 318.240 L 211.941 318.240 L 211.941 323.240 L 200.471 323.240 L 200.471 318.240 L 197.000 318.240 L 197.000 306.564 L 197.000 294.889 L 192.000 294.889 L 192.000 283.213 L 197.000 283.213 L 197.000 271.538 L 192.000 271.538 L 192.000 259.862 L 197.000 259.862 L 197.000 248.187 L 192.000 248.187 L 192.000 236.511 L 197.000 236.511 L 197.000 224.836 L 192.000 224.836 L 192.000 213.160 L 197.000 213.160 L 197.000 201.484 L 192.000 201.484 L 192.000 189.809 L 197.000 189.809 L 197.000 178.133 L 192.000 178.133 L 192.000 166.458 L 197.000 166.458 L 197.000 154.782 L 192.000 154.782 L 192.000 143.107 L 197.000 143.107 L 197.000 131.431 L 192.000 131.431 L 192.000 119.756 L 197.000 119.756 L 197.000 108.080 L 192.000 108.080 L 192.000 96.404 L 197.000 96.404 L 197.000 84.729 L 192.000 84.729 L 192.000 73.053 L 197.000 73.053 L 197.000 61.378 L 192.000 61.378 L 192.000 49.702 L 197.000 49.702 L 197.000 38.027 L 192.000 38.027 L 192.000 26.351 L 197.000 26.351 L 197.000 14.676 Z" fill="none" stroke="#ff0000" stroke-width="0.01"/>
  <path d="M 234.123 73.487 L 227.643 94.487" fill="none" stroke="#0000ff" stroke-width="0.01"/>
  <path d="M 233.550 73.310 L 227.070 94.310" fill="none" stroke="#0000ff" stroke-width="0.01"/>
  <path d="M 232.977 73.133 L 226.497 94.133" fill="none" stroke="#0000ff" stroke-width="0.01"/>
  <path d="M 233.550 72.710 L 238.950 72.710" fill="none" stroke="#0000ff" stroke-width="0.01"/>
  <path d="M 233.550 73.310 L 238.950 73.310" fill="none" stroke="#0000ff" stroke-width="0.01"/>
  <path d="M 233.550 73.910 L 238.950 73.910" fill="none" stroke="#0000ff" stroke-width="0.01"/>
  <path d="M 239.167 72.751 L 243.037 74.251" fill="none" stroke="#0000ff" stroke-width="0.01"/>
  <path d="M 238.950 73.310 L 242.820 74.810" fill="none" stroke="#0000ff" stroke-width="0.01"/>
  <path d="M 238.733 73.869 L 242.603 75.369" fill="none" stroke="#0000ff" stroke-width="0.01"/>
  <path d="M 243.420 74.798 L 243.492 78.398" fill="none" stroke="#0000ff" stroke-width="0.01"/>
  <path d="M 242.820 74.810 L 242.892 78.410" fill="none" stroke="#0000ff" stroke-width="0.01"/>
  <path d="M 242.220 74.822 L 242.292 78.422" fill="none" stroke="#0000ff" stroke-width="0.01"/>
  <path d="M 243.456 78.616 L 242.034 82.516" fill="none" stroke="#0000ff" stroke-width="0.01"/>
  <path d="M 242.892 78.410 L 241.470 82.310" fill="none" stroke="#0000ff" stroke-width="0.01"/>
  <path d="M 242.328 78.204 L 240.906 82.104" fill="none" stroke="#0000ff" stroke-width="0.01"/>
  <path d="M 241.663 82.878 L 237.253 84.378" fill="none" stroke="#0000ff" stroke-width="0.01"/>
  <path d="M 241.470 82.310 L 237.060 83.810" fill="none" stroke="#0000ff" stroke-width="0.01"/>
  <path d="M 241.277 81.742 L 236.867 83.242" fill="none" stroke="#0000ff" stroke-width="0.01"/>
  <path d="M 237.060 84.410 L 230.760 84.410" fill="none" stroke="#0000ff" stroke-width="0.01"/>
  <path d="M 237.060 83.810 L 230.760 83.810" fill="none" stroke="#0000ff" stroke-width="0.01"/>
  <path d="M 237.060 83.210 L 230.760 83.210" fill="none" stroke="#0000ff" stroke-width="0.01"/>
  <path d="M 256.925 73.482 L 252.425 88.482" fill="none" stroke="#0000ff" stroke-width="0.01"/>
  <path d="M 256.350 73.310 L 251.850 88.310" fill="none" stroke="#0000ff" stroke-width="0.01"/>
  <path d="M 255.775 73.138 L 251.275 88.138" fill="none" stroke="#0000ff" stroke-width="0.01"/>
  <path d="M 259.094 68.409 L 258.356 70.509" fill="none" stroke="#0000ff" stroke-width="0.01"/>
  <path d="M 258.528 68.210 L 257.790 70.310" fill="none" stroke="#0000ff" stroke-width="0.01"/>
  <path d="M 257.962 68.011 L 257.224 70.111" fill="none" stroke="#0000ff" stroke-width="0.01"/>
  <path d="M 272.670 78.710 L 283.470 78.710" fill="none" stroke="#0000ff" stroke-width="0.01"/>
  <path d="M 272.670 79.310 L 283.470 79.310" fill="none" stroke="#0000ff" stroke-width="0.01"/>
  <path d="M 272.670 79.910 L 283.470 79.910" fill="none" stroke="#0000ff" stroke-width="0.01"/>
  <path d="M 297.125 73.482 L 292.625 88.482" fill="none" stroke="#0000ff" stroke-width="0.01"/>
  <path d="M 296.550 73.310 L 292.050 88.310" fill="none" stroke="#0000ff" stroke-width="0.01"/>
  <path d="M 295.975 73.138 L 291.475 88.138" fill="none" stroke="#0000ff" stroke-width="0.01"/>
  <path d="M 295.311 77.390 L 299.721 72.890" fill="none" stroke="#0000ff" stroke-width="0.01"/>
  <path d="M 295.740 77.810 L 300.150 73.310" fill="none" stroke="#0000ff" stroke-width="0.01"/>
  <path d="M 296.169 78.230 L 300.579 73.730" fill="none" stroke="#0000ff" stroke-width="0.01"/>
  <path d="M 300.150 72.710 L 303.750 72.710" fill="none" stroke="#0000ff" stroke-width="0.01"/>
  <path d="M 300.150 73.310 L 303.750 73.310" fill="none" stroke="#0000ff" stroke-width="0.01"/>
  <path d="M 300.150 73.910 L 303.750 73.910" fill="none" stroke="#0000ff" stroke-width="0.01"/>
  <path d="M 304.336 73.181 L 305.326 77.681" fill="none" stroke="#0000ff" stroke-width="0.01"/>
  <path d="M 303.750 73.310 L 304.740 77.810" fill="none" stroke="#0000ff" stroke-width="0.01"/>
  <path d="M 303.164 73.439 L 304.154 77.939" fill="none" stroke="#0000ff" stroke-width="0.01"/>
  <path d="M 305.306 78.009 L 301.616 88.509" fill="none" stroke="#0000ff" stroke-width="0.01"/>
  <path d="M 304.740 77.810 L 301.050 88.310" fill="none" stroke="#0000ff" stroke-width="0.01"/>
  <path d="M 304.174 77.611 L 300.484 88.111" fill="none" stroke="#0000ff" stroke-width="0.01"/>
  <path d="M 325.650 73.910 L 322.050 73.910" fill="none" stroke="#0000ff" stroke-width="0.01"/>
  <path d="M 325.650 73.310 L 322.050 73.310" fill="none" stroke="#0000ff" stroke-width="0.01"/>
  <path d="M 325.650 72.710 L 322.050 72.710" fill="none" stroke="#0000ff" stroke-width="0.01"/>
  <path d="M 322.357 73.826 L 317.317 76.826" fill="none" stroke="#0000ff" stroke-width="0.01"/>
  <path d="M 322.050 73.310 L 317.010 76.310" fill="none" stroke="#0000ff" stroke-width="0.01"/>
  <path d="M 321.743 72.794 L 316.703 75.794" fill="none" stroke="#0000ff" stroke-width="0.01"/>
  <path d="M 317.571 76.523 L 315.861 81.023" fill="none" stroke="#0000ff" stroke-width="0.01"/>
  <path d="M 317.010 76.310 L 315.300 80.810" fill="none" stroke="#0000ff" stroke-width="0.01"/>
  <path d="M 316.449 76.097 L 314.739 80.597" fill="none" stroke="#0000ff" stroke-width="0.01"/>
  <path d="M 315.900 80.798 L 315.990 85.298" fill="none" stroke="#0000ff" stroke-width="0.01"/>
  <path d="M 315.300 80.810 L 315.390 85.310" fill="none" stroke="#0000ff" stroke-width="0.01"/>
  <path d="M 314.700 80.822 L 314.790 85.322" fill="none" stroke="#0000ff" stroke-width="0.01"/>
  <path d="M 315.752 84.832 L 319.712 87.832" fill="none" stroke="#0000ff" stroke-width="0.01"/>
  <path d="M 315.390 85.310 L 319.350 88.310" fill="none" stroke="#0000ff" stroke-width="0.01"/>
  <path d="M 315.028 85.788 L 318.988 88.788" fill="none" stroke="#0000ff" stroke-width="0.01"/>
  <path d="M 319.080 87.774 L 322.050 86.274" fill="none" stroke="#0000ff" stroke-width="0.01"/>
  <path d="M 319.350 88.310 L 322.320 86.810" fill="none" stroke="#0000ff" stroke-width="0.01"/>
  <path d="M 319.620 88.846 L 322.590 87.346" fill="none" stroke="#0000ff" stroke-width="0.01"/>
  <path d="M 327.652 73.519 L 322.072 88.519" fill="none" stroke="#0000ff" stroke-width="0.01"/>
  <path d="M 327.090 73.310 L 321.510 88.310" fill="none" stroke="#0000ff" stroke-width="0.01"/>
  <path d="M 326.528 73.101 L 320.948 88.101" fill="none" stroke="#0000ff" stroke-width="0.01"/>
  <path d="M 347.034 75.357 L 343.704 73.857" fill="none" stroke="#0000ff" stroke-width="0.01"/>
  <path d="M 347.280 74.810 L 343.950 73.310" fill="none" stroke="#0000ff" stroke-width="0.01"/>
  <path d="M 347.526 74.263 L 344.196 72.763" fill="none" stroke="#0000ff" stroke-width="0.01"/>
  <path d="M 344.064 73.899 L 339.402 74.799" fill="none" stroke="#0000ff" stroke-width="0.01"/>
  <path d="M 343.950 73.310 L 339.288 74.210" fill="none" stroke="#0000ff" stroke-width="0.01"/>
  <path d="M 343.836 72.721 L 339.174 73.621" fill="none" stroke="#0000ff" stroke-width="0.01"/>
  <path d="M 339.789 74.541 L 337.809 77.541" fill="none" stroke="#0000ff" stroke-width="0.01"/>
  <path d="M 339.288 74.210 L 337.308 77.210" fill="none" stroke="#0000ff" stroke-width="0.01"/>
  <path d="M 338.787 73.879 L 336.807 76.879" fill="none" stroke="#0000ff" stroke-width="0.01"/>
  <path d="M 337.822 76.901 L 339.622 79.901" fill="none" stroke="#0000ff" stroke-width="0.01"/>
  <path d="M 337.308 77.210 L 339.108 80.210" fill="none" stroke="#0000ff" stroke-width="0.01"/>
  <path d="M 336.794 77.519 L 338.594 80.519" fill="none" stroke="#0000ff" stroke-width="0.01"/>
  <path d="M 339.380 79.675 L 343.502 81.775" fill="none" stroke="#0000ff" stroke-width="0.01"/>
  <path d="M 339.108 80.210 L 343.230 82.310" fill="none" stroke="#0000ff" stroke-width="0.01"/>
  <path d="M 338.836 80.745 L 342.958 82.845" fill="none" stroke="#0000ff" stroke-width="0.01"/>
  <path d="M 343.805 82.138 L 344.705 85.138" fill="none" stroke="#0000ff" stroke-width="0.01"/>
  <path d="M 343.230 82.310 L 344.130 85.310" fill="none" stroke="#0000ff" stroke-width="0.01"/>
  <path d="M 342.655 82.482 L 343.555 85.482" fill="none" stroke="#0000ff" stroke-width="0.01"/>
  <path d="M 344.563 85.726 L 341.683 88.726" fill="none" stroke="#0000ff" stroke-width="0.01"/>
  <path d="M 344.130 85.310 L 341.250 88.310" fill="none" stroke="#0000ff" stroke-width="0.01"/>
  <path d="M 343.697 84.894 L 340.817 87.894" fill="none" stroke="#0000ff" stroke-width="0.01"/>
  <path d="M 341.128 88.897 L 336.790 87.997" fill="none" stroke="#0000ff" stroke-width="0.01"/>
  <path d="M 341.250 88.310 L 336.912 87.410" fill="none" stroke="#0000ff" stroke-width="0.01"/>
  <path d="M 341.372 87.723 L 337.034 86.823" fill="none" stroke="#0000ff" stroke-width="0.01"/>
  <path d="M 336.510 87.855 L 334.188 85.755" fill="none" stroke="#0000ff" stroke-width="0.01"/>
  <path d="M 336.912 87.410 L 334.590 85.310" fill="none" stroke="#0000ff" stroke-width="0.01"/>
  <path d="M 337.314 86.965 L 334.992 84.865" fill="none" stroke="#0000ff" stroke-width="0.01"/>
  <path d="M 507.000 0.000 L 510.000 0.000 L 510.000 11.471 L 507.000 11.471 L 507.000 22.941 L 510.000 22.941 L 510.000 34.412 L 507.000 34.412 L 507.000 45.882 L 510.000 45.882 L 510.000 57.353 L 507.000 57.353 L 507.000 68.824 L 510.000 68.824 L 510.000 80.294 L 507.000 80.294 L 507.000 91.765 L 510.000 91.765 L 510.000 103.235 L 507.000 103.235 L 507.000 114.706 L 510.000 114.706 L 510.000 126.176 L 507.000 126.176 L 507.000 137.647 L 510.000 137.647 L 510.000 149.118 L 507.000 149.118 L 507.000 160.588 L 510.000 160.588 L 510.000 172.059 L 507.000 172.059 L 507.000 183.529 L 510.000 183.529 L 510.000 195.000 L 507.000 195.000 L 387.000 195.000 L 384.000 195.000 L 384.000 183.529 L 387.000 183.529 L 387.000 172.059 L 384.000 172.059 L 384.000 160.588 L 387.000 160.588 L 387.000 149.118 L 384.000 149.118 L 384.000 137.647 L 387.000 137.647 L 387.000 126.176 L 384.000 126.176 L 384.000 114.706 L 387.000 114.706 L 387.000 103.235 L 384.000 103.235 L 384.000 91.765 L 387.000 91.765 L 387.000 80.294 L 384.000 80.294 L 384.000 68.824 L 387.000 68.824 L 387.000 57.353 L 384.000 57.353 L 384.000 45.882 L 387.000 45.882 L 387.000 34.412 L 384.000 34.412 L 384.000 22.941 L 387.000 22.941 L 387.000 11.471 L 384.000 11.471 L 384.000 0.000 L 387.000 0.000 L 507.000 0.000 Z" fill="none" stroke="#ff0000" stroke-width="0.01"/>
  <rect x="496.091" y="3.0" width="10.909" height="5.0" fill="none" stroke="#ff0000" stroke-width="0.01"/>
  <rect x="474.273" y="3.0" width="10.909" height="5.0" fill="none" stroke="#ff0000" stroke-width="0.01"/>
  <rect x="452.455" y="3.0" width="10.909" height="5.0" fill="none" stroke="#ff0000" stroke-width="0.01"/>
  <rect x="430.636" y="3.0" width="10.909" height="5.0" fill="none" stroke="#ff0000" stroke-width="0.01"/>
  <rect x="408.818" y="3.0" width="10.909" height="5.0" fill="none" stroke="#ff0000" stroke-width="0.01"/>
  <rect x="387.0" y="3.0" width="10.909" height="5.0" fill="none" stroke="#ff0000" stroke-width="0.01"/>
  <rect x="496.091" y="187.0" width="10.909" height="5.0" fill="none" stroke="#ff0000" stroke-width="0.01"/>
  <rect x="474.273" y="187.0" width="10.909" height="5.0" fill="none" stroke="#ff0000" stroke-width="0.01"/>
  <rect x="452.455" y="187.0" width="10.909" height="5.0" fill="none" stroke="#ff0000" stroke-width="0.01"/>
  <rect x="430.636" y="187.0" width="10.909" height="5.0" fill="none" stroke="#ff0000" stroke-width="0.01"/>
  <rect x="408.818" y="187.0" width="10.909" height="5.0" fill="none" stroke="#ff0000" stroke-width="0.01"/>
  <rect x="387.0" y="187.0" width="10.909" height="5.0" fill="none" stroke="#ff0000" stroke-width="0.01"/>
  <circle cx="494.0" cy="13.0" r="2.25" fill="none" stroke="#ff0000" stroke-width="0.01"/>
  <circle cx="494.0" cy="182.0" r="2.25" fill="none" stroke="#ff0000" stroke-width="0.01"/>
  <circle cx="400.0" cy="13.0" r="2.25" fill="none" stroke="#ff0000" stroke-width="0.01"/>
  <circle cx="400.0" cy="182.0" r="2.25" fill="none" stroke="#ff0000" stroke-width="0.01"/>
  <path d="M 445.212 106.321 L 442.743 105.430 L 440.636 103.864 L 439.070 101.757 L 438.179 99.288 L 441.120 98.692 L 441.714 100.338 L 442.757 101.743 L 444.162 102.786 L 445.808 103.380 L 445.212 106.321 Z" fill="none" stroke="#ff0000" stroke-width="0.01"/>
  <path d="M 438.179 95.712 L 439.070 93.243 L 440.636 91.136 L 442.743 89.570 L 445.212 88.679 L 445.808 91.620 L 444.162 92.214 L 442.757 93.257 L 441.714 94.662 L 441.120 96.308 L 438.179 95.712 Z" fill="none" stroke="#ff0000" stroke-width="0.01"/>
  <path d="M 448.788 88.679 L 451.257 89.570 L 453.364 91.136 L 454.930 93.243 L 455.821 95.712 L 452.880 96.308 L 452.286 94.662 L 451.243 93.257 L 449.838 92.214 L 448.192 91.620 L 448.788 88.679 Z" fill="none" stroke="#ff0000" stroke-width="0.01"/>
  <path d="M 455.821 99.288 L 454.930 101.757 L 453.364 103.864 L 451.257 105.430 L 448.788 106.321 L 448.192 103.380 L 449.838 102.786 L 451.243 101.743 L 452.286 100.338 L 452.880 98.692 L 455.821 99.288 Z" fill="none" stroke="#ff0000" stroke-width="0.01"/>
  <path d="M 445.348 113.414 L 443.172 113.035 L 441.069 112.360 L 439.080 111.402 L 437.241 110.179 L 435.588 108.714 L 437.728 106.612 L 439.071 107.802 L 440.565 108.795 L 442.181 109.574 L 443.890 110.122 L 445.658 110.431 L 445.348 113.414 Z" fill="none" stroke="#ff0000" stroke-width="0.01"/>
  <path d="M 433.527 106.131 L 432.467 104.193 L 431.684 102.128 L 431.193 99.975 L 431.002 97.775 L 431.117 95.569 L 434.095 95.931 L 434.002 97.723 L 434.157 99.511 L 434.556 101.261 L 435.192 102.938 L 436.054 104.512 L 433.527 106.131 Z" fill="none" stroke="#ff0000" stroke-width="0.01"/>
  <path d="M 431.852 92.348 L 432.706 90.311 L 433.832 88.411 L 435.209 86.685 L 436.811 85.164 L 438.606 83.878 L 440.180 86.432 L 438.721 87.477 L 437.420 88.713 L 436.301 90.115 L 435.386 91.659 L 434.692 93.314 L 431.852 92.348 Z" fill="none" stroke="#ff0000" stroke-width="0.01"/>
  <path d="M 441.584 82.445 L 443.708 81.842 L 445.896 81.538 L 448.104 81.538 L 450.292 81.842 L 452.416 82.445 L 451.401 85.268 L 449.675 84.778 L 447.897 84.531 L 446.103 84.531 L 444.325 84.778 L 442.599 85.268 L 441.584 82.445 Z" fill="none" stroke="#ff0000" stroke-width="0.01"/>
  <path d="M 455.394 83.878 L 457.189 85.164 L 458.791 86.685 L 460.168 88.411 L 461.294 90.311 L 462.148 92.348 L 459.308 93.314 L 458.614 91.659 L 457.699 90.115 L 456.580 88.713 L 455.279 87.477 L 453.820 86.432 L 455.394 83.878 Z" fill="none" stroke="#ff0000" stroke-width="0.01"/>
  <path d="M 462.883 95.569 L 462.998 97.775 L 462.807 99.975 L 462.316 102.128 L 461.533 104.193 L 460.473 106.131 L 457.946 104.512 L 458.808 102.938 L 459.444 101.261 L 459.843 99.511 L 459.998 97.723 L 459.905 95.931 L 462.883 95.569 Z" fill="none" stroke="#ff0000" stroke-width="0.01"/>
  <path d="M 458.412 108.714 L 456.759 110.179 L 454.920 111.402 L 452.931 112.360 L 450.828 113.035 L 448.652 113.414 L 448.342 110.431 L 450.110 110.122 L 451.819 109.574 L 453.435 108.795 L 454.929 107.802 L 456.272 106.612 L 458.412 108.714 Z" fill="none" stroke="#ff0000" stroke-width="0.01"/>
  <path d="M 445.397 120.444 L 442.935 120.138 L 440.520 119.568 L 438.181 118.742 L 435.944 117.669 L 437.386 115.038 L 439.331 115.971 L 441.365 116.690 L 443.465 117.185 L 445.606 117.451 L 445.397 120.444 Z" fill="none" stroke="#ff0000" stroke-width="0.01"/>
  <path d="M 433.247 115.935 L 431.341 114.346 L 429.618 112.562 L 428.097 110.602 L 426.795 108.490 L 429.431 107.056 L 430.562 108.893 L 431.885 110.597 L 433.384 112.149 L 435.041 113.530 L 433.247 115.935 Z" fill="none" stroke="#ff0000" stroke-width="0.01"/>
  <path d="M 425.463 105.573 L 424.719 103.206 L 424.234 100.773 L 424.014 98.302 L 424.061 95.822 L 427.053 96.041 L 427.012 98.198 L 427.204 100.346 L 427.625 102.462 L 428.272 104.520 L 425.463 105.573 Z" fill="none" stroke="#ff0000" stroke-width="0.01"/>
  <path d="M 424.518 92.648 L 425.171 90.254 L 426.078 87.945 L 427.229 85.748 L 428.610 83.687 L 431.009 85.488 L 429.808 87.281 L 428.807 89.192 L 428.018 91.199 L 427.450 93.281 L 424.518 92.648 Z" fill="none" stroke="#ff0000" stroke-width="0.01"/>
  <path d="M 430.710 81.263 L 432.554 79.603 L 434.565 78.151 L 436.722 76.924 L 438.998 75.937 L 440.041 78.750 L 438.062 79.608 L 436.187 80.675 L 434.438 81.937 L 432.835 83.381 L 430.710 81.263 Z" fill="none" stroke="#ff0000" stroke-width="0.01"/>
  <path d="M 442.074 75.034 L 444.523 74.634 L 447.000 74.500 L 449.477 74.634 L 451.926 75.034 L 451.283 77.964 L 449.154 77.616 L 447.000 77.500 L 444.846 77.616 L 442.717 77.964 L 442.074 75.034 Z" fill="none" stroke="#ff0000" stroke-width="0.01"/>
  <path d="M 455.002 75.937 L 457.278 76.924 L 459.435 78.151 L 461.446 79.603 L 463.290 81.263 L 461.165 83.381 L 459.562 81.937 L 457.813 80.675 L 455.938 79.608 L 453.959 78.750 L 455.002 75.937 Z" fill="none" stroke="#ff0000" stroke-width="0.01"/>
  <path d="M 465.390 83.687 L 466.771 85.748 L 467.922 87.945 L 468.829 90.254 L 469.482 92.648 L 466.550 93.281 L 465.982 91.199 L 465.193 89.192 L 464.192 87.281 L 462.991 85.488 L 465.390 83.687 Z" fill="none" stroke="#ff0000" stroke-width="0.01"/>
  <path d="M 469.939 95.822 L 469.986 98.302 L 469.766 100.773 L 469.281 103.206 L 468.537 105.573 L 465.728 104.520 L 466.375 102.462 L 466.796 100.346 L 466.988 98.198 L 466.947 96.041 L 469.939 95.822 Z" fill="none" stroke="#ff0000" stroke-width="0.01"/>
  <path d="M 467.205 108.490 L 465.903 110.602 L 464.382 112.562 L 462.659 114.346 L 460.753 115.935 L 458.959 113.530 L 460.616 112.149 L 462.115 110.597 L 463.438 108.893 L 464.569 107.056 L 467.205 108.490 Z" fill="none" stroke="#ff0000" stroke-width="0.01"/>
  <path d="M 458.056 117.669 L 455.819 118.742 L 453.480 119.568 L 451.065 120.138 L 448.603 120.444 L 448.394 117.451 L 450.535 117.185 L 452.635 116.690 L 454.669 115.971 L 456.614 115.038 L 458.056 117.669 Z" fill="none" stroke="#ff0000" stroke-width="0.01"/>
  <path d="M 445.422 127.458 L 442.858 127.213 L 440.324 126.748 L 437.840 126.067 L 435.423 125.176 L 436.581 122.409 L 438.756 123.211 L 440.992 123.823 L 443.272 124.241 L 445.580 124.463 L 445.422 127.458 Z" fill="none" stroke="#ff0000" stroke-width="0.01"/>
  <path d="M 432.580 123.807 L 430.376 122.473 L 428.295 120.955 L 426.352 119.264 L 424.562 117.413 L 426.805 115.421 L 428.417 117.088 L 430.166 118.609 L 432.039 119.976 L 434.022 121.176 L 432.580 123.807 Z" fill="none" stroke="#ff0000" stroke-width="0.01"/>
  <path d="M 422.594 114.945 L 421.187 112.787 L 419.971 110.517 L 418.954 108.150 L 418.144 105.705 L 421.029 104.885 L 421.759 107.085 L 422.674 109.215 L 423.768 111.258 L 425.034 113.200 L 422.594 114.945 Z" fill="none" stroke="#ff0000" stroke-width="0.01"/>
  <path d="M 417.441 102.628 L 417.111 100.073 L 417.000 97.500 L 417.111 94.927 L 417.441 92.372 L 420.397 92.885 L 420.100 95.184 L 420.000 97.500 L 420.100 99.816 L 420.397 102.115 L 417.441 102.628 Z" fill="none" stroke="#ff0000" stroke-width="0.01"/>
  <path d="M 418.144 89.295 L 418.954 86.850 L 419.971 84.483 L 421.187 82.213 L 422.594 80.055 L 425.034 81.800 L 423.768 83.742 L 422.674 85.785 L 421.759 87.915 L 421.029 90.115 L 418.144 89.295 Z" fill="none" stroke="#ff0000" stroke-width="0.01"/>
  <path d="M 424.562 77.587 L 426.352 75.736 L 428.295 74.045 L 430.376 72.527 L 432.580 71.193 L 434.022 73.824 L 432.039 75.024 L 430.166 76.391 L 428.417 77.912 L 426.805 79.579 L 424.562 77.587 Z" fill="none" stroke="#ff0000" stroke-width="0.01"/>
  <path d="M 435.423 69.824 L 437.840 68.933 L 440.324 68.252 L 442.858 67.787 L 445.422 67.542 L 445.580 70.537 L 443.272 70.759 L 440.992 71.177 L 438.756 71.789 L 436.581 72.591 L 435.423 69.824 Z" fill="none" stroke="#ff0000" stroke-width="0.01"/>
  <path d="M 448.578 67.542 L 451.142 67.787 L 453.676 68.252 L 456.160 68.933 L 458.577 69.824 L 457.419 72.591 L 455.244 71.789 L 453.008 71.177 L 450.728 70.759 L 448.420 70.537 L 448.578 67.542 Z" fill="none" stroke="#ff0000" stroke-width="0.01"/>
  <path d="M 461.420 71.193 L 463.624 72.527 L 465.705 74.045 L 467.648 75.736 L 469.438 77.587 L 467.195 79.579 L 465.583 77.912 L 463.834 76.391 L 461.961 75.024 L 459.978 73.824 L 461.420 71.193 Z" fill="none" stroke="#ff0000" stroke-width="0.01"/>
  <path d="M 471.406 80.055 L 472.813 82.213 L 474.029 84.483 L 475.046 86.850 L 475.856 89.295 L 472.971 90.115 L 472.241 87.915 L 471.326 85.785 L 470.232 83.742 L 468.966 81.800 L 471.406 80.055 Z" fill="none" stroke="#ff0000" stroke-width="0.01"/>
  <path d="M 476.559 92.372 L 476.889 94.927 L 477.000 97.500 L 476.889 100.073 L 476.559 102.628 L 473.603 102.115 L 473.900 99.816 L 474.000 97.500 L 473.900 95.184 L 473.603 92.885 L 476.559 92.372 Z" fill="none" stroke="#ff0000" stroke-width="0.01"/>
  <path d="M 475.856 105.705 L 475.046 108.150 L 474.029 110.517 L 472.813 112.787 L 471.406 114.945 L 468.966 113.200 L 470.232 111.258 L 471.326 109.215 L 472.241 107.085 L 472.971 104.885 L 475.856 105.705 Z" fill="none" stroke="#ff0000" stroke-width="0.01"/>
  <path d="M 469.438 117.413 L 467.648 119.264 L 465.705 120.955 L 463.624 122.473 L 461.420 123.807 L 459.978 121.176 L 461.961 119.976 L 463.834 118.609 L 465.583 117.088 L 467.195 115.421 L 469.438 117.413 Z" fill="none" stroke="#ff0000" stroke-width="0.01"/>
  <path d="M 458.577 125.176 L 456.160 126.067 L 453.676 126.748 L 451.142 127.213 L 448.578 127.458 L 448.420 124.463 L 450.728 124.241 L 453.008 123.823 L 455.244 123.211 L 457.419 122.409 L 458.577 125.176 Z" fill="none" stroke="#ff0000" stroke-width="0.01"/>
  <path d="M 445.437 134.467 L 442.997 134.283 L 440.575 133.938 L 438.181 133.434 L 435.825 132.772 L 436.731 129.912 L 438.896 130.520 L 441.096 130.983 L 443.322 131.300 L 445.564 131.470 L 445.437 134.467 Z" fill="none" stroke="#ff0000" stroke-width="0.01"/>
  <path d="M 432.888 131.703 L 430.658 130.696 L 428.500 129.543 L 426.423 128.250 L 424.435 126.823 L 426.265 124.445 L 428.091 125.757 L 430.000 126.945 L 431.983 128.004 L 434.032 128.930 L 432.888 131.703 Z" fill="none" stroke="#ff0000" stroke-width="0.01"/>
  <path d="M 422.041 124.814 L 420.290 123.104 L 418.656 121.283 L 417.146 119.358 L 415.767 117.337 L 418.300 115.729 L 419.567 117.586 L 420.954 119.355 L 422.456 121.028 L 424.065 122.599 L 422.041 124.814 Z" fill="none" stroke="#ff0000" stroke-width="0.01"/>
  <path d="M 414.204 114.630 L 413.144 112.425 L 412.231 110.155 L 411.471 107.829 L 410.866 105.458 L 413.796 104.813 L 414.352 106.992 L 415.050 109.129 L 415.889 111.215 L 416.863 113.241 L 414.204 114.630 Z" fill="none" stroke="#ff0000" stroke-width="0.01"/>
  <path d="M 410.323 102.380 L 410.081 99.945 L 410.000 97.500 L 410.081 95.055 L 410.323 92.620 L 413.297 93.016 L 413.074 95.253 L 413.000 97.500 L 413.074 99.747 L 413.297 101.984 L 410.323 102.380 Z" fill="none" stroke="#ff0000" stroke-width="0.01"/>
  <path d="M 410.866 89.542 L 411.471 87.171 L 412.231 84.845 L 413.144 82.575 L 414.204 80.370 L 416.863 81.759 L 415.889 83.785 L 415.050 85.871 L 414.352 88.008 L 413.796 90.187 L 410.866 89.542 Z" fill="none" stroke="#ff0000" stroke-width="0.01"/>
  <path d="M 415.767 77.663 L 417.146 75.642 L 418.656 73.717 L 420.290 71.896 L 422.041 70.186 L 424.065 72.401 L 422.456 73.972 L 420.954 75.645 L 419.567 77.414 L 418.300 79.271 L 415.767 77.663 Z" fill="none" stroke="#ff0000" stroke-width="0.01"/>
  <path d="M 424.435 68.177 L 426.423 66.750 L 428.500 65.457 L 430.658 64.304 L 432.888 63.297 L 434.032 66.070 L 431.983 66.996 L 430.000 68.055 L 428.091 69.243 L 426.265 70.555 L 424.435 68.177 Z" fill="none" stroke="#ff0000" stroke-width="0.01"/>
  <path d="M 435.825 62.228 L 438.181 61.566 L 440.575 61.062 L 442.997 60.717 L 445.437 60.533 L 445.564 63.530 L 443.322 63.700 L 441.096 64.017 L 438.896 64.480 L 436.731 65.088 L 435.825 62.228 Z" fill="none" stroke="#ff0000" stroke-width="0.01"/>
  <path d="M 448.563 60.533 L 451.003 60.717 L 453.425 61.062 L 455.819 61.566 L 458.175 62.228 L 457.269 65.088 L 455.104 64.480 L 452.904 64.017 L 450.678 63.700 L 448.436 63.530 L 448.563 60.533 Z" fill="none" stroke="#ff0000" stroke-width="0.01"/>
  <path d="M 461.112 63.297 L 463.342 64.304 L 465.500 65.457 L 467.577 66.750 L 469.565 68.177 L 467.735 70.555 L 465.909 69.243 L 464.000 68.055 L 462.017 66.996 L 459.968 66.070 L 461.112 63.297 Z" fill="none" stroke="#ff0000" stroke-width="0.01"/>
  <path d="M 471.959 70.186 L 473.710 71.896 L 475.344 73.717 L 476.854 75.642 L 478.233 77.663 L 475.700 79.271 L 474.433 77.414 L 473.046 75.645 L 471.544 73.972 L 469.935 72.401 L 471.959 70.186 Z" fill="none" stroke="#ff0000" stroke-width="0.01"/>
  <path d="M 479.796 80.370 L 480.856 82.575 L 481.769 84.845 L 482.529 87.171 L 483.134 89.542 L 480.204 90.187 L 479.648 88.008 L 478.950 85.871 L 478.111 83.785 L 477.137 81.759 L 479.796 80.370 Z" fill="none" stroke="#ff0000" stroke-width="0.01"/>
  <path d="M 483.677 92.620 L 483.919 95.055 L 484.000 97.500 L 483.919 99.945 L 483.677 102.380 L 480.703 101.984 L 480.926 99.747 L 481.000 97.500 L 480.926 95.253 L 480.703 93.016 L 483.677 92.620 Z" fill="none" stroke="#ff0000" stroke-width="0.01"/>
  <path d="M 483.134 105.458 L 482.529 107.829 L 481.769 110.155 L 480.856 112.425 L 479.796 114.630 L 477.137 113.241 L 478.111 111.215 L 478.950 109.129 L 479.648 106.992 L 480.204 104.813 L 483.134 105.458 Z" fill="none" stroke="#ff0000" stroke-width="0.01"/>
  <path d="M 478.233 117.337 L 476.854 119.358 L 475.344 121.283 L 473.710 123.104 L 471.959 124.814 L 469.935 122.599 L 471.544 121.028 L 473.046 119.355 L 474.433 117.586 L 475.700 115.729 L 478.233 117.337 Z" fill="none" stroke="#ff0000" stroke-width="0.01"/>
  <path d="M 469.565 126.823 L 467.577 128.250 L 465.500 129.543 L 463.342 130.696 L 461.112 131.703 L 459.968 128.930 L 462.017 128.004 L 464.000 126.945 L 465.909 125.757 L 467.735 124.445 L 469.565 126.823 Z" fill="none" stroke="#ff0000" stroke-width="0.01"/>
  <path d="M 458.175 132.772 L 455.819 133.434 L 453.425 133.938 L 451.003 134.283 L 448.563 134.467 L 448.436 131.470 L 450.678 131.300 L 452.904 130.983 L 455.104 130.520 L 457.269 129.912 L 458.175 132.772 Z" fill="none" stroke="#ff0000" stroke-width="0.01"/>
</svg>
