<?xml version="1.0" encoding="UTF-8"?>
<svg xmlns="http://www.w3.org/2000/svg" width="579mm" height="323.24mm" viewBox="0 0 579 323.24">
<!-- Ponoko sheet: 579x323.24mm. Red=cut, Blue=engrave. -->
  <text x="0" y="-2" font-size="4" fill="#cccccc" font-family="monospace">FRONT (3mm)</text>
  <text x="192" y="-2" font-size="4" fill="#cccccc" font-family="monospace">BACK (3mm)</text>
  <text x="384" y="-2" font-size="4" fill="#cccccc" font-family="monospace">TOP (3mm)</text>
  <path d="M 5.000 3.000 L 8.471 3.000 L 8.471 0.000 L 19.941 0.000 L 19.941 3.000 L 31.412 3.000 L 31.412 0.000 L 42.882 0.000 L 42.882 3.000 L 54.353 3.000 L 54.353 0.000 L 65.824 0.000 L 65.824 3.000 L 77.294 3.000 L 77.294 0.000 L 88.765 0.000 L 88.765 3.000 L 100.235 3.000 L 100.235 0.000 L 111.706 0.000 L 111.706 3.000 L 123.176 3.000 L 123.176 0.000 L 134.647 0.000 L 134.647 3.000 L 146.118 3.000 L 146.118 0.000 L 157.588 0.000 L 157.588 3.000 L 169.059 3.000 L 169.059 0.000 L 180.529 0.000 L 180.529 3.000 L 184.000 3.000 L 184.000 14.676 L 184.000 26.351 L 189.000 26.351 L 189.000 38.027 L 184.000 38.027 L 184.000 49.702 L 189.000 49.702 L 189.000 61.378 L 184.000 61.378 L 184.000 73.053 L 189.000 73.053 L 189.000 84.729 L 184.000 84.729 L 184.000 96.404 L 189.000 96.404 L 189.000 108.080 L 184.000 108.080 L 184.000 119.756 L 189.000 119.756 L 189.000 131.431 L 184.000 131.431 L 184.000 143.107 L 189.000 143.107 L 189.000 154.782 L 184.000 154.782 L 184.000 166.458 L 189.000 166.458 L 189.000 178.133 L 184.000 178.133 L 184.000 189.809 L 189.000 189.809 L 189.000 201.484 L 184.000 201.484 L 184.000 213.160 L 189.000 213.160 L 189.000 224.836 L 184.000 224.836 L 184.000 236.511 L 189.000 236.511 L 189.000 248.187 L 184.000 248.187 L 184.000 259.862 L 189.000 259.862 L 189.000 271.538 L 184.000 271.538 L 184.000 283.213 L 189.000 283.213 L 189.000 294.889 L 184.000 294.889 L 184.000 306.564 L 184.000 318.240 L 180.529 318.240 L 180.529 323.240 L 169.059 323.240 L 169.059 318.240 L 157.588 318.240 L 157.588 323.240 L 146.118 323.240 L 146.118 318.240 L 134.647 318.240 L 134.647 323.240 L 123.176 323.240 L 123.176 318.240 L 111.706 318.240 L 111.706 323.240 L 100.235 323.240 L 100.235 318.240 L 88.765 318.240 L 88.765 323.240 L 77.294 323.240 L 77.294 318.240 L 65.824 318.240 L 65.824 323.240 L 54.353 323.240 L 54.353 318.240 L 42.882 318.240 L 42.882 323.240 L 31.412 323.240 L 31.412 318.240 L 19.941 318.240 L 19.941 323.240 L 8.471 323.240 L 8.471 318.240 L 5.000 318.240 L 5.000 306.564 L 5.000 294.889 L 0.000 294.889 L 0.000 283.213 L 5.000 283.213 L 5.000 271.538 L 0.000 271.538 L 0.000 259.862 L 5.000 259.862 L 5.000 248.187 L 0.000 248.187 L 0.000 236.511 L 5.000 236.511 L 5.000 224.836 L 0.000 224.836 L 0.000 213.160 L 5.000 213.160 L 5.000 201.484 L 0.000 201.484 L 0.000 189.809 L 5.000 189.809 L 5.000 178.133 L 0.000 178.133 L 0.000 166.458 L 5.000 166.458 L 5.000 154.782 L 0.000 154.782 L 0.000 143.107 L 5.000 143.107 L 5.000 131.431 L 0.000 131.431 L 0.000 119.756 L 5.000 119.756 L 5.000 108.080 L 0.000 108.080 L 0.000 96.404 L 5.000 96.404 L 5.000 84.729 L 0.000 84.729 L 0.000 73.053 L 5.000 73.053 L 5.000 61.378 L 0.000 61.378 L 0.000 49.702 L 5.000 49.702 L 5.000 38.027 L 0.000 38.027 L 0.000 26.351 L 5.000 26.351 L 5.000 14.676 Z" fill="none" stroke="#ff0000" stroke-width="0.01"/>
  <rect x="67.75" y="292.29" width="17.9" height="16.5" rx="1.5" ry="1.5" fill="none" stroke="#ff0000" stroke-width="0.01"/>
  <rect x="87.8" y="290.19" width="15.6" height="17.6" rx="1.5" ry="1.5" fill="none" stroke="#ff0000" stroke-width="0.01"/>
  <rect x="105.6" y="290.19" width="15.8" height="17.6" rx="1.5" ry="1.5" fill="none" stroke="#ff0000" stroke-width="0.01"/>
  <rect x="101.1" y="279.59" width="20.8" height="8.1" rx="1.5" ry="1.5" fill="none" stroke="#ff0000" stroke-width="0.01"/>
  <circle cx="49.5" cy="305.24" r="4" fill="none" stroke="#ff0000" stroke-width="0.01"/>
  <rect x="25.0" y="261.99" width="22" height="2.5" rx="1.25" ry="1.25" fill="none" stroke="#ff0000" stroke-width="0.01"/>
  <rect x="83.5" y="261.99" width="22" height="2.5" rx="1.25" ry="1.25" fill="none" stroke="#ff0000" stroke-width="0.01"/>
  <rect x="142.0" y="261.99" width="22" height="2.5" rx="1.25" ry="1.25" fill="none" stroke="#ff0000" stroke-width="0.01"/>
  <rect x="25.0" y="247.74" width="22" height="2.5" rx="1.25" ry="1.25" fill="none" stroke="#ff0000" stroke-width="0.01"/>
  <rect x="83.5" y="247.74" width="22" height="2.5" rx="1.25" ry="1.25" fill="none" stroke="#ff0000" stroke-width="0.01"/>
  <rect x="142.0" y="247.74" width="22" height="2.5" rx="1.25" ry="1.25" fill="none" stroke="#ff0000" stroke-width="0.01"/>
  <rect x="25.0" y="233.49" width="22" height="2.5" rx="1.25" ry="1.25" fill="none" stroke="#ff0000" stroke-width="0.01"/>
  <rect x="83.5" y="233.49" width="22" height="2.5" rx="1.25" ry="1.25" fill="none" stroke="#ff0000" stroke-width="0.01"/>
  <rect x="142.0" y="233.49" width="22" height="2.5" rx="1.25" ry="1.25" fill="none" stroke="#ff0000" stroke-width="0.01"/>
  <rect x="25.0" y="219.24" width="22" height="2.5" rx="1.25" ry="1.25" fill="none" stroke="#ff0000" stroke-width="0.01"/>
  <rect x="83.5" y="219.24" width="22" height="2.5" rx="1.25" ry="1.25" fill="none" stroke="#ff0000" stroke-width="0.01"/>
  <rect x="142.0" y="219.24" width="22" height="2.5" rx="1.25" ry="1.25" fill="none" stroke="#ff0000" stroke-width="0.01"/>
  <rect x="25.0" y="204.99" width="22" height="2.5" rx="1.25" ry="1.25" fill="none" stroke="#ff0000" stroke-width="0.01"/>
  <rect x="83.5" y="204.99" width="22" height="2.5" rx="1.25" ry="1.25" fill="none" stroke="#ff0000" stroke-width="0.01"/>
  <rect x="142.0" y="204.99" width="22" height="2.5" rx="1.25" ry="1.25" fill="none" stroke="#ff0000" stroke-width="0.01"/>
  <rect x="25.0" y="179.99" width="22" height="2.5" rx="1.25" ry="1.25" fill="none" stroke="#ff0000" stroke-width="0.01"/>
  <rect x="83.5" y="179.99" width="22" height="2.5" rx="1.25" ry="1.25" fill="none" stroke="#ff0000" stroke-width="0.01"/>
  <rect x="142.0" y="179.99" width="22" height="2.5" rx="1.25" ry="1.25" fill="none" stroke="#ff0000" stroke-width="0.01"/>
  <rect x="25.0" y="162.563" width="22" height="2.5" rx="1.25" ry="1.25" fill="none" stroke="#ff0000" stroke-width="0.01"/>
  <rect x="83.5" y="162.563" width="22" height="2.5" rx="1.25" ry="1.25" fill="none" stroke="#ff0000" stroke-width="0.01"/>
  <rect x="142.0" y="162.563" width="22" height="2.5" rx="1.25" ry="1.25" fill="none" stroke="#ff0000" stroke-width="0.01"/>
  <rect x="25.0" y="145.136" width="22" height="2.5" rx="1.25" ry="1.25" fill="none" stroke="#ff0000" stroke-width="0.01"/>
  <rect x="83.5" y="145.136" width="22" height="2.5" rx="1.25" ry="1.25" fill="none" stroke="#ff0000" stroke-width="0.01"/>
  <rect x="142.0" y="145.136" width="22" height="2.5" rx="1.25" ry="1.25" fill="none" stroke="#ff0000" stroke-width="0.01"/>
  <rect x="25.0" y="127.709" width="22" height="2.5" rx="1.25" ry="1.25" fill="none" stroke="#ff0000" stroke-width="0.01"/>
  <rect x="83.5" y="127.709" width="22" height="2.5" rx="1.25" ry="1.25" fill="none" stroke="#ff0000" stroke-width="0.01"/>
  <rect x="142.0" y="127.709" width="22" height="2.5" rx="1.25" ry="1.25" fill="none" stroke="#ff0000" stroke-width="0.01"/>
  <rect x="25.0" y="110.281" width="22" height="2.5" rx="1.25" ry="1.25" fill="none" stroke="#ff0000" stroke-width="0.01"/>
  <rect x="83.5" y="110.281" width="22" height="2.5" rx="1.25" ry="1.25" fill="none" stroke="#ff0000" stroke-width="0.01"/>
  <rect x="142.0" y="110.281" width="22" height="2.5" rx="1.25" ry="1.25" fill="none" stroke="#ff0000" stroke-width="0.01"/>
  <rect x="25.0" y="92.854" width="22" height="2.5" rx="1.25" ry="1.25" fill="none" stroke="#ff0000" stroke-width="0.01"/>
  <rect x="83.5" y="92.854" width="22" height="2.5" rx="1.25" ry="1.25" fill="none" stroke="#ff0000" stroke-width="0.01"/>
  <rect x="142.0" y="92.854" width="22" height="2.5" rx="1.25" ry="1.25" fill="none" stroke="#ff0000" stroke-width="0.01"/>
  <rect x="25.0" y="75.427" width="22" height="2.5" rx="1.25" ry="1.25" fill="none" stroke="#ff0000" stroke-width="0.01"/>
  <rect x="83.5" y="75.427" width="22" height="2.5" rx="1.25" ry="1.25" fill="none" stroke="#ff0000" stroke-width="0.01"/>
  <rect x="142.0" y="75.427" width="22" height="2.5" rx="1.25" ry="1.25" fill="none" stroke="#ff0000" stroke-width="0.01"/>
  <rect x="25.0" y="58.0" width="22" height="2.5" rx="1.25" ry="1.25" fill="none" stroke="#ff0000" stroke-width="0.01"/>
  <rect x="83.5" y="58.0" width="22" height="2.5" rx="1.25" ry="1.25" fill="none" stroke="#ff0000" stroke-width="0.01"/>
  <rect x="142.0" y="58.0" width="22" height="2.5" rx="1.25" ry="1.25" fill="none" stroke="#ff0000" stroke-width="0.01"/>
  <path d="M 197.000 3.000 L 200.471 3.000 L 200.471 0.000 L 211.941 0.000 L 211.941 3.000 L 223.412 3.000 L 223.412 0.000 L 234.882 0.000 L 234.882 3.000 L 246.353 3.000 L 246.353 0.000 L 257.824 0.000 L 257.824 3.000 L 269.294 3.000 L 269.294 0.000 L 280.765 0.000 L 280.765 3.000 L 292.235 3.000 L 292.235 0.000 L 303.706 0.000 L 303.706 3.000 L 315.176 3.000 L 315.176 0.000 L 326.647 0.000 L 326.647 3.000 L 338.118 3.000 L 338.118 0.000 L 349.588 0.000 L 349.588 3.000 L 361.059 3.000 L 361.059 0.000 L 372.529 0.000 L 372.529 3.000 L 376.000 3.000 L 376.000 14.676 L 376.000 26.351 L 381.000 26.351 L 381.000 38.027 L 376.000 38.027 L 376.000 49.702 L 381.000 49.702 L 381.000 61.378 L 376.000 61.378 L 376.000 73.053 L 381.000 73.053 L 381.000 84.729 L 376.000 84.729 L 376.000 96.404 L 381.000 96.404 L 381.000 108.080 L 376.000 108.080 L 376.000 119.756 L 381.000 119.756 L 381.000 131.431 L 376.000 131.431 L 376.000 143.107 L 381.000 143.107 L 381.000 154.782 L 376.000 154.782 L 376.000 166.458 L 381.000 166.458 L 381.000 178.133 L 376.000 178.133 L 376.000 189.809 L 381.000 189.809 L 381.000 201.484 L 376.000 201.484 L 376.000 213.160 L 381.000 213.160 L 381.000 224.836 L 376.000 224.836 L 376.000 236.511 L 381.000 236.511 L 381.000 248.187 L 376.000 248.187 L 376.000 259.862 L 381.000 259.862 L 381.000 271.538 L 376.000 271.538 L 376.000 283.213 L 381.000 283.213 L 381.000 294.889 L 376.000 294.889 L 376.000 306.564 L 376.000 318.240 L 372.529 318.240 L 372.529 323.240 L 361.059 323.240 L 361.059 318.240 L 349.588 318.240 L 349.588 323.240 L 338.118 323.240 L 338.118 318.240 L 326.647 318.240 L 326.647 323.240 L 315.176 323.240 L 315.176 318.240 L 303.706 318.240 L 303.706 323.240 L 292.235 323.240 L 292.235 318.240 L 280.765 318.240 L 280.765 323.240 L 269.294 323.240 L 269.294 318.240 L 257.824 318.240 L 257.824 323.240 L 246.353 323.240 L 246.353 318.240 L 234.882 318.240 L 234.882 323.240 L 223.412 323.240 L 223.412 318.240 L 211.941 318.240 L 211.941 323.240 L 200.471 323.240 L 200.471 318.240 L 197.000 318.240 L 197.000 306.564 L 197.000 294.889 L 192.000 294.889 L 192.000 283.213 L 197.000 283.213 L 197.000 271.538 L 192.000 271.538 L 192.000 259.862 L 197.000 259.862 L 197.000 248.187 L 192.000 248.187 L 192.000 236.511 L 197.000 236.511 L 197.000 224.836 L 192.000 224.836 L 192.000 213.160 L 197.000 213.160 L 197.000 201.484 L 192.000 201.484 L 192.000 189.809 L 197.000 189.809 L 197.000 178.133 L 192.000 178.133 L 192.000 166.458 L 197.000 166.458 L 197.000 154.782 L 192.000 154.782 L 192.000 143.107 L 197.000 143.107 L 197.000 131.431 L 192.000 131.431 L 192.000 119.756 L 197.000 119.756 L 197.000 108.080 L 192.000 108.080 L 192.000 96.404 L 197.000 96.404 L 197.000 84.729 L 192.000 84.729 L 192.000 73.053 L 197.000 73.053 L 197.000 61.378 L 192.000 61.378 L 192.000 49.702 L 197.000 49.702 L 197.000 38.027 L 192.000 38.027 L 192.000 26.351 L 197.000 26.351 L 197.000 14.676 Z" fill="none" stroke="#ff0000" stroke-width="0.01"/>
  <path d="M 234.123 73.487 L 227.643 94.487" fill="none" stroke="#0000ff" stroke-width="0.01"/>
  <path d="M 233.550 73.310 L 227.070 94.310" fill="none" stroke="#0000ff" stroke-width="0.01"/>
  <path d="M 232.977 73.133 L 226.497 94.133" fill="none" stroke="#0000ff" stroke-width="0.01"/>
  <path d="M 233.550 72.710 L 238.950 72.710" fill="none" stroke="#0000ff" stroke-width="0.01"/>
  <path d="M 233.550 73.310 L 238.950 73.310" fill="none" stroke="#0000ff" stroke-width="0.01"/>
  <path d="M 233.550 73.910 L 238.950 73.910" fill="none" stroke="#0000ff" stroke-width="0.01"/>
  <path d="M 239.167 72.751 L 243.037 74.251" fill="none" stroke="#0000ff" stroke-width="0.01"/>
  <path d="M 238.950 73.310 L 242.820 74.810" fill="none" stroke="#0000ff" stroke-width="0.01"/>
  <path d="M 238.733 73.869 L 242.603 75.369" fill="none" stroke="#0000ff" stroke-width="0.01"/>
  <path d="M 243.420 74.798 L 243.492 78.398" fill="none" stroke="#0000ff" stroke-width="0.01"/>
  <path d="M 242.820 74.810 L 242.892 78.410" fill="none" stroke="#0000ff" stroke-width="0.01"/>
  <path d="M 242.220 74.822 L 242.292 78.422" fill="none" stroke="#0000ff" stroke-width="0.01"/>
  <path d="M 243.456 78.616 L 242.034 82.516" fill="none" stroke="#0000ff" stroke-width="0.01"/>
  <path d="M 242.892 78.410 L 241.470 82.310" fill="none" stroke="#0000ff" stroke-width="0.01"/>
  <path d="M 242.328 78.204 L 240.906 82.104" fill="none" stroke="#0000ff" stroke-width="0.01"/>
  <path d="M 241.663 82.878 L 237.253 84.378" fill="none" stroke="#0000ff" stroke-width="0.01"/>
  <path d="M 241.470 82.310 L 237.060 83.810" fill="none" stroke="#0000ff" stroke-width="0.01"/>
  <path d="M 241.277 81.742 L 236.867 83.242" fill="none" stroke="#0000ff" stroke-width="0.01"/>
  <path d="M 237.060 84.410 L 230.760 84.410" fill="none" stroke="#0000ff" stroke-width="0.01"/>
  <path d="M 237.060 83.810 L 230.760 83.810" fill="none" stroke="#0000ff" stroke-width="0.01"/>
  <path d="M 237.060 83.210 L 230.760 83.210" fill="none" stroke="#0000ff" stroke-width="0.01"/>
  <path d="M 256.925 73.482 L 252.425 88.482" fill="none" stroke="#0000ff" stroke-width="0.01"/>
  <path d="M 256.350 73.310 L 251.850 88.310" fill="none" stroke="#0000ff" stroke-width="0.01"/>
  <path d="M 255.775 73.138 L 251.275 88.138" fill="none" stroke="#0000ff" stroke-width="0.01"/>
  <path d="M 259.094 68.409 L 258.356 70.509" fill="none" stroke="#0000ff" stroke-width="0.01"/>
  <path d="M 258.528 68.210 L 257.790 70.310" fill="none" stroke="#0000ff" stroke-width="0.01"/>
  <path d="M 257.962 68.011 L 257.224 70.111" fill="none" stroke="#0000ff" stroke-width="0.01"/>
  <path d="M 272.670 78.710 L 283.470 78.710" fill="none" stroke="#0000ff" stroke-width="0.01"/>
  <path d="M 272.670 79.310 L 283.470 79.310" fill="none" stroke="#0000ff" stroke-width="0.01"/>
  <path d="M 272.670 79.910 L 283.470 79.910" fill="none" stroke="#0000ff" stroke-width="0.01"/>
  <path d="M 297.125 73.482 L 292.625 88.482" fill="none" stroke="#0000ff" stroke-width="0.01"/>
  <path d="M 296.550 73.310 L 292.050 88.310" fill="none" stroke="#0000ff" stroke-width="0.01"/>
  <path d="M 295.975 73.138 L 291.475 88.138" fill="none" stroke="#0000ff" stroke-width="0.01"/>
  <path d="M 295.311 77.390 L 299.721 72.890" fill="none" stroke="#0000ff" stroke-width="0.01"/>
  <path d="M 295.740 77.810 L 300.150 73.310" fill="none" stroke="#0000ff" stroke-width="0.01"/>
  <path d="M 296.169 78.230 L 300.579 73.730" fill="none" stroke="#0000ff" stroke-width="0.01"/>
  <path d="M 300.150 72.710 L 303.750 72.710" fill="none" stroke="#0000ff" stroke-width="0.01"/>
  <path d="M 300.150 73.310 L 303.750 73.310" fill="none" stroke="#0000ff" stroke-width="0.01"/>
  <path d="M 300.150 73.910 L 303.750 73.910" fill="none" stroke="#0000ff" stroke-width="0.01"/>
  <path d="M 304.336 73.181 L 305.326 77.681" fill="none" stroke="#0000ff" stroke-width="0.01"/>
  <path d="M 303.750 73.310 L 304.740 77.810" fill="none" stroke="#0000ff" stroke-width="0.01"/>
  <path d="M 303.164 73.439 L 304.154 77.939" fill="none" stroke="#0000ff" stroke-width="0.01"/>
  <path d="M 305.306 78.009 L 301.616 88.509" fill="none" stroke="#0000ff" stroke-width="0.01"/>
  <path d="M 304.740 77.810 L 301.050 88.310" fill="none" stroke="#0000ff" stroke-width="0.01"/>
  <path d="M 304.174 77.611 L 300.484 88.111" fill="none" stroke="#0000ff" stroke-width="0.01"/>
  <path d="M 325.650 73.910 L 322.050 73.910" fill="none" stroke="#0000ff" stroke-width="0.01"/>
  <path d="M 325.650 73.310 L 322.050 73.310" fill="none" stroke="#0000ff" stroke-width="0.01"/>
  <path d="M 325.650 72.710 L 322.050 72.710" fill="none" stroke="#0000ff" stroke-width="0.01"/>
  <path d="M 322.357 73.826 L 317.317 76.826" fill="none" stroke="#0000ff" stroke-width="0.01"/>
  <path d="M 322.050 73.310 L 317.010 76.310" fill="none" stroke="#0000ff" stroke-width="0.01"/>
  <path d="M 321.743 72.794 L 316.703 75.794" fill="none" stroke="#0000ff" stroke-width="0.01"/>
  <path d="M 317.571 76.523 L 315.861 81.023" fill="none" stroke="#0000ff" stroke-width="0.01"/>
  <path d="M 317.010 76.310 L 315.300 80.810" fill="none" stroke="#0000ff" stroke-width="0.01"/>
  <path d="M 316.449 76.097 L 314.739 80.597" fill="none" stroke="#0000ff" stroke-width="0.01"/>
  <path d="M 315.900 80.798 L 315.990 85.298" fill="none" stroke="#0000ff" stroke-width="0.01"/>
  <path d="M 315.300 80.810 L 315.390 85.310" fill="none" stroke="#0000ff" stroke-width="0.01"/>
  <path d="M 314.700 80.822 L 314.790 85.322" fill="none" stroke="#0000ff" stroke-width="0.01"/>
  <path d="M 315.752 84.832 L 319.712 87.832" fill="none" stroke="#0000ff" stroke-width="0.01"/>
  <path d="M 315.390 85.310 L 319.350 88.310" fill="none" stroke="#0000ff" stroke-width="0.01"/>
  <path d="M 315.028 85.788 L 318.988 88.788" fill="none" stroke="#0000ff" stroke-width="0.01"/>
  <path d="M 319.080 87.774 L 322.050 86.274" fill="none" stroke="#0000ff" stroke-width="0.01"/>
  <path d="M 319.350 88.310 L 322.320 86.810" fill="none" stroke="#0000ff" stroke-width="0.01"/>
  <path d="M 319.620 88.846 L 322.590 87.346" fill="none" stroke="#0000ff" stroke-width="0.01"/>
  <path d="M 327.652 73.519 L 322.072 88.519" fill="none" stroke="#0000ff" stroke-width="0.01"/>
  <path d="M 327.090 73.310 L 321.510 88.310" fill="none" stroke="#0000ff" stroke-width="0.01"/>
  <path d="M 326.528 73.101 L 320.948 88.101" fill="none" stroke="#0000ff" stroke-width="0.01"/>
  <path d="M 347.034 75.357 L 343.704 73.857" fill="none" stroke="#0000ff" stroke-width="0.01"/>
  <path d="M 347.280 74.810 L 343.950 73.310" fill="none" stroke="#0000ff" stroke-width="0.01"/>
  <path d="M 347.526 74.263 L 344.196 72.763" fill="none" stroke="#0000ff" stroke-width="0.01"/>
  <path d="M 344.064 73.899 L 339.402 74.799" fill="none" stroke="#0000ff" stroke-width="0.01"/>
  <path d="M 343.950 73.310 L 339.288 74.210" fill="none" stroke="#0000ff" stroke-width="0.01"/>
  <path d="M 343.836 72.721 L 339.174 73.621" fill="none" stroke="#0000ff" stroke-width="0.01"/>
  <path d="M 339.789 74.541 L 337.809 77.541" fill="none" stroke="#0000ff" stroke-width="0.01"/>
  <path d="M 339.288 74.210 L 337.308 77.210" fill="none" stroke="#0000ff" stroke-width="0.01"/>
  <path d="M 338.787 73.879 L 336.807 76.879" fill="none" stroke="#0000ff" stroke-width="0.01"/>
  <path d="M 337.822 76.901 L 339.622 79.901" fill="none" stroke="#0000ff" stroke-width="0.01"/>
  <path d="M 337.308 77.210 L 339.108 80.210" fill="none" stroke="#0000ff" stroke-width="0.01"/>
  <path d="M 336.794 77.519 L 338.594 80.519" fill="none" stroke="#0000ff" stroke-width="0.01"/>
  <path d="M 339.380 79.675 L 343.502 81.775" fill="none" stroke="#0000ff" stroke-width="0.01"/>
  <path d="M 339.108 80.210 L 343.230 82.310" fill="none" stroke="#0000ff" stroke-width="0.01"/>
  <path d="M 338.836 80.745 L 342.958 82.845" fill="none" stroke="#0000ff" stroke-width="0.01"/>
  <path d="M 343.805 82.138 L 344.705 85.138" fill="none" stroke="#0000ff" stroke-width="0.01"/>
  <path d="M 343.230 82.310 L 344.130 85.310" fill="none" stroke="#0000ff" stroke-width="0.01"/>
  <path d="M 342.655 82.482 L 343.555 85.482" fill="none" stroke="#0000ff" stroke-width="0.01"/>
  <path d="M 344.563 85.726 L 341.683 88.726" fill="none" stroke="#0000ff" stroke-width="0.01"/>
  <path d="M 344.130 85.310 L 341.250 88.310" fill="none" stroke="#0000ff" stroke-width="0.01"/>
  <path d="M 343.697 84.894 L 340.817 87.894" fill="none" stroke="#0000ff" stroke-width="0.01"/>
  <path d="M 341.128 88.897 L 336.790 87.997" fill="none" stroke="#0000ff" stroke-width="0.01"/>
  <path d="M 341.250 88.310 L 336.912 87.410" fill="none" stroke="#0000ff" stroke-width="0.01"/>
  <path d="M 341.372 87.723 L 337.034 86.823" fill="none" stroke="#0000ff" stroke-width="0.01"/>
  <path d="M 336.510 87.855 L 334.188 85.755" fill="none" stroke="#0000ff" stroke-width="0.01"/>
  <path d="M 336.912 87.410 L 334.590 85.310" fill="none" stroke="#0000ff" stroke-width="0.01"/>
  <path d="M 337.314 86.965 L 334.992 84.865" fill="none" stroke="#0000ff" stroke-width="0.01"/>
  <path d="M 384.000 3.000 L 384.000 0.000 L 395.471 0.000 L 395.471 3.000 L 406.941 3.000 L 406.941 0.000 L 418.412 0.000 L 418.412 3.000 L 429.882 3.000 L 429.882 0.000 L 441.353 0.000 L 441.353 3.000 L 452.824 3.000 L 452.824 0.000 L 464.294 0.000 L 464.294 3.000 L 475.765 3.000 L 475.765 0.000 L 487.235 0.000 L 487.235 3.000 L 498.706 3.000 L 498.706 0.000 L 510.176 0.000 L 510.176 3.000 L 521.647 3.000 L 521.647 0.000 L 533.118 0.000 L 533.118 3.000 L 544.588 3.000 L 544.588 0.000 L 556.059 0.000 L 556.059 3.000 L 567.529 3.000 L 567.529 0.000 L 579.000 0.000 L 579.000 3.000 L 579.000 123.000 L 579.000 126.000 L 567.529 126.000 L 567.529 123.000 L 556.059 123.000 L 556.059 126.000 L 544.588 126.000 L 544.588 123.000 L 533.118 123.000 L 533.118 126.000 L 521.647 126.000 L 521.647 123.000 L 510.176 123.000 L 510.176 126.000 L 498.706 126.000 L 498.706 123.000 L 487.235 123.000 L 487.235 126.000 L 475.765 126.000 L 475.765 123.000 L 464.294 123.000 L 464.294 126.000 L 452.824 126.000 L 452.824 123.000 L 441.353 123.000 L 441.353 126.000 L 429.882 126.000 L 429.882 123.000 L 418.412 123.000 L 418.412 126.000 L 406.941 126.000 L 406.941 123.000 L 395.471 123.000 L 395.471 126.000 L 384.000 126.000 L 384.000 123.000 L 384.000 3.000 Z" fill="none" stroke="#ff0000" stroke-width="0.01"/>
  <rect x="387.0" y="3.0" width="5" height="10.909" fill="none" stroke="#ff0000" stroke-width="0.01"/>
  <rect x="387.0" y="24.818" width="5" height="10.909" fill="none" stroke="#ff0000" stroke-width="0.01"/>
  <rect x="387.0" y="46.636" width="5" height="10.909" fill="none" stroke="#ff0000" stroke-width="0.01"/>
  <rect x="387.0" y="68.455" width="5" height="10.909" fill="none" stroke="#ff0000" stroke-width="0.01"/>
  <rect x="387.0" y="90.273" width="5" height="10.909" fill="none" stroke="#ff0000" stroke-width="0.01"/>
  <rect x="387.0" y="112.091" width="5" height="10.909" fill="none" stroke="#ff0000" stroke-width="0.01"/>
  <rect x="571.0" y="3.0" width="5" height="10.909" fill="none" stroke="#ff0000" stroke-width="0.01"/>
  <rect x="571.0" y="24.818" width="5" height="10.909" fill="none" stroke="#ff0000" stroke-width="0.01"/>
  <rect x="571.0" y="46.636" width="5" height="10.909" fill="none" stroke="#ff0000" stroke-width="0.01"/>
  <rect x="571.0" y="68.455" width="5" height="10.909" fill="none" stroke="#ff0000" stroke-width="0.01"/>
  <rect x="571.0" y="90.273" width="5" height="10.909" fill="none" stroke="#ff0000" stroke-width="0.01"/>
  <rect x="571.0" y="112.091" width="5" height="10.909" fill="none" stroke="#ff0000" stroke-width="0.01"/>
  <circle cx="397.0" cy="16.0" r="2.25" fill="none" stroke="#ff0000" stroke-width="0.01"/>
  <circle cx="566.0" cy="16.0" r="2.25" fill="none" stroke="#ff0000" stroke-width="0.01"/>
  <circle cx="397.0" cy="110.0" r="2.25" fill="none" stroke="#ff0000" stroke-width="0.01"/>
  <circle cx="566.0" cy="110.0" r="2.25" fill="none" stroke="#ff0000" stroke-width="0.01"/>
  <path d="M 490.321 64.788 L 489.430 67.257 L 487.864 69.364 L 485.757 70.930 L 483.288 71.821 L 482.692 68.880 L 484.338 68.286 L 485.743 67.243 L 486.786 65.838 L 487.380 64.192 L 490.321 64.788 Z" fill="none" stroke="#ff0000" stroke-width="0.01"/>
  <path d="M 479.712 71.821 L 477.243 70.930 L 475.136 69.364 L 473.570 67.257 L 472.679 64.788 L 475.620 64.192 L 476.214 65.838 L 477.257 67.243 L 478.662 68.286 L 480.308 68.880 L 479.712 71.821 Z" fill="none" stroke="#ff0000" stroke-width="0.01"/>
  <path d="M 472.679 61.212 L 473.570 58.743 L 475.136 56.636 L 477.243 55.070 L 479.712 54.179 L 480.308 57.120 L 478.662 57.714 L 477.257 58.757 L 476.214 60.162 L 475.620 61.808 L 472.679 61.212 Z" fill="none" stroke="#ff0000" stroke-width="0.01"/>
  <path d="M 483.288 54.179 L 485.757 55.070 L 487.864 56.636 L 489.430 58.743 L 490.321 61.212 L 487.380 61.808 L 486.786 60.162 L 485.743 58.757 L 484.338 57.714 L 482.692 57.120 L 483.288 54.179 Z" fill="none" stroke="#ff0000" stroke-width="0.01"/>
  <path d="M 497.414 64.652 L 497.035 66.828 L 496.360 68.931 L 495.402 70.920 L 494.179 72.759 L 492.714 74.412 L 490.612 72.272 L 491.802 70.929 L 492.795 69.435 L 493.574 67.819 L 494.122 66.110 L 494.431 64.342 L 497.414 64.652 Z" fill="none" stroke="#ff0000" stroke-width="0.01"/>
  <path d="M 490.131 76.473 L 488.193 77.533 L 486.128 78.316 L 483.975 78.807 L 481.775 78.998 L 479.569 78.883 L 479.931 75.905 L 481.723 75.998 L 483.511 75.843 L 485.261 75.444 L 486.938 74.808 L 488.512 73.946 L 490.131 76.473 Z" fill="none" stroke="#ff0000" stroke-width="0.01"/>
  <path d="M 476.348 78.148 L 474.311 77.294 L 472.411 76.168 L 470.685 74.791 L 469.164 73.189 L 467.878 71.394 L 470.432 69.820 L 471.477 71.279 L 472.713 72.580 L 474.115 73.699 L 475.659 74.614 L 477.314 75.308 L 476.348 78.148 Z" fill="none" stroke="#ff0000" stroke-width="0.01"/>
  <path d="M 466.445 68.416 L 465.842 66.292 L 465.538 64.104 L 465.538 61.896 L 465.842 59.708 L 466.445 57.584 L 469.268 58.599 L 468.778 60.325 L 468.531 62.103 L 468.531 63.897 L 468.778 65.675 L 469.268 67.401 L 466.445 68.416 Z" fill="none" stroke="#ff0000" stroke-width="0.01"/>
  <path d="M 467.878 54.606 L 469.164 52.811 L 470.685 51.209 L 472.411 49.832 L 474.311 48.706 L 476.348 47.852 L 477.314 50.692 L 475.659 51.386 L 474.115 52.301 L 472.713 53.420 L 471.477 54.721 L 470.432 56.180 L 467.878 54.606 Z" fill="none" stroke="#ff0000" stroke-width="0.01"/>
  <path d="M 479.569 47.117 L 481.775 47.002 L 483.975 47.193 L 486.128 47.684 L 488.193 48.467 L 490.131 49.527 L 488.512 52.054 L 486.938 51.192 L 485.261 50.556 L 483.511 50.157 L 481.723 50.002 L 479.931 50.095 L 479.569 47.117 Z" fill="none" stroke="#ff0000" stroke-width="0.01"/>
  <path d="M 492.714 51.588 L 494.179 53.241 L 495.402 55.080 L 496.360 57.069 L 497.035 59.172 L 497.414 61.348 L 494.431 61.658 L 494.122 59.890 L 493.574 58.181 L 492.795 56.565 L 491.802 55.071 L 490.612 53.728 L 492.714 51.588 Z" fill="none" stroke="#ff0000" stroke-width="0.01"/>
  <path d="M 504.444 64.603 L 504.138 67.065 L 503.568 69.480 L 502.742 71.819 L 501.669 74.056 L 499.038 72.614 L 499.971 70.669 L 500.690 68.635 L 501.185 66.535 L 501.451 64.394 L 504.444 64.603 Z" fill="none" stroke="#ff0000" stroke-width="0.01"/>
  <path d="M 499.935 76.753 L 498.346 78.659 L 496.562 80.382 L 494.602 81.903 L 492.490 83.205 L 491.056 80.569 L 492.893 79.438 L 494.597 78.115 L 496.149 76.616 L 497.530 74.959 L 499.935 76.753 Z" fill="none" stroke="#ff0000" stroke-width="0.01"/>
  <path d="M 489.573 84.537 L 487.206 85.281 L 484.773 85.766 L 482.302 85.986 L 479.822 85.939 L 480.041 82.947 L 482.198 82.988 L 484.346 82.796 L 486.462 82.375 L 488.520 81.728 L 489.573 84.537 Z" fill="none" stroke="#ff0000" stroke-width="0.01"/>
  <path d="M 476.648 85.482 L 474.254 84.829 L 471.945 83.922 L 469.748 82.771 L 467.687 81.390 L 469.488 78.991 L 471.281 80.192 L 473.192 81.193 L 475.199 81.982 L 477.281 82.550 L 476.648 85.482 Z" fill="none" stroke="#ff0000" stroke-width="0.01"/>
  <path d="M 465.263 79.290 L 463.603 77.446 L 462.151 75.435 L 460.924 73.278 L 459.937 71.002 L 462.750 69.959 L 463.608 71.938 L 464.675 73.813 L 465.937 75.562 L 467.381 77.165 L 465.263 79.290 Z" fill="none" stroke="#ff0000" stroke-width="0.01"/>
  <path d="M 459.034 67.926 L 458.634 65.477 L 458.500 63.000 L 458.634 60.523 L 459.034 58.074 L 461.964 58.717 L 461.616 60.846 L 461.500 63.000 L 461.616 65.154 L 461.964 67.283 L 459.034 67.926 Z" fill="none" stroke="#ff0000" stroke-width="0.01"/>
  <path d="M 459.937 54.998 L 460.924 52.722 L 462.151 50.565 L 463.603 48.554 L 465.263 46.710 L 467.381 48.835 L 465.937 50.438 L 464.675 52.187 L 463.608 54.062 L 462.750 56.041 L 459.937 54.998 Z" fill="none" stroke="#ff0000" stroke-width="0.01"/>
  <path d="M 467.687 44.610 L 469.748 43.229 L 471.945 42.078 L 474.254 41.171 L 476.648 40.518 L 477.281 43.450 L 475.199 44.018 L 473.192 44.807 L 471.281 45.808 L 469.488 47.009 L 467.687 44.610 Z" fill="none" stroke="#ff0000" stroke-width="0.01"/>
  <path d="M 479.822 40.061 L 482.302 40.014 L 484.773 40.234 L 487.206 40.719 L 489.573 41.463 L 488.520 44.272 L 486.462 43.625 L 484.346 43.204 L 482.198 43.012 L 480.041 43.053 L 479.822 40.061 Z" fill="none" stroke="#ff0000" stroke-width="0.01"/>
  <path d="M 492.490 42.795 L 494.602 44.097 L 496.562 45.618 L 498.346 47.341 L 499.935 49.247 L 497.530 51.041 L 496.149 49.384 L 494.597 47.885 L 492.893 46.562 L 491.056 45.431 L 492.490 42.795 Z" fill="none" stroke="#ff0000" stroke-width="0.01"/>
  <path d="M 501.669 51.944 L 502.742 54.181 L 503.568 56.520 L 504.138 58.935 L 504.444 61.397 L 501.451 61.606 L 501.185 59.465 L 500.690 57.365 L 499.971 55.331 L 499.038 53.386 L 501.669 51.944 Z" fill="none" stroke="#ff0000" stroke-width="0.01"/>
  <path d="M 511.458 64.578 L 511.213 67.142 L 510.748 69.676 L 510.067 72.160 L 509.176 74.577 L 506.409 73.419 L 507.211 71.244 L 507.823 69.008 L 508.241 66.728 L 508.463 64.420 L 511.458 64.578 Z" fill="none" stroke="#ff0000" stroke-width="0.01"/>
  <path d="M 507.807 77.420 L 506.473 79.624 L 504.955 81.705 L 503.264 83.648 L 501.413 85.438 L 499.421 83.195 L 501.088 81.583 L 502.609 79.834 L 503.976 77.961 L 505.176 75.978 L 507.807 77.420 Z" fill="none" stroke="#ff0000" stroke-width="0.01"/>
  <path d="M 498.945 87.406 L 496.787 88.813 L 494.517 90.029 L 492.150 91.046 L 489.705 91.856 L 488.885 88.971 L 491.085 88.241 L 493.215 87.326 L 495.258 86.232 L 497.200 84.966 L 498.945 87.406 Z" fill="none" stroke="#ff0000" stroke-width="0.01"/>
  <path d="M 486.628 92.559 L 484.073 92.889 L 481.500 93.000 L 478.927 92.889 L 476.372 92.559 L 476.885 89.603 L 479.184 89.900 L 481.500 90.000 L 483.816 89.900 L 486.115 89.603 L 486.628 92.559 Z" fill="none" stroke="#ff0000" stroke-width="0.01"/>
  <path d="M 473.295 91.856 L 470.850 91.046 L 468.483 90.029 L 466.213 88.813 L 464.055 87.406 L 465.800 84.966 L 467.742 86.232 L 469.785 87.326 L 471.915 88.241 L 474.115 88.971 L 473.295 91.856 Z" fill="none" stroke="#ff0000" stroke-width="0.01"/>
  <path d="M 461.587 85.438 L 459.736 83.648 L 458.045 81.705 L 456.527 79.624 L 455.193 77.420 L 457.824 75.978 L 459.024 77.961 L 460.391 79.834 L 461.912 81.583 L 463.579 83.195 L 461.587 85.438 Z" fill="none" stroke="#ff0000" stroke-width="0.01"/>
  <path d="M 453.824 74.577 L 452.933 72.160 L 452.252 69.676 L 451.787 67.142 L 451.542 64.578 L 454.537 64.420 L 454.759 66.728 L 455.177 69.008 L 455.789 71.244 L 456.591 73.419 L 453.824 74.577 Z" fill="none" stroke="#ff0000" stroke-width="0.01"/>
  <path d="M 451.542 61.422 L 451.787 58.858 L 452.252 56.324 L 452.933 53.840 L 453.824 51.423 L 456.591 52.581 L 455.789 54.756 L 455.177 56.992 L 454.759 59.272 L 454.537 61.580 L 451.542 61.422 Z" fill="none" stroke="#ff0000" stroke-width="0.01"/>
  <path d="M 455.193 48.580 L 456.527 46.376 L 458.045 44.295 L 459.736 42.352 L 461.587 40.562 L 463.579 42.805 L 461.912 44.417 L 460.391 46.166 L 459.024 48.039 L 457.824 50.022 L 455.193 48.580 Z" fill="none" stroke="#ff0000" stroke-width="0.01"/>
  <path d="M 464.055 38.594 L 466.213 37.187 L 468.483 35.971 L 470.850 34.954 L 473.295 34.144 L 474.115 37.029 L 471.915 37.759 L 469.785 38.674 L 467.742 39.768 L 465.800 41.034 L 464.055 38.594 Z" fill="none" stroke="#ff0000" stroke-width="0.01"/>
  <path d="M 476.372 33.441 L 478.927 33.111 L 481.500 33.000 L 484.073 33.111 L 486.628 33.441 L 486.115 36.397 L 483.816 36.100 L 481.500 36.000 L 479.184 36.100 L 476.885 36.397 L 476.372 33.441 Z" fill="none" stroke="#ff0000" stroke-width="0.01"/>
  <path d="M 489.705 34.144 L 492.150 34.954 L 494.517 35.971 L 496.787 37.187 L 498.945 38.594 L 497.200 41.034 L 495.258 39.768 L 493.215 38.674 L 491.085 37.759 L 488.885 37.029 L 489.705 34.144 Z" fill="none" stroke="#ff0000" stroke-width="0.01"/>
  <path d="M 501.413 40.562 L 503.264 42.352 L 504.955 44.295 L 506.473 46.376 L 507.807 48.580 L 505.176 50.022 L 503.976 48.039 L 502.609 46.166 L 501.088 44.417 L 499.421 42.805 L 501.413 40.562 Z" fill="none" stroke="#ff0000" stroke-width="0.01"/>
  <path d="M 509.176 51.423 L 510.067 53.840 L 510.748 56.324 L 511.213 58.858 L 511.458 61.422 L 508.463 61.580 L 508.241 59.272 L 507.823 56.992 L 507.211 54.756 L 506.409 52.581 L 509.176 51.423 Z" fill="none" stroke="#ff0000" stroke-width="0.01"/>
  <path d="M 518.467 64.563 L 518.283 67.003 L 517.938 69.425 L 517.434 71.819 L 516.772 74.175 L 513.912 73.269 L 514.520 71.104 L 514.983 68.904 L 515.300 66.678 L 515.470 64.436 L 518.467 64.563 Z" fill="none" stroke="#ff0000" stroke-width="0.01"/>
  <path d="M 515.703 77.112 L 514.696 79.342 L 513.543 81.500 L 512.250 83.577 L 510.823 85.565 L 508.445 83.735 L 509.757 81.909 L 510.945 80.000 L 512.004 78.017 L 512.930 75.968 L 515.703 77.112 Z" fill="none" stroke="#ff0000" stroke-width="0.01"/>
  <path d="M 508.814 87.959 L 507.104 89.710 L 505.283 91.344 L 503.358 92.854 L 501.337 94.233 L 499.729 91.700 L 501.586 90.433 L 503.355 89.046 L 505.028 87.544 L 506.599 85.935 L 508.814 87.959 Z" fill="none" stroke="#ff0000" stroke-width="0.01"/>
  <path d="M 498.630 95.796 L 496.425 96.856 L 494.155 97.769 L 491.829 98.529 L 489.458 99.134 L 488.813 96.204 L 490.992 95.648 L 493.129 94.950 L 495.215 94.111 L 497.241 93.137 L 498.630 95.796 Z" fill="none" stroke="#ff0000" stroke-width="0.01"/>
  <path d="M 486.380 99.677 L 483.945 99.919 L 481.500 100.000 L 479.055 99.919 L 476.620 99.677 L 477.016 96.703 L 479.253 96.926 L 481.500 97.000 L 483.747 96.926 L 485.984 96.703 L 486.380 99.677 Z" fill="none" stroke="#ff0000" stroke-width="0.01"/>
  <path d="M 473.542 99.134 L 471.171 98.529 L 468.845 97.769 L 466.575 96.856 L 464.370 95.796 L 465.759 93.137 L 467.785 94.111 L 469.871 94.950 L 472.008 95.648 L 474.187 96.204 L 473.542 99.134 Z" fill="none" stroke="#ff0000" stroke-width="0.01"/>
  <path d="M 461.663 94.233 L 459.642 92.854 L 457.717 91.344 L 455.896 89.710 L 454.186 87.959 L 456.401 85.935 L 457.972 87.544 L 459.645 89.046 L 461.414 90.433 L 463.271 91.700 L 461.663 94.233 Z" fill="none" stroke="#ff0000" stroke-width="0.01"/>
  <path d="M 452.177 85.565 L 450.750 83.577 L 449.457 81.500 L 448.304 79.342 L 447.297 77.112 L 450.070 75.968 L 450.996 78.017 L 452.055 80.000 L 453.243 81.909 L 454.555 83.735 L 452.177 85.565 Z" fill="none" stroke="#ff0000" stroke-width="0.01"/>
  <path d="M 446.228 74.175 L 445.566 71.819 L 445.062 69.425 L 444.717 67.003 L 444.533 64.563 L 447.530 64.436 L 447.700 66.678 L 448.017 68.904 L 448.480 71.104 L 449.088 73.269 L 446.228 74.175 Z" fill="none" stroke="#ff0000" stroke-width="0.01"/>
  <path d="M 444.533 61.437 L 444.717 58.997 L 445.062 56.575 L 445.566 54.181 L 446.228 51.825 L 449.088 52.731 L 448.480 54.896 L 448.017 57.096 L 447.700 59.322 L 447.530 61.564 L 444.533 61.437 Z" fill="none" stroke="#ff0000" stroke-width="0.01"/>
  <path d="M 447.297 48.888 L 448.304 46.658 L 449.457 44.500 L 450.750 42.423 L 452.177 40.435 L 454.555 42.265 L 453.243 44.091 L 452.055 46.000 L 450.996 47.983 L 450.070 50.032 L 447.297 48.888 Z" fill="none" stroke="#ff0000" stroke-width="0.01"/>
  <path d="M 454.186 38.041 L 455.896 36.290 L 457.717 34.656 L 459.642 33.146 L 461.663 31.767 L 463.271 34.300 L 461.414 35.567 L 459.645 36.954 L 457.972 38.456 L 456.401 40.065 L 454.186 38.041 Z" fill="none" stroke="#ff0000" stroke-width="0.01"/>
  <path d="M 464.370 30.204 L 466.575 29.144 L 468.845 28.231 L 471.171 27.471 L 473.542 26.866 L 474.187 29.796 L 472.008 30.352 L 469.871 31.050 L 467.785 31.889 L 465.759 32.863 L 464.370 30.204 Z" fill="none" stroke="#ff0000" stroke-width="0.01"/>
  <path d="M 476.620 26.323 L 479.055 26.081 L 481.500 26.000 L 483.945 26.081 L 486.380 26.323 L 485.984 29.297 L 483.747 29.074 L 481.500 29.000 L 479.253 29.074 L 477.016 29.297 L 476.620 26.323 Z" fill="none" stroke="#ff0000" stroke-width="0.01"/>
  <path d="M 489.458 26.866 L 491.829 27.471 L 494.155 28.231 L 496.425 29.144 L 498.630 30.204 L 497.241 32.863 L 495.215 31.889 L 493.129 31.050 L 490.992 30.352 L 488.813 29.796 L 489.458 26.866 Z" fill="none" stroke="#ff0000" stroke-width="0.01"/>
  <path d="M 501.337 31.767 L 503.358 33.146 L 505.283 34.656 L 507.104 36.290 L 508.814 38.041 L 506.599 40.065 L 505.028 38.456 L 503.355 36.954 L 501.586 35.567 L 499.729 34.300 L 501.337 31.767 Z" fill="none" stroke="#ff0000" stroke-width="0.01"/>
  <path d="M 510.823 40.435 L 512.250 42.423 L 513.543 44.500 L 514.696 46.658 L 515.703 48.888 L 512.930 50.032 L 512.004 47.983 L 510.945 46.000 L 509.757 44.091 L 508.445 42.265 L 510.823 40.435 Z" fill="none" stroke="#ff0000" stroke-width="0.01"/>
  <path d="M 516.772 51.825 L 517.434 54.181 L 517.938 56.575 L 518.283 58.997 L 518.467 61.437 L 515.470 61.564 L 515.300 59.322 L 514.983 57.096 L 514.520 54.896 L 513.912 52.731 L 516.772 51.825 Z" fill="none" stroke="#ff0000" stroke-width="0.01"/>
</svg>
