<?xml version="1.0" encoding="UTF-8"?>
<svg xmlns="http://www.w3.org/2000/svg" width="553mm" height="323.24mm" viewBox="0 0 553 323.24">
<!-- Ponoko sheet: 553x323.24mm. Red=cut, Blue=engrave. -->
  <text x="0" y="-2" font-size="4" fill="#cccccc" font-family="monospace">LEFT SIDE (5mm)</text>
  <text x="135" y="-2" font-size="4" fill="#cccccc" font-family="monospace">RIGHT SIDE (5mm)</text>
  <text x="270" y="-2" font-size="4" fill="#cccccc" font-family="monospace">COMB RAILS (5mm, interleaved+90°)</text>
  <text x="270" y="203.24" font-size="4" fill="#cccccc" font-family="monospace">FAN BRACKET (5mm)</text>
  <text x="427" y="-2" font-size="4" fill="#cccccc" font-family="monospace">BOTTOM (5mm, 90°)</text>
  <path d="M 0.000 3.000 L 6.000 3.000 L 6.000 0.000 L 16.909 0.000 L 16.909 3.000 L 27.818 3.000 L 27.818 0.000 L 38.727 0.000 L 38.727 3.000 L 49.636 3.000 L 49.636 0.000 L 60.545 0.000 L 60.545 3.000 L 71.455 3.000 L 71.455 0.000 L 82.364 0.000 L 82.364 3.000 L 93.273 3.000 L 93.273 0.000 L 104.182 0.000 L 104.182 3.000 L 115.091 3.000 L 115.091 0.000 L 126.000 0.000 L 126.000 3.000 L 132.000 3.000 L 132.000 318.240 L 126.000 318.240 L 126.000 323.240 L 115.091 323.240 L 115.091 318.240 L 104.182 318.240 L 104.182 323.240 L 93.273 323.240 L 93.273 318.240 L 82.364 318.240 L 82.364 323.240 L 71.455 323.240 L 71.455 318.240 L 60.545 318.240 L 60.545 323.240 L 49.636 323.240 L 49.636 318.240 L 38.727 318.240 L 38.727 323.240 L 27.818 323.240 L 27.818 318.240 L 16.909 318.240 L 16.909 323.240 L 6.000 323.240 L 6.000 318.240 L 0.000 318.240 L 0.000 3.000 Z" fill="none" stroke="#ff0000" stroke-width="0.01"/>
  <rect x="3.0" y="26.351" width="3" height="11.676" fill="none" stroke="#ff0000" stroke-width="0.01"/>
  <rect x="3.0" y="49.702" width="3" height="11.676" fill="none" stroke="#ff0000" stroke-width="0.01"/>
  <rect x="3.0" y="73.053" width="3" height="11.676" fill="none" stroke="#ff0000" stroke-width="0.01"/>
  <rect x="3.0" y="96.404" width="3" height="11.676" fill="none" stroke="#ff0000" stroke-width="0.01"/>
  <rect x="3.0" y="119.756" width="3" height="11.676" fill="none" stroke="#ff0000" stroke-width="0.01"/>
  <rect x="3.0" y="143.107" width="3" height="11.676" fill="none" stroke="#ff0000" stroke-width="0.01"/>
  <rect x="3.0" y="166.458" width="3" height="11.676" fill="none" stroke="#ff0000" stroke-width="0.01"/>
  <rect x="3.0" y="189.809" width="3" height="11.676" fill="none" stroke="#ff0000" stroke-width="0.01"/>
  <rect x="3.0" y="213.16" width="3" height="11.676" fill="none" stroke="#ff0000" stroke-width="0.01"/>
  <rect x="3.0" y="236.511" width="3" height="11.676" fill="none" stroke="#ff0000" stroke-width="0.01"/>
  <rect x="3.0" y="259.862" width="3" height="11.676" fill="none" stroke="#ff0000" stroke-width="0.01"/>
  <rect x="3.0" y="283.213" width="3" height="11.676" fill="none" stroke="#ff0000" stroke-width="0.01"/>
  <rect x="126.0" y="26.351" width="3" height="11.676" fill="none" stroke="#ff0000" stroke-width="0.01"/>
  <rect x="126.0" y="49.702" width="3" height="11.676" fill="none" stroke="#ff0000" stroke-width="0.01"/>
  <rect x="126.0" y="73.053" width="3" height="11.676" fill="none" stroke="#ff0000" stroke-width="0.01"/>
  <rect x="126.0" y="96.404" width="3" height="11.676" fill="none" stroke="#ff0000" stroke-width="0.01"/>
  <rect x="126.0" y="119.756" width="3" height="11.676" fill="none" stroke="#ff0000" stroke-width="0.01"/>
  <rect x="126.0" y="143.107" width="3" height="11.676" fill="none" stroke="#ff0000" stroke-width="0.01"/>
  <rect x="126.0" y="166.458" width="3" height="11.676" fill="none" stroke="#ff0000" stroke-width="0.01"/>
  <rect x="126.0" y="189.809" width="3" height="11.676" fill="none" stroke="#ff0000" stroke-width="0.01"/>
  <rect x="126.0" y="213.16" width="3" height="11.676" fill="none" stroke="#ff0000" stroke-width="0.01"/>
  <rect x="126.0" y="236.511" width="3" height="11.676" fill="none" stroke="#ff0000" stroke-width="0.01"/>
  <rect x="126.0" y="259.862" width="3" height="11.676" fill="none" stroke="#ff0000" stroke-width="0.01"/>
  <rect x="126.0" y="283.213" width="3" height="11.676" fill="none" stroke="#ff0000" stroke-width="0.01"/>
  <rect x="10.0" y="46.85" width="5" height="10.3" fill="none" stroke="#ff0000" stroke-width="0.01"/>
  <rect x="117.0" y="46.85" width="5" height="10.3" fill="none" stroke="#ff0000" stroke-width="0.01"/>
  <rect x="17.0" y="259.99" width="18" height="2.5" rx="1.25" ry="1.25" fill="none" stroke="#ff0000" stroke-width="0.01"/>
  <rect x="57.0" y="259.99" width="18" height="2.5" rx="1.25" ry="1.25" fill="none" stroke="#ff0000" stroke-width="0.01"/>
  <rect x="97.0" y="259.99" width="18" height="2.5" rx="1.25" ry="1.25" fill="none" stroke="#ff0000" stroke-width="0.01"/>
  <rect x="17.0" y="240.99" width="18" height="2.5" rx="1.25" ry="1.25" fill="none" stroke="#ff0000" stroke-width="0.01"/>
  <rect x="57.0" y="240.99" width="18" height="2.5" rx="1.25" ry="1.25" fill="none" stroke="#ff0000" stroke-width="0.01"/>
  <rect x="97.0" y="240.99" width="18" height="2.5" rx="1.25" ry="1.25" fill="none" stroke="#ff0000" stroke-width="0.01"/>
  <rect x="17.0" y="221.99" width="18" height="2.5" rx="1.25" ry="1.25" fill="none" stroke="#ff0000" stroke-width="0.01"/>
  <rect x="57.0" y="221.99" width="18" height="2.5" rx="1.25" ry="1.25" fill="none" stroke="#ff0000" stroke-width="0.01"/>
  <rect x="97.0" y="221.99" width="18" height="2.5" rx="1.25" ry="1.25" fill="none" stroke="#ff0000" stroke-width="0.01"/>
  <rect x="17.0" y="202.99" width="18" height="2.5" rx="1.25" ry="1.25" fill="none" stroke="#ff0000" stroke-width="0.01"/>
  <rect x="57.0" y="202.99" width="18" height="2.5" rx="1.25" ry="1.25" fill="none" stroke="#ff0000" stroke-width="0.01"/>
  <rect x="97.0" y="202.99" width="18" height="2.5" rx="1.25" ry="1.25" fill="none" stroke="#ff0000" stroke-width="0.01"/>
  <rect x="17.0" y="172.99" width="18" height="2.5" rx="1.25" ry="1.25" fill="none" stroke="#ff0000" stroke-width="0.01"/>
  <rect x="57.0" y="172.99" width="18" height="2.5" rx="1.25" ry="1.25" fill="none" stroke="#ff0000" stroke-width="0.01"/>
  <rect x="97.0" y="172.99" width="18" height="2.5" rx="1.25" ry="1.25" fill="none" stroke="#ff0000" stroke-width="0.01"/>
  <rect x="17.0" y="149.592" width="18" height="2.5" rx="1.25" ry="1.25" fill="none" stroke="#ff0000" stroke-width="0.01"/>
  <rect x="57.0" y="149.592" width="18" height="2.5" rx="1.25" ry="1.25" fill="none" stroke="#ff0000" stroke-width="0.01"/>
  <rect x="97.0" y="149.592" width="18" height="2.5" rx="1.25" ry="1.25" fill="none" stroke="#ff0000" stroke-width="0.01"/>
  <rect x="17.0" y="126.19399999999999" width="18" height="2.5" rx="1.25" ry="1.25" fill="none" stroke="#ff0000" stroke-width="0.01"/>
  <rect x="57.0" y="126.19399999999999" width="18" height="2.5" rx="1.25" ry="1.25" fill="none" stroke="#ff0000" stroke-width="0.01"/>
  <rect x="97.0" y="126.19399999999999" width="18" height="2.5" rx="1.25" ry="1.25" fill="none" stroke="#ff0000" stroke-width="0.01"/>
  <rect x="17.0" y="102.796" width="18" height="2.5" rx="1.25" ry="1.25" fill="none" stroke="#ff0000" stroke-width="0.01"/>
  <rect x="57.0" y="102.796" width="18" height="2.5" rx="1.25" ry="1.25" fill="none" stroke="#ff0000" stroke-width="0.01"/>
  <rect x="97.0" y="102.796" width="18" height="2.5" rx="1.25" ry="1.25" fill="none" stroke="#ff0000" stroke-width="0.01"/>
  <rect x="17.0" y="79.398" width="18" height="2.5" rx="1.25" ry="1.25" fill="none" stroke="#ff0000" stroke-width="0.01"/>
  <rect x="57.0" y="79.398" width="18" height="2.5" rx="1.25" ry="1.25" fill="none" stroke="#ff0000" stroke-width="0.01"/>
  <rect x="97.0" y="79.398" width="18" height="2.5" rx="1.25" ry="1.25" fill="none" stroke="#ff0000" stroke-width="0.01"/>
  <rect x="17.0" y="56.0" width="18" height="2.5" rx="1.25" ry="1.25" fill="none" stroke="#ff0000" stroke-width="0.01"/>
  <rect x="57.0" y="56.0" width="18" height="2.5" rx="1.25" ry="1.25" fill="none" stroke="#ff0000" stroke-width="0.01"/>
  <rect x="97.0" y="56.0" width="18" height="2.5" rx="1.25" ry="1.25" fill="none" stroke="#ff0000" stroke-width="0.01"/>
  <path d="M 135.000 3.000 L 141.000 3.000 L 141.000 0.000 L 151.909 0.000 L 151.909 3.000 L 162.818 3.000 L 162.818 0.000 L 173.727 0.000 L 173.727 3.000 L 184.636 3.000 L 184.636 0.000 L 195.545 0.000 L 195.545 3.000 L 206.455 3.000 L 206.455 0.000 L 217.364 0.000 L 217.364 3.000 L 228.273 3.000 L 228.273 0.000 L 239.182 0.000 L 239.182 3.000 L 250.091 3.000 L 250.091 0.000 L 261.000 0.000 L 261.000 3.000 L 267.000 3.000 L 267.000 318.240 L 261.000 318.240 L 261.000 323.240 L 250.091 323.240 L 250.091 318.240 L 239.182 318.240 L 239.182 323.240 L 228.273 323.240 L 228.273 318.240 L 217.364 318.240 L 217.364 323.240 L 206.455 323.240 L 206.455 318.240 L 195.545 318.240 L 195.545 323.240 L 184.636 323.240 L 184.636 318.240 L 173.727 318.240 L 173.727 323.240 L 162.818 323.240 L 162.818 318.240 L 151.909 318.240 L 151.909 323.240 L 141.000 323.240 L 141.000 318.240 L 135.000 318.240 L 135.000 3.000 Z" fill="none" stroke="#ff0000" stroke-width="0.01"/>
  <rect x="138.0" y="26.351" width="3" height="11.676" fill="none" stroke="#ff0000" stroke-width="0.01"/>
  <rect x="138.0" y="49.702" width="3" height="11.676" fill="none" stroke="#ff0000" stroke-width="0.01"/>
  <rect x="138.0" y="73.053" width="3" height="11.676" fill="none" stroke="#ff0000" stroke-width="0.01"/>
  <rect x="138.0" y="96.404" width="3" height="11.676" fill="none" stroke="#ff0000" stroke-width="0.01"/>
  <rect x="138.0" y="119.756" width="3" height="11.676" fill="none" stroke="#ff0000" stroke-width="0.01"/>
  <rect x="138.0" y="143.107" width="3" height="11.676" fill="none" stroke="#ff0000" stroke-width="0.01"/>
  <rect x="138.0" y="166.458" width="3" height="11.676" fill="none" stroke="#ff0000" stroke-width="0.01"/>
  <rect x="138.0" y="189.809" width="3" height="11.676" fill="none" stroke="#ff0000" stroke-width="0.01"/>
  <rect x="138.0" y="213.16" width="3" height="11.676" fill="none" stroke="#ff0000" stroke-width="0.01"/>
  <rect x="138.0" y="236.511" width="3" height="11.676" fill="none" stroke="#ff0000" stroke-width="0.01"/>
  <rect x="138.0" y="259.862" width="3" height="11.676" fill="none" stroke="#ff0000" stroke-width="0.01"/>
  <rect x="138.0" y="283.213" width="3" height="11.676" fill="none" stroke="#ff0000" stroke-width="0.01"/>
  <rect x="261.0" y="26.351" width="3" height="11.676" fill="none" stroke="#ff0000" stroke-width="0.01"/>
  <rect x="261.0" y="49.702" width="3" height="11.676" fill="none" stroke="#ff0000" stroke-width="0.01"/>
  <rect x="261.0" y="73.053" width="3" height="11.676" fill="none" stroke="#ff0000" stroke-width="0.01"/>
  <rect x="261.0" y="96.404" width="3" height="11.676" fill="none" stroke="#ff0000" stroke-width="0.01"/>
  <rect x="261.0" y="119.756" width="3" height="11.676" fill="none" stroke="#ff0000" stroke-width="0.01"/>
  <rect x="261.0" y="143.107" width="3" height="11.676" fill="none" stroke="#ff0000" stroke-width="0.01"/>
  <rect x="261.0" y="166.458" width="3" height="11.676" fill="none" stroke="#ff0000" stroke-width="0.01"/>
  <rect x="261.0" y="189.809" width="3" height="11.676" fill="none" stroke="#ff0000" stroke-width="0.01"/>
  <rect x="261.0" y="213.16" width="3" height="11.676" fill="none" stroke="#ff0000" stroke-width="0.01"/>
  <rect x="261.0" y="236.511" width="3" height="11.676" fill="none" stroke="#ff0000" stroke-width="0.01"/>
  <rect x="261.0" y="259.862" width="3" height="11.676" fill="none" stroke="#ff0000" stroke-width="0.01"/>
  <rect x="261.0" y="283.213" width="3" height="11.676" fill="none" stroke="#ff0000" stroke-width="0.01"/>
  <rect x="145.0" y="46.85" width="5" height="10.3" fill="none" stroke="#ff0000" stroke-width="0.01"/>
  <rect x="252.0" y="46.85" width="5" height="10.3" fill="none" stroke="#ff0000" stroke-width="0.01"/>
  <rect x="152.0" y="259.99" width="18" height="2.5" rx="1.25" ry="1.25" fill="none" stroke="#ff0000" stroke-width="0.01"/>
  <rect x="192.0" y="259.99" width="18" height="2.5" rx="1.25" ry="1.25" fill="none" stroke="#ff0000" stroke-width="0.01"/>
  <rect x="232.0" y="259.99" width="18" height="2.5" rx="1.25" ry="1.25" fill="none" stroke="#ff0000" stroke-width="0.01"/>
  <rect x="152.0" y="240.99" width="18" height="2.5" rx="1.25" ry="1.25" fill="none" stroke="#ff0000" stroke-width="0.01"/>
  <rect x="192.0" y="240.99" width="18" height="2.5" rx="1.25" ry="1.25" fill="none" stroke="#ff0000" stroke-width="0.01"/>
  <rect x="232.0" y="240.99" width="18" height="2.5" rx="1.25" ry="1.25" fill="none" stroke="#ff0000" stroke-width="0.01"/>
  <rect x="152.0" y="221.99" width="18" height="2.5" rx="1.25" ry="1.25" fill="none" stroke="#ff0000" stroke-width="0.01"/>
  <rect x="192.0" y="221.99" width="18" height="2.5" rx="1.25" ry="1.25" fill="none" stroke="#ff0000" stroke-width="0.01"/>
  <rect x="232.0" y="221.99" width="18" height="2.5" rx="1.25" ry="1.25" fill="none" stroke="#ff0000" stroke-width="0.01"/>
  <rect x="152.0" y="202.99" width="18" height="2.5" rx="1.25" ry="1.25" fill="none" stroke="#ff0000" stroke-width="0.01"/>
  <rect x="192.0" y="202.99" width="18" height="2.5" rx="1.25" ry="1.25" fill="none" stroke="#ff0000" stroke-width="0.01"/>
  <rect x="232.0" y="202.99" width="18" height="2.5" rx="1.25" ry="1.25" fill="none" stroke="#ff0000" stroke-width="0.01"/>
  <rect x="152.0" y="172.99" width="18" height="2.5" rx="1.25" ry="1.25" fill="none" stroke="#ff0000" stroke-width="0.01"/>
  <rect x="192.0" y="172.99" width="18" height="2.5" rx="1.25" ry="1.25" fill="none" stroke="#ff0000" stroke-width="0.01"/>
  <rect x="232.0" y="172.99" width="18" height="2.5" rx="1.25" ry="1.25" fill="none" stroke="#ff0000" stroke-width="0.01"/>
  <rect x="152.0" y="149.592" width="18" height="2.5" rx="1.25" ry="1.25" fill="none" stroke="#ff0000" stroke-width="0.01"/>
  <rect x="192.0" y="149.592" width="18" height="2.5" rx="1.25" ry="1.25" fill="none" stroke="#ff0000" stroke-width="0.01"/>
  <rect x="232.0" y="149.592" width="18" height="2.5" rx="1.25" ry="1.25" fill="none" stroke="#ff0000" stroke-width="0.01"/>
  <rect x="152.0" y="126.19399999999999" width="18" height="2.5" rx="1.25" ry="1.25" fill="none" stroke="#ff0000" stroke-width="0.01"/>
  <rect x="192.0" y="126.19399999999999" width="18" height="2.5" rx="1.25" ry="1.25" fill="none" stroke="#ff0000" stroke-width="0.01"/>
  <rect x="232.0" y="126.19399999999999" width="18" height="2.5" rx="1.25" ry="1.25" fill="none" stroke="#ff0000" stroke-width="0.01"/>
  <rect x="152.0" y="102.796" width="18" height="2.5" rx="1.25" ry="1.25" fill="none" stroke="#ff0000" stroke-width="0.01"/>
  <rect x="192.0" y="102.796" width="18" height="2.5" rx="1.25" ry="1.25" fill="none" stroke="#ff0000" stroke-width="0.01"/>
  <rect x="232.0" y="102.796" width="18" height="2.5" rx="1.25" ry="1.25" fill="none" stroke="#ff0000" stroke-width="0.01"/>
  <rect x="152.0" y="79.398" width="18" height="2.5" rx="1.25" ry="1.25" fill="none" stroke="#ff0000" stroke-width="0.01"/>
  <rect x="192.0" y="79.398" width="18" height="2.5" rx="1.25" ry="1.25" fill="none" stroke="#ff0000" stroke-width="0.01"/>
  <rect x="232.0" y="79.398" width="18" height="2.5" rx="1.25" ry="1.25" fill="none" stroke="#ff0000" stroke-width="0.01"/>
  <rect x="152.0" y="56.0" width="18" height="2.5" rx="1.25" ry="1.25" fill="none" stroke="#ff0000" stroke-width="0.01"/>
  <rect x="192.0" y="56.0" width="18" height="2.5" rx="1.25" ry="1.25" fill="none" stroke="#ff0000" stroke-width="0.01"/>
  <rect x="232.0" y="56.0" width="18" height="2.5" rx="1.25" ry="1.25" fill="none" stroke="#ff0000" stroke-width="0.01"/>
  <path d="M 421.990 5.000 L 421.990 184.000 L 420.990 184.000 L 420.990 189.000 L 410.990 189.000 L 410.990 184.000 L 409.990 184.000 L 409.990 165.165 L 285.000 165.165 L 285.000 145.165 L 409.990 145.165 L 409.990 120.055 L 285.000 120.055 L 285.000 100.055 L 409.990 100.055 L 409.990 74.945 L 285.000 74.945 L 285.000 54.945 L 409.990 54.945 L 409.990 29.835 L 285.000 29.835 L 285.000 9.835 L 409.990 9.835 L 409.990 5.000 L 410.990 5.000 L 410.990 0.000 L 420.990 0.000 L 420.990 5.000 Z" fill="none" stroke="#ff0000" stroke-width="0.01"/>
  <circle cx="304.5" cy="19.835" r="1.7" fill="none" stroke="#ff0000" stroke-width="0.01"/>
  <circle cx="346.5" cy="19.835" r="1.7" fill="none" stroke="#ff0000" stroke-width="0.01"/>
  <circle cx="406.5" cy="19.835" r="1.7" fill="none" stroke="#ff0000" stroke-width="0.01"/>
  <circle cx="304.5" cy="64.945" r="1.7" fill="none" stroke="#ff0000" stroke-width="0.01"/>
  <circle cx="346.5" cy="64.945" r="1.7" fill="none" stroke="#ff0000" stroke-width="0.01"/>
  <circle cx="406.5" cy="64.945" r="1.7" fill="none" stroke="#ff0000" stroke-width="0.01"/>
  <circle cx="304.5" cy="110.055" r="1.7" fill="none" stroke="#ff0000" stroke-width="0.01"/>
  <circle cx="346.5" cy="110.055" r="1.7" fill="none" stroke="#ff0000" stroke-width="0.01"/>
  <circle cx="406.5" cy="110.055" r="1.7" fill="none" stroke="#ff0000" stroke-width="0.01"/>
  <circle cx="304.5" cy="155.165" r="1.7" fill="none" stroke="#ff0000" stroke-width="0.01"/>
  <circle cx="346.5" cy="155.165" r="1.7" fill="none" stroke="#ff0000" stroke-width="0.01"/>
  <circle cx="406.5" cy="155.165" r="1.7" fill="none" stroke="#ff0000" stroke-width="0.01"/>
  <path d="M 270.000 192.500 L 270.000 13.500 L 271.000 13.500 L 271.000 8.500 L 281.000 8.500 L 281.000 13.500 L 282.000 13.500 L 282.000 32.335 L 406.990 32.335 L 406.990 52.335 L 282.000 52.335 L 282.000 77.445 L 406.990 77.445 L 406.990 97.445 L 282.000 97.445 L 282.000 122.555 L 406.990 122.555 L 406.990 142.555 L 282.000 142.555 L 282.000 167.665 L 406.990 167.665 L 406.990 187.665 L 282.000 187.665 L 282.000 192.500 L 281.000 192.500 L 281.000 197.500 L 271.000 197.500 L 271.000 192.500 Z" fill="none" stroke="#ff0000" stroke-width="0.01"/>
  <circle cx="387.49" cy="177.665" r="1.7" fill="none" stroke="#ff0000" stroke-width="0.01"/>
  <circle cx="345.49" cy="177.665" r="1.7" fill="none" stroke="#ff0000" stroke-width="0.01"/>
  <circle cx="285.49" cy="177.665" r="1.7" fill="none" stroke="#ff0000" stroke-width="0.01"/>
  <circle cx="387.49" cy="132.555" r="1.7" fill="none" stroke="#ff0000" stroke-width="0.01"/>
  <circle cx="345.49" cy="132.555" r="1.7" fill="none" stroke="#ff0000" stroke-width="0.01"/>
  <circle cx="285.49" cy="132.555" r="1.7" fill="none" stroke="#ff0000" stroke-width="0.01"/>
  <circle cx="387.49" cy="87.445" r="1.7" fill="none" stroke="#ff0000" stroke-width="0.01"/>
  <circle cx="345.49" cy="87.445" r="1.7" fill="none" stroke="#ff0000" stroke-width="0.01"/>
  <circle cx="285.49" cy="87.445" r="1.7" fill="none" stroke="#ff0000" stroke-width="0.01"/>
  <circle cx="387.49" cy="42.33500000000001" r="1.7" fill="none" stroke="#ff0000" stroke-width="0.01"/>
  <circle cx="345.49" cy="42.33500000000001" r="1.7" fill="none" stroke="#ff0000" stroke-width="0.01"/>
  <circle cx="285.49" cy="42.33500000000001" r="1.7" fill="none" stroke="#ff0000" stroke-width="0.01"/>
  <rect x="270.0" y="205.24" width="177" height="118" fill="none" stroke="#ff0000" stroke-width="0.01"/>
  <circle cx="274.0" cy="217.24" r="2.25" fill="none" stroke="#ff0000" stroke-width="0.01"/>
  <circle cx="443.0" cy="217.24" r="2.25" fill="none" stroke="#ff0000" stroke-width="0.01"/>
  <circle cx="274.0" cy="311.24" r="2.25" fill="none" stroke="#ff0000" stroke-width="0.01"/>
  <circle cx="443.0" cy="311.24" r="2.25" fill="none" stroke="#ff0000" stroke-width="0.01"/>
  <circle cx="358.5" cy="264.24" r="37" fill="none" stroke="#ff0000" stroke-width="0.01"/>
  <circle cx="322.75" cy="228.49" r="2.15" fill="none" stroke="#ff0000" stroke-width="0.01"/>
  <circle cx="394.25" cy="228.49" r="2.15" fill="none" stroke="#ff0000" stroke-width="0.01"/>
  <circle cx="322.75" cy="299.99" r="2.15" fill="none" stroke="#ff0000" stroke-width="0.01"/>
  <circle cx="394.25" cy="299.99" r="2.15" fill="none" stroke="#ff0000" stroke-width="0.01"/>
  <path d="M 550.000 0.000 L 553.000 0.000 L 553.000 11.471 L 550.000 11.471 L 550.000 22.941 L 553.000 22.941 L 553.000 34.412 L 550.000 34.412 L 550.000 45.882 L 553.000 45.882 L 553.000 57.353 L 550.000 57.353 L 550.000 68.824 L 553.000 68.824 L 553.000 80.294 L 550.000 80.294 L 550.000 91.765 L 553.000 91.765 L 553.000 103.235 L 550.000 103.235 L 550.000 114.706 L 553.000 114.706 L 553.000 126.176 L 550.000 126.176 L 550.000 137.647 L 553.000 137.647 L 553.000 149.118 L 550.000 149.118 L 550.000 160.588 L 553.000 160.588 L 553.000 172.059 L 550.000 172.059 L 550.000 183.529 L 553.000 183.529 L 553.000 195.000 L 550.000 195.000 L 430.000 195.000 L 427.000 195.000 L 427.000 183.529 L 430.000 183.529 L 430.000 172.059 L 427.000 172.059 L 427.000 160.588 L 430.000 160.588 L 430.000 149.118 L 427.000 149.118 L 427.000 137.647 L 430.000 137.647 L 430.000 126.176 L 427.000 126.176 L 427.000 114.706 L 430.000 114.706 L 430.000 103.235 L 427.000 103.235 L 427.000 91.765 L 430.000 91.765 L 430.000 80.294 L 427.000 80.294 L 427.000 68.824 L 430.000 68.824 L 430.000 57.353 L 427.000 57.353 L 427.000 45.882 L 430.000 45.882 L 430.000 34.412 L 427.000 34.412 L 427.000 22.941 L 430.000 22.941 L 430.000 11.471 L 427.000 11.471 L 427.000 0.000 L 430.000 0.000 L 550.000 0.000 Z" fill="none" stroke="#ff0000" stroke-width="0.01"/>
  <rect x="539.091" y="3.0" width="10.909" height="5.0" fill="none" stroke="#ff0000" stroke-width="0.01"/>
  <rect x="517.273" y="3.0" width="10.909" height="5.0" fill="none" stroke="#ff0000" stroke-width="0.01"/>
  <rect x="495.455" y="3.0" width="10.909" height="5.0" fill="none" stroke="#ff0000" stroke-width="0.01"/>
  <rect x="473.636" y="3.0" width="10.909" height="5.0" fill="none" stroke="#ff0000" stroke-width="0.01"/>
  <rect x="451.818" y="3.0" width="10.909" height="5.0" fill="none" stroke="#ff0000" stroke-width="0.01"/>
  <rect x="430.0" y="3.0" width="10.909" height="5.0" fill="none" stroke="#ff0000" stroke-width="0.01"/>
  <rect x="539.091" y="187.0" width="10.909" height="5.0" fill="none" stroke="#ff0000" stroke-width="0.01"/>
  <rect x="517.273" y="187.0" width="10.909" height="5.0" fill="none" stroke="#ff0000" stroke-width="0.01"/>
  <rect x="495.455" y="187.0" width="10.909" height="5.0" fill="none" stroke="#ff0000" stroke-width="0.01"/>
  <rect x="473.636" y="187.0" width="10.909" height="5.0" fill="none" stroke="#ff0000" stroke-width="0.01"/>
  <rect x="451.818" y="187.0" width="10.909" height="5.0" fill="none" stroke="#ff0000" stroke-width="0.01"/>
  <rect x="430.0" y="187.0" width="10.909" height="5.0" fill="none" stroke="#ff0000" stroke-width="0.01"/>
  <circle cx="537.0" cy="13.0" r="2.25" fill="none" stroke="#ff0000" stroke-width="0.01"/>
  <circle cx="537.0" cy="182.0" r="2.25" fill="none" stroke="#ff0000" stroke-width="0.01"/>
  <circle cx="443.0" cy="13.0" r="2.25" fill="none" stroke="#ff0000" stroke-width="0.01"/>
  <circle cx="443.0" cy="182.0" r="2.25" fill="none" stroke="#ff0000" stroke-width="0.01"/>
  <circle cx="466.5" cy="73.0" r="1.35" fill="none" stroke="#ff0000" stroke-width="0.01"/>
  <circle cx="524.5" cy="73.0" r="1.35" fill="none" stroke="#ff0000" stroke-width="0.01"/>
  <circle cx="466.5" cy="122.0" r="1.35" fill="none" stroke="#ff0000" stroke-width="0.01"/>
  <circle cx="524.5" cy="122.0" r="1.35" fill="none" stroke="#ff0000" stroke-width="0.01"/>
  <rect x="536.5" y="19.0" width="3.0" height="22.0" rx="1.5" ry="1.5" fill="none" stroke="#ff0000" stroke-width="0.01"/>
  <rect x="528.5" y="19.0" width="3.0" height="22.0" rx="1.5" ry="1.5" fill="none" stroke="#ff0000" stroke-width="0.01"/>
  <rect x="520.5" y="19.0" width="3.0" height="22.0" rx="1.5" ry="1.5" fill="none" stroke="#ff0000" stroke-width="0.01"/>
  <rect x="512.5" y="19.0" width="3.0" height="22.0" rx="1.5" ry="1.5" fill="none" stroke="#ff0000" stroke-width="0.01"/>
  <rect x="504.5" y="19.0" width="3.0" height="22.0" rx="1.5" ry="1.5" fill="none" stroke="#ff0000" stroke-width="0.01"/>
  <rect x="496.5" y="19.0" width="3.0" height="22.0" rx="1.5" ry="1.5" fill="none" stroke="#ff0000" stroke-width="0.01"/>
  <rect x="488.5" y="19.0" width="3.0" height="22.0" rx="1.5" ry="1.5" fill="none" stroke="#ff0000" stroke-width="0.01"/>
  <rect x="480.5" y="19.0" width="3.0" height="22.0" rx="1.5" ry="1.5" fill="none" stroke="#ff0000" stroke-width="0.01"/>
  <rect x="472.5" y="19.0" width="3.0" height="22.0" rx="1.5" ry="1.5" fill="none" stroke="#ff0000" stroke-width="0.01"/>
  <rect x="464.5" y="19.0" width="3.0" height="22.0" rx="1.5" ry="1.5" fill="none" stroke="#ff0000" stroke-width="0.01"/>
  <rect x="456.5" y="19.0" width="3.0" height="22.0" rx="1.5" ry="1.5" fill="none" stroke="#ff0000" stroke-width="0.01"/>
  <rect x="448.5" y="19.0" width="3.0" height="22.0" rx="1.5" ry="1.5" fill="none" stroke="#ff0000" stroke-width="0.01"/>
  <rect x="440.5" y="19.0" width="3.0" height="22.0" rx="1.5" ry="1.5" fill="none" stroke="#ff0000" stroke-width="0.01"/>
  <rect x="536.5" y="46.0" width="3.0" height="22.0" rx="1.5" ry="1.5" fill="none" stroke="#ff0000" stroke-width="0.01"/>
  <rect x="528.5" y="46.0" width="3.0" height="22.0" rx="1.5" ry="1.5" fill="none" stroke="#ff0000" stroke-width="0.01"/>
  <rect x="520.5" y="46.0" width="3.0" height="22.0" rx="1.5" ry="1.5" fill="none" stroke="#ff0000" stroke-width="0.01"/>
  <rect x="512.5" y="46.0" width="3.0" height="22.0" rx="1.5" ry="1.5" fill="none" stroke="#ff0000" stroke-width="0.01"/>
  <rect x="504.5" y="46.0" width="3.0" height="22.0" rx="1.5" ry="1.5" fill="none" stroke="#ff0000" stroke-width="0.01"/>
  <rect x="496.5" y="46.0" width="3.0" height="22.0" rx="1.5" ry="1.5" fill="none" stroke="#ff0000" stroke-width="0.01"/>
  <rect x="488.5" y="46.0" width="3.0" height="22.0" rx="1.5" ry="1.5" fill="none" stroke="#ff0000" stroke-width="0.01"/>
  <rect x="480.5" y="46.0" width="3.0" height="22.0" rx="1.5" ry="1.5" fill="none" stroke="#ff0000" stroke-width="0.01"/>
  <rect x="472.5" y="46.0" width="3.0" height="22.0" rx="1.5" ry="1.5" fill="none" stroke="#ff0000" stroke-width="0.01"/>
  <rect x="464.5" y="46.0" width="3.0" height="22.0" rx="1.5" ry="1.5" fill="none" stroke="#ff0000" stroke-width="0.01"/>
  <rect x="456.5" y="46.0" width="3.0" height="22.0" rx="1.5" ry="1.5" fill="none" stroke="#ff0000" stroke-width="0.01"/>
  <rect x="448.5" y="46.0" width="3.0" height="22.0" rx="1.5" ry="1.5" fill="none" stroke="#ff0000" stroke-width="0.01"/>
  <rect x="440.5" y="46.0" width="3.0" height="22.0" rx="1.5" ry="1.5" fill="none" stroke="#ff0000" stroke-width="0.01"/>
  <rect x="536.5" y="73.0" width="3.0" height="22.0" rx="1.5" ry="1.5" fill="none" stroke="#ff0000" stroke-width="0.01"/>
  <rect x="528.5" y="73.0" width="3.0" height="22.0" rx="1.5" ry="1.5" fill="none" stroke="#ff0000" stroke-width="0.01"/>
  <rect x="512.5" y="73.0" width="3.0" height="22.0" rx="1.5" ry="1.5" fill="none" stroke="#ff0000" stroke-width="0.01"/>
  <rect x="504.5" y="73.0" width="3.0" height="22.0" rx="1.5" ry="1.5" fill="none" stroke="#ff0000" stroke-width="0.01"/>
  <rect x="496.5" y="73.0" width="3.0" height="22.0" rx="1.5" ry="1.5" fill="none" stroke="#ff0000" stroke-width="0.01"/>
  <rect x="488.5" y="73.0" width="3.0" height="22.0" rx="1.5" ry="1.5" fill="none" stroke="#ff0000" stroke-width="0.01"/>
  <rect x="480.5" y="73.0" width="3.0" height="22.0" rx="1.5" ry="1.5" fill="none" stroke="#ff0000" stroke-width="0.01"/>
  <rect x="472.5" y="73.0" width="3.0" height="22.0" rx="1.5" ry="1.5" fill="none" stroke="#ff0000" stroke-width="0.01"/>
  <rect x="440.5" y="73.0" width="3.0" height="22.0" rx="1.5" ry="1.5" fill="none" stroke="#ff0000" stroke-width="0.01"/>
  <rect x="536.5" y="100.0" width="3.0" height="22.0" rx="1.5" ry="1.5" fill="none" stroke="#ff0000" stroke-width="0.01"/>
  <rect x="528.5" y="100.0" width="3.0" height="22.0" rx="1.5" ry="1.5" fill="none" stroke="#ff0000" stroke-width="0.01"/>
  <rect x="512.5" y="100.0" width="3.0" height="22.0" rx="1.5" ry="1.5" fill="none" stroke="#ff0000" stroke-width="0.01"/>
  <rect x="504.5" y="100.0" width="3.0" height="22.0" rx="1.5" ry="1.5" fill="none" stroke="#ff0000" stroke-width="0.01"/>
  <rect x="496.5" y="100.0" width="3.0" height="22.0" rx="1.5" ry="1.5" fill="none" stroke="#ff0000" stroke-width="0.01"/>
  <rect x="488.5" y="100.0" width="3.0" height="22.0" rx="1.5" ry="1.5" fill="none" stroke="#ff0000" stroke-width="0.01"/>
  <rect x="480.5" y="100.0" width="3.0" height="22.0" rx="1.5" ry="1.5" fill="none" stroke="#ff0000" stroke-width="0.01"/>
  <rect x="472.5" y="100.0" width="3.0" height="22.0" rx="1.5" ry="1.5" fill="none" stroke="#ff0000" stroke-width="0.01"/>
  <rect x="440.5" y="100.0" width="3.0" height="22.0" rx="1.5" ry="1.5" fill="none" stroke="#ff0000" stroke-width="0.01"/>
  <rect x="536.5" y="127.0" width="3.0" height="22.0" rx="1.5" ry="1.5" fill="none" stroke="#ff0000" stroke-width="0.01"/>
  <rect x="528.5" y="127.0" width="3.0" height="22.0" rx="1.5" ry="1.5" fill="none" stroke="#ff0000" stroke-width="0.01"/>
  <rect x="520.5" y="127.0" width="3.0" height="22.0" rx="1.5" ry="1.5" fill="none" stroke="#ff0000" stroke-width="0.01"/>
  <rect x="512.5" y="127.0" width="3.0" height="22.0" rx="1.5" ry="1.5" fill="none" stroke="#ff0000" stroke-width="0.01"/>
  <rect x="504.5" y="127.0" width="3.0" height="22.0" rx="1.5" ry="1.5" fill="none" stroke="#ff0000" stroke-width="0.01"/>
  <rect x="496.5" y="127.0" width="3.0" height="22.0" rx="1.5" ry="1.5" fill="none" stroke="#ff0000" stroke-width="0.01"/>
  <rect x="488.5" y="127.0" width="3.0" height="22.0" rx="1.5" ry="1.5" fill="none" stroke="#ff0000" stroke-width="0.01"/>
  <rect x="480.5" y="127.0" width="3.0" height="22.0" rx="1.5" ry="1.5" fill="none" stroke="#ff0000" stroke-width="0.01"/>
  <rect x="472.5" y="127.0" width="3.0" height="22.0" rx="1.5" ry="1.5" fill="none" stroke="#ff0000" stroke-width="0.01"/>
  <rect x="464.5" y="127.0" width="3.0" height="22.0" rx="1.5" ry="1.5" fill="none" stroke="#ff0000" stroke-width="0.01"/>
  <rect x="456.5" y="127.0" width="3.0" height="22.0" rx="1.5" ry="1.5" fill="none" stroke="#ff0000" stroke-width="0.01"/>
  <rect x="448.5" y="127.0" width="3.0" height="22.0" rx="1.5" ry="1.5" fill="none" stroke="#ff0000" stroke-width="0.01"/>
  <rect x="440.5" y="127.0" width="3.0" height="22.0" rx="1.5" ry="1.5" fill="none" stroke="#ff0000" stroke-width="0.01"/>
  <rect x="536.5" y="154.0" width="3.0" height="22.0" rx="1.5" ry="1.5" fill="none" stroke="#ff0000" stroke-width="0.01"/>
  <rect x="528.5" y="154.0" width="3.0" height="22.0" rx="1.5" ry="1.5" fill="none" stroke="#ff0000" stroke-width="0.01"/>
  <rect x="520.5" y="154.0" width="3.0" height="22.0" rx="1.5" ry="1.5" fill="none" stroke="#ff0000" stroke-width="0.01"/>
  <rect x="512.5" y="154.0" width="3.0" height="22.0" rx="1.5" ry="1.5" fill="none" stroke="#ff0000" stroke-width="0.01"/>
  <rect x="504.5" y="154.0" width="3.0" height="22.0" rx="1.5" ry="1.5" fill="none" stroke="#ff0000" stroke-width="0.01"/>
  <rect x="496.5" y="154.0" width="3.0" height="22.0" rx="1.5" ry="1.5" fill="none" stroke="#ff0000" stroke-width="0.01"/>
  <rect x="488.5" y="154.0" width="3.0" height="22.0" rx="1.5" ry="1.5" fill="none" stroke="#ff0000" stroke-width="0.01"/>
  <rect x="480.5" y="154.0" width="3.0" height="22.0" rx="1.5" ry="1.5" fill="none" stroke="#ff0000" stroke-width="0.01"/>
  <rect x="472.5" y="154.0" width="3.0" height="22.0" rx="1.5" ry="1.5" fill="none" stroke="#ff0000" stroke-width="0.01"/>
  <rect x="464.5" y="154.0" width="3.0" height="22.0" rx="1.5" ry="1.5" fill="none" stroke="#ff0000" stroke-width="0.01"/>
  <rect x="456.5" y="154.0" width="3.0" height="22.0" rx="1.5" ry="1.5" fill="none" stroke="#ff0000" stroke-width="0.01"/>
  <rect x="448.5" y="154.0" width="3.0" height="22.0" rx="1.5" ry="1.5" fill="none" stroke="#ff0000" stroke-width="0.01"/>
  <rect x="440.5" y="154.0" width="3.0" height="22.0" rx="1.5" ry="1.5" fill="none" stroke="#ff0000" stroke-width="0.01"/>
  <rect x="448.0" y="90.525" width="20.0" height="14.0" rx="3" ry="3" fill="none" stroke="#ff0000" stroke-width="0.01"/>
</svg>
