  0
SECTION
  2
HEADER
  9
$INSUNITS
  70
4
  0
ENDSEC
  0
SECTION
  2
TABLES
  0
TABLE
  2
LAYER
  70
2
  0
LAYER
  2
CUT
  70
0
  62
1
  6
CONTINUOUS
  0
LAYER
  2
ENGRAVE
  70
0
  62
5
  6
CONTINUOUS
  0
ENDTAB
  0
ENDSEC
  0
SECTION
  2
ENTITIES
  0
LWPOLYLINE
  8
CUT
  90
169
  70
1
  10
4.5000
  20
319.7400
  10
8.4120
  20
319.7400
  10
8.4120
  20
322.7400
  10
19.8240
  20
322.7400
  10
19.8240
  20
319.7400
  10
31.2350
  20
319.7400
  10
31.2350
  20
322.7400
  10
42.6470
  20
322.7400
  10
42.6470
  20
319.7400
  10
54.0590
  20
319.7400
  10
54.0590
  20
322.7400
  10
65.4710
  20
322.7400
  10
65.4710
  20
319.7400
  10
76.8820
  20
319.7400
  10
76.8820
  20
322.7400
  10
88.2940
  20
322.7400
  10
88.2940
  20
319.7400
  10
99.7060
  20
319.7400
  10
99.7060
  20
322.7400
  10
111.1180
  20
322.7400
  10
111.1180
  20
319.7400
  10
122.5290
  20
319.7400
  10
122.5290
  20
322.7400
  10
133.9410
  20
322.7400
  10
133.9410
  20
319.7400
  10
145.3530
  20
319.7400
  10
145.3530
  20
322.7400
  10
156.7650
  20
322.7400
  10
156.7650
  20
319.7400
  10
168.1760
  20
319.7400
  10
168.1760
  20
322.7400
  10
179.5880
  20
322.7400
  10
179.5880
  20
319.7400
  10
183.5000
  20
319.7400
  10
183.5000
  20
308.0640
  10
183.5000
  20
296.3890
  10
188.0000
  20
296.3890
  10
188.0000
  20
284.7130
  10
183.5000
  20
284.7130
  10
183.5000
  20
273.0380
  10
188.0000
  20
273.0380
  10
188.0000
  20
261.3620
  10
183.5000
  20
261.3620
  10
183.5000
  20
249.6870
  10
188.0000
  20
249.6870
  10
188.0000
  20
238.0110
  10
183.5000
  20
238.0110
  10
183.5000
  20
226.3360
  10
188.0000
  20
226.3360
  10
188.0000
  20
214.6600
  10
183.5000
  20
214.6600
  10
183.5000
  20
202.9840
  10
188.0000
  20
202.9840
  10
188.0000
  20
191.3090
  10
183.5000
  20
191.3090
  10
183.5000
  20
179.6330
  10
188.0000
  20
179.6330
  10
188.0000
  20
167.9580
  10
183.5000
  20
167.9580
  10
183.5000
  20
156.2820
  10
188.0000
  20
156.2820
  10
188.0000
  20
144.6070
  10
183.5000
  20
144.6070
  10
183.5000
  20
132.9310
  10
188.0000
  20
132.9310
  10
188.0000
  20
121.2560
  10
183.5000
  20
121.2560
  10
183.5000
  20
109.5800
  10
188.0000
  20
109.5800
  10
188.0000
  20
97.9040
  10
183.5000
  20
97.9040
  10
183.5000
  20
86.2290
  10
188.0000
  20
86.2290
  10
188.0000
  20
74.5530
  10
183.5000
  20
74.5530
  10
183.5000
  20
62.8780
  10
188.0000
  20
62.8780
  10
188.0000
  20
51.2020
  10
183.5000
  20
51.2020
  10
183.5000
  20
39.5270
  10
188.0000
  20
39.5270
  10
188.0000
  20
27.8510
  10
183.5000
  20
27.8510
  10
183.5000
  20
16.1760
  10
183.5000
  20
4.5000
  10
179.5880
  20
4.5000
  10
179.5880
  20
0.0000
  10
168.1760
  20
0.0000
  10
168.1760
  20
4.5000
  10
156.7650
  20
4.5000
  10
156.7650
  20
0.0000
  10
145.3530
  20
0.0000
  10
145.3530
  20
4.5000
  10
133.9410
  20
4.5000
  10
133.9410
  20
0.0000
  10
122.5290
  20
0.0000
  10
122.5290
  20
4.5000
  10
111.1180
  20
4.5000
  10
111.1180
  20
0.0000
  10
99.7060
  20
0.0000
  10
99.7060
  20
4.5000
  10
88.2940
  20
4.5000
  10
88.2940
  20
0.0000
  10
76.8820
  20
0.0000
  10
76.8820
  20
4.5000
  10
65.4710
  20
4.5000
  10
65.4710
  20
0.0000
  10
54.0590
  20
0.0000
  10
54.0590
  20
4.5000
  10
42.6470
  20
4.5000
  10
42.6470
  20
0.0000
  10
31.2350
  20
0.0000
  10
31.2350
  20
4.5000
  10
19.8240
  20
4.5000
  10
19.8240
  20
0.0000
  10
8.4120
  20
0.0000
  10
8.4120
  20
4.5000
  10
4.5000
  20
4.5000
  10
4.5000
  20
16.1760
  10
4.5000
  20
27.8510
  10
0.0000
  20
27.8510
  10
0.0000
  20
39.5270
  10
4.5000
  20
39.5270
  10
4.5000
  20
51.2020
  10
0.0000
  20
51.2020
  10
0.0000
  20
62.8780
  10
4.5000
  20
62.8780
  10
4.5000
  20
74.5530
  10
0.0000
  20
74.5530
  10
0.0000
  20
86.2290
  10
4.5000
  20
86.2290
  10
4.5000
  20
97.9040
  10
0.0000
  20
97.9040
  10
0.0000
  20
109.5800
  10
4.5000
  20
109.5800
  10
4.5000
  20
121.2560
  10
0.0000
  20
121.2560
  10
0.0000
  20
132.9310
  10
4.5000
  20
132.9310
  10
4.5000
  20
144.6070
  10
0.0000
  20
144.6070
  10
0.0000
  20
156.2820
  10
4.5000
  20
156.2820
  10
4.5000
  20
167.9580
  10
0.0000
  20
167.9580
  10
0.0000
  20
179.6330
  10
4.5000
  20
179.6330
  10
4.5000
  20
191.3090
  10
0.0000
  20
191.3090
  10
0.0000
  20
202.9840
  10
4.5000
  20
202.9840
  10
4.5000
  20
214.6600
  10
0.0000
  20
214.6600
  10
0.0000
  20
226.3360
  10
4.5000
  20
226.3360
  10
4.5000
  20
238.0110
  10
0.0000
  20
238.0110
  10
0.0000
  20
249.6870
  10
4.5000
  20
249.6870
  10
4.5000
  20
261.3620
  10
0.0000
  20
261.3620
  10
0.0000
  20
273.0380
  10
4.5000
  20
273.0380
  10
4.5000
  20
284.7130
  10
0.0000
  20
284.7130
  10
0.0000
  20
296.3890
  10
4.5000
  20
296.3890
  10
4.5000
  20
308.0640
  0
LWPOLYLINE
  8
CUT
  90
9
  70
1
  10
68.7500
  20
30.9500
  10
83.6500
  20
30.9500
  10
85.1500
  20
29.4500
  10
85.1500
  20
15.9500
  10
83.6500
  20
14.4500
  10
68.7500
  20
14.4500
  10
67.2500
  20
15.9500
  10
67.2500
  20
29.4500
  0
LWPOLYLINE
  8
CUT
  90
9
  70
1
  10
88.8000
  20
33.0500
  10
101.4000
  20
33.0500
  10
102.9000
  20
31.5500
  10
102.9000
  20
16.9500
  10
101.4000
  20
15.4500
  10
88.8000
  20
15.4500
  10
87.3000
  20
16.9500
  10
87.3000
  20
31.5500
  0
LWPOLYLINE
  8
CUT
  90
9
  70
1
  10
106.6000
  20
33.0500
  10
119.4000
  20
33.0500
  10
120.9000
  20
31.5500
  10
120.9000
  20
16.9500
  10
119.4000
  20
15.4500
  10
106.6000
  20
15.4500
  10
105.1000
  20
16.9500
  10
105.1000
  20
31.5500
  0
LWPOLYLINE
  8
CUT
  90
9
  70
1
  10
102.1000
  20
43.6500
  10
119.9000
  20
43.6500
  10
121.4000
  20
42.1500
  10
121.4000
  20
37.0500
  10
119.9000
  20
35.5500
  10
102.1000
  20
35.5500
  10
100.6000
  20
37.0500
  10
100.6000
  20
42.1500
  0
CIRCLE
  8
CUT
  10
49.0000
  20
18.0000
  40
4.0000
  0
LWPOLYLINE
  8
CUT
  90
9
  70
1
  10
25.7500
  20
61.2500
  10
45.2500
  20
61.2500
  10
46.5000
  20
60.0000
  10
46.5000
  20
60.0000
  10
45.2500
  20
58.7500
  10
25.7500
  20
58.7500
  10
24.5000
  20
60.0000
  10
24.5000
  20
60.0000
  0
LWPOLYLINE
  8
CUT
  90
9
  70
1
  10
84.2500
  20
61.2500
  10
103.7500
  20
61.2500
  10
105.0000
  20
60.0000
  10
105.0000
  20
60.0000
  10
103.7500
  20
58.7500
  10
84.2500
  20
58.7500
  10
83.0000
  20
60.0000
  10
83.0000
  20
60.0000
  0
LWPOLYLINE
  8
CUT
  90
9
  70
1
  10
142.7500
  20
61.2500
  10
162.2500
  20
61.2500
  10
163.5000
  20
60.0000
  10
163.5000
  20
60.0000
  10
162.2500
  20
58.7500
  10
142.7500
  20
58.7500
  10
141.5000
  20
60.0000
  10
141.5000
  20
60.0000
  0
LWPOLYLINE
  8
CUT
  90
9
  70
1
  10
25.7500
  20
75.5000
  10
45.2500
  20
75.5000
  10
46.5000
  20
74.2500
  10
46.5000
  20
74.2500
  10
45.2500
  20
73.0000
  10
25.7500
  20
73.0000
  10
24.5000
  20
74.2500
  10
24.5000
  20
74.2500
  0
LWPOLYLINE
  8
CUT
  90
9
  70
1
  10
84.2500
  20
75.5000
  10
103.7500
  20
75.5000
  10
105.0000
  20
74.2500
  10
105.0000
  20
74.2500
  10
103.7500
  20
73.0000
  10
84.2500
  20
73.0000
  10
83.0000
  20
74.2500
  10
83.0000
  20
74.2500
  0
LWPOLYLINE
  8
CUT
  90
9
  70
1
  10
142.7500
  20
75.5000
  10
162.2500
  20
75.5000
  10
163.5000
  20
74.2500
  10
163.5000
  20
74.2500
  10
162.2500
  20
73.0000
  10
142.7500
  20
73.0000
  10
141.5000
  20
74.2500
  10
141.5000
  20
74.2500
  0
LWPOLYLINE
  8
CUT
  90
9
  70
1
  10
25.7500
  20
89.7500
  10
45.2500
  20
89.7500
  10
46.5000
  20
88.5000
  10
46.5000
  20
88.5000
  10
45.2500
  20
87.2500
  10
25.7500
  20
87.2500
  10
24.5000
  20
88.5000
  10
24.5000
  20
88.5000
  0
LWPOLYLINE
  8
CUT
  90
9
  70
1
  10
84.2500
  20
89.7500
  10
103.7500
  20
89.7500
  10
105.0000
  20
88.5000
  10
105.0000
  20
88.5000
  10
103.7500
  20
87.2500
  10
84.2500
  20
87.2500
  10
83.0000
  20
88.5000
  10
83.0000
  20
88.5000
  0
LWPOLYLINE
  8
CUT
  90
9
  70
1
  10
142.7500
  20
89.7500
  10
162.2500
  20
89.7500
  10
163.5000
  20
88.5000
  10
163.5000
  20
88.5000
  10
162.2500
  20
87.2500
  10
142.7500
  20
87.2500
  10
141.5000
  20
88.5000
  10
141.5000
  20
88.5000
  0
LWPOLYLINE
  8
CUT
  90
9
  70
1
  10
25.7500
  20
104.0000
  10
45.2500
  20
104.0000
  10
46.5000
  20
102.7500
  10
46.5000
  20
102.7500
  10
45.2500
  20
101.5000
  10
25.7500
  20
101.5000
  10
24.5000
  20
102.7500
  10
24.5000
  20
102.7500
  0
LWPOLYLINE
  8
CUT
  90
9
  70
1
  10
84.2500
  20
104.0000
  10
103.7500
  20
104.0000
  10
105.0000
  20
102.7500
  10
105.0000
  20
102.7500
  10
103.7500
  20
101.5000
  10
84.2500
  20
101.5000
  10
83.0000
  20
102.7500
  10
83.0000
  20
102.7500
  0
LWPOLYLINE
  8
CUT
  90
9
  70
1
  10
142.7500
  20
104.0000
  10
162.2500
  20
104.0000
  10
163.5000
  20
102.7500
  10
163.5000
  20
102.7500
  10
162.2500
  20
101.5000
  10
142.7500
  20
101.5000
  10
141.5000
  20
102.7500
  10
141.5000
  20
102.7500
  0
LWPOLYLINE
  8
CUT
  90
9
  70
1
  10
25.7500
  20
118.2500
  10
45.2500
  20
118.2500
  10
46.5000
  20
117.0000
  10
46.5000
  20
117.0000
  10
45.2500
  20
115.7500
  10
25.7500
  20
115.7500
  10
24.5000
  20
117.0000
  10
24.5000
  20
117.0000
  0
LWPOLYLINE
  8
CUT
  90
9
  70
1
  10
84.2500
  20
118.2500
  10
103.7500
  20
118.2500
  10
105.0000
  20
117.0000
  10
105.0000
  20
117.0000
  10
103.7500
  20
115.7500
  10
84.2500
  20
115.7500
  10
83.0000
  20
117.0000
  10
83.0000
  20
117.0000
  0
LWPOLYLINE
  8
CUT
  90
9
  70
1
  10
142.7500
  20
118.2500
  10
162.2500
  20
118.2500
  10
163.5000
  20
117.0000
  10
163.5000
  20
117.0000
  10
162.2500
  20
115.7500
  10
142.7500
  20
115.7500
  10
141.5000
  20
117.0000
  10
141.5000
  20
117.0000
  0
LWPOLYLINE
  8
CUT
  90
9
  70
1
  10
25.7500
  20
143.2500
  10
45.2500
  20
143.2500
  10
46.5000
  20
142.0000
  10
46.5000
  20
142.0000
  10
45.2500
  20
140.7500
  10
25.7500
  20
140.7500
  10
24.5000
  20
142.0000
  10
24.5000
  20
142.0000
  0
LWPOLYLINE
  8
CUT
  90
9
  70
1
  10
84.2500
  20
143.2500
  10
103.7500
  20
143.2500
  10
105.0000
  20
142.0000
  10
105.0000
  20
142.0000
  10
103.7500
  20
140.7500
  10
84.2500
  20
140.7500
  10
83.0000
  20
142.0000
  10
83.0000
  20
142.0000
  0
LWPOLYLINE
  8
CUT
  90
9
  70
1
  10
142.7500
  20
143.2500
  10
162.2500
  20
143.2500
  10
163.5000
  20
142.0000
  10
163.5000
  20
142.0000
  10
162.2500
  20
140.7500
  10
142.7500
  20
140.7500
  10
141.5000
  20
142.0000
  10
141.5000
  20
142.0000
  0
LWPOLYLINE
  8
CUT
  90
9
  70
1
  10
25.7500
  20
160.6770
  10
45.2500
  20
160.6770
  10
46.5000
  20
159.4270
  10
46.5000
  20
159.4270
  10
45.2500
  20
158.1770
  10
25.7500
  20
158.1770
  10
24.5000
  20
159.4270
  10
24.5000
  20
159.4270
  0
LWPOLYLINE
  8
CUT
  90
9
  70
1
  10
84.2500
  20
160.6770
  10
103.7500
  20
160.6770
  10
105.0000
  20
159.4270
  10
105.0000
  20
159.4270
  10
103.7500
  20
158.1770
  10
84.2500
  20
158.1770
  10
83.0000
  20
159.4270
  10
83.0000
  20
159.4270
  0
LWPOLYLINE
  8
CUT
  90
9
  70
1
  10
142.7500
  20
160.6770
  10
162.2500
  20
160.6770
  10
163.5000
  20
159.4270
  10
163.5000
  20
159.4270
  10
162.2500
  20
158.1770
  10
142.7500
  20
158.1770
  10
141.5000
  20
159.4270
  10
141.5000
  20
159.4270
  0
LWPOLYLINE
  8
CUT
  90
9
  70
1
  10
25.7500
  20
178.1040
  10
45.2500
  20
178.1040
  10
46.5000
  20
176.8540
  10
46.5000
  20
176.8540
  10
45.2500
  20
175.6040
  10
25.7500
  20
175.6040
  10
24.5000
  20
176.8540
  10
24.5000
  20
176.8540
  0
LWPOLYLINE
  8
CUT
  90
9
  70
1
  10
84.2500
  20
178.1040
  10
103.7500
  20
178.1040
  10
105.0000
  20
176.8540
  10
105.0000
  20
176.8540
  10
103.7500
  20
175.6040
  10
84.2500
  20
175.6040
  10
83.0000
  20
176.8540
  10
83.0000
  20
176.8540
  0
LWPOLYLINE
  8
CUT
  90
9
  70
1
  10
142.7500
  20
178.1040
  10
162.2500
  20
178.1040
  10
163.5000
  20
176.8540
  10
163.5000
  20
176.8540
  10
162.2500
  20
175.6040
  10
142.7500
  20
175.6040
  10
141.5000
  20
176.8540
  10
141.5000
  20
176.8540
  0
LWPOLYLINE
  8
CUT
  90
9
  70
1
  10
25.7500
  20
195.5310
  10
45.2500
  20
195.5310
  10
46.5000
  20
194.2810
  10
46.5000
  20
194.2810
  10
45.2500
  20
193.0310
  10
25.7500
  20
193.0310
  10
24.5000
  20
194.2810
  10
24.5000
  20
194.2810
  0
LWPOLYLINE
  8
CUT
  90
9
  70
1
  10
84.2500
  20
195.5310
  10
103.7500
  20
195.5310
  10
105.0000
  20
194.2810
  10
105.0000
  20
194.2810
  10
103.7500
  20
193.0310
  10
84.2500
  20
193.0310
  10
83.0000
  20
194.2810
  10
83.0000
  20
194.2810
  0
LWPOLYLINE
  8
CUT
  90
9
  70
1
  10
142.7500
  20
195.5310
  10
162.2500
  20
195.5310
  10
163.5000
  20
194.2810
  10
163.5000
  20
194.2810
  10
162.2500
  20
193.0310
  10
142.7500
  20
193.0310
  10
141.5000
  20
194.2810
  10
141.5000
  20
194.2810
  0
LWPOLYLINE
  8
CUT
  90
9
  70
1
  10
25.7500
  20
212.9590
  10
45.2500
  20
212.9590
  10
46.5000
  20
211.7090
  10
46.5000
  20
211.7090
  10
45.2500
  20
210.4590
  10
25.7500
  20
210.4590
  10
24.5000
  20
211.7090
  10
24.5000
  20
211.7090
  0
LWPOLYLINE
  8
CUT
  90
9
  70
1
  10
84.2500
  20
212.9590
  10
103.7500
  20
212.9590
  10
105.0000
  20
211.7090
  10
105.0000
  20
211.7090
  10
103.7500
  20
210.4590
  10
84.2500
  20
210.4590
  10
83.0000
  20
211.7090
  10
83.0000
  20
211.7090
  0
LWPOLYLINE
  8
CUT
  90
9
  70
1
  10
142.7500
  20
212.9590
  10
162.2500
  20
212.9590
  10
163.5000
  20
211.7090
  10
163.5000
  20
211.7090
  10
162.2500
  20
210.4590
  10
142.7500
  20
210.4590
  10
141.5000
  20
211.7090
  10
141.5000
  20
211.7090
  0
LWPOLYLINE
  8
CUT
  90
9
  70
1
  10
25.7500
  20
230.3860
  10
45.2500
  20
230.3860
  10
46.5000
  20
229.1360
  10
46.5000
  20
229.1360
  10
45.2500
  20
227.8860
  10
25.7500
  20
227.8860
  10
24.5000
  20
229.1360
  10
24.5000
  20
229.1360
  0
LWPOLYLINE
  8
CUT
  90
9
  70
1
  10
84.2500
  20
230.3860
  10
103.7500
  20
230.3860
  10
105.0000
  20
229.1360
  10
105.0000
  20
229.1360
  10
103.7500
  20
227.8860
  10
84.2500
  20
227.8860
  10
83.0000
  20
229.1360
  10
83.0000
  20
229.1360
  0
LWPOLYLINE
  8
CUT
  90
9
  70
1
  10
142.7500
  20
230.3860
  10
162.2500
  20
230.3860
  10
163.5000
  20
229.1360
  10
163.5000
  20
229.1360
  10
162.2500
  20
227.8860
  10
142.7500
  20
227.8860
  10
141.5000
  20
229.1360
  10
141.5000
  20
229.1360
  0
LWPOLYLINE
  8
CUT
  90
9
  70
1
  10
25.7500
  20
247.8130
  10
45.2500
  20
247.8130
  10
46.5000
  20
246.5630
  10
46.5000
  20
246.5630
  10
45.2500
  20
245.3130
  10
25.7500
  20
245.3130
  10
24.5000
  20
246.5630
  10
24.5000
  20
246.5630
  0
LWPOLYLINE
  8
CUT
  90
9
  70
1
  10
84.2500
  20
247.8130
  10
103.7500
  20
247.8130
  10
105.0000
  20
246.5630
  10
105.0000
  20
246.5630
  10
103.7500
  20
245.3130
  10
84.2500
  20
245.3130
  10
83.0000
  20
246.5630
  10
83.0000
  20
246.5630
  0
LWPOLYLINE
  8
CUT
  90
9
  70
1
  10
142.7500
  20
247.8130
  10
162.2500
  20
247.8130
  10
163.5000
  20
246.5630
  10
163.5000
  20
246.5630
  10
162.2500
  20
245.3130
  10
142.7500
  20
245.3130
  10
141.5000
  20
246.5630
  10
141.5000
  20
246.5630
  0
LWPOLYLINE
  8
CUT
  90
9
  70
1
  10
25.7500
  20
265.2400
  10
45.2500
  20
265.2400
  10
46.5000
  20
263.9900
  10
46.5000
  20
263.9900
  10
45.2500
  20
262.7400
  10
25.7500
  20
262.7400
  10
24.5000
  20
263.9900
  10
24.5000
  20
263.9900
  0
LWPOLYLINE
  8
CUT
  90
9
  70
1
  10
84.2500
  20
265.2400
  10
103.7500
  20
265.2400
  10
105.0000
  20
263.9900
  10
105.0000
  20
263.9900
  10
103.7500
  20
262.7400
  10
84.2500
  20
262.7400
  10
83.0000
  20
263.9900
  10
83.0000
  20
263.9900
  0
LWPOLYLINE
  8
CUT
  90
9
  70
1
  10
142.7500
  20
265.2400
  10
162.2500
  20
265.2400
  10
163.5000
  20
263.9900
  10
163.5000
  20
263.9900
  10
162.2500
  20
262.7400
  10
142.7500
  20
262.7400
  10
141.5000
  20
263.9900
  10
141.5000
  20
263.9900
  0
LWPOLYLINE
  8
CUT
  90
169
  70
1
  10
195.5000
  20
319.7400
  10
199.4120
  20
319.7400
  10
199.4120
  20
322.7400
  10
210.8240
  20
322.7400
  10
210.8240
  20
319.7400
  10
222.2350
  20
319.7400
  10
222.2350
  20
322.7400
  10
233.6470
  20
322.7400
  10
233.6470
  20
319.7400
  10
245.0590
  20
319.7400
  10
245.0590
  20
322.7400
  10
256.4710
  20
322.7400
  10
256.4710
  20
319.7400
  10
267.8820
  20
319.7400
  10
267.8820
  20
322.7400
  10
279.2940
  20
322.7400
  10
279.2940
  20
319.7400
  10
290.7060
  20
319.7400
  10
290.7060
  20
322.7400
  10
302.1180
  20
322.7400
  10
302.1180
  20
319.7400
  10
313.5290
  20
319.7400
  10
313.5290
  20
322.7400
  10
324.9410
  20
322.7400
  10
324.9410
  20
319.7400
  10
336.3530
  20
319.7400
  10
336.3530
  20
322.7400
  10
347.7650
  20
322.7400
  10
347.7650
  20
319.7400
  10
359.1760
  20
319.7400
  10
359.1760
  20
322.7400
  10
370.5880
  20
322.7400
  10
370.5880
  20
319.7400
  10
374.5000
  20
319.7400
  10
374.5000
  20
308.0640
  10
374.5000
  20
296.3890
  10
379.0000
  20
296.3890
  10
379.0000
  20
284.7130
  10
374.5000
  20
284.7130
  10
374.5000
  20
273.0380
  10
379.0000
  20
273.0380
  10
379.0000
  20
261.3620
  10
374.5000
  20
261.3620
  10
374.5000
  20
249.6870
  10
379.0000
  20
249.6870
  10
379.0000
  20
238.0110
  10
374.5000
  20
238.0110
  10
374.5000
  20
226.3360
  10
379.0000
  20
226.3360
  10
379.0000
  20
214.6600
  10
374.5000
  20
214.6600
  10
374.5000
  20
202.9840
  10
379.0000
  20
202.9840
  10
379.0000
  20
191.3090
  10
374.5000
  20
191.3090
  10
374.5000
  20
179.6330
  10
379.0000
  20
179.6330
  10
379.0000
  20
167.9580
  10
374.5000
  20
167.9580
  10
374.5000
  20
156.2820
  10
379.0000
  20
156.2820
  10
379.0000
  20
144.6070
  10
374.5000
  20
144.6070
  10
374.5000
  20
132.9310
  10
379.0000
  20
132.9310
  10
379.0000
  20
121.2560
  10
374.5000
  20
121.2560
  10
374.5000
  20
109.5800
  10
379.0000
  20
109.5800
  10
379.0000
  20
97.9040
  10
374.5000
  20
97.9040
  10
374.5000
  20
86.2290
  10
379.0000
  20
86.2290
  10
379.0000
  20
74.5530
  10
374.5000
  20
74.5530
  10
374.5000
  20
62.8780
  10
379.0000
  20
62.8780
  10
379.0000
  20
51.2020
  10
374.5000
  20
51.2020
  10
374.5000
  20
39.5270
  10
379.0000
  20
39.5270
  10
379.0000
  20
27.8510
  10
374.5000
  20
27.8510
  10
374.5000
  20
16.1760
  10
374.5000
  20
4.5000
  10
370.5880
  20
4.5000
  10
370.5880
  20
0.0000
  10
359.1760
  20
0.0000
  10
359.1760
  20
4.5000
  10
347.7650
  20
4.5000
  10
347.7650
  20
0.0000
  10
336.3530
  20
0.0000
  10
336.3530
  20
4.5000
  10
324.9410
  20
4.5000
  10
324.9410
  20
0.0000
  10
313.5290
  20
0.0000
  10
313.5290
  20
4.5000
  10
302.1180
  20
4.5000
  10
302.1180
  20
0.0000
  10
290.7060
  20
0.0000
  10
290.7060
  20
4.5000
  10
279.2940
  20
4.5000
  10
279.2940
  20
0.0000
  10
267.8820
  20
0.0000
  10
267.8820
  20
4.5000
  10
256.4710
  20
4.5000
  10
256.4710
  20
0.0000
  10
245.0590
  20
0.0000
  10
245.0590
  20
4.5000
  10
233.6470
  20
4.5000
  10
233.6470
  20
0.0000
  10
222.2350
  20
0.0000
  10
222.2350
  20
4.5000
  10
210.8240
  20
4.5000
  10
210.8240
  20
0.0000
  10
199.4120
  20
0.0000
  10
199.4120
  20
4.5000
  10
195.5000
  20
4.5000
  10
195.5000
  20
16.1760
  10
195.5000
  20
27.8510
  10
191.0000
  20
27.8510
  10
191.0000
  20
39.5270
  10
195.5000
  20
39.5270
  10
195.5000
  20
51.2020
  10
191.0000
  20
51.2020
  10
191.0000
  20
62.8780
  10
195.5000
  20
62.8780
  10
195.5000
  20
74.5530
  10
191.0000
  20
74.5530
  10
191.0000
  20
86.2290
  10
195.5000
  20
86.2290
  10
195.5000
  20
97.9040
  10
191.0000
  20
97.9040
  10
191.0000
  20
109.5800
  10
195.5000
  20
109.5800
  10
195.5000
  20
121.2560
  10
191.0000
  20
121.2560
  10
191.0000
  20
132.9310
  10
195.5000
  20
132.9310
  10
195.5000
  20
144.6070
  10
191.0000
  20
144.6070
  10
191.0000
  20
156.2820
  10
195.5000
  20
156.2820
  10
195.5000
  20
167.9580
  10
191.0000
  20
167.9580
  10
191.0000
  20
179.6330
  10
195.5000
  20
179.6330
  10
195.5000
  20
191.3090
  10
191.0000
  20
191.3090
  10
191.0000
  20
202.9840
  10
195.5000
  20
202.9840
  10
195.5000
  20
214.6600
  10
191.0000
  20
214.6600
  10
191.0000
  20
226.3360
  10
195.5000
  20
226.3360
  10
195.5000
  20
238.0110
  10
191.0000
  20
238.0110
  10
191.0000
  20
249.6870
  10
195.5000
  20
249.6870
  10
195.5000
  20
261.3620
  10
191.0000
  20
261.3620
  10
191.0000
  20
273.0380
  10
195.5000
  20
273.0380
  10
195.5000
  20
284.7130
  10
191.0000
  20
284.7130
  10
191.0000
  20
296.3890
  10
195.5000
  20
296.3890
  10
195.5000
  20
308.0640
  0
LWPOLYLINE
  8
ENGRAVE
  90
2
  70
0
  10
232.6230
  20
249.3780
  10
226.1430
  20
228.3780
  0
LWPOLYLINE
  8
ENGRAVE
  90
2
  70
0
  10
232.0500
  20
249.5550
  10
225.5700
  20
228.5550
  0
LWPOLYLINE
  8
ENGRAVE
  90
2
  70
0
  10
231.4770
  20
249.7320
  10
224.9970
  20
228.7320
  0
LWPOLYLINE
  8
ENGRAVE
  90
2
  70
0
  10
232.0500
  20
250.1550
  10
237.4500
  20
250.1550
  0
LWPOLYLINE
  8
ENGRAVE
  90
2
  70
0
  10
232.0500
  20
249.5550
  10
237.4500
  20
249.5550
  0
LWPOLYLINE
  8
ENGRAVE
  90
2
  70
0
  10
232.0500
  20
248.9550
  10
237.4500
  20
248.9550
  0
LWPOLYLINE
  8
ENGRAVE
  90
2
  70
0
  10
237.6670
  20
250.1140
  10
241.5370
  20
248.6140
  0
LWPOLYLINE
  8
ENGRAVE
  90
2
  70
0
  10
237.4500
  20
249.5550
  10
241.3200
  20
248.0550
  0
LWPOLYLINE
  8
ENGRAVE
  90
2
  70
0
  10
237.2330
  20
248.9960
  10
241.1030
  20
247.4960
  0
LWPOLYLINE
  8
ENGRAVE
  90
2
  70
0
  10
241.9200
  20
248.0670
  10
241.9920
  20
244.4670
  0
LWPOLYLINE
  8
ENGRAVE
  90
2
  70
0
  10
241.3200
  20
248.0550
  10
241.3920
  20
244.4550
  0
LWPOLYLINE
  8
ENGRAVE
  90
2
  70
0
  10
240.7200
  20
248.0430
  10
240.7920
  20
244.4430
  0
LWPOLYLINE
  8
ENGRAVE
  90
2
  70
0
  10
241.9560
  20
244.2490
  10
240.5340
  20
240.3490
  0
LWPOLYLINE
  8
ENGRAVE
  90
2
  70
0
  10
241.3920
  20
244.4550
  10
239.9700
  20
240.5550
  0
LWPOLYLINE
  8
ENGRAVE
  90
2
  70
0
  10
240.8280
  20
244.6610
  10
239.4060
  20
240.7610
  0
LWPOLYLINE
  8
ENGRAVE
  90
2
  70
0
  10
240.1630
  20
239.9870
  10
235.7530
  20
238.4870
  0
LWPOLYLINE
  8
ENGRAVE
  90
2
  70
0
  10
239.9700
  20
240.5550
  10
235.5600
  20
239.0550
  0
LWPOLYLINE
  8
ENGRAVE
  90
2
  70
0
  10
239.7770
  20
241.1230
  10
235.3670
  20
239.6230
  0
LWPOLYLINE
  8
ENGRAVE
  90
2
  70
0
  10
235.5600
  20
238.4550
  10
229.2600
  20
238.4550
  0
LWPOLYLINE
  8
ENGRAVE
  90
2
  70
0
  10
235.5600
  20
239.0550
  10
229.2600
  20
239.0550
  0
LWPOLYLINE
  8
ENGRAVE
  90
2
  70
0
  10
235.5600
  20
239.6550
  10
229.2600
  20
239.6550
  0
LWPOLYLINE
  8
ENGRAVE
  90
2
  70
0
  10
255.4250
  20
249.3830
  10
250.9250
  20
234.3830
  0
LWPOLYLINE
  8
ENGRAVE
  90
2
  70
0
  10
254.8500
  20
249.5550
  10
250.3500
  20
234.5550
  0
LWPOLYLINE
  8
ENGRAVE
  90
2
  70
0
  10
254.2750
  20
249.7270
  10
249.7750
  20
234.7270
  0
LWPOLYLINE
  8
ENGRAVE
  90
2
  70
0
  10
257.5940
  20
254.4560
  10
256.8560
  20
252.3560
  0
LWPOLYLINE
  8
ENGRAVE
  90
2
  70
0
  10
257.0280
  20
254.6550
  10
256.2900
  20
252.5550
  0
LWPOLYLINE
  8
ENGRAVE
  90
2
  70
0
  10
256.4620
  20
254.8540
  10
255.7240
  20
252.7540
  0
LWPOLYLINE
  8
ENGRAVE
  90
2
  70
0
  10
271.1700
  20
244.1550
  10
281.9700
  20
244.1550
  0
LWPOLYLINE
  8
ENGRAVE
  90
2
  70
0
  10
271.1700
  20
243.5550
  10
281.9700
  20
243.5550
  0
LWPOLYLINE
  8
ENGRAVE
  90
2
  70
0
  10
271.1700
  20
242.9550
  10
281.9700
  20
242.9550
  0
LWPOLYLINE
  8
ENGRAVE
  90
2
  70
0
  10
295.6250
  20
249.3830
  10
291.1250
  20
234.3830
  0
LWPOLYLINE
  8
ENGRAVE
  90
2
  70
0
  10
295.0500
  20
249.5550
  10
290.5500
  20
234.5550
  0
LWPOLYLINE
  8
ENGRAVE
  90
2
  70
0
  10
294.4750
  20
249.7270
  10
289.9750
  20
234.7270
  0
LWPOLYLINE
  8
ENGRAVE
  90
2
  70
0
  10
293.8110
  20
245.4750
  10
298.2210
  20
249.9750
  0
LWPOLYLINE
  8
ENGRAVE
  90
2
  70
0
  10
294.2400
  20
245.0550
  10
298.6500
  20
249.5550
  0
LWPOLYLINE
  8
ENGRAVE
  90
2
  70
0
  10
294.6690
  20
244.6350
  10
299.0790
  20
249.1350
  0
LWPOLYLINE
  8
ENGRAVE
  90
2
  70
0
  10
298.6500
  20
250.1550
  10
302.2500
  20
250.1550
  0
LWPOLYLINE
  8
ENGRAVE
  90
2
  70
0
  10
298.6500
  20
249.5550
  10
302.2500
  20
249.5550
  0
LWPOLYLINE
  8
ENGRAVE
  90
2
  70
0
  10
298.6500
  20
248.9550
  10
302.2500
  20
248.9550
  0
LWPOLYLINE
  8
ENGRAVE
  90
2
  70
0
  10
302.8360
  20
249.6840
  10
303.8260
  20
245.1840
  0
LWPOLYLINE
  8
ENGRAVE
  90
2
  70
0
  10
302.2500
  20
249.5550
  10
303.2400
  20
245.0550
  0
LWPOLYLINE
  8
ENGRAVE
  90
2
  70
0
  10
301.6640
  20
249.4260
  10
302.6540
  20
244.9260
  0
LWPOLYLINE
  8
ENGRAVE
  90
2
  70
0
  10
303.8060
  20
244.8560
  10
300.1160
  20
234.3560
  0
LWPOLYLINE
  8
ENGRAVE
  90
2
  70
0
  10
303.2400
  20
245.0550
  10
299.5500
  20
234.5550
  0
LWPOLYLINE
  8
ENGRAVE
  90
2
  70
0
  10
302.6740
  20
245.2540
  10
298.9840
  20
234.7540
  0
LWPOLYLINE
  8
ENGRAVE
  90
2
  70
0
  10
324.1500
  20
248.9550
  10
320.5500
  20
248.9550
  0
LWPOLYLINE
  8
ENGRAVE
  90
2
  70
0
  10
324.1500
  20
249.5550
  10
320.5500
  20
249.5550
  0
LWPOLYLINE
  8
ENGRAVE
  90
2
  70
0
  10
324.1500
  20
250.1550
  10
320.5500
  20
250.1550
  0
LWPOLYLINE
  8
ENGRAVE
  90
2
  70
0
  10
320.8570
  20
249.0390
  10
315.8170
  20
246.0390
  0
LWPOLYLINE
  8
ENGRAVE
  90
2
  70
0
  10
320.5500
  20
249.5550
  10
315.5100
  20
246.5550
  0
LWPOLYLINE
  8
ENGRAVE
  90
2
  70
0
  10
320.2430
  20
250.0710
  10
315.2030
  20
247.0710
  0
LWPOLYLINE
  8
ENGRAVE
  90
2
  70
0
  10
316.0710
  20
246.3420
  10
314.3610
  20
241.8420
  0
LWPOLYLINE
  8
ENGRAVE
  90
2
  70
0
  10
315.5100
  20
246.5550
  10
313.8000
  20
242.0550
  0
LWPOLYLINE
  8
ENGRAVE
  90
2
  70
0
  10
314.9490
  20
246.7680
  10
313.2390
  20
242.2680
  0
LWPOLYLINE
  8
ENGRAVE
  90
2
  70
0
  10
314.4000
  20
242.0670
  10
314.4900
  20
237.5670
  0
LWPOLYLINE
  8
ENGRAVE
  90
2
  70
0
  10
313.8000
  20
242.0550
  10
313.8900
  20
237.5550
  0
LWPOLYLINE
  8
ENGRAVE
  90
2
  70
0
  10
313.2000
  20
242.0430
  10
313.2900
  20
237.5430
  0
LWPOLYLINE
  8
ENGRAVE
  90
2
  70
0
  10
314.2520
  20
238.0330
  10
318.2120
  20
235.0330
  0
LWPOLYLINE
  8
ENGRAVE
  90
2
  70
0
  10
313.8900
  20
237.5550
  10
317.8500
  20
234.5550
  0
LWPOLYLINE
  8
ENGRAVE
  90
2
  70
0
  10
313.5280
  20
237.0770
  10
317.4880
  20
234.0770
  0
LWPOLYLINE
  8
ENGRAVE
  90
2
  70
0
  10
317.5800
  20
235.0910
  10
320.5500
  20
236.5910
  0
LWPOLYLINE
  8
ENGRAVE
  90
2
  70
0
  10
317.8500
  20
234.5550
  10
320.8200
  20
236.0550
  0
LWPOLYLINE
  8
ENGRAVE
  90
2
  70
0
  10
318.1200
  20
234.0190
  10
321.0900
  20
235.5190
  0
LWPOLYLINE
  8
ENGRAVE
  90
2
  70
0
  10
326.1520
  20
249.3460
  10
320.5720
  20
234.3460
  0
LWPOLYLINE
  8
ENGRAVE
  90
2
  70
0
  10
325.5900
  20
249.5550
  10
320.0100
  20
234.5550
  0
LWPOLYLINE
  8
ENGRAVE
  90
2
  70
0
  10
325.0280
  20
249.7640
  10
319.4480
  20
234.7640
  0
LWPOLYLINE
  8
ENGRAVE
  90
2
  70
0
  10
345.5340
  20
247.5080
  10
342.2040
  20
249.0080
  0
LWPOLYLINE
  8
ENGRAVE
  90
2
  70
0
  10
345.7800
  20
248.0550
  10
342.4500
  20
249.5550
  0
LWPOLYLINE
  8
ENGRAVE
  90
2
  70
0
  10
346.0260
  20
248.6020
  10
342.6960
  20
250.1020
  0
LWPOLYLINE
  8
ENGRAVE
  90
2
  70
0
  10
342.5640
  20
248.9660
  10
337.9020
  20
248.0660
  0
LWPOLYLINE
  8
ENGRAVE
  90
2
  70
0
  10
342.4500
  20
249.5550
  10
337.7880
  20
248.6550
  0
LWPOLYLINE
  8
ENGRAVE
  90
2
  70
0
  10
342.3360
  20
250.1440
  10
337.6740
  20
249.2440
  0
LWPOLYLINE
  8
ENGRAVE
  90
2
  70
0
  10
338.2890
  20
248.3240
  10
336.3090
  20
245.3240
  0
LWPOLYLINE
  8
ENGRAVE
  90
2
  70
0
  10
337.7880
  20
248.6550
  10
335.8080
  20
245.6550
  0
LWPOLYLINE
  8
ENGRAVE
  90
2
  70
0
  10
337.2870
  20
248.9860
  10
335.3070
  20
245.9860
  0
LWPOLYLINE
  8
ENGRAVE
  90
2
  70
0
  10
336.3220
  20
245.9640
  10
338.1220
  20
242.9640
  0
LWPOLYLINE
  8
ENGRAVE
  90
2
  70
0
  10
335.8080
  20
245.6550
  10
337.6080
  20
242.6550
  0
LWPOLYLINE
  8
ENGRAVE
  90
2
  70
0
  10
335.2940
  20
245.3460
  10
337.0940
  20
242.3460
  0
LWPOLYLINE
  8
ENGRAVE
  90
2
  70
0
  10
337.8800
  20
243.1900
  10
342.0020
  20
241.0900
  0
LWPOLYLINE
  8
ENGRAVE
  90
2
  70
0
  10
337.6080
  20
242.6550
  10
341.7300
  20
240.5550
  0
LWPOLYLINE
  8
ENGRAVE
  90
2
  70
0
  10
337.3360
  20
242.1200
  10
341.4580
  20
240.0200
  0
LWPOLYLINE
  8
ENGRAVE
  90
2
  70
0
  10
342.3050
  20
240.7270
  10
343.2050
  20
237.7270
  0
LWPOLYLINE
  8
ENGRAVE
  90
2
  70
0
  10
341.7300
  20
240.5550
  10
342.6300
  20
237.5550
  0
LWPOLYLINE
  8
ENGRAVE
  90
2
  70
0
  10
341.1550
  20
240.3830
  10
342.0550
  20
237.3830
  0
LWPOLYLINE
  8
ENGRAVE
  90
2
  70
0
  10
343.0630
  20
237.1390
  10
340.1830
  20
234.1390
  0
LWPOLYLINE
  8
ENGRAVE
  90
2
  70
0
  10
342.6300
  20
237.5550
  10
339.7500
  20
234.5550
  0
LWPOLYLINE
  8
ENGRAVE
  90
2
  70
0
  10
342.1970
  20
237.9710
  10
339.3170
  20
234.9710
  0
LWPOLYLINE
  8
ENGRAVE
  90
2
  70
0
  10
339.6280
  20
233.9680
  10
335.2900
  20
234.8680
  0
LWPOLYLINE
  8
ENGRAVE
  90
2
  70
0
  10
339.7500
  20
234.5550
  10
335.4120
  20
235.4550
  0
LWPOLYLINE
  8
ENGRAVE
  90
2
  70
0
  10
339.8720
  20
235.1420
  10
335.5340
  20
236.0420
  0
LWPOLYLINE
  8
ENGRAVE
  90
2
  70
0
  10
335.0100
  20
235.0100
  10
332.6880
  20
237.1100
  0
LWPOLYLINE
  8
ENGRAVE
  90
2
  70
0
  10
335.4120
  20
235.4550
  10
333.0900
  20
237.5550
  0
LWPOLYLINE
  8
ENGRAVE
  90
2
  70
0
  10
335.8140
  20
235.9000
  10
333.4920
  20
238.0000
  0
LWPOLYLINE
  8
CUT
  90
73
  70
1
  10
505.0000
  20
322.7400
  10
508.0000
  20
322.7400
  10
508.0000
  20
311.3280
  10
505.0000
  20
311.3280
  10
505.0000
  20
299.9160
  10
508.0000
  20
299.9160
  10
508.0000
  20
288.5050
  10
505.0000
  20
288.5050
  10
505.0000
  20
277.0930
  10
508.0000
  20
277.0930
  10
508.0000
  20
265.6810
  10
505.0000
  20
265.6810
  10
505.0000
  20
254.2690
  10
508.0000
  20
254.2690
  10
508.0000
  20
242.8580
  10
505.0000
  20
242.8580
  10
505.0000
  20
231.4460
  10
508.0000
  20
231.4460
  10
508.0000
  20
220.0340
  10
505.0000
  20
220.0340
  10
505.0000
  20
208.6220
  10
508.0000
  20
208.6220
  10
508.0000
  20
197.2110
  10
505.0000
  20
197.2110
  10
505.0000
  20
185.7990
  10
508.0000
  20
185.7990
  10
508.0000
  20
174.3870
  10
505.0000
  20
174.3870
  10
505.0000
  20
162.9750
  10
508.0000
  20
162.9750
  10
508.0000
  20
151.5640
  10
505.0000
  20
151.5640
  10
505.0000
  20
140.1520
  10
508.0000
  20
140.1520
  10
508.0000
  20
128.7400
  10
505.0000
  20
128.7400
  10
385.0000
  20
128.7400
  10
382.0000
  20
128.7400
  10
382.0000
  20
140.1520
  10
385.0000
  20
140.1520
  10
385.0000
  20
151.5640
  10
382.0000
  20
151.5640
  10
382.0000
  20
162.9750
  10
385.0000
  20
162.9750
  10
385.0000
  20
174.3870
  10
382.0000
  20
174.3870
  10
382.0000
  20
185.7990
  10
385.0000
  20
185.7990
  10
385.0000
  20
197.2110
  10
382.0000
  20
197.2110
  10
382.0000
  20
208.6220
  10
385.0000
  20
208.6220
  10
385.0000
  20
220.0340
  10
382.0000
  20
220.0340
  10
382.0000
  20
231.4460
  10
385.0000
  20
231.4460
  10
385.0000
  20
242.8580
  10
382.0000
  20
242.8580
  10
382.0000
  20
254.2690
  10
385.0000
  20
254.2690
  10
385.0000
  20
265.6810
  10
382.0000
  20
265.6810
  10
382.0000
  20
277.0930
  10
385.0000
  20
277.0930
  10
385.0000
  20
288.5050
  10
382.0000
  20
288.5050
  10
382.0000
  20
299.9160
  10
385.0000
  20
299.9160
  10
385.0000
  20
311.3280
  10
382.0000
  20
311.3280
  10
382.0000
  20
322.7400
  10
385.0000
  20
322.7400
  0
LWPOLYLINE
  8
CUT
  90
5
  70
1
  10
494.0910
  20
319.7400
  10
505.0000
  20
319.7400
  10
505.0000
  20
315.2400
  10
494.0910
  20
315.2400
  0
LWPOLYLINE
  8
CUT
  90
5
  70
1
  10
472.2730
  20
319.7400
  10
483.1820
  20
319.7400
  10
483.1820
  20
315.2400
  10
472.2730
  20
315.2400
  0
LWPOLYLINE
  8
CUT
  90
5
  70
1
  10
450.4550
  20
319.7400
  10
461.3640
  20
319.7400
  10
461.3640
  20
315.2400
  10
450.4550
  20
315.2400
  0
LWPOLYLINE
  8
CUT
  90
5
  70
1
  10
428.6360
  20
319.7400
  10
439.5450
  20
319.7400
  10
439.5450
  20
315.2400
  10
428.6360
  20
315.2400
  0
LWPOLYLINE
  8
CUT
  90
5
  70
1
  10
406.8180
  20
319.7400
  10
417.7270
  20
319.7400
  10
417.7270
  20
315.2400
  10
406.8180
  20
315.2400
  0
LWPOLYLINE
  8
CUT
  90
5
  70
1
  10
385.0000
  20
319.7400
  10
395.9090
  20
319.7400
  10
395.9090
  20
315.2400
  10
385.0000
  20
315.2400
  0
LWPOLYLINE
  8
CUT
  90
5
  70
1
  10
494.0910
  20
136.2400
  10
505.0000
  20
136.2400
  10
505.0000
  20
131.7400
  10
494.0910
  20
131.7400
  0
LWPOLYLINE
  8
CUT
  90
5
  70
1
  10
472.2730
  20
136.2400
  10
483.1820
  20
136.2400
  10
483.1820
  20
131.7400
  10
472.2730
  20
131.7400
  0
LWPOLYLINE
  8
CUT
  90
5
  70
1
  10
450.4550
  20
136.2400
  10
461.3640
  20
136.2400
  10
461.3640
  20
131.7400
  10
450.4550
  20
131.7400
  0
LWPOLYLINE
  8
CUT
  90
5
  70
1
  10
428.6360
  20
136.2400
  10
439.5450
  20
136.2400
  10
439.5450
  20
131.7400
  10
428.6360
  20
131.7400
  0
LWPOLYLINE
  8
CUT
  90
5
  70
1
  10
406.8180
  20
136.2400
  10
417.7270
  20
136.2400
  10
417.7270
  20
131.7400
  10
406.8180
  20
131.7400
  0
LWPOLYLINE
  8
CUT
  90
5
  70
1
  10
385.0000
  20
136.2400
  10
395.9090
  20
136.2400
  10
395.9090
  20
131.7400
  10
385.0000
  20
131.7400
  0
CIRCLE
  8
CUT
  10
492.5000
  20
310.2400
  40
2.2500
  0
CIRCLE
  8
CUT
  10
492.5000
  20
141.2400
  40
2.2500
  0
CIRCLE
  8
CUT
  10
397.5000
  20
310.2400
  40
2.2500
  0
CIRCLE
  8
CUT
  10
397.5000
  20
141.2400
  40
2.2500
  0
LWPOLYLINE
  8
CUT
  90
11
  70
1
  10
443.2120
  20
216.9190
  10
440.7430
  20
217.8100
  10
438.6360
  20
219.3760
  10
437.0700
  20
221.4830
  10
436.1790
  20
223.9520
  10
439.1200
  20
224.5480
  10
439.7140
  20
222.9020
  10
440.7570
  20
221.4970
  10
442.1620
  20
220.4540
  10
443.8080
  20
219.8600
  0
LWPOLYLINE
  8
CUT
  90
11
  70
1
  10
436.1790
  20
227.5280
  10
437.0700
  20
229.9970
  10
438.6360
  20
232.1040
  10
440.7430
  20
233.6700
  10
443.2120
  20
234.5610
  10
443.8080
  20
231.6200
  10
442.1620
  20
231.0260
  10
440.7570
  20
229.9830
  10
439.7140
  20
228.5780
  10
439.1200
  20
226.9320
  0
LWPOLYLINE
  8
CUT
  90
11
  70
1
  10
446.7880
  20
234.5610
  10
449.2570
  20
233.6700
  10
451.3640
  20
232.1040
  10
452.9300
  20
229.9970
  10
453.8210
  20
227.5280
  10
450.8800
  20
226.9320
  10
450.2860
  20
228.5780
  10
449.2430
  20
229.9830
  10
447.8380
  20
231.0260
  10
446.1920
  20
231.6200
  0
LWPOLYLINE
  8
CUT
  90
11
  70
1
  10
453.8210
  20
223.9520
  10
452.9300
  20
221.4830
  10
451.3640
  20
219.3760
  10
449.2570
  20
217.8100
  10
446.7880
  20
216.9190
  10
446.1920
  20
219.8600
  10
447.8380
  20
220.4540
  10
449.2430
  20
221.4970
  10
450.2860
  20
222.9020
  10
450.8800
  20
224.5480
  0
LWPOLYLINE
  8
CUT
  90
13
  70
1
  10
443.3480
  20
209.8260
  10
441.1720
  20
210.2050
  10
439.0690
  20
210.8800
  10
437.0800
  20
211.8380
  10
435.2410
  20
213.0610
  10
433.5880
  20
214.5260
  10
435.7280
  20
216.6280
  10
437.0710
  20
215.4380
  10
438.5650
  20
214.4450
  10
440.1810
  20
213.6660
  10
441.8900
  20
213.1180
  10
443.6580
  20
212.8090
  0
LWPOLYLINE
  8
CUT
  90
13
  70
1
  10
431.5270
  20
217.1090
  10
430.4670
  20
219.0470
  10
429.6840
  20
221.1120
  10
429.1930
  20
223.2650
  10
429.0020
  20
225.4650
  10
429.1170
  20
227.6710
  10
432.0950
  20
227.3090
  10
432.0020
  20
225.5170
  10
432.1570
  20
223.7290
  10
432.5560
  20
221.9790
  10
433.1920
  20
220.3020
  10
434.0540
  20
218.7280
  0
LWPOLYLINE
  8
CUT
  90
13
  70
1
  10
429.8520
  20
230.8920
  10
430.7060
  20
232.9290
  10
431.8320
  20
234.8290
  10
433.2090
  20
236.5550
  10
434.8110
  20
238.0760
  10
436.6060
  20
239.3620
  10
438.1800
  20
236.8080
  10
436.7210
  20
235.7630
  10
435.4200
  20
234.5270
  10
434.3010
  20
233.1250
  10
433.3860
  20
231.5810
  10
432.6920
  20
229.9260
  0
LWPOLYLINE
  8
CUT
  90
13
  70
1
  10
439.5840
  20
240.7950
  10
441.7080
  20
241.3980
  10
443.8960
  20
241.7020
  10
446.1040
  20
241.7020
  10
448.2920
  20
241.3980
  10
450.4160
  20
240.7950
  10
449.4010
  20
237.9720
  10
447.6750
  20
238.4620
  10
445.8970
  20
238.7090
  10
444.1030
  20
238.7090
  10
442.3250
  20
238.4620
  10
440.5990
  20
237.9720
  0
LWPOLYLINE
  8
CUT
  90
13
  70
1
  10
453.3940
  20
239.3620
  10
455.1890
  20
238.0760
  10
456.7910
  20
236.5550
  10
458.1680
  20
234.8290
  10
459.2940
  20
232.9290
  10
460.1480
  20
230.8920
  10
457.3080
  20
229.9260
  10
456.6140
  20
231.5810
  10
455.6990
  20
233.1250
  10
454.5800
  20
234.5270
  10
453.2790
  20
235.7630
  10
451.8200
  20
236.8080
  0
LWPOLYLINE
  8
CUT
  90
13
  70
1
  10
460.8830
  20
227.6710
  10
460.9980
  20
225.4650
  10
460.8070
  20
223.2650
  10
460.3160
  20
221.1120
  10
459.5330
  20
219.0470
  10
458.4730
  20
217.1090
  10
455.9460
  20
218.7280
  10
456.8080
  20
220.3020
  10
457.4440
  20
221.9790
  10
457.8430
  20
223.7290
  10
457.9980
  20
225.5170
  10
457.9050
  20
227.3090
  0
LWPOLYLINE
  8
CUT
  90
13
  70
1
  10
456.4120
  20
214.5260
  10
454.7590
  20
213.0610
  10
452.9200
  20
211.8380
  10
450.9310
  20
210.8800
  10
448.8280
  20
210.2050
  10
446.6520
  20
209.8260
  10
446.3420
  20
212.8090
  10
448.1100
  20
213.1180
  10
449.8190
  20
213.6660
  10
451.4350
  20
214.4450
  10
452.9290
  20
215.4380
  10
454.2720
  20
216.6280
  0
LWPOLYLINE
  8
CUT
  90
11
  70
1
  10
443.3970
  20
202.7960
  10
440.9350
  20
203.1020
  10
438.5200
  20
203.6720
  10
436.1810
  20
204.4980
  10
433.9440
  20
205.5710
  10
435.3860
  20
208.2020
  10
437.3310
  20
207.2690
  10
439.3650
  20
206.5500
  10
441.4650
  20
206.0550
  10
443.6060
  20
205.7890
  0
LWPOLYLINE
  8
CUT
  90
11
  70
1
  10
431.2470
  20
207.3050
  10
429.3410
  20
208.8940
  10
427.6180
  20
210.6780
  10
426.0970
  20
212.6380
  10
424.7950
  20
214.7500
  10
427.4310
  20
216.1840
  10
428.5620
  20
214.3470
  10
429.8850
  20
212.6430
  10
431.3840
  20
211.0910
  10
433.0410
  20
209.7100
  0
LWPOLYLINE
  8
CUT
  90
11
  70
1
  10
423.4630
  20
217.6670
  10
422.7190
  20
220.0340
  10
422.2340
  20
222.4670
  10
422.0140
  20
224.9380
  10
422.0610
  20
227.4180
  10
425.0530
  20
227.1990
  10
425.0120
  20
225.0420
  10
425.2040
  20
222.8940
  10
425.6250
  20
220.7780
  10
426.2720
  20
218.7200
  0
LWPOLYLINE
  8
CUT
  90
11
  70
1
  10
422.5180
  20
230.5920
  10
423.1710
  20
232.9860
  10
424.0780
  20
235.2950
  10
425.2290
  20
237.4920
  10
426.6100
  20
239.5530
  10
429.0090
  20
237.7520
  10
427.8080
  20
235.9590
  10
426.8070
  20
234.0480
  10
426.0180
  20
232.0410
  10
425.4500
  20
229.9590
  0
LWPOLYLINE
  8
CUT
  90
11
  70
1
  10
428.7100
  20
241.9770
  10
430.5540
  20
243.6370
  10
432.5650
  20
245.0890
  10
434.7220
  20
246.3160
  10
436.9980
  20
247.3030
  10
438.0410
  20
244.4900
  10
436.0620
  20
243.6320
  10
434.1870
  20
242.5650
  10
432.4380
  20
241.3030
  10
430.8350
  20
239.8590
  0
LWPOLYLINE
  8
CUT
  90
11
  70
1
  10
440.0740
  20
248.2060
  10
442.5230
  20
248.6060
  10
445.0000
  20
248.7400
  10
447.4770
  20
248.6060
  10
449.9260
  20
248.2060
  10
449.2830
  20
245.2760
  10
447.1540
  20
245.6240
  10
445.0000
  20
245.7400
  10
442.8460
  20
245.6240
  10
440.7170
  20
245.2760
  0
LWPOLYLINE
  8
CUT
  90
11
  70
1
  10
453.0020
  20
247.3030
  10
455.2780
  20
246.3160
  10
457.4350
  20
245.0890
  10
459.4460
  20
243.6370
  10
461.2900
  20
241.9770
  10
459.1650
  20
239.8590
  10
457.5620
  20
241.3030
  10
455.8130
  20
242.5650
  10
453.9380
  20
243.6320
  10
451.9590
  20
244.4900
  0
LWPOLYLINE
  8
CUT
  90
11
  70
1
  10
463.3900
  20
239.5530
  10
464.7710
  20
237.4920
  10
465.9220
  20
235.2950
  10
466.8290
  20
232.9860
  10
467.4820
  20
230.5920
  10
464.5500
  20
229.9590
  10
463.9820
  20
232.0410
  10
463.1930
  20
234.0480
  10
462.1920
  20
235.9590
  10
460.9910
  20
237.7520
  0
LWPOLYLINE
  8
CUT
  90
11
  70
1
  10
467.9390
  20
227.4180
  10
467.9860
  20
224.9380
  10
467.7660
  20
222.4670
  10
467.2810
  20
220.0340
  10
466.5370
  20
217.6670
  10
463.7280
  20
218.7200
  10
464.3750
  20
220.7780
  10
464.7960
  20
222.8940
  10
464.9880
  20
225.0420
  10
464.9470
  20
227.1990
  0
LWPOLYLINE
  8
CUT
  90
11
  70
1
  10
465.2050
  20
214.7500
  10
463.9030
  20
212.6380
  10
462.3820
  20
210.6780
  10
460.6590
  20
208.8940
  10
458.7530
  20
207.3050
  10
456.9590
  20
209.7100
  10
458.6160
  20
211.0910
  10
460.1150
  20
212.6430
  10
461.4380
  20
214.3470
  10
462.5690
  20
216.1840
  0
LWPOLYLINE
  8
CUT
  90
11
  70
1
  10
456.0560
  20
205.5710
  10
453.8190
  20
204.4980
  10
451.4800
  20
203.6720
  10
449.0650
  20
203.1020
  10
446.6030
  20
202.7960
  10
446.3940
  20
205.7890
  10
448.5350
  20
206.0550
  10
450.6350
  20
206.5500
  10
452.6690
  20
207.2690
  10
454.6140
  20
208.2020
  0
LWPOLYLINE
  8
CUT
  90
11
  70
1
  10
443.4220
  20
195.7820
  10
440.8580
  20
196.0270
  10
438.3240
  20
196.4920
  10
435.8400
  20
197.1730
  10
433.4230
  20
198.0640
  10
434.5810
  20
200.8310
  10
436.7560
  20
200.0290
  10
438.9920
  20
199.4170
  10
441.2720
  20
198.9990
  10
443.5800
  20
198.7770
  0
LWPOLYLINE
  8
CUT
  90
11
  70
1
  10
430.5800
  20
199.4330
  10
428.3760
  20
200.7670
  10
426.2950
  20
202.2850
  10
424.3520
  20
203.9760
  10
422.5620
  20
205.8270
  10
424.8050
  20
207.8190
  10
426.4170
  20
206.1520
  10
428.1660
  20
204.6310
  10
430.0390
  20
203.2640
  10
432.0220
  20
202.0640
  0
LWPOLYLINE
  8
CUT
  90
11
  70
1
  10
420.5940
  20
208.2950
  10
419.1870
  20
210.4530
  10
417.9710
  20
212.7230
  10
416.9540
  20
215.0900
  10
416.1440
  20
217.5350
  10
419.0290
  20
218.3550
  10
419.7590
  20
216.1550
  10
420.6740
  20
214.0250
  10
421.7680
  20
211.9820
  10
423.0340
  20
210.0400
  0
LWPOLYLINE
  8
CUT
  90
11
  70
1
  10
415.4410
  20
220.6120
  10
415.1110
  20
223.1670
  10
415.0000
  20
225.7400
  10
415.1110
  20
228.3130
  10
415.4410
  20
230.8680
  10
418.3970
  20
230.3550
  10
418.1000
  20
228.0560
  10
418.0000
  20
225.7400
  10
418.1000
  20
223.4240
  10
418.3970
  20
221.1250
  0
LWPOLYLINE
  8
CUT
  90
11
  70
1
  10
416.1440
  20
233.9450
  10
416.9540
  20
236.3900
  10
417.9710
  20
238.7570
  10
419.1870
  20
241.0270
  10
420.5940
  20
243.1850
  10
423.0340
  20
241.4400
  10
421.7680
  20
239.4980
  10
420.6740
  20
237.4550
  10
419.7590
  20
235.3250
  10
419.0290
  20
233.1250
  0
LWPOLYLINE
  8
CUT
  90
11
  70
1
  10
422.5620
  20
245.6530
  10
424.3520
  20
247.5040
  10
426.2950
  20
249.1950
  10
428.3760
  20
250.7130
  10
430.5800
  20
252.0470
  10
432.0220
  20
249.4160
  10
430.0390
  20
248.2160
  10
428.1660
  20
246.8490
  10
426.4170
  20
245.3280
  10
424.8050
  20
243.6610
  0
LWPOLYLINE
  8
CUT
  90
11
  70
1
  10
433.4230
  20
253.4160
  10
435.8400
  20
254.3070
  10
438.3240
  20
254.9880
  10
440.8580
  20
255.4530
  10
443.4220
  20
255.6980
  10
443.5800
  20
252.7030
  10
441.2720
  20
252.4810
  10
438.9920
  20
252.0630
  10
436.7560
  20
251.4510
  10
434.5810
  20
250.6490
  0
LWPOLYLINE
  8
CUT
  90
11
  70
1
  10
446.5780
  20
255.6980
  10
449.1420
  20
255.4530
  10
451.6760
  20
254.9880
  10
454.1600
  20
254.3070
  10
456.5770
  20
253.4160
  10
455.4190
  20
250.6490
  10
453.2440
  20
251.4510
  10
451.0080
  20
252.0630
  10
448.7280
  20
252.4810
  10
446.4200
  20
252.7030
  0
LWPOLYLINE
  8
CUT
  90
11
  70
1
  10
459.4200
  20
252.0470
  10
461.6240
  20
250.7130
  10
463.7050
  20
249.1950
  10
465.6480
  20
247.5040
  10
467.4380
  20
245.6530
  10
465.1950
  20
243.6610
  10
463.5830
  20
245.3280
  10
461.8340
  20
246.8490
  10
459.9610
  20
248.2160
  10
457.9780
  20
249.4160
  0
LWPOLYLINE
  8
CUT
  90
11
  70
1
  10
469.4060
  20
243.1850
  10
470.8130
  20
241.0270
  10
472.0290
  20
238.7570
  10
473.0460
  20
236.3900
  10
473.8560
  20
233.9450
  10
470.9710
  20
233.1250
  10
470.2410
  20
235.3250
  10
469.3260
  20
237.4550
  10
468.2320
  20
239.4980
  10
466.9660
  20
241.4400
  0
LWPOLYLINE
  8
CUT
  90
11
  70
1
  10
474.5590
  20
230.8680
  10
474.8890
  20
228.3130
  10
475.0000
  20
225.7400
  10
474.8890
  20
223.1670
  10
474.5590
  20
220.6120
  10
471.6030
  20
221.1250
  10
471.9000
  20
223.4240
  10
472.0000
  20
225.7400
  10
471.9000
  20
228.0560
  10
471.6030
  20
230.3550
  0
LWPOLYLINE
  8
CUT
  90
11
  70
1
  10
473.8560
  20
217.5350
  10
473.0460
  20
215.0900
  10
472.0290
  20
212.7230
  10
470.8130
  20
210.4530
  10
469.4060
  20
208.2950
  10
466.9660
  20
210.0400
  10
468.2320
  20
211.9820
  10
469.3260
  20
214.0250
  10
470.2410
  20
216.1550
  10
470.9710
  20
218.3550
  0
LWPOLYLINE
  8
CUT
  90
11
  70
1
  10
467.4380
  20
205.8270
  10
465.6480
  20
203.9760
  10
463.7050
  20
202.2850
  10
461.6240
  20
200.7670
  10
459.4200
  20
199.4330
  10
457.9780
  20
202.0640
  10
459.9610
  20
203.2640
  10
461.8340
  20
204.6310
  10
463.5830
  20
206.1520
  10
465.1950
  20
207.8190
  0
LWPOLYLINE
  8
CUT
  90
11
  70
1
  10
456.5770
  20
198.0640
  10
454.1600
  20
197.1730
  10
451.6760
  20
196.4920
  10
449.1420
  20
196.0270
  10
446.5780
  20
195.7820
  10
446.4200
  20
198.7770
  10
448.7280
  20
198.9990
  10
451.0080
  20
199.4170
  10
453.2440
  20
200.0290
  10
455.4190
  20
200.8310
  0
LWPOLYLINE
  8
CUT
  90
11
  70
1
  10
443.4370
  20
188.7730
  10
440.9970
  20
188.9570
  10
438.5750
  20
189.3020
  10
436.1810
  20
189.8060
  10
433.8250
  20
190.4680
  10
434.7310
  20
193.3280
  10
436.8960
  20
192.7200
  10
439.0960
  20
192.2570
  10
441.3220
  20
191.9400
  10
443.5640
  20
191.7700
  0
LWPOLYLINE
  8
CUT
  90
11
  70
1
  10
430.8880
  20
191.5370
  10
428.6580
  20
192.5440
  10
426.5000
  20
193.6970
  10
424.4230
  20
194.9900
  10
422.4350
  20
196.4170
  10
424.2650
  20
198.7950
  10
426.0910
  20
197.4830
  10
428.0000
  20
196.2950
  10
429.9830
  20
195.2360
  10
432.0320
  20
194.3100
  0
LWPOLYLINE
  8
CUT
  90
11
  70
1
  10
420.0410
  20
198.4260
  10
418.2900
  20
200.1360
  10
416.6560
  20
201.9570
  10
415.1460
  20
203.8820
  10
413.7670
  20
205.9030
  10
416.3000
  20
207.5110
  10
417.5670
  20
205.6540
  10
418.9540
  20
203.8850
  10
420.4560
  20
202.2120
  10
422.0650
  20
200.6410
  0
LWPOLYLINE
  8
CUT
  90
11
  70
1
  10
412.2040
  20
208.6100
  10
411.1440
  20
210.8150
  10
410.2310
  20
213.0850
  10
409.4710
  20
215.4110
  10
408.8660
  20
217.7820
  10
411.7960
  20
218.4270
  10
412.3520
  20
216.2480
  10
413.0500
  20
214.1110
  10
413.8890
  20
212.0250
  10
414.8630
  20
209.9990
  0
LWPOLYLINE
  8
CUT
  90
11
  70
1
  10
408.3230
  20
220.8600
  10
408.0810
  20
223.2950
  10
408.0000
  20
225.7400
  10
408.0810
  20
228.1850
  10
408.3230
  20
230.6200
  10
411.2970
  20
230.2240
  10
411.0740
  20
227.9870
  10
411.0000
  20
225.7400
  10
411.0740
  20
223.4930
  10
411.2970
  20
221.2560
  0
LWPOLYLINE
  8
CUT
  90
11
  70
1
  10
408.8660
  20
233.6980
  10
409.4710
  20
236.0690
  10
410.2310
  20
238.3950
  10
411.1440
  20
240.6650
  10
412.2040
  20
242.8700
  10
414.8630
  20
241.4810
  10
413.8890
  20
239.4550
  10
413.0500
  20
237.3690
  10
412.3520
  20
235.2320
  10
411.7960
  20
233.0530
  0
LWPOLYLINE
  8
CUT
  90
11
  70
1
  10
413.7670
  20
245.5770
  10
415.1460
  20
247.5980
  10
416.6560
  20
249.5230
  10
418.2900
  20
251.3440
  10
420.0410
  20
253.0540
  10
422.0650
  20
250.8390
  10
420.4560
  20
249.2680
  10
418.9540
  20
247.5950
  10
417.5670
  20
245.8260
  10
416.3000
  20
243.9690
  0
LWPOLYLINE
  8
CUT
  90
11
  70
1
  10
422.4350
  20
255.0630
  10
424.4230
  20
256.4900
  10
426.5000
  20
257.7830
  10
428.6580
  20
258.9360
  10
430.8880
  20
259.9430
  10
432.0320
  20
257.1700
  10
429.9830
  20
256.2440
  10
428.0000
  20
255.1850
  10
426.0910
  20
253.9970
  10
424.2650
  20
252.6850
  0
LWPOLYLINE
  8
CUT
  90
11
  70
1
  10
433.8250
  20
261.0120
  10
436.1810
  20
261.6740
  10
438.5750
  20
262.1780
  10
440.9970
  20
262.5230
  10
443.4370
  20
262.7070
  10
443.5640
  20
259.7100
  10
441.3220
  20
259.5400
  10
439.0960
  20
259.2230
  10
436.8960
  20
258.7600
  10
434.7310
  20
258.1520
  0
LWPOLYLINE
  8
CUT
  90
11
  70
1
  10
446.5630
  20
262.7070
  10
449.0030
  20
262.5230
  10
451.4250
  20
262.1780
  10
453.8190
  20
261.6740
  10
456.1750
  20
261.0120
  10
455.2690
  20
258.1520
  10
453.1040
  20
258.7600
  10
450.9040
  20
259.2230
  10
448.6780
  20
259.5400
  10
446.4360
  20
259.7100
  0
LWPOLYLINE
  8
CUT
  90
11
  70
1
  10
459.1120
  20
259.9430
  10
461.3420
  20
258.9360
  10
463.5000
  20
257.7830
  10
465.5770
  20
256.4900
  10
467.5650
  20
255.0630
  10
465.7350
  20
252.6850
  10
463.9090
  20
253.9970
  10
462.0000
  20
255.1850
  10
460.0170
  20
256.2440
  10
457.9680
  20
257.1700
  0
LWPOLYLINE
  8
CUT
  90
11
  70
1
  10
469.9590
  20
253.0540
  10
471.7100
  20
251.3440
  10
473.3440
  20
249.5230
  10
474.8540
  20
247.5980
  10
476.2330
  20
245.5770
  10
473.7000
  20
243.9690
  10
472.4330
  20
245.8260
  10
471.0460
  20
247.5950
  10
469.5440
  20
249.2680
  10
467.9350
  20
250.8390
  0
LWPOLYLINE
  8
CUT
  90
11
  70
1
  10
477.7960
  20
242.8700
  10
478.8560
  20
240.6650
  10
479.7690
  20
238.3950
  10
480.5290
  20
236.0690
  10
481.1340
  20
233.6980
  10
478.2040
  20
233.0530
  10
477.6480
  20
235.2320
  10
476.9500
  20
237.3690
  10
476.1110
  20
239.4550
  10
475.1370
  20
241.4810
  0
LWPOLYLINE
  8
CUT
  90
11
  70
1
  10
481.6770
  20
230.6200
  10
481.9190
  20
228.1850
  10
482.0000
  20
225.7400
  10
481.9190
  20
223.2950
  10
481.6770
  20
220.8600
  10
478.7030
  20
221.2560
  10
478.9260
  20
223.4930
  10
479.0000
  20
225.7400
  10
478.9260
  20
227.9870
  10
478.7030
  20
230.2240
  0
LWPOLYLINE
  8
CUT
  90
11
  70
1
  10
481.1340
  20
217.7820
  10
480.5290
  20
215.4110
  10
479.7690
  20
213.0850
  10
478.8560
  20
210.8150
  10
477.7960
  20
208.6100
  10
475.1370
  20
209.9990
  10
476.1110
  20
212.0250
  10
476.9500
  20
214.1110
  10
477.6480
  20
216.2480
  10
478.2040
  20
218.4270
  0
LWPOLYLINE
  8
CUT
  90
11
  70
1
  10
476.2330
  20
205.9030
  10
474.8540
  20
203.8820
  10
473.3440
  20
201.9570
  10
471.7100
  20
200.1360
  10
469.9590
  20
198.4260
  10
467.9350
  20
200.6410
  10
469.5440
  20
202.2120
  10
471.0460
  20
203.8850
  10
472.4330
  20
205.6540
  10
473.7000
  20
207.5110
  0
LWPOLYLINE
  8
CUT
  90
11
  70
1
  10
467.5650
  20
196.4170
  10
465.5770
  20
194.9900
  10
463.5000
  20
193.6970
  10
461.3420
  20
192.5440
  10
459.1120
  20
191.5370
  10
457.9680
  20
194.3100
  10
460.0170
  20
195.2360
  10
462.0000
  20
196.2950
  10
463.9090
  20
197.4830
  10
465.7350
  20
198.7950
  0
LWPOLYLINE
  8
CUT
  90
11
  70
1
  10
456.1750
  20
190.4680
  10
453.8190
  20
189.8060
  10
451.4250
  20
189.3020
  10
449.0030
  20
188.9570
  10
446.5630
  20
188.7730
  10
446.4360
  20
191.7700
  10
448.6780
  20
191.9400
  10
450.9040
  20
192.2570
  10
453.1040
  20
192.7200
  10
455.2690
  20
193.3280
  0
ENDSEC
  0
EOF
