  0
SECTION
  2
HEADER
  9
$INSUNITS
  70
4
  0
ENDSEC
  0
SECTION
  2
TABLES
  0
TABLE
  2
LAYER
  70
2
  0
LAYER
  2
CUT
  70
0
  62
1
  6
CONTINUOUS
  0
LAYER
  2
ENGRAVE
  70
0
  62
5
  6
CONTINUOUS
  0
ENDTAB
  0
ENDSEC
  0
SECTION
  2
ENTITIES
  0
LWPOLYLINE
  8
CUT
  90
53
  70
1
  10
0.0000
  20
320.2400
  10
6.0000
  20
320.2400
  10
6.0000
  20
323.2400
  10
16.9090
  20
323.2400
  10
16.9090
  20
320.2400
  10
27.8180
  20
320.2400
  10
27.8180
  20
323.2400
  10
38.7270
  20
323.2400
  10
38.7270
  20
320.2400
  10
49.6360
  20
320.2400
  10
49.6360
  20
323.2400
  10
60.5450
  20
323.2400
  10
60.5450
  20
320.2400
  10
71.4550
  20
320.2400
  10
71.4550
  20
323.2400
  10
82.3640
  20
323.2400
  10
82.3640
  20
320.2400
  10
93.2730
  20
320.2400
  10
93.2730
  20
323.2400
  10
104.1820
  20
323.2400
  10
104.1820
  20
320.2400
  10
115.0910
  20
320.2400
  10
115.0910
  20
323.2400
  10
126.0000
  20
323.2400
  10
126.0000
  20
320.2400
  10
132.0000
  20
320.2400
  10
132.0000
  20
5.0000
  10
126.0000
  20
5.0000
  10
126.0000
  20
0.0000
  10
115.0910
  20
0.0000
  10
115.0910
  20
5.0000
  10
104.1820
  20
5.0000
  10
104.1820
  20
0.0000
  10
93.2730
  20
0.0000
  10
93.2730
  20
5.0000
  10
82.3640
  20
5.0000
  10
82.3640
  20
0.0000
  10
71.4550
  20
0.0000
  10
71.4550
  20
5.0000
  10
60.5450
  20
5.0000
  10
60.5450
  20
0.0000
  10
49.6360
  20
0.0000
  10
49.6360
  20
5.0000
  10
38.7270
  20
5.0000
  10
38.7270
  20
0.0000
  10
27.8180
  20
0.0000
  10
27.8180
  20
5.0000
  10
16.9090
  20
5.0000
  10
16.9090
  20
0.0000
  10
6.0000
  20
0.0000
  10
6.0000
  20
5.0000
  10
0.0000
  20
5.0000
  0
LWPOLYLINE
  8
CUT
  90
5
  70
1
  10
3.0000
  20
296.8890
  10
6.0000
  20
296.8890
  10
6.0000
  20
285.2130
  10
3.0000
  20
285.2130
  0
LWPOLYLINE
  8
CUT
  90
5
  70
1
  10
3.0000
  20
273.5380
  10
6.0000
  20
273.5380
  10
6.0000
  20
261.8620
  10
3.0000
  20
261.8620
  0
LWPOLYLINE
  8
CUT
  90
5
  70
1
  10
3.0000
  20
250.1870
  10
6.0000
  20
250.1870
  10
6.0000
  20
238.5110
  10
3.0000
  20
238.5110
  0
LWPOLYLINE
  8
CUT
  90
5
  70
1
  10
3.0000
  20
226.8360
  10
6.0000
  20
226.8360
  10
6.0000
  20
215.1600
  10
3.0000
  20
215.1600
  0
LWPOLYLINE
  8
CUT
  90
5
  70
1
  10
3.0000
  20
203.4840
  10
6.0000
  20
203.4840
  10
6.0000
  20
191.8080
  10
3.0000
  20
191.8080
  0
LWPOLYLINE
  8
CUT
  90
5
  70
1
  10
3.0000
  20
180.1330
  10
6.0000
  20
180.1330
  10
6.0000
  20
168.4570
  10
3.0000
  20
168.4570
  0
LWPOLYLINE
  8
CUT
  90
5
  70
1
  10
3.0000
  20
156.7820
  10
6.0000
  20
156.7820
  10
6.0000
  20
145.1060
  10
3.0000
  20
145.1060
  0
LWPOLYLINE
  8
CUT
  90
5
  70
1
  10
3.0000
  20
133.4310
  10
6.0000
  20
133.4310
  10
6.0000
  20
121.7550
  10
3.0000
  20
121.7550
  0
LWPOLYLINE
  8
CUT
  90
5
  70
1
  10
3.0000
  20
110.0800
  10
6.0000
  20
110.0800
  10
6.0000
  20
98.4040
  10
3.0000
  20
98.4040
  0
LWPOLYLINE
  8
CUT
  90
5
  70
1
  10
3.0000
  20
86.7290
  10
6.0000
  20
86.7290
  10
6.0000
  20
75.0530
  10
3.0000
  20
75.0530
  0
LWPOLYLINE
  8
CUT
  90
5
  70
1
  10
3.0000
  20
63.3780
  10
6.0000
  20
63.3780
  10
6.0000
  20
51.7020
  10
3.0000
  20
51.7020
  0
LWPOLYLINE
  8
CUT
  90
5
  70
1
  10
3.0000
  20
40.0270
  10
6.0000
  20
40.0270
  10
6.0000
  20
28.3510
  10
3.0000
  20
28.3510
  0
LWPOLYLINE
  8
CUT
  90
5
  70
1
  10
126.0000
  20
296.8890
  10
129.0000
  20
296.8890
  10
129.0000
  20
285.2130
  10
126.0000
  20
285.2130
  0
LWPOLYLINE
  8
CUT
  90
5
  70
1
  10
126.0000
  20
273.5380
  10
129.0000
  20
273.5380
  10
129.0000
  20
261.8620
  10
126.0000
  20
261.8620
  0
LWPOLYLINE
  8
CUT
  90
5
  70
1
  10
126.0000
  20
250.1870
  10
129.0000
  20
250.1870
  10
129.0000
  20
238.5110
  10
126.0000
  20
238.5110
  0
LWPOLYLINE
  8
CUT
  90
5
  70
1
  10
126.0000
  20
226.8360
  10
129.0000
  20
226.8360
  10
129.0000
  20
215.1600
  10
126.0000
  20
215.1600
  0
LWPOLYLINE
  8
CUT
  90
5
  70
1
  10
126.0000
  20
203.4840
  10
129.0000
  20
203.4840
  10
129.0000
  20
191.8080
  10
126.0000
  20
191.8080
  0
LWPOLYLINE
  8
CUT
  90
5
  70
1
  10
126.0000
  20
180.1330
  10
129.0000
  20
180.1330
  10
129.0000
  20
168.4570
  10
126.0000
  20
168.4570
  0
LWPOLYLINE
  8
CUT
  90
5
  70
1
  10
126.0000
  20
156.7820
  10
129.0000
  20
156.7820
  10
129.0000
  20
145.1060
  10
126.0000
  20
145.1060
  0
LWPOLYLINE
  8
CUT
  90
5
  70
1
  10
126.0000
  20
133.4310
  10
129.0000
  20
133.4310
  10
129.0000
  20
121.7550
  10
126.0000
  20
121.7550
  0
LWPOLYLINE
  8
CUT
  90
5
  70
1
  10
126.0000
  20
110.0800
  10
129.0000
  20
110.0800
  10
129.0000
  20
98.4040
  10
126.0000
  20
98.4040
  0
LWPOLYLINE
  8
CUT
  90
5
  70
1
  10
126.0000
  20
86.7290
  10
129.0000
  20
86.7290
  10
129.0000
  20
75.0530
  10
126.0000
  20
75.0530
  0
LWPOLYLINE
  8
CUT
  90
5
  70
1
  10
126.0000
  20
63.3780
  10
129.0000
  20
63.3780
  10
129.0000
  20
51.7020
  10
126.0000
  20
51.7020
  0
LWPOLYLINE
  8
CUT
  90
5
  70
1
  10
126.0000
  20
40.0270
  10
129.0000
  20
40.0270
  10
129.0000
  20
28.3510
  10
126.0000
  20
28.3510
  0
LWPOLYLINE
  8
CUT
  90
5
  70
1
  10
10.0000
  20
276.3900
  10
15.0000
  20
276.3900
  10
15.0000
  20
266.0900
  10
10.0000
  20
266.0900
  0
LWPOLYLINE
  8
CUT
  90
5
  70
1
  10
117.0000
  20
276.3900
  10
122.0000
  20
276.3900
  10
122.0000
  20
266.0900
  10
117.0000
  20
266.0900
  0
LWPOLYLINE
  8
CUT
  90
9
  70
1
  10
18.2500
  20
63.2500
  10
33.7500
  20
63.2500
  10
35.0000
  20
62.0000
  10
35.0000
  20
62.0000
  10
33.7500
  20
60.7500
  10
18.2500
  20
60.7500
  10
17.0000
  20
62.0000
  10
17.0000
  20
62.0000
  0
LWPOLYLINE
  8
CUT
  90
9
  70
1
  10
58.2500
  20
63.2500
  10
73.7500
  20
63.2500
  10
75.0000
  20
62.0000
  10
75.0000
  20
62.0000
  10
73.7500
  20
60.7500
  10
58.2500
  20
60.7500
  10
57.0000
  20
62.0000
  10
57.0000
  20
62.0000
  0
LWPOLYLINE
  8
CUT
  90
9
  70
1
  10
98.2500
  20
63.2500
  10
113.7500
  20
63.2500
  10
115.0000
  20
62.0000
  10
115.0000
  20
62.0000
  10
113.7500
  20
60.7500
  10
98.2500
  20
60.7500
  10
97.0000
  20
62.0000
  10
97.0000
  20
62.0000
  0
LWPOLYLINE
  8
CUT
  90
9
  70
1
  10
18.2500
  20
82.2500
  10
33.7500
  20
82.2500
  10
35.0000
  20
81.0000
  10
35.0000
  20
81.0000
  10
33.7500
  20
79.7500
  10
18.2500
  20
79.7500
  10
17.0000
  20
81.0000
  10
17.0000
  20
81.0000
  0
LWPOLYLINE
  8
CUT
  90
9
  70
1
  10
58.2500
  20
82.2500
  10
73.7500
  20
82.2500
  10
75.0000
  20
81.0000
  10
75.0000
  20
81.0000
  10
73.7500
  20
79.7500
  10
58.2500
  20
79.7500
  10
57.0000
  20
81.0000
  10
57.0000
  20
81.0000
  0
LWPOLYLINE
  8
CUT
  90
9
  70
1
  10
98.2500
  20
82.2500
  10
113.7500
  20
82.2500
  10
115.0000
  20
81.0000
  10
115.0000
  20
81.0000
  10
113.7500
  20
79.7500
  10
98.2500
  20
79.7500
  10
97.0000
  20
81.0000
  10
97.0000
  20
81.0000
  0
LWPOLYLINE
  8
CUT
  90
9
  70
1
  10
18.2500
  20
101.2500
  10
33.7500
  20
101.2500
  10
35.0000
  20
100.0000
  10
35.0000
  20
100.0000
  10
33.7500
  20
98.7500
  10
18.2500
  20
98.7500
  10
17.0000
  20
100.0000
  10
17.0000
  20
100.0000
  0
LWPOLYLINE
  8
CUT
  90
9
  70
1
  10
58.2500
  20
101.2500
  10
73.7500
  20
101.2500
  10
75.0000
  20
100.0000
  10
75.0000
  20
100.0000
  10
73.7500
  20
98.7500
  10
58.2500
  20
98.7500
  10
57.0000
  20
100.0000
  10
57.0000
  20
100.0000
  0
LWPOLYLINE
  8
CUT
  90
9
  70
1
  10
98.2500
  20
101.2500
  10
113.7500
  20
101.2500
  10
115.0000
  20
100.0000
  10
115.0000
  20
100.0000
  10
113.7500
  20
98.7500
  10
98.2500
  20
98.7500
  10
97.0000
  20
100.0000
  10
97.0000
  20
100.0000
  0
LWPOLYLINE
  8
CUT
  90
9
  70
1
  10
18.2500
  20
120.2500
  10
33.7500
  20
120.2500
  10
35.0000
  20
119.0000
  10
35.0000
  20
119.0000
  10
33.7500
  20
117.7500
  10
18.2500
  20
117.7500
  10
17.0000
  20
119.0000
  10
17.0000
  20
119.0000
  0
LWPOLYLINE
  8
CUT
  90
9
  70
1
  10
58.2500
  20
120.2500
  10
73.7500
  20
120.2500
  10
75.0000
  20
119.0000
  10
75.0000
  20
119.0000
  10
73.7500
  20
117.7500
  10
58.2500
  20
117.7500
  10
57.0000
  20
119.0000
  10
57.0000
  20
119.0000
  0
LWPOLYLINE
  8
CUT
  90
9
  70
1
  10
98.2500
  20
120.2500
  10
113.7500
  20
120.2500
  10
115.0000
  20
119.0000
  10
115.0000
  20
119.0000
  10
113.7500
  20
117.7500
  10
98.2500
  20
117.7500
  10
97.0000
  20
119.0000
  10
97.0000
  20
119.0000
  0
LWPOLYLINE
  8
CUT
  90
9
  70
1
  10
18.2500
  20
150.2500
  10
33.7500
  20
150.2500
  10
35.0000
  20
149.0000
  10
35.0000
  20
149.0000
  10
33.7500
  20
147.7500
  10
18.2500
  20
147.7500
  10
17.0000
  20
149.0000
  10
17.0000
  20
149.0000
  0
LWPOLYLINE
  8
CUT
  90
9
  70
1
  10
58.2500
  20
150.2500
  10
73.7500
  20
150.2500
  10
75.0000
  20
149.0000
  10
75.0000
  20
149.0000
  10
73.7500
  20
147.7500
  10
58.2500
  20
147.7500
  10
57.0000
  20
149.0000
  10
57.0000
  20
149.0000
  0
LWPOLYLINE
  8
CUT
  90
9
  70
1
  10
98.2500
  20
150.2500
  10
113.7500
  20
150.2500
  10
115.0000
  20
149.0000
  10
115.0000
  20
149.0000
  10
113.7500
  20
147.7500
  10
98.2500
  20
147.7500
  10
97.0000
  20
149.0000
  10
97.0000
  20
149.0000
  0
LWPOLYLINE
  8
CUT
  90
9
  70
1
  10
18.2500
  20
173.6480
  10
33.7500
  20
173.6480
  10
35.0000
  20
172.3980
  10
35.0000
  20
172.3980
  10
33.7500
  20
171.1480
  10
18.2500
  20
171.1480
  10
17.0000
  20
172.3980
  10
17.0000
  20
172.3980
  0
LWPOLYLINE
  8
CUT
  90
9
  70
1
  10
58.2500
  20
173.6480
  10
73.7500
  20
173.6480
  10
75.0000
  20
172.3980
  10
75.0000
  20
172.3980
  10
73.7500
  20
171.1480
  10
58.2500
  20
171.1480
  10
57.0000
  20
172.3980
  10
57.0000
  20
172.3980
  0
LWPOLYLINE
  8
CUT
  90
9
  70
1
  10
98.2500
  20
173.6480
  10
113.7500
  20
173.6480
  10
115.0000
  20
172.3980
  10
115.0000
  20
172.3980
  10
113.7500
  20
171.1480
  10
98.2500
  20
171.1480
  10
97.0000
  20
172.3980
  10
97.0000
  20
172.3980
  0
LWPOLYLINE
  8
CUT
  90
9
  70
1
  10
18.2500
  20
197.0460
  10
33.7500
  20
197.0460
  10
35.0000
  20
195.7960
  10
35.0000
  20
195.7960
  10
33.7500
  20
194.5460
  10
18.2500
  20
194.5460
  10
17.0000
  20
195.7960
  10
17.0000
  20
195.7960
  0
LWPOLYLINE
  8
CUT
  90
9
  70
1
  10
58.2500
  20
197.0460
  10
73.7500
  20
197.0460
  10
75.0000
  20
195.7960
  10
75.0000
  20
195.7960
  10
73.7500
  20
194.5460
  10
58.2500
  20
194.5460
  10
57.0000
  20
195.7960
  10
57.0000
  20
195.7960
  0
LWPOLYLINE
  8
CUT
  90
9
  70
1
  10
98.2500
  20
197.0460
  10
113.7500
  20
197.0460
  10
115.0000
  20
195.7960
  10
115.0000
  20
195.7960
  10
113.7500
  20
194.5460
  10
98.2500
  20
194.5460
  10
97.0000
  20
195.7960
  10
97.0000
  20
195.7960
  0
LWPOLYLINE
  8
CUT
  90
9
  70
1
  10
18.2500
  20
220.4440
  10
33.7500
  20
220.4440
  10
35.0000
  20
219.1940
  10
35.0000
  20
219.1940
  10
33.7500
  20
217.9440
  10
18.2500
  20
217.9440
  10
17.0000
  20
219.1940
  10
17.0000
  20
219.1940
  0
LWPOLYLINE
  8
CUT
  90
9
  70
1
  10
58.2500
  20
220.4440
  10
73.7500
  20
220.4440
  10
75.0000
  20
219.1940
  10
75.0000
  20
219.1940
  10
73.7500
  20
217.9440
  10
58.2500
  20
217.9440
  10
57.0000
  20
219.1940
  10
57.0000
  20
219.1940
  0
LWPOLYLINE
  8
CUT
  90
9
  70
1
  10
98.2500
  20
220.4440
  10
113.7500
  20
220.4440
  10
115.0000
  20
219.1940
  10
115.0000
  20
219.1940
  10
113.7500
  20
217.9440
  10
98.2500
  20
217.9440
  10
97.0000
  20
219.1940
  10
97.0000
  20
219.1940
  0
LWPOLYLINE
  8
CUT
  90
9
  70
1
  10
18.2500
  20
243.8420
  10
33.7500
  20
243.8420
  10
35.0000
  20
242.5920
  10
35.0000
  20
242.5920
  10
33.7500
  20
241.3420
  10
18.2500
  20
241.3420
  10
17.0000
  20
242.5920
  10
17.0000
  20
242.5920
  0
LWPOLYLINE
  8
CUT
  90
9
  70
1
  10
58.2500
  20
243.8420
  10
73.7500
  20
243.8420
  10
75.0000
  20
242.5920
  10
75.0000
  20
242.5920
  10
73.7500
  20
241.3420
  10
58.2500
  20
241.3420
  10
57.0000
  20
242.5920
  10
57.0000
  20
242.5920
  0
LWPOLYLINE
  8
CUT
  90
9
  70
1
  10
98.2500
  20
243.8420
  10
113.7500
  20
243.8420
  10
115.0000
  20
242.5920
  10
115.0000
  20
242.5920
  10
113.7500
  20
241.3420
  10
98.2500
  20
241.3420
  10
97.0000
  20
242.5920
  10
97.0000
  20
242.5920
  0
LWPOLYLINE
  8
CUT
  90
9
  70
1
  10
18.2500
  20
267.2400
  10
33.7500
  20
267.2400
  10
35.0000
  20
265.9900
  10
35.0000
  20
265.9900
  10
33.7500
  20
264.7400
  10
18.2500
  20
264.7400
  10
17.0000
  20
265.9900
  10
17.0000
  20
265.9900
  0
LWPOLYLINE
  8
CUT
  90
9
  70
1
  10
58.2500
  20
267.2400
  10
73.7500
  20
267.2400
  10
75.0000
  20
265.9900
  10
75.0000
  20
265.9900
  10
73.7500
  20
264.7400
  10
58.2500
  20
264.7400
  10
57.0000
  20
265.9900
  10
57.0000
  20
265.9900
  0
LWPOLYLINE
  8
CUT
  90
9
  70
1
  10
98.2500
  20
267.2400
  10
113.7500
  20
267.2400
  10
115.0000
  20
265.9900
  10
115.0000
  20
265.9900
  10
113.7500
  20
264.7400
  10
98.2500
  20
264.7400
  10
97.0000
  20
265.9900
  10
97.0000
  20
265.9900
  0
LWPOLYLINE
  8
CUT
  90
53
  70
1
  10
135.0000
  20
320.2400
  10
141.0000
  20
320.2400
  10
141.0000
  20
323.2400
  10
151.9090
  20
323.2400
  10
151.9090
  20
320.2400
  10
162.8180
  20
320.2400
  10
162.8180
  20
323.2400
  10
173.7270
  20
323.2400
  10
173.7270
  20
320.2400
  10
184.6360
  20
320.2400
  10
184.6360
  20
323.2400
  10
195.5450
  20
323.2400
  10
195.5450
  20
320.2400
  10
206.4550
  20
320.2400
  10
206.4550
  20
323.2400
  10
217.3640
  20
323.2400
  10
217.3640
  20
320.2400
  10
228.2730
  20
320.2400
  10
228.2730
  20
323.2400
  10
239.1820
  20
323.2400
  10
239.1820
  20
320.2400
  10
250.0910
  20
320.2400
  10
250.0910
  20
323.2400
  10
261.0000
  20
323.2400
  10
261.0000
  20
320.2400
  10
267.0000
  20
320.2400
  10
267.0000
  20
5.0000
  10
261.0000
  20
5.0000
  10
261.0000
  20
0.0000
  10
250.0910
  20
0.0000
  10
250.0910
  20
5.0000
  10
239.1820
  20
5.0000
  10
239.1820
  20
0.0000
  10
228.2730
  20
0.0000
  10
228.2730
  20
5.0000
  10
217.3640
  20
5.0000
  10
217.3640
  20
0.0000
  10
206.4550
  20
0.0000
  10
206.4550
  20
5.0000
  10
195.5450
  20
5.0000
  10
195.5450
  20
0.0000
  10
184.6360
  20
0.0000
  10
184.6360
  20
5.0000
  10
173.7270
  20
5.0000
  10
173.7270
  20
0.0000
  10
162.8180
  20
0.0000
  10
162.8180
  20
5.0000
  10
151.9090
  20
5.0000
  10
151.9090
  20
0.0000
  10
141.0000
  20
0.0000
  10
141.0000
  20
5.0000
  10
135.0000
  20
5.0000
  0
LWPOLYLINE
  8
CUT
  90
5
  70
1
  10
138.0000
  20
296.8890
  10
141.0000
  20
296.8890
  10
141.0000
  20
285.2130
  10
138.0000
  20
285.2130
  0
LWPOLYLINE
  8
CUT
  90
5
  70
1
  10
138.0000
  20
273.5380
  10
141.0000
  20
273.5380
  10
141.0000
  20
261.8620
  10
138.0000
  20
261.8620
  0
LWPOLYLINE
  8
CUT
  90
5
  70
1
  10
138.0000
  20
250.1870
  10
141.0000
  20
250.1870
  10
141.0000
  20
238.5110
  10
138.0000
  20
238.5110
  0
LWPOLYLINE
  8
CUT
  90
5
  70
1
  10
138.0000
  20
226.8360
  10
141.0000
  20
226.8360
  10
141.0000
  20
215.1600
  10
138.0000
  20
215.1600
  0
LWPOLYLINE
  8
CUT
  90
5
  70
1
  10
138.0000
  20
203.4840
  10
141.0000
  20
203.4840
  10
141.0000
  20
191.8080
  10
138.0000
  20
191.8080
  0
LWPOLYLINE
  8
CUT
  90
5
  70
1
  10
138.0000
  20
180.1330
  10
141.0000
  20
180.1330
  10
141.0000
  20
168.4570
  10
138.0000
  20
168.4570
  0
LWPOLYLINE
  8
CUT
  90
5
  70
1
  10
138.0000
  20
156.7820
  10
141.0000
  20
156.7820
  10
141.0000
  20
145.1060
  10
138.0000
  20
145.1060
  0
LWPOLYLINE
  8
CUT
  90
5
  70
1
  10
138.0000
  20
133.4310
  10
141.0000
  20
133.4310
  10
141.0000
  20
121.7550
  10
138.0000
  20
121.7550
  0
LWPOLYLINE
  8
CUT
  90
5
  70
1
  10
138.0000
  20
110.0800
  10
141.0000
  20
110.0800
  10
141.0000
  20
98.4040
  10
138.0000
  20
98.4040
  0
LWPOLYLINE
  8
CUT
  90
5
  70
1
  10
138.0000
  20
86.7290
  10
141.0000
  20
86.7290
  10
141.0000
  20
75.0530
  10
138.0000
  20
75.0530
  0
LWPOLYLINE
  8
CUT
  90
5
  70
1
  10
138.0000
  20
63.3780
  10
141.0000
  20
63.3780
  10
141.0000
  20
51.7020
  10
138.0000
  20
51.7020
  0
LWPOLYLINE
  8
CUT
  90
5
  70
1
  10
138.0000
  20
40.0270
  10
141.0000
  20
40.0270
  10
141.0000
  20
28.3510
  10
138.0000
  20
28.3510
  0
LWPOLYLINE
  8
CUT
  90
5
  70
1
  10
261.0000
  20
296.8890
  10
264.0000
  20
296.8890
  10
264.0000
  20
285.2130
  10
261.0000
  20
285.2130
  0
LWPOLYLINE
  8
CUT
  90
5
  70
1
  10
261.0000
  20
273.5380
  10
264.0000
  20
273.5380
  10
264.0000
  20
261.8620
  10
261.0000
  20
261.8620
  0
LWPOLYLINE
  8
CUT
  90
5
  70
1
  10
261.0000
  20
250.1870
  10
264.0000
  20
250.1870
  10
264.0000
  20
238.5110
  10
261.0000
  20
238.5110
  0
LWPOLYLINE
  8
CUT
  90
5
  70
1
  10
261.0000
  20
226.8360
  10
264.0000
  20
226.8360
  10
264.0000
  20
215.1600
  10
261.0000
  20
215.1600
  0
LWPOLYLINE
  8
CUT
  90
5
  70
1
  10
261.0000
  20
203.4840
  10
264.0000
  20
203.4840
  10
264.0000
  20
191.8080
  10
261.0000
  20
191.8080
  0
LWPOLYLINE
  8
CUT
  90
5
  70
1
  10
261.0000
  20
180.1330
  10
264.0000
  20
180.1330
  10
264.0000
  20
168.4570
  10
261.0000
  20
168.4570
  0
LWPOLYLINE
  8
CUT
  90
5
  70
1
  10
261.0000
  20
156.7820
  10
264.0000
  20
156.7820
  10
264.0000
  20
145.1060
  10
261.0000
  20
145.1060
  0
LWPOLYLINE
  8
CUT
  90
5
  70
1
  10
261.0000
  20
133.4310
  10
264.0000
  20
133.4310
  10
264.0000
  20
121.7550
  10
261.0000
  20
121.7550
  0
LWPOLYLINE
  8
CUT
  90
5
  70
1
  10
261.0000
  20
110.0800
  10
264.0000
  20
110.0800
  10
264.0000
  20
98.4040
  10
261.0000
  20
98.4040
  0
LWPOLYLINE
  8
CUT
  90
5
  70
1
  10
261.0000
  20
86.7290
  10
264.0000
  20
86.7290
  10
264.0000
  20
75.0530
  10
261.0000
  20
75.0530
  0
LWPOLYLINE
  8
CUT
  90
5
  70
1
  10
261.0000
  20
63.3780
  10
264.0000
  20
63.3780
  10
264.0000
  20
51.7020
  10
261.0000
  20
51.7020
  0
LWPOLYLINE
  8
CUT
  90
5
  70
1
  10
261.0000
  20
40.0270
  10
264.0000
  20
40.0270
  10
264.0000
  20
28.3510
  10
261.0000
  20
28.3510
  0
LWPOLYLINE
  8
CUT
  90
5
  70
1
  10
145.0000
  20
276.3900
  10
150.0000
  20
276.3900
  10
150.0000
  20
266.0900
  10
145.0000
  20
266.0900
  0
LWPOLYLINE
  8
CUT
  90
5
  70
1
  10
252.0000
  20
276.3900
  10
257.0000
  20
276.3900
  10
257.0000
  20
266.0900
  10
252.0000
  20
266.0900
  0
LWPOLYLINE
  8
CUT
  90
9
  70
1
  10
153.2500
  20
63.2500
  10
168.7500
  20
63.2500
  10
170.0000
  20
62.0000
  10
170.0000
  20
62.0000
  10
168.7500
  20
60.7500
  10
153.2500
  20
60.7500
  10
152.0000
  20
62.0000
  10
152.0000
  20
62.0000
  0
LWPOLYLINE
  8
CUT
  90
9
  70
1
  10
193.2500
  20
63.2500
  10
208.7500
  20
63.2500
  10
210.0000
  20
62.0000
  10
210.0000
  20
62.0000
  10
208.7500
  20
60.7500
  10
193.2500
  20
60.7500
  10
192.0000
  20
62.0000
  10
192.0000
  20
62.0000
  0
LWPOLYLINE
  8
CUT
  90
9
  70
1
  10
233.2500
  20
63.2500
  10
248.7500
  20
63.2500
  10
250.0000
  20
62.0000
  10
250.0000
  20
62.0000
  10
248.7500
  20
60.7500
  10
233.2500
  20
60.7500
  10
232.0000
  20
62.0000
  10
232.0000
  20
62.0000
  0
LWPOLYLINE
  8
CUT
  90
9
  70
1
  10
153.2500
  20
82.2500
  10
168.7500
  20
82.2500
  10
170.0000
  20
81.0000
  10
170.0000
  20
81.0000
  10
168.7500
  20
79.7500
  10
153.2500
  20
79.7500
  10
152.0000
  20
81.0000
  10
152.0000
  20
81.0000
  0
LWPOLYLINE
  8
CUT
  90
9
  70
1
  10
193.2500
  20
82.2500
  10
208.7500
  20
82.2500
  10
210.0000
  20
81.0000
  10
210.0000
  20
81.0000
  10
208.7500
  20
79.7500
  10
193.2500
  20
79.7500
  10
192.0000
  20
81.0000
  10
192.0000
  20
81.0000
  0
LWPOLYLINE
  8
CUT
  90
9
  70
1
  10
233.2500
  20
82.2500
  10
248.7500
  20
82.2500
  10
250.0000
  20
81.0000
  10
250.0000
  20
81.0000
  10
248.7500
  20
79.7500
  10
233.2500
  20
79.7500
  10
232.0000
  20
81.0000
  10
232.0000
  20
81.0000
  0
LWPOLYLINE
  8
CUT
  90
9
  70
1
  10
153.2500
  20
101.2500
  10
168.7500
  20
101.2500
  10
170.0000
  20
100.0000
  10
170.0000
  20
100.0000
  10
168.7500
  20
98.7500
  10
153.2500
  20
98.7500
  10
152.0000
  20
100.0000
  10
152.0000
  20
100.0000
  0
LWPOLYLINE
  8
CUT
  90
9
  70
1
  10
193.2500
  20
101.2500
  10
208.7500
  20
101.2500
  10
210.0000
  20
100.0000
  10
210.0000
  20
100.0000
  10
208.7500
  20
98.7500
  10
193.2500
  20
98.7500
  10
192.0000
  20
100.0000
  10
192.0000
  20
100.0000
  0
LWPOLYLINE
  8
CUT
  90
9
  70
1
  10
233.2500
  20
101.2500
  10
248.7500
  20
101.2500
  10
250.0000
  20
100.0000
  10
250.0000
  20
100.0000
  10
248.7500
  20
98.7500
  10
233.2500
  20
98.7500
  10
232.0000
  20
100.0000
  10
232.0000
  20
100.0000
  0
LWPOLYLINE
  8
CUT
  90
9
  70
1
  10
153.2500
  20
120.2500
  10
168.7500
  20
120.2500
  10
170.0000
  20
119.0000
  10
170.0000
  20
119.0000
  10
168.7500
  20
117.7500
  10
153.2500
  20
117.7500
  10
152.0000
  20
119.0000
  10
152.0000
  20
119.0000
  0
LWPOLYLINE
  8
CUT
  90
9
  70
1
  10
193.2500
  20
120.2500
  10
208.7500
  20
120.2500
  10
210.0000
  20
119.0000
  10
210.0000
  20
119.0000
  10
208.7500
  20
117.7500
  10
193.2500
  20
117.7500
  10
192.0000
  20
119.0000
  10
192.0000
  20
119.0000
  0
LWPOLYLINE
  8
CUT
  90
9
  70
1
  10
233.2500
  20
120.2500
  10
248.7500
  20
120.2500
  10
250.0000
  20
119.0000
  10
250.0000
  20
119.0000
  10
248.7500
  20
117.7500
  10
233.2500
  20
117.7500
  10
232.0000
  20
119.0000
  10
232.0000
  20
119.0000
  0
LWPOLYLINE
  8
CUT
  90
9
  70
1
  10
153.2500
  20
150.2500
  10
168.7500
  20
150.2500
  10
170.0000
  20
149.0000
  10
170.0000
  20
149.0000
  10
168.7500
  20
147.7500
  10
153.2500
  20
147.7500
  10
152.0000
  20
149.0000
  10
152.0000
  20
149.0000
  0
LWPOLYLINE
  8
CUT
  90
9
  70
1
  10
193.2500
  20
150.2500
  10
208.7500
  20
150.2500
  10
210.0000
  20
149.0000
  10
210.0000
  20
149.0000
  10
208.7500
  20
147.7500
  10
193.2500
  20
147.7500
  10
192.0000
  20
149.0000
  10
192.0000
  20
149.0000
  0
LWPOLYLINE
  8
CUT
  90
9
  70
1
  10
233.2500
  20
150.2500
  10
248.7500
  20
150.2500
  10
250.0000
  20
149.0000
  10
250.0000
  20
149.0000
  10
248.7500
  20
147.7500
  10
233.2500
  20
147.7500
  10
232.0000
  20
149.0000
  10
232.0000
  20
149.0000
  0
LWPOLYLINE
  8
CUT
  90
9
  70
1
  10
153.2500
  20
173.6480
  10
168.7500
  20
173.6480
  10
170.0000
  20
172.3980
  10
170.0000
  20
172.3980
  10
168.7500
  20
171.1480
  10
153.2500
  20
171.1480
  10
152.0000
  20
172.3980
  10
152.0000
  20
172.3980
  0
LWPOLYLINE
  8
CUT
  90
9
  70
1
  10
193.2500
  20
173.6480
  10
208.7500
  20
173.6480
  10
210.0000
  20
172.3980
  10
210.0000
  20
172.3980
  10
208.7500
  20
171.1480
  10
193.2500
  20
171.1480
  10
192.0000
  20
172.3980
  10
192.0000
  20
172.3980
  0
LWPOLYLINE
  8
CUT
  90
9
  70
1
  10
233.2500
  20
173.6480
  10
248.7500
  20
173.6480
  10
250.0000
  20
172.3980
  10
250.0000
  20
172.3980
  10
248.7500
  20
171.1480
  10
233.2500
  20
171.1480
  10
232.0000
  20
172.3980
  10
232.0000
  20
172.3980
  0
LWPOLYLINE
  8
CUT
  90
9
  70
1
  10
153.2500
  20
197.0460
  10
168.7500
  20
197.0460
  10
170.0000
  20
195.7960
  10
170.0000
  20
195.7960
  10
168.7500
  20
194.5460
  10
153.2500
  20
194.5460
  10
152.0000
  20
195.7960
  10
152.0000
  20
195.7960
  0
LWPOLYLINE
  8
CUT
  90
9
  70
1
  10
193.2500
  20
197.0460
  10
208.7500
  20
197.0460
  10
210.0000
  20
195.7960
  10
210.0000
  20
195.7960
  10
208.7500
  20
194.5460
  10
193.2500
  20
194.5460
  10
192.0000
  20
195.7960
  10
192.0000
  20
195.7960
  0
LWPOLYLINE
  8
CUT
  90
9
  70
1
  10
233.2500
  20
197.0460
  10
248.7500
  20
197.0460
  10
250.0000
  20
195.7960
  10
250.0000
  20
195.7960
  10
248.7500
  20
194.5460
  10
233.2500
  20
194.5460
  10
232.0000
  20
195.7960
  10
232.0000
  20
195.7960
  0
LWPOLYLINE
  8
CUT
  90
9
  70
1
  10
153.2500
  20
220.4440
  10
168.7500
  20
220.4440
  10
170.0000
  20
219.1940
  10
170.0000
  20
219.1940
  10
168.7500
  20
217.9440
  10
153.2500
  20
217.9440
  10
152.0000
  20
219.1940
  10
152.0000
  20
219.1940
  0
LWPOLYLINE
  8
CUT
  90
9
  70
1
  10
193.2500
  20
220.4440
  10
208.7500
  20
220.4440
  10
210.0000
  20
219.1940
  10
210.0000
  20
219.1940
  10
208.7500
  20
217.9440
  10
193.2500
  20
217.9440
  10
192.0000
  20
219.1940
  10
192.0000
  20
219.1940
  0
LWPOLYLINE
  8
CUT
  90
9
  70
1
  10
233.2500
  20
220.4440
  10
248.7500
  20
220.4440
  10
250.0000
  20
219.1940
  10
250.0000
  20
219.1940
  10
248.7500
  20
217.9440
  10
233.2500
  20
217.9440
  10
232.0000
  20
219.1940
  10
232.0000
  20
219.1940
  0
LWPOLYLINE
  8
CUT
  90
9
  70
1
  10
153.2500
  20
243.8420
  10
168.7500
  20
243.8420
  10
170.0000
  20
242.5920
  10
170.0000
  20
242.5920
  10
168.7500
  20
241.3420
  10
153.2500
  20
241.3420
  10
152.0000
  20
242.5920
  10
152.0000
  20
242.5920
  0
LWPOLYLINE
  8
CUT
  90
9
  70
1
  10
193.2500
  20
243.8420
  10
208.7500
  20
243.8420
  10
210.0000
  20
242.5920
  10
210.0000
  20
242.5920
  10
208.7500
  20
241.3420
  10
193.2500
  20
241.3420
  10
192.0000
  20
242.5920
  10
192.0000
  20
242.5920
  0
LWPOLYLINE
  8
CUT
  90
9
  70
1
  10
233.2500
  20
243.8420
  10
248.7500
  20
243.8420
  10
250.0000
  20
242.5920
  10
250.0000
  20
242.5920
  10
248.7500
  20
241.3420
  10
233.2500
  20
241.3420
  10
232.0000
  20
242.5920
  10
232.0000
  20
242.5920
  0
LWPOLYLINE
  8
CUT
  90
9
  70
1
  10
153.2500
  20
267.2400
  10
168.7500
  20
267.2400
  10
170.0000
  20
265.9900
  10
170.0000
  20
265.9900
  10
168.7500
  20
264.7400
  10
153.2500
  20
264.7400
  10
152.0000
  20
265.9900
  10
152.0000
  20
265.9900
  0
LWPOLYLINE
  8
CUT
  90
9
  70
1
  10
193.2500
  20
267.2400
  10
208.7500
  20
267.2400
  10
210.0000
  20
265.9900
  10
210.0000
  20
265.9900
  10
208.7500
  20
264.7400
  10
193.2500
  20
264.7400
  10
192.0000
  20
265.9900
  10
192.0000
  20
265.9900
  0
LWPOLYLINE
  8
CUT
  90
9
  70
1
  10
233.2500
  20
267.2400
  10
248.7500
  20
267.2400
  10
250.0000
  20
265.9900
  10
250.0000
  20
265.9900
  10
248.7500
  20
264.7400
  10
233.2500
  20
264.7400
  10
232.0000
  20
265.9900
  10
232.0000
  20
265.9900
  0
LWPOLYLINE
  8
CUT
  90
29
  70
1
  10
421.9900
  20
318.2400
  10
421.9900
  20
139.2400
  10
420.9900
  20
139.2400
  10
420.9900
  20
134.2400
  10
410.9900
  20
134.2400
  10
410.9900
  20
139.2400
  10
409.9900
  20
139.2400
  10
409.9900
  20
158.0750
  10
285.0000
  20
158.0750
  10
285.0000
  20
178.0750
  10
409.9900
  20
178.0750
  10
409.9900
  20
203.1850
  10
285.0000
  20
203.1850
  10
285.0000
  20
223.1850
  10
409.9900
  20
223.1850
  10
409.9900
  20
248.2950
  10
285.0000
  20
248.2950
  10
285.0000
  20
268.2950
  10
409.9900
  20
268.2950
  10
409.9900
  20
293.4050
  10
285.0000
  20
293.4050
  10
285.0000
  20
313.4050
  10
409.9900
  20
313.4050
  10
409.9900
  20
318.2400
  10
410.9900
  20
318.2400
  10
410.9900
  20
323.2400
  10
420.9900
  20
323.2400
  10
420.9900
  20
318.2400
  0
CIRCLE
  8
CUT
  10
304.5000
  20
303.4050
  40
1.7000
  0
CIRCLE
  8
CUT
  10
346.5000
  20
303.4050
  40
1.7000
  0
CIRCLE
  8
CUT
  10
406.5000
  20
303.4050
  40
1.7000
  0
CIRCLE
  8
CUT
  10
304.5000
  20
258.2950
  40
1.7000
  0
CIRCLE
  8
CUT
  10
346.5000
  20
258.2950
  40
1.7000
  0
CIRCLE
  8
CUT
  10
406.5000
  20
258.2950
  40
1.7000
  0
CIRCLE
  8
CUT
  10
304.5000
  20
213.1850
  40
1.7000
  0
CIRCLE
  8
CUT
  10
346.5000
  20
213.1850
  40
1.7000
  0
CIRCLE
  8
CUT
  10
406.5000
  20
213.1850
  40
1.7000
  0
CIRCLE
  8
CUT
  10
304.5000
  20
168.0750
  40
1.7000
  0
CIRCLE
  8
CUT
  10
346.5000
  20
168.0750
  40
1.7000
  0
CIRCLE
  8
CUT
  10
406.5000
  20
168.0750
  40
1.7000
  0
LWPOLYLINE
  8
CUT
  90
29
  70
1
  10
270.0000
  20
130.7400
  10
270.0000
  20
309.7400
  10
271.0000
  20
309.7400
  10
271.0000
  20
314.7400
  10
281.0000
  20
314.7400
  10
281.0000
  20
309.7400
  10
282.0000
  20
309.7400
  10
282.0000
  20
290.9050
  10
406.9900
  20
290.9050
  10
406.9900
  20
270.9050
  10
282.0000
  20
270.9050
  10
282.0000
  20
245.7950
  10
406.9900
  20
245.7950
  10
406.9900
  20
225.7950
  10
282.0000
  20
225.7950
  10
282.0000
  20
200.6850
  10
406.9900
  20
200.6850
  10
406.9900
  20
180.6850
  10
282.0000
  20
180.6850
  10
282.0000
  20
155.5750
  10
406.9900
  20
155.5750
  10
406.9900
  20
135.5750
  10
282.0000
  20
135.5750
  10
282.0000
  20
130.7400
  10
281.0000
  20
130.7400
  10
281.0000
  20
125.7400
  10
271.0000
  20
125.7400
  10
271.0000
  20
130.7400
  0
CIRCLE
  8
CUT
  10
387.4900
  20
145.5750
  40
1.7000
  0
CIRCLE
  8
CUT
  10
345.4900
  20
145.5750
  40
1.7000
  0
CIRCLE
  8
CUT
  10
285.4900
  20
145.5750
  40
1.7000
  0
CIRCLE
  8
CUT
  10
387.4900
  20
190.6850
  40
1.7000
  0
CIRCLE
  8
CUT
  10
345.4900
  20
190.6850
  40
1.7000
  0
CIRCLE
  8
CUT
  10
285.4900
  20
190.6850
  40
1.7000
  0
CIRCLE
  8
CUT
  10
387.4900
  20
235.7950
  40
1.7000
  0
CIRCLE
  8
CUT
  10
345.4900
  20
235.7950
  40
1.7000
  0
CIRCLE
  8
CUT
  10
285.4900
  20
235.7950
  40
1.7000
  0
CIRCLE
  8
CUT
  10
387.4900
  20
280.9050
  40
1.7000
  0
CIRCLE
  8
CUT
  10
345.4900
  20
280.9050
  40
1.7000
  0
CIRCLE
  8
CUT
  10
285.4900
  20
280.9050
  40
1.7000
  0
LWPOLYLINE
  8
CUT
  90
5
  70
1
  10
270.0000
  20
118.0000
  10
447.0000
  20
118.0000
  10
447.0000
  20
0.0000
  10
270.0000
  20
0.0000
  0
CIRCLE
  8
CUT
  10
274.0000
  20
106.0000
  40
2.2500
  0
CIRCLE
  8
CUT
  10
443.0000
  20
106.0000
  40
2.2500
  0
CIRCLE
  8
CUT
  10
274.0000
  20
12.0000
  40
2.2500
  0
CIRCLE
  8
CUT
  10
443.0000
  20
12.0000
  40
2.2500
  0
CIRCLE
  8
CUT
  10
358.5000
  20
59.0000
  40
37.0000
  0
CIRCLE
  8
CUT
  10
322.7500
  20
94.7500
  40
2.1500
  0
CIRCLE
  8
CUT
  10
394.2500
  20
94.7500
  40
2.1500
  0
CIRCLE
  8
CUT
  10
322.7500
  20
23.2500
  40
2.1500
  0
CIRCLE
  8
CUT
  10
394.2500
  20
23.2500
  40
2.1500
  0
LWPOLYLINE
  8
CUT
  90
73
  70
1
  10
550.0000
  20
323.2400
  10
553.0000
  20
323.2400
  10
553.0000
  20
311.7690
  10
550.0000
  20
311.7690
  10
550.0000
  20
300.2990
  10
553.0000
  20
300.2990
  10
553.0000
  20
288.8280
  10
550.0000
  20
288.8280
  10
550.0000
  20
277.3580
  10
553.0000
  20
277.3580
  10
553.0000
  20
265.8870
  10
550.0000
  20
265.8870
  10
550.0000
  20
254.4160
  10
553.0000
  20
254.4160
  10
553.0000
  20
242.9460
  10
550.0000
  20
242.9460
  10
550.0000
  20
231.4750
  10
553.0000
  20
231.4750
  10
553.0000
  20
220.0050
  10
550.0000
  20
220.0050
  10
550.0000
  20
208.5340
  10
553.0000
  20
208.5340
  10
553.0000
  20
197.0640
  10
550.0000
  20
197.0640
  10
550.0000
  20
185.5930
  10
553.0000
  20
185.5930
  10
553.0000
  20
174.1220
  10
550.0000
  20
174.1220
  10
550.0000
  20
162.6520
  10
553.0000
  20
162.6520
  10
553.0000
  20
151.1810
  10
550.0000
  20
151.1810
  10
550.0000
  20
139.7110
  10
553.0000
  20
139.7110
  10
553.0000
  20
128.2400
  10
550.0000
  20
128.2400
  10
430.0000
  20
128.2400
  10
427.0000
  20
128.2400
  10
427.0000
  20
139.7110
  10
430.0000
  20
139.7110
  10
430.0000
  20
151.1810
  10
427.0000
  20
151.1810
  10
427.0000
  20
162.6520
  10
430.0000
  20
162.6520
  10
430.0000
  20
174.1220
  10
427.0000
  20
174.1220
  10
427.0000
  20
185.5930
  10
430.0000
  20
185.5930
  10
430.0000
  20
197.0640
  10
427.0000
  20
197.0640
  10
427.0000
  20
208.5340
  10
430.0000
  20
208.5340
  10
430.0000
  20
220.0050
  10
427.0000
  20
220.0050
  10
427.0000
  20
231.4750
  10
430.0000
  20
231.4750
  10
430.0000
  20
242.9460
  10
427.0000
  20
242.9460
  10
427.0000
  20
254.4160
  10
430.0000
  20
254.4160
  10
430.0000
  20
265.8870
  10
427.0000
  20
265.8870
  10
427.0000
  20
277.3580
  10
430.0000
  20
277.3580
  10
430.0000
  20
288.8280
  10
427.0000
  20
288.8280
  10
427.0000
  20
300.2990
  10
430.0000
  20
300.2990
  10
430.0000
  20
311.7690
  10
427.0000
  20
311.7690
  10
427.0000
  20
323.2400
  10
430.0000
  20
323.2400
  0
LWPOLYLINE
  8
CUT
  90
5
  70
1
  10
539.0910
  20
320.2400
  10
550.0000
  20
320.2400
  10
550.0000
  20
315.2400
  10
539.0910
  20
315.2400
  0
LWPOLYLINE
  8
CUT
  90
5
  70
1
  10
517.2730
  20
320.2400
  10
528.1820
  20
320.2400
  10
528.1820
  20
315.2400
  10
517.2730
  20
315.2400
  0
LWPOLYLINE
  8
CUT
  90
5
  70
1
  10
495.4550
  20
320.2400
  10
506.3640
  20
320.2400
  10
506.3640
  20
315.2400
  10
495.4550
  20
315.2400
  0
LWPOLYLINE
  8
CUT
  90
5
  70
1
  10
473.6360
  20
320.2400
  10
484.5450
  20
320.2400
  10
484.5450
  20
315.2400
  10
473.6360
  20
315.2400
  0
LWPOLYLINE
  8
CUT
  90
5
  70
1
  10
451.8180
  20
320.2400
  10
462.7270
  20
320.2400
  10
462.7270
  20
315.2400
  10
451.8180
  20
315.2400
  0
LWPOLYLINE
  8
CUT
  90
5
  70
1
  10
430.0000
  20
320.2400
  10
440.9090
  20
320.2400
  10
440.9090
  20
315.2400
  10
430.0000
  20
315.2400
  0
LWPOLYLINE
  8
CUT
  90
5
  70
1
  10
539.0910
  20
136.2400
  10
550.0000
  20
136.2400
  10
550.0000
  20
131.2400
  10
539.0910
  20
131.2400
  0
LWPOLYLINE
  8
CUT
  90
5
  70
1
  10
517.2730
  20
136.2400
  10
528.1820
  20
136.2400
  10
528.1820
  20
131.2400
  10
517.2730
  20
131.2400
  0
LWPOLYLINE
  8
CUT
  90
5
  70
1
  10
495.4550
  20
136.2400
  10
506.3640
  20
136.2400
  10
506.3640
  20
131.2400
  10
495.4550
  20
131.2400
  0
LWPOLYLINE
  8
CUT
  90
5
  70
1
  10
473.6360
  20
136.2400
  10
484.5450
  20
136.2400
  10
484.5450
  20
131.2400
  10
473.6360
  20
131.2400
  0
LWPOLYLINE
  8
CUT
  90
5
  70
1
  10
451.8180
  20
136.2400
  10
462.7270
  20
136.2400
  10
462.7270
  20
131.2400
  10
451.8180
  20
131.2400
  0
LWPOLYLINE
  8
CUT
  90
5
  70
1
  10
430.0000
  20
136.2400
  10
440.9090
  20
136.2400
  10
440.9090
  20
131.2400
  10
430.0000
  20
131.2400
  0
CIRCLE
  8
CUT
  10
537.0000
  20
310.2400
  40
2.2500
  0
CIRCLE
  8
CUT
  10
537.0000
  20
141.2400
  40
2.2500
  0
CIRCLE
  8
CUT
  10
443.0000
  20
310.2400
  40
2.2500
  0
CIRCLE
  8
CUT
  10
443.0000
  20
141.2400
  40
2.2500
  0
CIRCLE
  8
CUT
  10
466.5000
  20
250.2400
  40
1.3500
  0
CIRCLE
  8
CUT
  10
524.5000
  20
250.2400
  40
1.3500
  0
CIRCLE
  8
CUT
  10
466.5000
  20
201.2400
  40
1.3500
  0
CIRCLE
  8
CUT
  10
524.5000
  20
201.2400
  40
1.3500
  0
LWPOLYLINE
  8
CUT
  90
9
  70
1
  10
538.0000
  20
304.2400
  10
538.0000
  20
304.2400
  10
539.5000
  20
302.7400
  10
539.5000
  20
283.7400
  10
538.0000
  20
282.2400
  10
538.0000
  20
282.2400
  10
536.5000
  20
283.7400
  10
536.5000
  20
302.7400
  0
LWPOLYLINE
  8
CUT
  90
9
  70
1
  10
530.0000
  20
304.2400
  10
530.0000
  20
304.2400
  10
531.5000
  20
302.7400
  10
531.5000
  20
283.7400
  10
530.0000
  20
282.2400
  10
530.0000
  20
282.2400
  10
528.5000
  20
283.7400
  10
528.5000
  20
302.7400
  0
LWPOLYLINE
  8
CUT
  90
9
  70
1
  10
522.0000
  20
304.2400
  10
522.0000
  20
304.2400
  10
523.5000
  20
302.7400
  10
523.5000
  20
283.7400
  10
522.0000
  20
282.2400
  10
522.0000
  20
282.2400
  10
520.5000
  20
283.7400
  10
520.5000
  20
302.7400
  0
LWPOLYLINE
  8
CUT
  90
9
  70
1
  10
514.0000
  20
304.2400
  10
514.0000
  20
304.2400
  10
515.5000
  20
302.7400
  10
515.5000
  20
283.7400
  10
514.0000
  20
282.2400
  10
514.0000
  20
282.2400
  10
512.5000
  20
283.7400
  10
512.5000
  20
302.7400
  0
LWPOLYLINE
  8
CUT
  90
9
  70
1
  10
506.0000
  20
304.2400
  10
506.0000
  20
304.2400
  10
507.5000
  20
302.7400
  10
507.5000
  20
283.7400
  10
506.0000
  20
282.2400
  10
506.0000
  20
282.2400
  10
504.5000
  20
283.7400
  10
504.5000
  20
302.7400
  0
LWPOLYLINE
  8
CUT
  90
9
  70
1
  10
498.0000
  20
304.2400
  10
498.0000
  20
304.2400
  10
499.5000
  20
302.7400
  10
499.5000
  20
283.7400
  10
498.0000
  20
282.2400
  10
498.0000
  20
282.2400
  10
496.5000
  20
283.7400
  10
496.5000
  20
302.7400
  0
LWPOLYLINE
  8
CUT
  90
9
  70
1
  10
490.0000
  20
304.2400
  10
490.0000
  20
304.2400
  10
491.5000
  20
302.7400
  10
491.5000
  20
283.7400
  10
490.0000
  20
282.2400
  10
490.0000
  20
282.2400
  10
488.5000
  20
283.7400
  10
488.5000
  20
302.7400
  0
LWPOLYLINE
  8
CUT
  90
9
  70
1
  10
482.0000
  20
304.2400
  10
482.0000
  20
304.2400
  10
483.5000
  20
302.7400
  10
483.5000
  20
283.7400
  10
482.0000
  20
282.2400
  10
482.0000
  20
282.2400
  10
480.5000
  20
283.7400
  10
480.5000
  20
302.7400
  0
LWPOLYLINE
  8
CUT
  90
9
  70
1
  10
474.0000
  20
304.2400
  10
474.0000
  20
304.2400
  10
475.5000
  20
302.7400
  10
475.5000
  20
283.7400
  10
474.0000
  20
282.2400
  10
474.0000
  20
282.2400
  10
472.5000
  20
283.7400
  10
472.5000
  20
302.7400
  0
LWPOLYLINE
  8
CUT
  90
9
  70
1
  10
466.0000
  20
304.2400
  10
466.0000
  20
304.2400
  10
467.5000
  20
302.7400
  10
467.5000
  20
283.7400
  10
466.0000
  20
282.2400
  10
466.0000
  20
282.2400
  10
464.5000
  20
283.7400
  10
464.5000
  20
302.7400
  0
LWPOLYLINE
  8
CUT
  90
9
  70
1
  10
458.0000
  20
304.2400
  10
458.0000
  20
304.2400
  10
459.5000
  20
302.7400
  10
459.5000
  20
283.7400
  10
458.0000
  20
282.2400
  10
458.0000
  20
282.2400
  10
456.5000
  20
283.7400
  10
456.5000
  20
302.7400
  0
LWPOLYLINE
  8
CUT
  90
9
  70
1
  10
450.0000
  20
304.2400
  10
450.0000
  20
304.2400
  10
451.5000
  20
302.7400
  10
451.5000
  20
283.7400
  10
450.0000
  20
282.2400
  10
450.0000
  20
282.2400
  10
448.5000
  20
283.7400
  10
448.5000
  20
302.7400
  0
LWPOLYLINE
  8
CUT
  90
9
  70
1
  10
442.0000
  20
304.2400
  10
442.0000
  20
304.2400
  10
443.5000
  20
302.7400
  10
443.5000
  20
283.7400
  10
442.0000
  20
282.2400
  10
442.0000
  20
282.2400
  10
440.5000
  20
283.7400
  10
440.5000
  20
302.7400
  0
LWPOLYLINE
  8
CUT
  90
9
  70
1
  10
538.0000
  20
277.2400
  10
538.0000
  20
277.2400
  10
539.5000
  20
275.7400
  10
539.5000
  20
256.7400
  10
538.0000
  20
255.2400
  10
538.0000
  20
255.2400
  10
536.5000
  20
256.7400
  10
536.5000
  20
275.7400
  0
LWPOLYLINE
  8
CUT
  90
9
  70
1
  10
530.0000
  20
277.2400
  10
530.0000
  20
277.2400
  10
531.5000
  20
275.7400
  10
531.5000
  20
256.7400
  10
530.0000
  20
255.2400
  10
530.0000
  20
255.2400
  10
528.5000
  20
256.7400
  10
528.5000
  20
275.7400
  0
LWPOLYLINE
  8
CUT
  90
9
  70
1
  10
522.0000
  20
277.2400
  10
522.0000
  20
277.2400
  10
523.5000
  20
275.7400
  10
523.5000
  20
256.7400
  10
522.0000
  20
255.2400
  10
522.0000
  20
255.2400
  10
520.5000
  20
256.7400
  10
520.5000
  20
275.7400
  0
LWPOLYLINE
  8
CUT
  90
9
  70
1
  10
514.0000
  20
277.2400
  10
514.0000
  20
277.2400
  10
515.5000
  20
275.7400
  10
515.5000
  20
256.7400
  10
514.0000
  20
255.2400
  10
514.0000
  20
255.2400
  10
512.5000
  20
256.7400
  10
512.5000
  20
275.7400
  0
LWPOLYLINE
  8
CUT
  90
9
  70
1
  10
506.0000
  20
277.2400
  10
506.0000
  20
277.2400
  10
507.5000
  20
275.7400
  10
507.5000
  20
256.7400
  10
506.0000
  20
255.2400
  10
506.0000
  20
255.2400
  10
504.5000
  20
256.7400
  10
504.5000
  20
275.7400
  0
LWPOLYLINE
  8
CUT
  90
9
  70
1
  10
498.0000
  20
277.2400
  10
498.0000
  20
277.2400
  10
499.5000
  20
275.7400
  10
499.5000
  20
256.7400
  10
498.0000
  20
255.2400
  10
498.0000
  20
255.2400
  10
496.5000
  20
256.7400
  10
496.5000
  20
275.7400
  0
LWPOLYLINE
  8
CUT
  90
9
  70
1
  10
490.0000
  20
277.2400
  10
490.0000
  20
277.2400
  10
491.5000
  20
275.7400
  10
491.5000
  20
256.7400
  10
490.0000
  20
255.2400
  10
490.0000
  20
255.2400
  10
488.5000
  20
256.7400
  10
488.5000
  20
275.7400
  0
LWPOLYLINE
  8
CUT
  90
9
  70
1
  10
482.0000
  20
277.2400
  10
482.0000
  20
277.2400
  10
483.5000
  20
275.7400
  10
483.5000
  20
256.7400
  10
482.0000
  20
255.2400
  10
482.0000
  20
255.2400
  10
480.5000
  20
256.7400
  10
480.5000
  20
275.7400
  0
LWPOLYLINE
  8
CUT
  90
9
  70
1
  10
474.0000
  20
277.2400
  10
474.0000
  20
277.2400
  10
475.5000
  20
275.7400
  10
475.5000
  20
256.7400
  10
474.0000
  20
255.2400
  10
474.0000
  20
255.2400
  10
472.5000
  20
256.7400
  10
472.5000
  20
275.7400
  0
LWPOLYLINE
  8
CUT
  90
9
  70
1
  10
466.0000
  20
277.2400
  10
466.0000
  20
277.2400
  10
467.5000
  20
275.7400
  10
467.5000
  20
256.7400
  10
466.0000
  20
255.2400
  10
466.0000
  20
255.2400
  10
464.5000
  20
256.7400
  10
464.5000
  20
275.7400
  0
LWPOLYLINE
  8
CUT
  90
9
  70
1
  10
458.0000
  20
277.2400
  10
458.0000
  20
277.2400
  10
459.5000
  20
275.7400
  10
459.5000
  20
256.7400
  10
458.0000
  20
255.2400
  10
458.0000
  20
255.2400
  10
456.5000
  20
256.7400
  10
456.5000
  20
275.7400
  0
LWPOLYLINE
  8
CUT
  90
9
  70
1
  10
450.0000
  20
277.2400
  10
450.0000
  20
277.2400
  10
451.5000
  20
275.7400
  10
451.5000
  20
256.7400
  10
450.0000
  20
255.2400
  10
450.0000
  20
255.2400
  10
448.5000
  20
256.7400
  10
448.5000
  20
275.7400
  0
LWPOLYLINE
  8
CUT
  90
9
  70
1
  10
442.0000
  20
277.2400
  10
442.0000
  20
277.2400
  10
443.5000
  20
275.7400
  10
443.5000
  20
256.7400
  10
442.0000
  20
255.2400
  10
442.0000
  20
255.2400
  10
440.5000
  20
256.7400
  10
440.5000
  20
275.7400
  0
LWPOLYLINE
  8
CUT
  90
9
  70
1
  10
538.0000
  20
250.2400
  10
538.0000
  20
250.2400
  10
539.5000
  20
248.7400
  10
539.5000
  20
229.7400
  10
538.0000
  20
228.2400
  10
538.0000
  20
228.2400
  10
536.5000
  20
229.7400
  10
536.5000
  20
248.7400
  0
LWPOLYLINE
  8
CUT
  90
9
  70
1
  10
530.0000
  20
250.2400
  10
530.0000
  20
250.2400
  10
531.5000
  20
248.7400
  10
531.5000
  20
229.7400
  10
530.0000
  20
228.2400
  10
530.0000
  20
228.2400
  10
528.5000
  20
229.7400
  10
528.5000
  20
248.7400
  0
LWPOLYLINE
  8
CUT
  90
9
  70
1
  10
514.0000
  20
250.2400
  10
514.0000
  20
250.2400
  10
515.5000
  20
248.7400
  10
515.5000
  20
229.7400
  10
514.0000
  20
228.2400
  10
514.0000
  20
228.2400
  10
512.5000
  20
229.7400
  10
512.5000
  20
248.7400
  0
LWPOLYLINE
  8
CUT
  90
9
  70
1
  10
506.0000
  20
250.2400
  10
506.0000
  20
250.2400
  10
507.5000
  20
248.7400
  10
507.5000
  20
229.7400
  10
506.0000
  20
228.2400
  10
506.0000
  20
228.2400
  10
504.5000
  20
229.7400
  10
504.5000
  20
248.7400
  0
LWPOLYLINE
  8
CUT
  90
9
  70
1
  10
498.0000
  20
250.2400
  10
498.0000
  20
250.2400
  10
499.5000
  20
248.7400
  10
499.5000
  20
229.7400
  10
498.0000
  20
228.2400
  10
498.0000
  20
228.2400
  10
496.5000
  20
229.7400
  10
496.5000
  20
248.7400
  0
LWPOLYLINE
  8
CUT
  90
9
  70
1
  10
490.0000
  20
250.2400
  10
490.0000
  20
250.2400
  10
491.5000
  20
248.7400
  10
491.5000
  20
229.7400
  10
490.0000
  20
228.2400
  10
490.0000
  20
228.2400
  10
488.5000
  20
229.7400
  10
488.5000
  20
248.7400
  0
LWPOLYLINE
  8
CUT
  90
9
  70
1
  10
482.0000
  20
250.2400
  10
482.0000
  20
250.2400
  10
483.5000
  20
248.7400
  10
483.5000
  20
229.7400
  10
482.0000
  20
228.2400
  10
482.0000
  20
228.2400
  10
480.5000
  20
229.7400
  10
480.5000
  20
248.7400
  0
LWPOLYLINE
  8
CUT
  90
9
  70
1
  10
474.0000
  20
250.2400
  10
474.0000
  20
250.2400
  10
475.5000
  20
248.7400
  10
475.5000
  20
229.7400
  10
474.0000
  20
228.2400
  10
474.0000
  20
228.2400
  10
472.5000
  20
229.7400
  10
472.5000
  20
248.7400
  0
LWPOLYLINE
  8
CUT
  90
9
  70
1
  10
442.0000
  20
250.2400
  10
442.0000
  20
250.2400
  10
443.5000
  20
248.7400
  10
443.5000
  20
229.7400
  10
442.0000
  20
228.2400
  10
442.0000
  20
228.2400
  10
440.5000
  20
229.7400
  10
440.5000
  20
248.7400
  0
LWPOLYLINE
  8
CUT
  90
9
  70
1
  10
538.0000
  20
223.2400
  10
538.0000
  20
223.2400
  10
539.5000
  20
221.7400
  10
539.5000
  20
202.7400
  10
538.0000
  20
201.2400
  10
538.0000
  20
201.2400
  10
536.5000
  20
202.7400
  10
536.5000
  20
221.7400
  0
LWPOLYLINE
  8
CUT
  90
9
  70
1
  10
530.0000
  20
223.2400
  10
530.0000
  20
223.2400
  10
531.5000
  20
221.7400
  10
531.5000
  20
202.7400
  10
530.0000
  20
201.2400
  10
530.0000
  20
201.2400
  10
528.5000
  20
202.7400
  10
528.5000
  20
221.7400
  0
LWPOLYLINE
  8
CUT
  90
9
  70
1
  10
514.0000
  20
223.2400
  10
514.0000
  20
223.2400
  10
515.5000
  20
221.7400
  10
515.5000
  20
202.7400
  10
514.0000
  20
201.2400
  10
514.0000
  20
201.2400
  10
512.5000
  20
202.7400
  10
512.5000
  20
221.7400
  0
LWPOLYLINE
  8
CUT
  90
9
  70
1
  10
506.0000
  20
223.2400
  10
506.0000
  20
223.2400
  10
507.5000
  20
221.7400
  10
507.5000
  20
202.7400
  10
506.0000
  20
201.2400
  10
506.0000
  20
201.2400
  10
504.5000
  20
202.7400
  10
504.5000
  20
221.7400
  0
LWPOLYLINE
  8
CUT
  90
9
  70
1
  10
498.0000
  20
223.2400
  10
498.0000
  20
223.2400
  10
499.5000
  20
221.7400
  10
499.5000
  20
202.7400
  10
498.0000
  20
201.2400
  10
498.0000
  20
201.2400
  10
496.5000
  20
202.7400
  10
496.5000
  20
221.7400
  0
LWPOLYLINE
  8
CUT
  90
9
  70
1
  10
490.0000
  20
223.2400
  10
490.0000
  20
223.2400
  10
491.5000
  20
221.7400
  10
491.5000
  20
202.7400
  10
490.0000
  20
201.2400
  10
490.0000
  20
201.2400
  10
488.5000
  20
202.7400
  10
488.5000
  20
221.7400
  0
LWPOLYLINE
  8
CUT
  90
9
  70
1
  10
482.0000
  20
223.2400
  10
482.0000
  20
223.2400
  10
483.5000
  20
221.7400
  10
483.5000
  20
202.7400
  10
482.0000
  20
201.2400
  10
482.0000
  20
201.2400
  10
480.5000
  20
202.7400
  10
480.5000
  20
221.7400
  0
LWPOLYLINE
  8
CUT
  90
9
  70
1
  10
474.0000
  20
223.2400
  10
474.0000
  20
223.2400
  10
475.5000
  20
221.7400
  10
475.5000
  20
202.7400
  10
474.0000
  20
201.2400
  10
474.0000
  20
201.2400
  10
472.5000
  20
202.7400
  10
472.5000
  20
221.7400
  0
LWPOLYLINE
  8
CUT
  90
9
  70
1
  10
442.0000
  20
223.2400
  10
442.0000
  20
223.2400
  10
443.5000
  20
221.7400
  10
443.5000
  20
202.7400
  10
442.0000
  20
201.2400
  10
442.0000
  20
201.2400
  10
440.5000
  20
202.7400
  10
440.5000
  20
221.7400
  0
LWPOLYLINE
  8
CUT
  90
9
  70
1
  10
538.0000
  20
196.2400
  10
538.0000
  20
196.2400
  10
539.5000
  20
194.7400
  10
539.5000
  20
175.7400
  10
538.0000
  20
174.2400
  10
538.0000
  20
174.2400
  10
536.5000
  20
175.7400
  10
536.5000
  20
194.7400
  0
LWPOLYLINE
  8
CUT
  90
9
  70
1
  10
530.0000
  20
196.2400
  10
530.0000
  20
196.2400
  10
531.5000
  20
194.7400
  10
531.5000
  20
175.7400
  10
530.0000
  20
174.2400
  10
530.0000
  20
174.2400
  10
528.5000
  20
175.7400
  10
528.5000
  20
194.7400
  0
LWPOLYLINE
  8
CUT
  90
9
  70
1
  10
522.0000
  20
196.2400
  10
522.0000
  20
196.2400
  10
523.5000
  20
194.7400
  10
523.5000
  20
175.7400
  10
522.0000
  20
174.2400
  10
522.0000
  20
174.2400
  10
520.5000
  20
175.7400
  10
520.5000
  20
194.7400
  0
LWPOLYLINE
  8
CUT
  90
9
  70
1
  10
514.0000
  20
196.2400
  10
514.0000
  20
196.2400
  10
515.5000
  20
194.7400
  10
515.5000
  20
175.7400
  10
514.0000
  20
174.2400
  10
514.0000
  20
174.2400
  10
512.5000
  20
175.7400
  10
512.5000
  20
194.7400
  0
LWPOLYLINE
  8
CUT
  90
9
  70
1
  10
506.0000
  20
196.2400
  10
506.0000
  20
196.2400
  10
507.5000
  20
194.7400
  10
507.5000
  20
175.7400
  10
506.0000
  20
174.2400
  10
506.0000
  20
174.2400
  10
504.5000
  20
175.7400
  10
504.5000
  20
194.7400
  0
LWPOLYLINE
  8
CUT
  90
9
  70
1
  10
498.0000
  20
196.2400
  10
498.0000
  20
196.2400
  10
499.5000
  20
194.7400
  10
499.5000
  20
175.7400
  10
498.0000
  20
174.2400
  10
498.0000
  20
174.2400
  10
496.5000
  20
175.7400
  10
496.5000
  20
194.7400
  0
LWPOLYLINE
  8
CUT
  90
9
  70
1
  10
490.0000
  20
196.2400
  10
490.0000
  20
196.2400
  10
491.5000
  20
194.7400
  10
491.5000
  20
175.7400
  10
490.0000
  20
174.2400
  10
490.0000
  20
174.2400
  10
488.5000
  20
175.7400
  10
488.5000
  20
194.7400
  0
LWPOLYLINE
  8
CUT
  90
9
  70
1
  10
482.0000
  20
196.2400
  10
482.0000
  20
196.2400
  10
483.5000
  20
194.7400
  10
483.5000
  20
175.7400
  10
482.0000
  20
174.2400
  10
482.0000
  20
174.2400
  10
480.5000
  20
175.7400
  10
480.5000
  20
194.7400
  0
LWPOLYLINE
  8
CUT
  90
9
  70
1
  10
474.0000
  20
196.2400
  10
474.0000
  20
196.2400
  10
475.5000
  20
194.7400
  10
475.5000
  20
175.7400
  10
474.0000
  20
174.2400
  10
474.0000
  20
174.2400
  10
472.5000
  20
175.7400
  10
472.5000
  20
194.7400
  0
LWPOLYLINE
  8
CUT
  90
9
  70
1
  10
466.0000
  20
196.2400
  10
466.0000
  20
196.2400
  10
467.5000
  20
194.7400
  10
467.5000
  20
175.7400
  10
466.0000
  20
174.2400
  10
466.0000
  20
174.2400
  10
464.5000
  20
175.7400
  10
464.5000
  20
194.7400
  0
LWPOLYLINE
  8
CUT
  90
9
  70
1
  10
458.0000
  20
196.2400
  10
458.0000
  20
196.2400
  10
459.5000
  20
194.7400
  10
459.5000
  20
175.7400
  10
458.0000
  20
174.2400
  10
458.0000
  20
174.2400
  10
456.5000
  20
175.7400
  10
456.5000
  20
194.7400
  0
LWPOLYLINE
  8
CUT
  90
9
  70
1
  10
450.0000
  20
196.2400
  10
450.0000
  20
196.2400
  10
451.5000
  20
194.7400
  10
451.5000
  20
175.7400
  10
450.0000
  20
174.2400
  10
450.0000
  20
174.2400
  10
448.5000
  20
175.7400
  10
448.5000
  20
194.7400
  0
LWPOLYLINE
  8
CUT
  90
9
  70
1
  10
442.0000
  20
196.2400
  10
442.0000
  20
196.2400
  10
443.5000
  20
194.7400
  10
443.5000
  20
175.7400
  10
442.0000
  20
174.2400
  10
442.0000
  20
174.2400
  10
440.5000
  20
175.7400
  10
440.5000
  20
194.7400
  0
LWPOLYLINE
  8
CUT
  90
9
  70
1
  10
538.0000
  20
169.2400
  10
538.0000
  20
169.2400
  10
539.5000
  20
167.7400
  10
539.5000
  20
148.7400
  10
538.0000
  20
147.2400
  10
538.0000
  20
147.2400
  10
536.5000
  20
148.7400
  10
536.5000
  20
167.7400
  0
LWPOLYLINE
  8
CUT
  90
9
  70
1
  10
530.0000
  20
169.2400
  10
530.0000
  20
169.2400
  10
531.5000
  20
167.7400
  10
531.5000
  20
148.7400
  10
530.0000
  20
147.2400
  10
530.0000
  20
147.2400
  10
528.5000
  20
148.7400
  10
528.5000
  20
167.7400
  0
LWPOLYLINE
  8
CUT
  90
9
  70
1
  10
522.0000
  20
169.2400
  10
522.0000
  20
169.2400
  10
523.5000
  20
167.7400
  10
523.5000
  20
148.7400
  10
522.0000
  20
147.2400
  10
522.0000
  20
147.2400
  10
520.5000
  20
148.7400
  10
520.5000
  20
167.7400
  0
LWPOLYLINE
  8
CUT
  90
9
  70
1
  10
514.0000
  20
169.2400
  10
514.0000
  20
169.2400
  10
515.5000
  20
167.7400
  10
515.5000
  20
148.7400
  10
514.0000
  20
147.2400
  10
514.0000
  20
147.2400
  10
512.5000
  20
148.7400
  10
512.5000
  20
167.7400
  0
LWPOLYLINE
  8
CUT
  90
9
  70
1
  10
506.0000
  20
169.2400
  10
506.0000
  20
169.2400
  10
507.5000
  20
167.7400
  10
507.5000
  20
148.7400
  10
506.0000
  20
147.2400
  10
506.0000
  20
147.2400
  10
504.5000
  20
148.7400
  10
504.5000
  20
167.7400
  0
LWPOLYLINE
  8
CUT
  90
9
  70
1
  10
498.0000
  20
169.2400
  10
498.0000
  20
169.2400
  10
499.5000
  20
167.7400
  10
499.5000
  20
148.7400
  10
498.0000
  20
147.2400
  10
498.0000
  20
147.2400
  10
496.5000
  20
148.7400
  10
496.5000
  20
167.7400
  0
LWPOLYLINE
  8
CUT
  90
9
  70
1
  10
490.0000
  20
169.2400
  10
490.0000
  20
169.2400
  10
491.5000
  20
167.7400
  10
491.5000
  20
148.7400
  10
490.0000
  20
147.2400
  10
490.0000
  20
147.2400
  10
488.5000
  20
148.7400
  10
488.5000
  20
167.7400
  0
LWPOLYLINE
  8
CUT
  90
9
  70
1
  10
482.0000
  20
169.2400
  10
482.0000
  20
169.2400
  10
483.5000
  20
167.7400
  10
483.5000
  20
148.7400
  10
482.0000
  20
147.2400
  10
482.0000
  20
147.2400
  10
480.5000
  20
148.7400
  10
480.5000
  20
167.7400
  0
LWPOLYLINE
  8
CUT
  90
9
  70
1
  10
474.0000
  20
169.2400
  10
474.0000
  20
169.2400
  10
475.5000
  20
167.7400
  10
475.5000
  20
148.7400
  10
474.0000
  20
147.2400
  10
474.0000
  20
147.2400
  10
472.5000
  20
148.7400
  10
472.5000
  20
167.7400
  0
LWPOLYLINE
  8
CUT
  90
9
  70
1
  10
466.0000
  20
169.2400
  10
466.0000
  20
169.2400
  10
467.5000
  20
167.7400
  10
467.5000
  20
148.7400
  10
466.0000
  20
147.2400
  10
466.0000
  20
147.2400
  10
464.5000
  20
148.7400
  10
464.5000
  20
167.7400
  0
LWPOLYLINE
  8
CUT
  90
9
  70
1
  10
458.0000
  20
169.2400
  10
458.0000
  20
169.2400
  10
459.5000
  20
167.7400
  10
459.5000
  20
148.7400
  10
458.0000
  20
147.2400
  10
458.0000
  20
147.2400
  10
456.5000
  20
148.7400
  10
456.5000
  20
167.7400
  0
LWPOLYLINE
  8
CUT
  90
9
  70
1
  10
450.0000
  20
169.2400
  10
450.0000
  20
169.2400
  10
451.5000
  20
167.7400
  10
451.5000
  20
148.7400
  10
450.0000
  20
147.2400
  10
450.0000
  20
147.2400
  10
448.5000
  20
148.7400
  10
448.5000
  20
167.7400
  0
LWPOLYLINE
  8
CUT
  90
9
  70
1
  10
442.0000
  20
169.2400
  10
442.0000
  20
169.2400
  10
443.5000
  20
167.7400
  10
443.5000
  20
148.7400
  10
442.0000
  20
147.2400
  10
442.0000
  20
147.2400
  10
440.5000
  20
148.7400
  10
440.5000
  20
167.7400
  0
LWPOLYLINE
  8
CUT
  90
9
  70
1
  10
451.0000
  20
232.7150
  10
465.0000
  20
232.7150
  10
468.0000
  20
229.7150
  10
468.0000
  20
221.7150
  10
465.0000
  20
218.7150
  10
451.0000
  20
218.7150
  10
448.0000
  20
221.7150
  10
448.0000
  20
229.7150
  0
ENDSEC
  0
EOF
