<?xml version="1.0" encoding="UTF-8"?>
<svg xmlns="http://www.w3.org/2000/svg" width="553mm" height="322.74mm" viewBox="0 0 553 322.74">
<!-- Ponoko sheet: 553x322.74mm. Red=cut, Blue=engrave. -->
  <text x="0" y="-2" font-size="4" fill="#cccccc" font-family="monospace">LEFT SIDE (5mm)</text>
  <text x="135" y="-2" font-size="4" fill="#cccccc" font-family="monospace">RIGHT SIDE (5mm)</text>
  <text x="270" y="-2" font-size="4" fill="#cccccc" font-family="monospace">COMB RAILS (5mm, interleaved+90°)</text>
  <text x="270" y="202.74" font-size="4" fill="#cccccc" font-family="monospace">FAN BRACKET (5mm)</text>
  <text x="427" y="-2" font-size="4" fill="#cccccc" font-family="monospace">BOTTOM (5mm, 90°)</text>
  <path d="M 0.000 3.000 L 6.000 3.000 L 6.000 0.000 L 16.909 0.000 L 16.909 3.000 L 27.818 3.000 L 27.818 0.000 L 38.727 0.000 L 38.727 3.000 L 49.636 3.000 L 49.636 0.000 L 60.545 0.000 L 60.545 3.000 L 71.455 3.000 L 71.455 0.000 L 82.364 0.000 L 82.364 3.000 L 93.273 3.000 L 93.273 0.000 L 104.182 0.000 L 104.182 3.000 L 115.091 3.000 L 115.091 0.000 L 126.000 0.000 L 126.000 3.000 L 132.000 3.000 L 132.000 318.240 L 126.000 318.240 L 126.000 322.740 L 115.091 322.740 L 115.091 318.240 L 104.182 318.240 L 104.182 322.740 L 93.273 322.740 L 93.273 318.240 L 82.364 318.240 L 82.364 322.740 L 71.455 322.740 L 71.455 318.240 L 60.545 318.240 L 60.545 322.740 L 49.636 322.740 L 49.636 318.240 L 38.727 318.240 L 38.727 322.740 L 27.818 322.740 L 27.818 318.240 L 16.909 318.240 L 16.909 322.740 L 6.000 322.740 L 6.000 318.240 L 0.000 318.240 L 0.000 3.000 Z" fill="none" stroke="#ff0000" stroke-width="0.01"/>
  <rect x="3.0" y="26.351" width="3" height="11.676" fill="none" stroke="#ff0000" stroke-width="0.01"/>
  <rect x="3.0" y="49.702" width="3" height="11.676" fill="none" stroke="#ff0000" stroke-width="0.01"/>
  <rect x="3.0" y="73.053" width="3" height="11.676" fill="none" stroke="#ff0000" stroke-width="0.01"/>
  <rect x="3.0" y="96.404" width="3" height="11.676" fill="none" stroke="#ff0000" stroke-width="0.01"/>
  <rect x="3.0" y="119.756" width="3" height="11.676" fill="none" stroke="#ff0000" stroke-width="0.01"/>
  <rect x="3.0" y="143.107" width="3" height="11.676" fill="none" stroke="#ff0000" stroke-width="0.01"/>
  <rect x="3.0" y="166.458" width="3" height="11.676" fill="none" stroke="#ff0000" stroke-width="0.01"/>
  <rect x="3.0" y="189.809" width="3" height="11.676" fill="none" stroke="#ff0000" stroke-width="0.01"/>
  <rect x="3.0" y="213.16" width="3" height="11.676" fill="none" stroke="#ff0000" stroke-width="0.01"/>
  <rect x="3.0" y="236.511" width="3" height="11.676" fill="none" stroke="#ff0000" stroke-width="0.01"/>
  <rect x="3.0" y="259.862" width="3" height="11.676" fill="none" stroke="#ff0000" stroke-width="0.01"/>
  <rect x="3.0" y="283.213" width="3" height="11.676" fill="none" stroke="#ff0000" stroke-width="0.01"/>
  <rect x="126.0" y="26.351" width="3" height="11.676" fill="none" stroke="#ff0000" stroke-width="0.01"/>
  <rect x="126.0" y="49.702" width="3" height="11.676" fill="none" stroke="#ff0000" stroke-width="0.01"/>
  <rect x="126.0" y="73.053" width="3" height="11.676" fill="none" stroke="#ff0000" stroke-width="0.01"/>
  <rect x="126.0" y="96.404" width="3" height="11.676" fill="none" stroke="#ff0000" stroke-width="0.01"/>
  <rect x="126.0" y="119.756" width="3" height="11.676" fill="none" stroke="#ff0000" stroke-width="0.01"/>
  <rect x="126.0" y="143.107" width="3" height="11.676" fill="none" stroke="#ff0000" stroke-width="0.01"/>
  <rect x="126.0" y="166.458" width="3" height="11.676" fill="none" stroke="#ff0000" stroke-width="0.01"/>
  <rect x="126.0" y="189.809" width="3" height="11.676" fill="none" stroke="#ff0000" stroke-width="0.01"/>
  <rect x="126.0" y="213.16" width="3" height="11.676" fill="none" stroke="#ff0000" stroke-width="0.01"/>
  <rect x="126.0" y="236.511" width="3" height="11.676" fill="none" stroke="#ff0000" stroke-width="0.01"/>
  <rect x="126.0" y="259.862" width="3" height="11.676" fill="none" stroke="#ff0000" stroke-width="0.01"/>
  <rect x="126.0" y="283.213" width="3" height="11.676" fill="none" stroke="#ff0000" stroke-width="0.01"/>
  <rect x="10.0" y="46.85" width="4.5" height="10.3" fill="none" stroke="#ff0000" stroke-width="0.01"/>
  <rect x="117.5" y="46.85" width="4.5" height="10.3" fill="none" stroke="#ff0000" stroke-width="0.01"/>
  <rect x="16.5" y="259.99" width="18" height="2.5" rx="1.25" ry="1.25" fill="none" stroke="#ff0000" stroke-width="0.01"/>
  <rect x="57.0" y="259.99" width="18" height="2.5" rx="1.25" ry="1.25" fill="none" stroke="#ff0000" stroke-width="0.01"/>
  <rect x="97.5" y="259.99" width="18" height="2.5" rx="1.25" ry="1.25" fill="none" stroke="#ff0000" stroke-width="0.01"/>
  <rect x="16.5" y="240.99" width="18" height="2.5" rx="1.25" ry="1.25" fill="none" stroke="#ff0000" stroke-width="0.01"/>
  <rect x="57.0" y="240.99" width="18" height="2.5" rx="1.25" ry="1.25" fill="none" stroke="#ff0000" stroke-width="0.01"/>
  <rect x="97.5" y="240.99" width="18" height="2.5" rx="1.25" ry="1.25" fill="none" stroke="#ff0000" stroke-width="0.01"/>
  <rect x="16.5" y="221.99" width="18" height="2.5" rx="1.25" ry="1.25" fill="none" stroke="#ff0000" stroke-width="0.01"/>
  <rect x="57.0" y="221.99" width="18" height="2.5" rx="1.25" ry="1.25" fill="none" stroke="#ff0000" stroke-width="0.01"/>
  <rect x="97.5" y="221.99" width="18" height="2.5" rx="1.25" ry="1.25" fill="none" stroke="#ff0000" stroke-width="0.01"/>
  <rect x="16.5" y="202.99" width="18" height="2.5" rx="1.25" ry="1.25" fill="none" stroke="#ff0000" stroke-width="0.01"/>
  <rect x="57.0" y="202.99" width="18" height="2.5" rx="1.25" ry="1.25" fill="none" stroke="#ff0000" stroke-width="0.01"/>
  <rect x="97.5" y="202.99" width="18" height="2.5" rx="1.25" ry="1.25" fill="none" stroke="#ff0000" stroke-width="0.01"/>
  <rect x="16.5" y="172.99" width="18" height="2.5" rx="1.25" ry="1.25" fill="none" stroke="#ff0000" stroke-width="0.01"/>
  <rect x="57.0" y="172.99" width="18" height="2.5" rx="1.25" ry="1.25" fill="none" stroke="#ff0000" stroke-width="0.01"/>
  <rect x="97.5" y="172.99" width="18" height="2.5" rx="1.25" ry="1.25" fill="none" stroke="#ff0000" stroke-width="0.01"/>
  <rect x="16.5" y="149.592" width="18" height="2.5" rx="1.25" ry="1.25" fill="none" stroke="#ff0000" stroke-width="0.01"/>
  <rect x="57.0" y="149.592" width="18" height="2.5" rx="1.25" ry="1.25" fill="none" stroke="#ff0000" stroke-width="0.01"/>
  <rect x="97.5" y="149.592" width="18" height="2.5" rx="1.25" ry="1.25" fill="none" stroke="#ff0000" stroke-width="0.01"/>
  <rect x="16.5" y="126.19399999999999" width="18" height="2.5" rx="1.25" ry="1.25" fill="none" stroke="#ff0000" stroke-width="0.01"/>
  <rect x="57.0" y="126.19399999999999" width="18" height="2.5" rx="1.25" ry="1.25" fill="none" stroke="#ff0000" stroke-width="0.01"/>
  <rect x="97.5" y="126.19399999999999" width="18" height="2.5" rx="1.25" ry="1.25" fill="none" stroke="#ff0000" stroke-width="0.01"/>
  <rect x="16.5" y="102.796" width="18" height="2.5" rx="1.25" ry="1.25" fill="none" stroke="#ff0000" stroke-width="0.01"/>
  <rect x="57.0" y="102.796" width="18" height="2.5" rx="1.25" ry="1.25" fill="none" stroke="#ff0000" stroke-width="0.01"/>
  <rect x="97.5" y="102.796" width="18" height="2.5" rx="1.25" ry="1.25" fill="none" stroke="#ff0000" stroke-width="0.01"/>
  <rect x="16.5" y="79.398" width="18" height="2.5" rx="1.25" ry="1.25" fill="none" stroke="#ff0000" stroke-width="0.01"/>
  <rect x="57.0" y="79.398" width="18" height="2.5" rx="1.25" ry="1.25" fill="none" stroke="#ff0000" stroke-width="0.01"/>
  <rect x="97.5" y="79.398" width="18" height="2.5" rx="1.25" ry="1.25" fill="none" stroke="#ff0000" stroke-width="0.01"/>
  <rect x="16.5" y="56.0" width="18" height="2.5" rx="1.25" ry="1.25" fill="none" stroke="#ff0000" stroke-width="0.01"/>
  <rect x="57.0" y="56.0" width="18" height="2.5" rx="1.25" ry="1.25" fill="none" stroke="#ff0000" stroke-width="0.01"/>
  <rect x="97.5" y="56.0" width="18" height="2.5" rx="1.25" ry="1.25" fill="none" stroke="#ff0000" stroke-width="0.01"/>
  <path d="M 135.000 3.000 L 141.000 3.000 L 141.000 0.000 L 151.909 0.000 L 151.909 3.000 L 162.818 3.000 L 162.818 0.000 L 173.727 0.000 L 173.727 3.000 L 184.636 3.000 L 184.636 0.000 L 195.545 0.000 L 195.545 3.000 L 206.455 3.000 L 206.455 0.000 L 217.364 0.000 L 217.364 3.000 L 228.273 3.000 L 228.273 0.000 L 239.182 0.000 L 239.182 3.000 L 250.091 3.000 L 250.091 0.000 L 261.000 0.000 L 261.000 3.000 L 267.000 3.000 L 267.000 318.240 L 261.000 318.240 L 261.000 322.740 L 250.091 322.740 L 250.091 318.240 L 239.182 318.240 L 239.182 322.740 L 228.273 322.740 L 228.273 318.240 L 217.364 318.240 L 217.364 322.740 L 206.455 322.740 L 206.455 318.240 L 195.545 318.240 L 195.545 322.740 L 184.636 322.740 L 184.636 318.240 L 173.727 318.240 L 173.727 322.740 L 162.818 322.740 L 162.818 318.240 L 151.909 318.240 L 151.909 322.740 L 141.000 322.740 L 141.000 318.240 L 135.000 318.240 L 135.000 3.000 Z" fill="none" stroke="#ff0000" stroke-width="0.01"/>
  <rect x="138.0" y="26.351" width="3" height="11.676" fill="none" stroke="#ff0000" stroke-width="0.01"/>
  <rect x="138.0" y="49.702" width="3" height="11.676" fill="none" stroke="#ff0000" stroke-width="0.01"/>
  <rect x="138.0" y="73.053" width="3" height="11.676" fill="none" stroke="#ff0000" stroke-width="0.01"/>
  <rect x="138.0" y="96.404" width="3" height="11.676" fill="none" stroke="#ff0000" stroke-width="0.01"/>
  <rect x="138.0" y="119.756" width="3" height="11.676" fill="none" stroke="#ff0000" stroke-width="0.01"/>
  <rect x="138.0" y="143.107" width="3" height="11.676" fill="none" stroke="#ff0000" stroke-width="0.01"/>
  <rect x="138.0" y="166.458" width="3" height="11.676" fill="none" stroke="#ff0000" stroke-width="0.01"/>
  <rect x="138.0" y="189.809" width="3" height="11.676" fill="none" stroke="#ff0000" stroke-width="0.01"/>
  <rect x="138.0" y="213.16" width="3" height="11.676" fill="none" stroke="#ff0000" stroke-width="0.01"/>
  <rect x="138.0" y="236.511" width="3" height="11.676" fill="none" stroke="#ff0000" stroke-width="0.01"/>
  <rect x="138.0" y="259.862" width="3" height="11.676" fill="none" stroke="#ff0000" stroke-width="0.01"/>
  <rect x="138.0" y="283.213" width="3" height="11.676" fill="none" stroke="#ff0000" stroke-width="0.01"/>
  <rect x="261.0" y="26.351" width="3" height="11.676" fill="none" stroke="#ff0000" stroke-width="0.01"/>
  <rect x="261.0" y="49.702" width="3" height="11.676" fill="none" stroke="#ff0000" stroke-width="0.01"/>
  <rect x="261.0" y="73.053" width="3" height="11.676" fill="none" stroke="#ff0000" stroke-width="0.01"/>
  <rect x="261.0" y="96.404" width="3" height="11.676" fill="none" stroke="#ff0000" stroke-width="0.01"/>
  <rect x="261.0" y="119.756" width="3" height="11.676" fill="none" stroke="#ff0000" stroke-width="0.01"/>
  <rect x="261.0" y="143.107" width="3" height="11.676" fill="none" stroke="#ff0000" stroke-width="0.01"/>
  <rect x="261.0" y="166.458" width="3" height="11.676" fill="none" stroke="#ff0000" stroke-width="0.01"/>
  <rect x="261.0" y="189.809" width="3" height="11.676" fill="none" stroke="#ff0000" stroke-width="0.01"/>
  <rect x="261.0" y="213.16" width="3" height="11.676" fill="none" stroke="#ff0000" stroke-width="0.01"/>
  <rect x="261.0" y="236.511" width="3" height="11.676" fill="none" stroke="#ff0000" stroke-width="0.01"/>
  <rect x="261.0" y="259.862" width="3" height="11.676" fill="none" stroke="#ff0000" stroke-width="0.01"/>
  <rect x="261.0" y="283.213" width="3" height="11.676" fill="none" stroke="#ff0000" stroke-width="0.01"/>
  <rect x="145.0" y="46.85" width="4.5" height="10.3" fill="none" stroke="#ff0000" stroke-width="0.01"/>
  <rect x="252.5" y="46.85" width="4.5" height="10.3" fill="none" stroke="#ff0000" stroke-width="0.01"/>
  <rect x="151.5" y="259.99" width="18" height="2.5" rx="1.25" ry="1.25" fill="none" stroke="#ff0000" stroke-width="0.01"/>
  <rect x="192.0" y="259.99" width="18" height="2.5" rx="1.25" ry="1.25" fill="none" stroke="#ff0000" stroke-width="0.01"/>
  <rect x="232.5" y="259.99" width="18" height="2.5" rx="1.25" ry="1.25" fill="none" stroke="#ff0000" stroke-width="0.01"/>
  <rect x="151.5" y="240.99" width="18" height="2.5" rx="1.25" ry="1.25" fill="none" stroke="#ff0000" stroke-width="0.01"/>
  <rect x="192.0" y="240.99" width="18" height="2.5" rx="1.25" ry="1.25" fill="none" stroke="#ff0000" stroke-width="0.01"/>
  <rect x="232.5" y="240.99" width="18" height="2.5" rx="1.25" ry="1.25" fill="none" stroke="#ff0000" stroke-width="0.01"/>
  <rect x="151.5" y="221.99" width="18" height="2.5" rx="1.25" ry="1.25" fill="none" stroke="#ff0000" stroke-width="0.01"/>
  <rect x="192.0" y="221.99" width="18" height="2.5" rx="1.25" ry="1.25" fill="none" stroke="#ff0000" stroke-width="0.01"/>
  <rect x="232.5" y="221.99" width="18" height="2.5" rx="1.25" ry="1.25" fill="none" stroke="#ff0000" stroke-width="0.01"/>
  <rect x="151.5" y="202.99" width="18" height="2.5" rx="1.25" ry="1.25" fill="none" stroke="#ff0000" stroke-width="0.01"/>
  <rect x="192.0" y="202.99" width="18" height="2.5" rx="1.25" ry="1.25" fill="none" stroke="#ff0000" stroke-width="0.01"/>
  <rect x="232.5" y="202.99" width="18" height="2.5" rx="1.25" ry="1.25" fill="none" stroke="#ff0000" stroke-width="0.01"/>
  <rect x="151.5" y="172.99" width="18" height="2.5" rx="1.25" ry="1.25" fill="none" stroke="#ff0000" stroke-width="0.01"/>
  <rect x="192.0" y="172.99" width="18" height="2.5" rx="1.25" ry="1.25" fill="none" stroke="#ff0000" stroke-width="0.01"/>
  <rect x="232.5" y="172.99" width="18" height="2.5" rx="1.25" ry="1.25" fill="none" stroke="#ff0000" stroke-width="0.01"/>
  <rect x="151.5" y="149.592" width="18" height="2.5" rx="1.25" ry="1.25" fill="none" stroke="#ff0000" stroke-width="0.01"/>
  <rect x="192.0" y="149.592" width="18" height="2.5" rx="1.25" ry="1.25" fill="none" stroke="#ff0000" stroke-width="0.01"/>
  <rect x="232.5" y="149.592" width="18" height="2.5" rx="1.25" ry="1.25" fill="none" stroke="#ff0000" stroke-width="0.01"/>
  <rect x="151.5" y="126.19399999999999" width="18" height="2.5" rx="1.25" ry="1.25" fill="none" stroke="#ff0000" stroke-width="0.01"/>
  <rect x="192.0" y="126.19399999999999" width="18" height="2.5" rx="1.25" ry="1.25" fill="none" stroke="#ff0000" stroke-width="0.01"/>
  <rect x="232.5" y="126.19399999999999" width="18" height="2.5" rx="1.25" ry="1.25" fill="none" stroke="#ff0000" stroke-width="0.01"/>
  <rect x="151.5" y="102.796" width="18" height="2.5" rx="1.25" ry="1.25" fill="none" stroke="#ff0000" stroke-width="0.01"/>
  <rect x="192.0" y="102.796" width="18" height="2.5" rx="1.25" ry="1.25" fill="none" stroke="#ff0000" stroke-width="0.01"/>
  <rect x="232.5" y="102.796" width="18" height="2.5" rx="1.25" ry="1.25" fill="none" stroke="#ff0000" stroke-width="0.01"/>
  <rect x="151.5" y="79.398" width="18" height="2.5" rx="1.25" ry="1.25" fill="none" stroke="#ff0000" stroke-width="0.01"/>
  <rect x="192.0" y="79.398" width="18" height="2.5" rx="1.25" ry="1.25" fill="none" stroke="#ff0000" stroke-width="0.01"/>
  <rect x="232.5" y="79.398" width="18" height="2.5" rx="1.25" ry="1.25" fill="none" stroke="#ff0000" stroke-width="0.01"/>
  <rect x="151.5" y="56.0" width="18" height="2.5" rx="1.25" ry="1.25" fill="none" stroke="#ff0000" stroke-width="0.01"/>
  <rect x="192.0" y="56.0" width="18" height="2.5" rx="1.25" ry="1.25" fill="none" stroke="#ff0000" stroke-width="0.01"/>
  <rect x="232.5" y="56.0" width="18" height="2.5" rx="1.25" ry="1.25" fill="none" stroke="#ff0000" stroke-width="0.01"/>
  <path d="M 421.990 4.500 L 421.990 183.500 L 420.990 183.500 L 420.990 188.000 L 410.990 188.000 L 410.990 183.500 L 409.990 183.500 L 409.990 164.665 L 285.000 164.665 L 285.000 144.665 L 409.990 144.665 L 409.990 119.555 L 285.000 119.555 L 285.000 99.555 L 409.990 99.555 L 409.990 74.445 L 285.000 74.445 L 285.000 54.445 L 409.990 54.445 L 409.990 29.335 L 285.000 29.335 L 285.000 9.335 L 409.990 9.335 L 409.990 4.500 L 410.990 4.500 L 410.990 0.000 L 420.990 0.000 L 420.990 4.500 Z" fill="none" stroke="#ff0000" stroke-width="0.01"/>
  <circle cx="304.5" cy="19.335" r="1.7" fill="none" stroke="#ff0000" stroke-width="0.01"/>
  <circle cx="346.5" cy="19.335" r="1.7" fill="none" stroke="#ff0000" stroke-width="0.01"/>
  <circle cx="406.5" cy="19.335" r="1.7" fill="none" stroke="#ff0000" stroke-width="0.01"/>
  <circle cx="304.5" cy="64.445" r="1.7" fill="none" stroke="#ff0000" stroke-width="0.01"/>
  <circle cx="346.5" cy="64.445" r="1.7" fill="none" stroke="#ff0000" stroke-width="0.01"/>
  <circle cx="406.5" cy="64.445" r="1.7" fill="none" stroke="#ff0000" stroke-width="0.01"/>
  <circle cx="304.5" cy="109.555" r="1.7" fill="none" stroke="#ff0000" stroke-width="0.01"/>
  <circle cx="346.5" cy="109.555" r="1.7" fill="none" stroke="#ff0000" stroke-width="0.01"/>
  <circle cx="406.5" cy="109.555" r="1.7" fill="none" stroke="#ff0000" stroke-width="0.01"/>
  <circle cx="304.5" cy="154.665" r="1.7" fill="none" stroke="#ff0000" stroke-width="0.01"/>
  <circle cx="346.5" cy="154.665" r="1.7" fill="none" stroke="#ff0000" stroke-width="0.01"/>
  <circle cx="406.5" cy="154.665" r="1.7" fill="none" stroke="#ff0000" stroke-width="0.01"/>
  <path d="M 270.000 192.000 L 270.000 13.000 L 271.000 13.000 L 271.000 8.500 L 281.000 8.500 L 281.000 13.000 L 282.000 13.000 L 282.000 31.835 L 406.990 31.835 L 406.990 51.835 L 282.000 51.835 L 282.000 76.945 L 406.990 76.945 L 406.990 96.945 L 282.000 96.945 L 282.000 122.055 L 406.990 122.055 L 406.990 142.055 L 282.000 142.055 L 282.000 167.165 L 406.990 167.165 L 406.990 187.165 L 282.000 187.165 L 282.000 192.000 L 281.000 192.000 L 281.000 196.500 L 271.000 196.500 L 271.000 192.000 Z" fill="none" stroke="#ff0000" stroke-width="0.01"/>
  <circle cx="387.49" cy="177.165" r="1.7" fill="none" stroke="#ff0000" stroke-width="0.01"/>
  <circle cx="345.49" cy="177.165" r="1.7" fill="none" stroke="#ff0000" stroke-width="0.01"/>
  <circle cx="285.49" cy="177.165" r="1.7" fill="none" stroke="#ff0000" stroke-width="0.01"/>
  <circle cx="387.49" cy="132.055" r="1.7" fill="none" stroke="#ff0000" stroke-width="0.01"/>
  <circle cx="345.49" cy="132.055" r="1.7" fill="none" stroke="#ff0000" stroke-width="0.01"/>
  <circle cx="285.49" cy="132.055" r="1.7" fill="none" stroke="#ff0000" stroke-width="0.01"/>
  <circle cx="387.49" cy="86.945" r="1.7" fill="none" stroke="#ff0000" stroke-width="0.01"/>
  <circle cx="345.49" cy="86.945" r="1.7" fill="none" stroke="#ff0000" stroke-width="0.01"/>
  <circle cx="285.49" cy="86.945" r="1.7" fill="none" stroke="#ff0000" stroke-width="0.01"/>
  <circle cx="387.49" cy="41.83500000000001" r="1.7" fill="none" stroke="#ff0000" stroke-width="0.01"/>
  <circle cx="345.49" cy="41.83500000000001" r="1.7" fill="none" stroke="#ff0000" stroke-width="0.01"/>
  <circle cx="285.49" cy="41.83500000000001" r="1.7" fill="none" stroke="#ff0000" stroke-width="0.01"/>
  <rect x="270.0" y="204.74" width="177" height="118" fill="none" stroke="#ff0000" stroke-width="0.01"/>
  <circle cx="274.0" cy="216.24" r="2.25" fill="none" stroke="#ff0000" stroke-width="0.01"/>
  <circle cx="443.0" cy="216.24" r="2.25" fill="none" stroke="#ff0000" stroke-width="0.01"/>
  <circle cx="274.0" cy="311.24" r="2.25" fill="none" stroke="#ff0000" stroke-width="0.01"/>
  <circle cx="443.0" cy="311.24" r="2.25" fill="none" stroke="#ff0000" stroke-width="0.01"/>
  <circle cx="358.5" cy="263.74" r="37" fill="none" stroke="#ff0000" stroke-width="0.01"/>
  <circle cx="322.75" cy="227.99" r="2.15" fill="none" stroke="#ff0000" stroke-width="0.01"/>
  <circle cx="394.25" cy="227.99" r="2.15" fill="none" stroke="#ff0000" stroke-width="0.01"/>
  <circle cx="322.75" cy="299.49" r="2.15" fill="none" stroke="#ff0000" stroke-width="0.01"/>
  <circle cx="394.25" cy="299.49" r="2.15" fill="none" stroke="#ff0000" stroke-width="0.01"/>
  <path d="M 550.000 0.000 L 553.000 0.000 L 553.000 11.412 L 550.000 11.412 L 550.000 22.824 L 553.000 22.824 L 553.000 34.235 L 550.000 34.235 L 550.000 45.647 L 553.000 45.647 L 553.000 57.059 L 550.000 57.059 L 550.000 68.471 L 553.000 68.471 L 553.000 79.882 L 550.000 79.882 L 550.000 91.294 L 553.000 91.294 L 553.000 102.706 L 550.000 102.706 L 550.000 114.118 L 553.000 114.118 L 553.000 125.529 L 550.000 125.529 L 550.000 136.941 L 553.000 136.941 L 553.000 148.353 L 550.000 148.353 L 550.000 159.765 L 553.000 159.765 L 553.000 171.176 L 550.000 171.176 L 550.000 182.588 L 553.000 182.588 L 553.000 194.000 L 550.000 194.000 L 430.000 194.000 L 427.000 194.000 L 427.000 182.588 L 430.000 182.588 L 430.000 171.176 L 427.000 171.176 L 427.000 159.765 L 430.000 159.765 L 430.000 148.353 L 427.000 148.353 L 427.000 136.941 L 430.000 136.941 L 430.000 125.529 L 427.000 125.529 L 427.000 114.118 L 430.000 114.118 L 430.000 102.706 L 427.000 102.706 L 427.000 91.294 L 430.000 91.294 L 430.000 79.882 L 427.000 79.882 L 427.000 68.471 L 430.000 68.471 L 430.000 57.059 L 427.000 57.059 L 427.000 45.647 L 430.000 45.647 L 430.000 34.235 L 427.000 34.235 L 427.000 22.824 L 430.000 22.824 L 430.000 11.412 L 427.000 11.412 L 427.000 0.000 L 430.000 0.000 L 550.000 0.000 Z" fill="none" stroke="#ff0000" stroke-width="0.01"/>
  <rect x="539.091" y="3.0" width="10.909" height="4.5" fill="none" stroke="#ff0000" stroke-width="0.01"/>
  <rect x="517.273" y="3.0" width="10.909" height="4.5" fill="none" stroke="#ff0000" stroke-width="0.01"/>
  <rect x="495.455" y="3.0" width="10.909" height="4.5" fill="none" stroke="#ff0000" stroke-width="0.01"/>
  <rect x="473.636" y="3.0" width="10.909" height="4.5" fill="none" stroke="#ff0000" stroke-width="0.01"/>
  <rect x="451.818" y="3.0" width="10.909" height="4.5" fill="none" stroke="#ff0000" stroke-width="0.01"/>
  <rect x="430.0" y="3.0" width="10.909" height="4.5" fill="none" stroke="#ff0000" stroke-width="0.01"/>
  <rect x="539.091" y="186.5" width="10.909" height="4.5" fill="none" stroke="#ff0000" stroke-width="0.01"/>
  <rect x="517.273" y="186.5" width="10.909" height="4.5" fill="none" stroke="#ff0000" stroke-width="0.01"/>
  <rect x="495.455" y="186.5" width="10.909" height="4.5" fill="none" stroke="#ff0000" stroke-width="0.01"/>
  <rect x="473.636" y="186.5" width="10.909" height="4.5" fill="none" stroke="#ff0000" stroke-width="0.01"/>
  <rect x="451.818" y="186.5" width="10.909" height="4.5" fill="none" stroke="#ff0000" stroke-width="0.01"/>
  <rect x="430.0" y="186.5" width="10.909" height="4.5" fill="none" stroke="#ff0000" stroke-width="0.01"/>
  <circle cx="537.5" cy="12.5" r="2.25" fill="none" stroke="#ff0000" stroke-width="0.01"/>
  <circle cx="537.5" cy="181.5" r="2.25" fill="none" stroke="#ff0000" stroke-width="0.01"/>
  <circle cx="442.5" cy="12.5" r="2.25" fill="none" stroke="#ff0000" stroke-width="0.01"/>
  <circle cx="442.5" cy="181.5" r="2.25" fill="none" stroke="#ff0000" stroke-width="0.01"/>
  <circle cx="466.5" cy="72.5" r="1.35" fill="none" stroke="#ff0000" stroke-width="0.01"/>
  <circle cx="524.5" cy="72.5" r="1.35" fill="none" stroke="#ff0000" stroke-width="0.01"/>
  <circle cx="466.5" cy="121.5" r="1.35" fill="none" stroke="#ff0000" stroke-width="0.01"/>
  <circle cx="524.5" cy="121.5" r="1.35" fill="none" stroke="#ff0000" stroke-width="0.01"/>
  <rect x="536.5" y="18.5" width="3.0" height="22.0" rx="1.5" ry="1.5" fill="none" stroke="#ff0000" stroke-width="0.01"/>
  <rect x="528.5" y="18.5" width="3.0" height="22.0" rx="1.5" ry="1.5" fill="none" stroke="#ff0000" stroke-width="0.01"/>
  <rect x="520.5" y="18.5" width="3.0" height="22.0" rx="1.5" ry="1.5" fill="none" stroke="#ff0000" stroke-width="0.01"/>
  <rect x="512.5" y="18.5" width="3.0" height="22.0" rx="1.5" ry="1.5" fill="none" stroke="#ff0000" stroke-width="0.01"/>
  <rect x="504.5" y="18.5" width="3.0" height="22.0" rx="1.5" ry="1.5" fill="none" stroke="#ff0000" stroke-width="0.01"/>
  <rect x="496.5" y="18.5" width="3.0" height="22.0" rx="1.5" ry="1.5" fill="none" stroke="#ff0000" stroke-width="0.01"/>
  <rect x="488.5" y="18.5" width="3.0" height="22.0" rx="1.5" ry="1.5" fill="none" stroke="#ff0000" stroke-width="0.01"/>
  <rect x="480.5" y="18.5" width="3.0" height="22.0" rx="1.5" ry="1.5" fill="none" stroke="#ff0000" stroke-width="0.01"/>
  <rect x="472.5" y="18.5" width="3.0" height="22.0" rx="1.5" ry="1.5" fill="none" stroke="#ff0000" stroke-width="0.01"/>
  <rect x="464.5" y="18.5" width="3.0" height="22.0" rx="1.5" ry="1.5" fill="none" stroke="#ff0000" stroke-width="0.01"/>
  <rect x="456.5" y="18.5" width="3.0" height="22.0" rx="1.5" ry="1.5" fill="none" stroke="#ff0000" stroke-width="0.01"/>
  <rect x="448.5" y="18.5" width="3.0" height="22.0" rx="1.5" ry="1.5" fill="none" stroke="#ff0000" stroke-width="0.01"/>
  <rect x="440.5" y="18.5" width="3.0" height="22.0" rx="1.5" ry="1.5" fill="none" stroke="#ff0000" stroke-width="0.01"/>
  <rect x="536.5" y="45.5" width="3.0" height="22.0" rx="1.5" ry="1.5" fill="none" stroke="#ff0000" stroke-width="0.01"/>
  <rect x="528.5" y="45.5" width="3.0" height="22.0" rx="1.5" ry="1.5" fill="none" stroke="#ff0000" stroke-width="0.01"/>
  <rect x="520.5" y="45.5" width="3.0" height="22.0" rx="1.5" ry="1.5" fill="none" stroke="#ff0000" stroke-width="0.01"/>
  <rect x="512.5" y="45.5" width="3.0" height="22.0" rx="1.5" ry="1.5" fill="none" stroke="#ff0000" stroke-width="0.01"/>
  <rect x="504.5" y="45.5" width="3.0" height="22.0" rx="1.5" ry="1.5" fill="none" stroke="#ff0000" stroke-width="0.01"/>
  <rect x="496.5" y="45.5" width="3.0" height="22.0" rx="1.5" ry="1.5" fill="none" stroke="#ff0000" stroke-width="0.01"/>
  <rect x="488.5" y="45.5" width="3.0" height="22.0" rx="1.5" ry="1.5" fill="none" stroke="#ff0000" stroke-width="0.01"/>
  <rect x="480.5" y="45.5" width="3.0" height="22.0" rx="1.5" ry="1.5" fill="none" stroke="#ff0000" stroke-width="0.01"/>
  <rect x="472.5" y="45.5" width="3.0" height="22.0" rx="1.5" ry="1.5" fill="none" stroke="#ff0000" stroke-width="0.01"/>
  <rect x="464.5" y="45.5" width="3.0" height="22.0" rx="1.5" ry="1.5" fill="none" stroke="#ff0000" stroke-width="0.01"/>
  <rect x="456.5" y="45.5" width="3.0" height="22.0" rx="1.5" ry="1.5" fill="none" stroke="#ff0000" stroke-width="0.01"/>
  <rect x="448.5" y="45.5" width="3.0" height="22.0" rx="1.5" ry="1.5" fill="none" stroke="#ff0000" stroke-width="0.01"/>
  <rect x="440.5" y="45.5" width="3.0" height="22.0" rx="1.5" ry="1.5" fill="none" stroke="#ff0000" stroke-width="0.01"/>
  <rect x="536.5" y="72.5" width="3.0" height="22.0" rx="1.5" ry="1.5" fill="none" stroke="#ff0000" stroke-width="0.01"/>
  <rect x="528.5" y="72.5" width="3.0" height="22.0" rx="1.5" ry="1.5" fill="none" stroke="#ff0000" stroke-width="0.01"/>
  <rect x="512.5" y="72.5" width="3.0" height="22.0" rx="1.5" ry="1.5" fill="none" stroke="#ff0000" stroke-width="0.01"/>
  <rect x="504.5" y="72.5" width="3.0" height="22.0" rx="1.5" ry="1.5" fill="none" stroke="#ff0000" stroke-width="0.01"/>
  <rect x="496.5" y="72.5" width="3.0" height="22.0" rx="1.5" ry="1.5" fill="none" stroke="#ff0000" stroke-width="0.01"/>
  <rect x="488.5" y="72.5" width="3.0" height="22.0" rx="1.5" ry="1.5" fill="none" stroke="#ff0000" stroke-width="0.01"/>
  <rect x="480.5" y="72.5" width="3.0" height="22.0" rx="1.5" ry="1.5" fill="none" stroke="#ff0000" stroke-width="0.01"/>
  <rect x="472.5" y="72.5" width="3.0" height="22.0" rx="1.5" ry="1.5" fill="none" stroke="#ff0000" stroke-width="0.01"/>
  <rect x="440.5" y="72.5" width="3.0" height="22.0" rx="1.5" ry="1.5" fill="none" stroke="#ff0000" stroke-width="0.01"/>
  <rect x="536.5" y="99.5" width="3.0" height="22.0" rx="1.5" ry="1.5" fill="none" stroke="#ff0000" stroke-width="0.01"/>
  <rect x="528.5" y="99.5" width="3.0" height="22.0" rx="1.5" ry="1.5" fill="none" stroke="#ff0000" stroke-width="0.01"/>
  <rect x="512.5" y="99.5" width="3.0" height="22.0" rx="1.5" ry="1.5" fill="none" stroke="#ff0000" stroke-width="0.01"/>
  <rect x="504.5" y="99.5" width="3.0" height="22.0" rx="1.5" ry="1.5" fill="none" stroke="#ff0000" stroke-width="0.01"/>
  <rect x="496.5" y="99.5" width="3.0" height="22.0" rx="1.5" ry="1.5" fill="none" stroke="#ff0000" stroke-width="0.01"/>
  <rect x="488.5" y="99.5" width="3.0" height="22.0" rx="1.5" ry="1.5" fill="none" stroke="#ff0000" stroke-width="0.01"/>
  <rect x="480.5" y="99.5" width="3.0" height="22.0" rx="1.5" ry="1.5" fill="none" stroke="#ff0000" stroke-width="0.01"/>
  <rect x="472.5" y="99.5" width="3.0" height="22.0" rx="1.5" ry="1.5" fill="none" stroke="#ff0000" stroke-width="0.01"/>
  <rect x="440.5" y="99.5" width="3.0" height="22.0" rx="1.5" ry="1.5" fill="none" stroke="#ff0000" stroke-width="0.01"/>
  <rect x="536.5" y="126.5" width="3.0" height="22.0" rx="1.5" ry="1.5" fill="none" stroke="#ff0000" stroke-width="0.01"/>
  <rect x="528.5" y="126.5" width="3.0" height="22.0" rx="1.5" ry="1.5" fill="none" stroke="#ff0000" stroke-width="0.01"/>
  <rect x="520.5" y="126.5" width="3.0" height="22.0" rx="1.5" ry="1.5" fill="none" stroke="#ff0000" stroke-width="0.01"/>
  <rect x="512.5" y="126.5" width="3.0" height="22.0" rx="1.5" ry="1.5" fill="none" stroke="#ff0000" stroke-width="0.01"/>
  <rect x="504.5" y="126.5" width="3.0" height="22.0" rx="1.5" ry="1.5" fill="none" stroke="#ff0000" stroke-width="0.01"/>
  <rect x="496.5" y="126.5" width="3.0" height="22.0" rx="1.5" ry="1.5" fill="none" stroke="#ff0000" stroke-width="0.01"/>
  <rect x="488.5" y="126.5" width="3.0" height="22.0" rx="1.5" ry="1.5" fill="none" stroke="#ff0000" stroke-width="0.01"/>
  <rect x="480.5" y="126.5" width="3.0" height="22.0" rx="1.5" ry="1.5" fill="none" stroke="#ff0000" stroke-width="0.01"/>
  <rect x="472.5" y="126.5" width="3.0" height="22.0" rx="1.5" ry="1.5" fill="none" stroke="#ff0000" stroke-width="0.01"/>
  <rect x="464.5" y="126.5" width="3.0" height="22.0" rx="1.5" ry="1.5" fill="none" stroke="#ff0000" stroke-width="0.01"/>
  <rect x="456.5" y="126.5" width="3.0" height="22.0" rx="1.5" ry="1.5" fill="none" stroke="#ff0000" stroke-width="0.01"/>
  <rect x="448.5" y="126.5" width="3.0" height="22.0" rx="1.5" ry="1.5" fill="none" stroke="#ff0000" stroke-width="0.01"/>
  <rect x="440.5" y="126.5" width="3.0" height="22.0" rx="1.5" ry="1.5" fill="none" stroke="#ff0000" stroke-width="0.01"/>
  <rect x="536.5" y="153.5" width="3.0" height="22.0" rx="1.5" ry="1.5" fill="none" stroke="#ff0000" stroke-width="0.01"/>
  <rect x="528.5" y="153.5" width="3.0" height="22.0" rx="1.5" ry="1.5" fill="none" stroke="#ff0000" stroke-width="0.01"/>
  <rect x="520.5" y="153.5" width="3.0" height="22.0" rx="1.5" ry="1.5" fill="none" stroke="#ff0000" stroke-width="0.01"/>
  <rect x="512.5" y="153.5" width="3.0" height="22.0" rx="1.5" ry="1.5" fill="none" stroke="#ff0000" stroke-width="0.01"/>
  <rect x="504.5" y="153.5" width="3.0" height="22.0" rx="1.5" ry="1.5" fill="none" stroke="#ff0000" stroke-width="0.01"/>
  <rect x="496.5" y="153.5" width="3.0" height="22.0" rx="1.5" ry="1.5" fill="none" stroke="#ff0000" stroke-width="0.01"/>
  <rect x="488.5" y="153.5" width="3.0" height="22.0" rx="1.5" ry="1.5" fill="none" stroke="#ff0000" stroke-width="0.01"/>
  <rect x="480.5" y="153.5" width="3.0" height="22.0" rx="1.5" ry="1.5" fill="none" stroke="#ff0000" stroke-width="0.01"/>
  <rect x="472.5" y="153.5" width="3.0" height="22.0" rx="1.5" ry="1.5" fill="none" stroke="#ff0000" stroke-width="0.01"/>
  <rect x="464.5" y="153.5" width="3.0" height="22.0" rx="1.5" ry="1.5" fill="none" stroke="#ff0000" stroke-width="0.01"/>
  <rect x="456.5" y="153.5" width="3.0" height="22.0" rx="1.5" ry="1.5" fill="none" stroke="#ff0000" stroke-width="0.01"/>
  <rect x="448.5" y="153.5" width="3.0" height="22.0" rx="1.5" ry="1.5" fill="none" stroke="#ff0000" stroke-width="0.01"/>
  <rect x="440.5" y="153.5" width="3.0" height="22.0" rx="1.5" ry="1.5" fill="none" stroke="#ff0000" stroke-width="0.01"/>
  <rect x="448.0" y="90.025" width="20.0" height="14.0" rx="3" ry="3" fill="none" stroke="#ff0000" stroke-width="0.01"/>
</svg>
